%TF.GenerationSoftware,KiCad,Pcbnew,9.0.7*%
%TF.CreationDate,2026-03-08T19:46:24+06:00*%
%TF.ProjectId,Tranceiver_101_PCB,5472616e-6365-4697-9665-725f3130315f,rev?*%
%TF.SameCoordinates,Original*%
%TF.FileFunction,Legend,Top*%
%TF.FilePolarity,Positive*%
%FSLAX46Y46*%
G04 Gerber Fmt 4.6, Leading zero omitted, Abs format (unit mm)*
G04 Created by KiCad (PCBNEW 9.0.7) date 2026-03-08 19:46:24*
%MOMM*%
%LPD*%
G01*
G04 APERTURE LIST*
%ADD10C,0.150000*%
%ADD11C,0.120000*%
%ADD12C,0.127000*%
%ADD13C,0.200000*%
G04 APERTURE END LIST*
D10*
X142879819Y-63551404D02*
X143689342Y-63551404D01*
X143689342Y-63551404D02*
X143784580Y-63503785D01*
X143784580Y-63503785D02*
X143832200Y-63456166D01*
X143832200Y-63456166D02*
X143879819Y-63360928D01*
X143879819Y-63360928D02*
X143879819Y-63170452D01*
X143879819Y-63170452D02*
X143832200Y-63075214D01*
X143832200Y-63075214D02*
X143784580Y-63027595D01*
X143784580Y-63027595D02*
X143689342Y-62979976D01*
X143689342Y-62979976D02*
X142879819Y-62979976D01*
X142879819Y-62027595D02*
X142879819Y-62503785D01*
X142879819Y-62503785D02*
X143356009Y-62551404D01*
X143356009Y-62551404D02*
X143308390Y-62503785D01*
X143308390Y-62503785D02*
X143260771Y-62408547D01*
X143260771Y-62408547D02*
X143260771Y-62170452D01*
X143260771Y-62170452D02*
X143308390Y-62075214D01*
X143308390Y-62075214D02*
X143356009Y-62027595D01*
X143356009Y-62027595D02*
X143451247Y-61979976D01*
X143451247Y-61979976D02*
X143689342Y-61979976D01*
X143689342Y-61979976D02*
X143784580Y-62027595D01*
X143784580Y-62027595D02*
X143832200Y-62075214D01*
X143832200Y-62075214D02*
X143879819Y-62170452D01*
X143879819Y-62170452D02*
X143879819Y-62408547D01*
X143879819Y-62408547D02*
X143832200Y-62503785D01*
X143832200Y-62503785D02*
X143784580Y-62551404D01*
X116803333Y-58354200D02*
X117003333Y-58420866D01*
X117003333Y-58420866D02*
X117336667Y-58420866D01*
X117336667Y-58420866D02*
X117470000Y-58354200D01*
X117470000Y-58354200D02*
X117536667Y-58287533D01*
X117536667Y-58287533D02*
X117603333Y-58154200D01*
X117603333Y-58154200D02*
X117603333Y-58020866D01*
X117603333Y-58020866D02*
X117536667Y-57887533D01*
X117536667Y-57887533D02*
X117470000Y-57820866D01*
X117470000Y-57820866D02*
X117336667Y-57754200D01*
X117336667Y-57754200D02*
X117070000Y-57687533D01*
X117070000Y-57687533D02*
X116936667Y-57620866D01*
X116936667Y-57620866D02*
X116870000Y-57554200D01*
X116870000Y-57554200D02*
X116803333Y-57420866D01*
X116803333Y-57420866D02*
X116803333Y-57287533D01*
X116803333Y-57287533D02*
X116870000Y-57154200D01*
X116870000Y-57154200D02*
X116936667Y-57087533D01*
X116936667Y-57087533D02*
X117070000Y-57020866D01*
X117070000Y-57020866D02*
X117403333Y-57020866D01*
X117403333Y-57020866D02*
X117603333Y-57087533D01*
X118936666Y-58420866D02*
X118136666Y-58420866D01*
X118536666Y-58420866D02*
X118536666Y-57020866D01*
X118536666Y-57020866D02*
X118403333Y-57220866D01*
X118403333Y-57220866D02*
X118270000Y-57354200D01*
X118270000Y-57354200D02*
X118136666Y-57420866D01*
X114993095Y-73069819D02*
X114993095Y-73879342D01*
X114993095Y-73879342D02*
X115040714Y-73974580D01*
X115040714Y-73974580D02*
X115088333Y-74022200D01*
X115088333Y-74022200D02*
X115183571Y-74069819D01*
X115183571Y-74069819D02*
X115374047Y-74069819D01*
X115374047Y-74069819D02*
X115469285Y-74022200D01*
X115469285Y-74022200D02*
X115516904Y-73974580D01*
X115516904Y-73974580D02*
X115564523Y-73879342D01*
X115564523Y-73879342D02*
X115564523Y-73069819D01*
X115993095Y-73165057D02*
X116040714Y-73117438D01*
X116040714Y-73117438D02*
X116135952Y-73069819D01*
X116135952Y-73069819D02*
X116374047Y-73069819D01*
X116374047Y-73069819D02*
X116469285Y-73117438D01*
X116469285Y-73117438D02*
X116516904Y-73165057D01*
X116516904Y-73165057D02*
X116564523Y-73260295D01*
X116564523Y-73260295D02*
X116564523Y-73355533D01*
X116564523Y-73355533D02*
X116516904Y-73498390D01*
X116516904Y-73498390D02*
X115945476Y-74069819D01*
X115945476Y-74069819D02*
X116564523Y-74069819D01*
X149028735Y-64939104D02*
X149504925Y-64939104D01*
X148933497Y-65224819D02*
X149266830Y-64224819D01*
X149266830Y-64224819D02*
X149600163Y-65224819D01*
X150457306Y-65224819D02*
X149885878Y-65224819D01*
X150171592Y-65224819D02*
X150171592Y-64224819D01*
X150171592Y-64224819D02*
X150076354Y-64367676D01*
X150076354Y-64367676D02*
X149981116Y-64462914D01*
X149981116Y-64462914D02*
X149885878Y-64510533D01*
X148481116Y-104864819D02*
X148481116Y-105674342D01*
X148481116Y-105674342D02*
X148528735Y-105769580D01*
X148528735Y-105769580D02*
X148576354Y-105817200D01*
X148576354Y-105817200D02*
X148671592Y-105864819D01*
X148671592Y-105864819D02*
X148862068Y-105864819D01*
X148862068Y-105864819D02*
X148957306Y-105817200D01*
X148957306Y-105817200D02*
X149004925Y-105769580D01*
X149004925Y-105769580D02*
X149052544Y-105674342D01*
X149052544Y-105674342D02*
X149052544Y-104864819D01*
X149481116Y-105817200D02*
X149623973Y-105864819D01*
X149623973Y-105864819D02*
X149862068Y-105864819D01*
X149862068Y-105864819D02*
X149957306Y-105817200D01*
X149957306Y-105817200D02*
X150004925Y-105769580D01*
X150004925Y-105769580D02*
X150052544Y-105674342D01*
X150052544Y-105674342D02*
X150052544Y-105579104D01*
X150052544Y-105579104D02*
X150004925Y-105483866D01*
X150004925Y-105483866D02*
X149957306Y-105436247D01*
X149957306Y-105436247D02*
X149862068Y-105388628D01*
X149862068Y-105388628D02*
X149671592Y-105341009D01*
X149671592Y-105341009D02*
X149576354Y-105293390D01*
X149576354Y-105293390D02*
X149528735Y-105245771D01*
X149528735Y-105245771D02*
X149481116Y-105150533D01*
X149481116Y-105150533D02*
X149481116Y-105055295D01*
X149481116Y-105055295D02*
X149528735Y-104960057D01*
X149528735Y-104960057D02*
X149576354Y-104912438D01*
X149576354Y-104912438D02*
X149671592Y-104864819D01*
X149671592Y-104864819D02*
X149909687Y-104864819D01*
X149909687Y-104864819D02*
X150052544Y-104912438D01*
X150814449Y-105341009D02*
X150957306Y-105388628D01*
X150957306Y-105388628D02*
X151004925Y-105436247D01*
X151004925Y-105436247D02*
X151052544Y-105531485D01*
X151052544Y-105531485D02*
X151052544Y-105674342D01*
X151052544Y-105674342D02*
X151004925Y-105769580D01*
X151004925Y-105769580D02*
X150957306Y-105817200D01*
X150957306Y-105817200D02*
X150862068Y-105864819D01*
X150862068Y-105864819D02*
X150481116Y-105864819D01*
X150481116Y-105864819D02*
X150481116Y-104864819D01*
X150481116Y-104864819D02*
X150814449Y-104864819D01*
X150814449Y-104864819D02*
X150909687Y-104912438D01*
X150909687Y-104912438D02*
X150957306Y-104960057D01*
X150957306Y-104960057D02*
X151004925Y-105055295D01*
X151004925Y-105055295D02*
X151004925Y-105150533D01*
X151004925Y-105150533D02*
X150957306Y-105245771D01*
X150957306Y-105245771D02*
X150909687Y-105293390D01*
X150909687Y-105293390D02*
X150814449Y-105341009D01*
X150814449Y-105341009D02*
X150481116Y-105341009D01*
X175063095Y-73019819D02*
X175063095Y-73829342D01*
X175063095Y-73829342D02*
X175110714Y-73924580D01*
X175110714Y-73924580D02*
X175158333Y-73972200D01*
X175158333Y-73972200D02*
X175253571Y-74019819D01*
X175253571Y-74019819D02*
X175444047Y-74019819D01*
X175444047Y-74019819D02*
X175539285Y-73972200D01*
X175539285Y-73972200D02*
X175586904Y-73924580D01*
X175586904Y-73924580D02*
X175634523Y-73829342D01*
X175634523Y-73829342D02*
X175634523Y-73019819D01*
X176015476Y-73019819D02*
X176634523Y-73019819D01*
X176634523Y-73019819D02*
X176301190Y-73400771D01*
X176301190Y-73400771D02*
X176444047Y-73400771D01*
X176444047Y-73400771D02*
X176539285Y-73448390D01*
X176539285Y-73448390D02*
X176586904Y-73496009D01*
X176586904Y-73496009D02*
X176634523Y-73591247D01*
X176634523Y-73591247D02*
X176634523Y-73829342D01*
X176634523Y-73829342D02*
X176586904Y-73924580D01*
X176586904Y-73924580D02*
X176539285Y-73972200D01*
X176539285Y-73972200D02*
X176444047Y-74019819D01*
X176444047Y-74019819D02*
X176158333Y-74019819D01*
X176158333Y-74019819D02*
X176063095Y-73972200D01*
X176063095Y-73972200D02*
X176015476Y-73924580D01*
D11*
%TO.C,U5*%
X144325000Y-35189500D02*
X159775000Y-35189500D01*
X144325000Y-64389500D02*
X144325000Y-35189500D01*
X144325000Y-64389500D02*
X144325000Y-64389500D01*
X144901000Y-58725500D02*
X155569000Y-58725500D01*
X144901000Y-64059500D02*
X144901000Y-58725500D01*
X144901000Y-64059500D02*
X144901000Y-64059500D01*
X155569000Y-58725500D02*
X155569000Y-64059500D01*
X155569000Y-64059500D02*
X144901000Y-64059500D01*
X155569000Y-64059500D02*
X155569000Y-64059500D01*
X159775000Y-35189500D02*
X159775000Y-64389500D01*
X159775000Y-64389500D02*
X144325000Y-64389500D01*
X146665000Y-64925500D02*
X146185000Y-64925500D01*
X146425000Y-64589500D01*
X146665000Y-64925500D01*
G36*
X146665000Y-64925500D02*
G01*
X146185000Y-64925500D01*
X146425000Y-64589500D01*
X146665000Y-64925500D01*
G37*
D12*
%TO.C,S1*%
X113805000Y-59180000D02*
X113805000Y-68320000D01*
X113805000Y-59180000D02*
X121935000Y-59180000D01*
X121935000Y-68320000D02*
X113805000Y-68320000D01*
X121935000Y-68320000D02*
X121935000Y-59180000D01*
D13*
X112890000Y-61210000D02*
G75*
G02*
X112690000Y-61210000I-100000J0D01*
G01*
X112690000Y-61210000D02*
G75*
G02*
X112890000Y-61210000I100000J0D01*
G01*
D12*
%TO.C,U2*%
X107280000Y-83950000D02*
X110430000Y-83950000D01*
X107280000Y-93750000D02*
X107280000Y-83950000D01*
X110430000Y-93750000D02*
X107280000Y-93750000D01*
X110430000Y-94020000D02*
X110430000Y-93750000D01*
X112310000Y-80850000D02*
X112930000Y-80850000D01*
X112930000Y-74550000D02*
X123830000Y-74550000D01*
X112930000Y-80850000D02*
X112930000Y-74550000D01*
X113530000Y-96750000D02*
X112310000Y-96750000D01*
X113530000Y-99950000D02*
X113530000Y-96750000D01*
X123230000Y-96750000D02*
X123230000Y-99950000D01*
X123830000Y-74550000D02*
X123830000Y-80850000D01*
X123830000Y-80850000D02*
X124460000Y-80850000D01*
X124460000Y-96750000D02*
X123230000Y-96750000D01*
X126330000Y-84750000D02*
X127880000Y-84750000D01*
X126330000Y-92850000D02*
X126330000Y-93970000D01*
X127880000Y-84750000D02*
X127880000Y-92850000D01*
X127880000Y-92850000D02*
X126330000Y-92850000D01*
D13*
X112430000Y-75500000D02*
G75*
G02*
X112230000Y-75500000I-100000J0D01*
G01*
X112230000Y-75500000D02*
G75*
G02*
X112430000Y-75500000I100000J0D01*
G01*
D11*
%TO.C,A1*%
X140723021Y-65910000D02*
X140723021Y-68580000D01*
X140723021Y-71120000D02*
X140723021Y-109350000D01*
X140723021Y-109350000D02*
X145803021Y-109350000D01*
X143393021Y-68580000D02*
X140723021Y-68580000D01*
X143393021Y-71120000D02*
X140723021Y-71120000D01*
X143393021Y-71120000D02*
X143393021Y-68580000D01*
X143393021Y-71120000D02*
X143393021Y-106680000D01*
X143393021Y-106680000D02*
X140723021Y-106680000D01*
X145803021Y-101470000D02*
X153683021Y-101470000D01*
X145803021Y-111890000D02*
X145803021Y-101470000D01*
X153683021Y-101470000D02*
X153683021Y-111890000D01*
X153683021Y-111890000D02*
X145803021Y-111890000D01*
X156093021Y-68580000D02*
X156093021Y-106680000D01*
X156093021Y-68580000D02*
X158763021Y-68580000D01*
X156093021Y-106680000D02*
X158763021Y-106680000D01*
X158763021Y-65910000D02*
X140723021Y-65910000D01*
X158763021Y-109350000D02*
X153683021Y-109350000D01*
X158763021Y-109350000D02*
X158763021Y-65910000D01*
D12*
%TO.C,U3*%
X167350000Y-83900000D02*
X170500000Y-83900000D01*
X167350000Y-93700000D02*
X167350000Y-83900000D01*
X170500000Y-93700000D02*
X167350000Y-93700000D01*
X170500000Y-93970000D02*
X170500000Y-93700000D01*
X172380000Y-80800000D02*
X173000000Y-80800000D01*
X173000000Y-74500000D02*
X183900000Y-74500000D01*
X173000000Y-80800000D02*
X173000000Y-74500000D01*
X173600000Y-96700000D02*
X172380000Y-96700000D01*
X173600000Y-99900000D02*
X173600000Y-96700000D01*
X183300000Y-96700000D02*
X183300000Y-99900000D01*
X183900000Y-74500000D02*
X183900000Y-80800000D01*
X183900000Y-80800000D02*
X184530000Y-80800000D01*
X184530000Y-96700000D02*
X183300000Y-96700000D01*
X186400000Y-84700000D02*
X187950000Y-84700000D01*
X186400000Y-92800000D02*
X186400000Y-93920000D01*
X187950000Y-84700000D02*
X187950000Y-92800000D01*
X187950000Y-92800000D02*
X186400000Y-92800000D01*
D13*
X172500000Y-75450000D02*
G75*
G02*
X172300000Y-75450000I-100000J0D01*
G01*
X172300000Y-75450000D02*
G75*
G02*
X172500000Y-75450000I100000J0D01*
G01*
%TD*%
M02*
