%TF.GenerationSoftware,KiCad,Pcbnew,9.0.7*%
%TF.CreationDate,2026-03-09T17:10:09+06:00*%
%TF.ProjectId,Tranceiver_101_PCB_rece,5472616e-6365-4697-9665-725f3130315f,rev?*%
%TF.SameCoordinates,Original*%
%TF.FileFunction,Legend,Bot*%
%TF.FilePolarity,Positive*%
%FSLAX46Y46*%
G04 Gerber Fmt 4.6, Leading zero omitted, Abs format (unit mm)*
G04 Created by KiCad (PCBNEW 9.0.7) date 2026-03-09 17:10:09*
%MOMM*%
%LPD*%
G01*
G04 APERTURE LIST*
%ADD10C,0.300000*%
%ADD11C,0.000000*%
G04 APERTURE END LIST*
D10*
X159876870Y-100049757D02*
X160019728Y-99978328D01*
X160019728Y-99978328D02*
X160234013Y-99978328D01*
X160234013Y-99978328D02*
X160448299Y-100049757D01*
X160448299Y-100049757D02*
X160591156Y-100192614D01*
X160591156Y-100192614D02*
X160662585Y-100335471D01*
X160662585Y-100335471D02*
X160734013Y-100621185D01*
X160734013Y-100621185D02*
X160734013Y-100835471D01*
X160734013Y-100835471D02*
X160662585Y-101121185D01*
X160662585Y-101121185D02*
X160591156Y-101264042D01*
X160591156Y-101264042D02*
X160448299Y-101406900D01*
X160448299Y-101406900D02*
X160234013Y-101478328D01*
X160234013Y-101478328D02*
X160091156Y-101478328D01*
X160091156Y-101478328D02*
X159876870Y-101406900D01*
X159876870Y-101406900D02*
X159805442Y-101335471D01*
X159805442Y-101335471D02*
X159805442Y-100835471D01*
X159805442Y-100835471D02*
X160091156Y-100835471D01*
X158948299Y-99978328D02*
X158948299Y-100335471D01*
X159305442Y-100192614D02*
X158948299Y-100335471D01*
X158948299Y-100335471D02*
X158591156Y-100192614D01*
X159162585Y-100621185D02*
X158948299Y-100335471D01*
X158948299Y-100335471D02*
X158734013Y-100621185D01*
X157805442Y-99978328D02*
X157805442Y-100335471D01*
X158162585Y-100192614D02*
X157805442Y-100335471D01*
X157805442Y-100335471D02*
X157448299Y-100192614D01*
X158019728Y-100621185D02*
X157805442Y-100335471D01*
X157805442Y-100335471D02*
X157591156Y-100621185D01*
X156662585Y-99978328D02*
X156662585Y-100335471D01*
X157019728Y-100192614D02*
X156662585Y-100335471D01*
X156662585Y-100335471D02*
X156305442Y-100192614D01*
X156876871Y-100621185D02*
X156662585Y-100335471D01*
X156662585Y-100335471D02*
X156448299Y-100621185D01*
D11*
%TO.C,G\u002A\u002A\u002A*%
G36*
X143590313Y-108918838D02*
G01*
X143564862Y-108944289D01*
X143539411Y-108918838D01*
X143564862Y-108893387D01*
X143590313Y-108918838D01*
G37*
G36*
X151072878Y-93495591D02*
G01*
X151047427Y-93521042D01*
X151021977Y-93495591D01*
X151047427Y-93470140D01*
X151072878Y-93495591D01*
G37*
G36*
X156621175Y-96193387D02*
G01*
X156595724Y-96218838D01*
X156570273Y-96193387D01*
X156595724Y-96167936D01*
X156621175Y-96193387D01*
G37*
G36*
X157079291Y-95938878D02*
G01*
X157053840Y-95964329D01*
X157028389Y-95938878D01*
X157053840Y-95913427D01*
X157079291Y-95938878D01*
G37*
G36*
X157282898Y-95786172D02*
G01*
X157257447Y-95811623D01*
X157231997Y-95786172D01*
X157257447Y-95760721D01*
X157282898Y-95786172D01*
G37*
G36*
X157333800Y-93241082D02*
G01*
X157308349Y-93266533D01*
X157282898Y-93241082D01*
X157308349Y-93215631D01*
X157333800Y-93241082D01*
G37*
G36*
X157791916Y-95277154D02*
G01*
X157766465Y-95302605D01*
X157741015Y-95277154D01*
X157766465Y-95251703D01*
X157791916Y-95277154D01*
G37*
G36*
X158860854Y-91561323D02*
G01*
X158835403Y-91586774D01*
X158809952Y-91561323D01*
X158835403Y-91535872D01*
X158860854Y-91561323D01*
G37*
G36*
X159929792Y-107086373D02*
G01*
X159904341Y-107111824D01*
X159878890Y-107086373D01*
X159904341Y-107060922D01*
X159929792Y-107086373D01*
G37*
G36*
X161355043Y-105457515D02*
G01*
X161329592Y-105482966D01*
X161304141Y-105457515D01*
X161329592Y-105432064D01*
X161355043Y-105457515D01*
G37*
G36*
X163798329Y-101588978D02*
G01*
X163772878Y-101614429D01*
X163747427Y-101588978D01*
X163772878Y-101563527D01*
X163798329Y-101588978D01*
G37*
G36*
X163951035Y-101894389D02*
G01*
X163925584Y-101919840D01*
X163900133Y-101894389D01*
X163925584Y-101868938D01*
X163951035Y-101894389D01*
G37*
G36*
X165121776Y-97313226D02*
G01*
X165096325Y-97338677D01*
X165070874Y-97313226D01*
X165096325Y-97287776D01*
X165121776Y-97313226D01*
G37*
G36*
X165427187Y-96193387D02*
G01*
X165401736Y-96218838D01*
X165376285Y-96193387D01*
X165401736Y-96167936D01*
X165427187Y-96193387D01*
G37*
G36*
X152762182Y-93129958D02*
G01*
X152785743Y-93148280D01*
X152731429Y-93160711D01*
X152679801Y-93157112D01*
X152664620Y-93133976D01*
X152682629Y-93123889D01*
X152762182Y-93129958D01*
G37*
G36*
X153244689Y-93283500D02*
G01*
X153252652Y-93298811D01*
X153210754Y-93317435D01*
X153183807Y-93313761D01*
X153176820Y-93283500D01*
X153184280Y-93277408D01*
X153244689Y-93283500D01*
G37*
G36*
X153579792Y-93385527D02*
G01*
X153588427Y-93403202D01*
X153516165Y-93411201D01*
X153446143Y-93404106D01*
X153452538Y-93385527D01*
X153475579Y-93378804D01*
X153579792Y-93385527D01*
G37*
G36*
X154238334Y-93537172D02*
G01*
X154261895Y-93555494D01*
X154207581Y-93567925D01*
X154155953Y-93564326D01*
X154140772Y-93541191D01*
X154158781Y-93531104D01*
X154238334Y-93537172D01*
G37*
G36*
X155484368Y-94199733D02*
G01*
X155492331Y-94215043D01*
X155450433Y-94233667D01*
X155423486Y-94229994D01*
X155416499Y-94199733D01*
X155423959Y-94193641D01*
X155484368Y-94199733D01*
G37*
G36*
X155942484Y-96490314D02*
G01*
X155950448Y-96505624D01*
X155908550Y-96524248D01*
X155881602Y-96520575D01*
X155874615Y-96490314D01*
X155882076Y-96484222D01*
X155942484Y-96490314D01*
G37*
G36*
X156325308Y-96336771D02*
G01*
X156348869Y-96355093D01*
X156294555Y-96367524D01*
X156242927Y-96363925D01*
X156227746Y-96340790D01*
X156245755Y-96330703D01*
X156325308Y-96336771D01*
G37*
G36*
X156349699Y-93792518D02*
G01*
X156357662Y-93807829D01*
X156315764Y-93826453D01*
X156288817Y-93822779D01*
X156281830Y-93792518D01*
X156289290Y-93786426D01*
X156349699Y-93792518D01*
G37*
G36*
X156502404Y-96235805D02*
G01*
X156510367Y-96251115D01*
X156468469Y-96269739D01*
X156441522Y-96266066D01*
X156434535Y-96235805D01*
X156441995Y-96229713D01*
X156502404Y-96235805D01*
G37*
G36*
X157113226Y-93130795D02*
G01*
X157121189Y-93146105D01*
X157079291Y-93164729D01*
X157052344Y-93161056D01*
X157045357Y-93130795D01*
X157052817Y-93124703D01*
X157113226Y-93130795D01*
G37*
G36*
X157113226Y-93385304D02*
G01*
X157121189Y-93400614D01*
X157079291Y-93419238D01*
X157052344Y-93415565D01*
X157045357Y-93385304D01*
X157052817Y-93379212D01*
X157113226Y-93385304D01*
G37*
G36*
X157418636Y-95675885D02*
G01*
X157426600Y-95691195D01*
X157384702Y-95709820D01*
X157357755Y-95706146D01*
X157350767Y-95675885D01*
X157358228Y-95669793D01*
X157418636Y-95675885D01*
G37*
G36*
X158046425Y-94997194D02*
G01*
X158042752Y-95024142D01*
X158012491Y-95031129D01*
X158006399Y-95023668D01*
X158012491Y-94963260D01*
X158027801Y-94955296D01*
X158046425Y-94997194D01*
G37*
G36*
X160082498Y-93622846D02*
G01*
X160078824Y-93649793D01*
X160048563Y-93656780D01*
X160042471Y-93649320D01*
X160048563Y-93588911D01*
X160063873Y-93580948D01*
X160082498Y-93622846D01*
G37*
G36*
X160337007Y-94182765D02*
G01*
X160333333Y-94209713D01*
X160303072Y-94216700D01*
X160296980Y-94209239D01*
X160303072Y-94148831D01*
X160318382Y-94140868D01*
X160337007Y-94182765D01*
G37*
G36*
X161805122Y-99985571D02*
G01*
X161798026Y-100055593D01*
X161779448Y-100049198D01*
X161772725Y-100026157D01*
X161779448Y-99921944D01*
X161797122Y-99913309D01*
X161805122Y-99985571D01*
G37*
G36*
X161965864Y-100800000D02*
G01*
X161962191Y-100826947D01*
X161931930Y-100833935D01*
X161925838Y-100826474D01*
X161931930Y-100766065D01*
X161947240Y-100758102D01*
X161965864Y-100800000D01*
G37*
G36*
X162059631Y-101105411D02*
G01*
X162052535Y-101175432D01*
X162033957Y-101169038D01*
X162027234Y-101145997D01*
X162033957Y-101041784D01*
X162051631Y-101033149D01*
X162059631Y-101105411D01*
G37*
G36*
X162474882Y-92350301D02*
G01*
X162471209Y-92377248D01*
X162440948Y-92384235D01*
X162434856Y-92376775D01*
X162440948Y-92316366D01*
X162456258Y-92308403D01*
X162474882Y-92350301D01*
G37*
G36*
X162576686Y-87972745D02*
G01*
X162573012Y-87999693D01*
X162542751Y-88006680D01*
X162536659Y-87999219D01*
X162542751Y-87938811D01*
X162558062Y-87930848D01*
X162576686Y-87972745D01*
G37*
G36*
X163136606Y-99883768D02*
G01*
X163132932Y-99910715D01*
X163102671Y-99917702D01*
X163096579Y-99910241D01*
X163102671Y-99849833D01*
X163117982Y-99841870D01*
X163136606Y-99883768D01*
G37*
G36*
X163289311Y-100392786D02*
G01*
X163285638Y-100419733D01*
X163255377Y-100426720D01*
X163249285Y-100419260D01*
X163255377Y-100358851D01*
X163270687Y-100350888D01*
X163289311Y-100392786D01*
G37*
G36*
X164761445Y-98581530D02*
G01*
X164757846Y-98633157D01*
X164734710Y-98648338D01*
X164724624Y-98630330D01*
X164730692Y-98550777D01*
X164749014Y-98527216D01*
X164761445Y-98581530D01*
G37*
G36*
X164863249Y-98174315D02*
G01*
X164859649Y-98225943D01*
X164836514Y-98241124D01*
X164826427Y-98223115D01*
X164832495Y-98143562D01*
X164850817Y-98120001D01*
X164863249Y-98174315D01*
G37*
G36*
X165015954Y-97614395D02*
G01*
X165012355Y-97666023D01*
X164989219Y-97681204D01*
X164979133Y-97663196D01*
X164985201Y-97583642D01*
X165003523Y-97560081D01*
X165015954Y-97614395D01*
G37*
G36*
X165266444Y-96676954D02*
G01*
X165259349Y-96746976D01*
X165240770Y-96740581D01*
X165234047Y-96717540D01*
X165240770Y-96613327D01*
X165258445Y-96604692D01*
X165266444Y-96676954D01*
G37*
G36*
X165579892Y-95709820D02*
G01*
X165576219Y-95736767D01*
X165545958Y-95743754D01*
X165539866Y-95736294D01*
X165545958Y-95675885D01*
X165561268Y-95667922D01*
X165579892Y-95709820D01*
G37*
G36*
X165681696Y-95455311D02*
G01*
X165678022Y-95482258D01*
X165647761Y-95489245D01*
X165641669Y-95481785D01*
X165647761Y-95421376D01*
X165663072Y-95413413D01*
X165681696Y-95455311D01*
G37*
G36*
X157511596Y-93114411D02*
G01*
X157501624Y-93127760D01*
X157432600Y-93164729D01*
X157404053Y-93162042D01*
X157392051Y-93135481D01*
X157463698Y-93094406D01*
X157503403Y-93085485D01*
X157511596Y-93114411D01*
G37*
G36*
X162304329Y-89477577D02*
G01*
X162309340Y-89576152D01*
X162308683Y-89630076D01*
X162300962Y-89703174D01*
X162287203Y-89691275D01*
X162277981Y-89620299D01*
X162286176Y-89487668D01*
X162292832Y-89462621D01*
X162304329Y-89477577D01*
G37*
G36*
X162305061Y-91341462D02*
G01*
X162310368Y-91434068D01*
X162309875Y-91468604D01*
X162301843Y-91538988D01*
X162287089Y-91523146D01*
X162279173Y-91474089D01*
X162287089Y-91344990D01*
X162291848Y-91330548D01*
X162305061Y-91341462D01*
G37*
G36*
X162457048Y-88320769D02*
G01*
X162461018Y-88430862D01*
X162459534Y-88505560D01*
X162451547Y-88569512D01*
X162438959Y-88545391D01*
X162430538Y-88464660D01*
X162438959Y-88316333D01*
X162446895Y-88290547D01*
X162457048Y-88320769D01*
G37*
G36*
X164491615Y-102804230D02*
G01*
X164510954Y-102886974D01*
X164507323Y-102945942D01*
X164491440Y-102988778D01*
X164474853Y-102969207D01*
X164445304Y-102886974D01*
X164438635Y-102825707D01*
X164464818Y-102785170D01*
X164491615Y-102804230D01*
G37*
G36*
X164602835Y-99552906D02*
G01*
X164602905Y-99564960D01*
X164596080Y-99644645D01*
X164579370Y-99642953D01*
X164570032Y-99601127D01*
X164577484Y-99490247D01*
X164580002Y-99481495D01*
X164595495Y-99473959D01*
X164602835Y-99552906D01*
G37*
G36*
X158771940Y-91663365D02*
G01*
X158721185Y-91745700D01*
X158625554Y-91865042D01*
X158552272Y-91950106D01*
X158392261Y-92138735D01*
X158250033Y-92309584D01*
X158193439Y-92376880D01*
X158032464Y-92557632D01*
X157878851Y-92718490D01*
X157847581Y-92749310D01*
X157724342Y-92863204D01*
X157664429Y-92902839D01*
X157669450Y-92867762D01*
X157741015Y-92757515D01*
X157757243Y-92735383D01*
X157838225Y-92642497D01*
X157894256Y-92604810D01*
X157894967Y-92604756D01*
X157944300Y-92564616D01*
X158042091Y-92460359D01*
X158174502Y-92307422D01*
X158327697Y-92121242D01*
X158332926Y-92114748D01*
X158486510Y-91929252D01*
X158619948Y-91777586D01*
X158719088Y-91675233D01*
X158769775Y-91637675D01*
X158771940Y-91663365D01*
G37*
G36*
X144302938Y-110776753D02*
G01*
X144305313Y-110852050D01*
X144307949Y-111031968D01*
X144310268Y-111302526D01*
X144312264Y-111657570D01*
X144313927Y-112090947D01*
X144315251Y-112596505D01*
X144316228Y-113168090D01*
X144316849Y-113799549D01*
X144317108Y-114484730D01*
X144316996Y-115217479D01*
X144316505Y-115991644D01*
X144315629Y-116801071D01*
X144314358Y-117639608D01*
X144312686Y-118501102D01*
X144296983Y-125792786D01*
X143918197Y-125792786D01*
X143539411Y-125792786D01*
X143539411Y-118462926D01*
X143539430Y-117778865D01*
X143539558Y-116834521D01*
X143539856Y-115983856D01*
X143540384Y-115221995D01*
X143541202Y-114544061D01*
X143542369Y-113945181D01*
X143543944Y-113420479D01*
X143545985Y-112965081D01*
X143548554Y-112574111D01*
X143551708Y-112242693D01*
X143555506Y-111965955D01*
X143560009Y-111739019D01*
X143565276Y-111557011D01*
X143571365Y-111415057D01*
X143578335Y-111308281D01*
X143586247Y-111231808D01*
X143595159Y-111180763D01*
X143605131Y-111150271D01*
X143616221Y-111135458D01*
X143628490Y-111131447D01*
X143744822Y-111099989D01*
X143851548Y-111014175D01*
X143895724Y-110906356D01*
X143916165Y-110848842D01*
X144000641Y-110790688D01*
X144017280Y-110784624D01*
X144109057Y-110701505D01*
X144191523Y-110553670D01*
X144277488Y-110344088D01*
X144302938Y-110776753D01*
G37*
G36*
X146657147Y-125907288D02*
G01*
X146995153Y-125909424D01*
X147630092Y-125913746D01*
X148175012Y-125918562D01*
X148637883Y-125924699D01*
X149026676Y-125932986D01*
X149349359Y-125944248D01*
X149613901Y-125959316D01*
X149828273Y-125979015D01*
X150000444Y-126004175D01*
X150138382Y-126035622D01*
X150250058Y-126074185D01*
X150343441Y-126120692D01*
X150426501Y-126175969D01*
X150507206Y-126240845D01*
X150593526Y-126316148D01*
X150634389Y-126354415D01*
X150762134Y-126495538D01*
X150892758Y-126664150D01*
X151008401Y-126834564D01*
X151091202Y-126981095D01*
X151123302Y-127078056D01*
X151123254Y-127078568D01*
X151072814Y-127093213D01*
X150940837Y-127105186D01*
X150746937Y-127113267D01*
X150510727Y-127116232D01*
X150423430Y-127116021D01*
X150176060Y-127111546D01*
X150015223Y-127100312D01*
X149929115Y-127081079D01*
X149905936Y-127052605D01*
X149911796Y-126928705D01*
X149874510Y-126837679D01*
X149778927Y-126810822D01*
X149751004Y-126811993D01*
X149667266Y-126850571D01*
X149622177Y-126963527D01*
X149588637Y-127116232D01*
X149181046Y-127116232D01*
X148997749Y-127115287D01*
X148865281Y-127107331D01*
X148789953Y-127084577D01*
X148748040Y-127039238D01*
X148715814Y-126963527D01*
X148646687Y-126848584D01*
X148542079Y-126810822D01*
X148498779Y-126813722D01*
X148440458Y-126853570D01*
X148425985Y-126963527D01*
X148425985Y-127116232D01*
X147283919Y-127116232D01*
X146141853Y-127116232D01*
X146125903Y-126950802D01*
X146120991Y-126910895D01*
X146081791Y-126808103D01*
X145995423Y-126769105D01*
X145925930Y-126768577D01*
X145889096Y-126814165D01*
X145880894Y-126934536D01*
X145880894Y-127116232D01*
X145142818Y-127116232D01*
X144404742Y-127116232D01*
X144404742Y-126938076D01*
X144401414Y-126857649D01*
X144373104Y-126779849D01*
X144302938Y-126759920D01*
X144256980Y-126765743D01*
X144212523Y-126815287D01*
X144201135Y-126938076D01*
X144201135Y-127116232D01*
X143870273Y-127116232D01*
X143539411Y-127116232D01*
X143539411Y-126501929D01*
X143539411Y-125887626D01*
X146657147Y-125907288D01*
G37*
G36*
X144253642Y-83271509D02*
G01*
X144188713Y-83324758D01*
X144074491Y-83369137D01*
X144026255Y-83387008D01*
X143909172Y-83443542D01*
X143853917Y-83491553D01*
X143843583Y-83510040D01*
X143770930Y-83544289D01*
X143757675Y-83547422D01*
X143711686Y-83614319D01*
X143680049Y-83746544D01*
X143667604Y-83915223D01*
X143679192Y-84091483D01*
X143693568Y-84164513D01*
X143739549Y-84238760D01*
X143833866Y-84256914D01*
X143992071Y-84216813D01*
X144107407Y-84100350D01*
X144150233Y-83927892D01*
X144169809Y-83791219D01*
X144222012Y-83669189D01*
X144239607Y-83645755D01*
X144279489Y-83611602D01*
X144306704Y-83649683D01*
X144336542Y-83773989D01*
X144339084Y-83791982D01*
X144346266Y-83909726D01*
X144352920Y-84117058D01*
X144358943Y-84404862D01*
X144364233Y-84764021D01*
X144368687Y-85185416D01*
X144372205Y-85659931D01*
X144374684Y-86178448D01*
X144376021Y-86731851D01*
X144376116Y-87311022D01*
X144375957Y-87482847D01*
X144375489Y-88061998D01*
X144375142Y-88616644D01*
X144374917Y-89137123D01*
X144374813Y-89613773D01*
X144374831Y-90036932D01*
X144374970Y-90396936D01*
X144375231Y-90684125D01*
X144375612Y-90888834D01*
X144376116Y-91001403D01*
X144376394Y-91033932D01*
X144378146Y-91317593D01*
X144379395Y-91672671D01*
X144380168Y-92090504D01*
X144380493Y-92562431D01*
X144380400Y-93079792D01*
X144379916Y-93633926D01*
X144379070Y-94216170D01*
X144377890Y-94817866D01*
X144376405Y-95430350D01*
X144374643Y-96044963D01*
X144372632Y-96653044D01*
X144370401Y-97245931D01*
X144367978Y-97814964D01*
X144365392Y-98351480D01*
X144362670Y-98846821D01*
X144359842Y-99292323D01*
X144356936Y-99679328D01*
X144353979Y-99999172D01*
X144351001Y-100243196D01*
X144348030Y-100402738D01*
X144345094Y-100469138D01*
X144325476Y-100581973D01*
X144324565Y-100587211D01*
X144310906Y-100663024D01*
X144301352Y-100677326D01*
X144243386Y-100667399D01*
X144209139Y-100657801D01*
X144217936Y-100715297D01*
X144235372Y-100758607D01*
X144286073Y-100884535D01*
X144291736Y-100899599D01*
X144288023Y-100948041D01*
X144209720Y-100940202D01*
X144150731Y-100928077D01*
X144107518Y-100942016D01*
X144124584Y-101009342D01*
X144201325Y-101144817D01*
X144227956Y-101190536D01*
X144276685Y-101286659D01*
X144303898Y-101355880D01*
X144302147Y-101376542D01*
X144263983Y-101326989D01*
X144227008Y-101293426D01*
X144124782Y-101258009D01*
X144046315Y-101257149D01*
X143926080Y-101279858D01*
X143841417Y-101321449D01*
X143825360Y-101369610D01*
X143837633Y-101417145D01*
X143848845Y-101544586D01*
X143851513Y-101712857D01*
X143851525Y-101719237D01*
X143851737Y-101830490D01*
X143866794Y-101961727D01*
X143911344Y-102052808D01*
X143998362Y-102141620D01*
X144066349Y-102198389D01*
X144175471Y-102265149D01*
X144232462Y-102260019D01*
X144228867Y-102181535D01*
X144223766Y-102121129D01*
X144269812Y-102028013D01*
X144302289Y-102006854D01*
X144342588Y-102024952D01*
X144372765Y-102128993D01*
X144382282Y-102206350D01*
X144392263Y-102380664D01*
X144399512Y-102628455D01*
X144404191Y-102939984D01*
X144406464Y-103305514D01*
X144406495Y-103715308D01*
X144404448Y-104159627D01*
X144400486Y-104628733D01*
X144394774Y-105112890D01*
X144387474Y-105602358D01*
X144378751Y-106087401D01*
X144368768Y-106558281D01*
X144357689Y-107005259D01*
X144345677Y-107418598D01*
X144332897Y-107788561D01*
X144319512Y-108105409D01*
X144305685Y-108359405D01*
X144291581Y-108540810D01*
X144277363Y-108639888D01*
X144263195Y-108646900D01*
X144245227Y-108618419D01*
X144183459Y-108630358D01*
X144098857Y-108668775D01*
X143968348Y-108698699D01*
X143878934Y-108706730D01*
X143830198Y-108682997D01*
X143834302Y-108603291D01*
X143834888Y-108600139D01*
X143828471Y-108507655D01*
X143778180Y-108486209D01*
X143707826Y-108531413D01*
X143641215Y-108638878D01*
X143637062Y-108648796D01*
X143588483Y-108749969D01*
X143556683Y-108791583D01*
X143556429Y-108791362D01*
X143552775Y-108735506D01*
X143549539Y-108587156D01*
X143546761Y-108355048D01*
X143544482Y-108047914D01*
X143542744Y-107674489D01*
X143541588Y-107243506D01*
X143541056Y-106763698D01*
X143541188Y-106243801D01*
X143542027Y-105692546D01*
X143548649Y-102593510D01*
X143658559Y-102613552D01*
X143714934Y-102619234D01*
X143704842Y-102603337D01*
X143671475Y-102573329D01*
X143641215Y-102478522D01*
X143633705Y-102424600D01*
X143590313Y-102352505D01*
X143589407Y-102351045D01*
X143582849Y-102284172D01*
X143576732Y-102123423D01*
X143571059Y-101875546D01*
X143568067Y-101687777D01*
X143692117Y-101687777D01*
X143698346Y-101725702D01*
X143743019Y-101767134D01*
X143755095Y-101765763D01*
X143793920Y-101719237D01*
X143791979Y-101704956D01*
X143743019Y-101639880D01*
X143716794Y-101635091D01*
X143692117Y-101687777D01*
X143568067Y-101687777D01*
X143565828Y-101547288D01*
X143561042Y-101145396D01*
X143556702Y-100676619D01*
X143555434Y-100504420D01*
X144021632Y-100504420D01*
X144022079Y-100527345D01*
X144084410Y-100567669D01*
X144094067Y-100571293D01*
X144145072Y-100581973D01*
X144112905Y-100539175D01*
X144075478Y-100510129D01*
X144021632Y-100504420D01*
X143555434Y-100504420D01*
X143552807Y-100147704D01*
X143549359Y-99565397D01*
X143546359Y-98936448D01*
X143543808Y-98267603D01*
X143541706Y-97565609D01*
X143540055Y-96837215D01*
X143538854Y-96089168D01*
X143538106Y-95328216D01*
X143537811Y-94561105D01*
X143537970Y-93794584D01*
X143538583Y-93035400D01*
X143539652Y-92290300D01*
X143541178Y-91566033D01*
X143543160Y-90869345D01*
X143545601Y-90206985D01*
X143548501Y-89585699D01*
X143551861Y-89012236D01*
X143555682Y-88493342D01*
X143559964Y-88035766D01*
X143564709Y-87646254D01*
X143569917Y-87331555D01*
X143575589Y-87098416D01*
X143581727Y-86953584D01*
X143588330Y-86903808D01*
X143636264Y-86888249D01*
X143728711Y-86804135D01*
X143813201Y-86676083D01*
X143864670Y-86537333D01*
X143873973Y-86428388D01*
X143844145Y-86220830D01*
X143767910Y-86026522D01*
X143659028Y-85888857D01*
X143542321Y-85797056D01*
X143541604Y-83161502D01*
X144212010Y-83161502D01*
X144218102Y-83221910D01*
X144233412Y-83229874D01*
X144252037Y-83187976D01*
X144248363Y-83161029D01*
X144218102Y-83154041D01*
X144212010Y-83161502D01*
X143541604Y-83161502D01*
X143540799Y-80204039D01*
X143539278Y-74611022D01*
X143676747Y-74547395D01*
X143699168Y-74538076D01*
X143853503Y-74499440D01*
X144026507Y-74483768D01*
X144238797Y-74483768D01*
X144274467Y-74725551D01*
X144279172Y-74778096D01*
X144286355Y-74937557D01*
X144293285Y-75182658D01*
X144299911Y-75503542D01*
X144306183Y-75890352D01*
X144312049Y-76333232D01*
X144317459Y-76822324D01*
X144322363Y-77347771D01*
X144326709Y-77899716D01*
X144330448Y-78468302D01*
X144333528Y-79043671D01*
X144335899Y-79615968D01*
X144337511Y-80175335D01*
X144338312Y-80711914D01*
X144338252Y-81215849D01*
X144337281Y-81677283D01*
X144335348Y-82086358D01*
X144332401Y-82433217D01*
X144328392Y-82708005D01*
X144323268Y-82900862D01*
X144316979Y-83001933D01*
X144314766Y-83018554D01*
X144289064Y-83179429D01*
X144285776Y-83187976D01*
X144253642Y-83271509D01*
G37*
G36*
X165852396Y-84179616D02*
G01*
X165763366Y-84278726D01*
X165661578Y-84373141D01*
X165597155Y-84409619D01*
X165577615Y-84414961D01*
X165496995Y-84476123D01*
X165401437Y-84583643D01*
X165383228Y-84605874D01*
X165261341Y-84725545D01*
X165090798Y-84866237D01*
X164902554Y-85001990D01*
X164665963Y-85174037D01*
X164325388Y-85460058D01*
X163982347Y-85785587D01*
X163665276Y-86123254D01*
X163402609Y-86445691D01*
X163377854Y-86478459D01*
X163220754Y-86669141D01*
X163016930Y-86897146D01*
X162790007Y-87136674D01*
X162563612Y-87361924D01*
X162256847Y-87668004D01*
X161852126Y-88116525D01*
X161522259Y-88542328D01*
X161401256Y-88735101D01*
X161275807Y-88934956D01*
X161207838Y-89045216D01*
X161052144Y-89247551D01*
X160888012Y-89415648D01*
X160806723Y-89488018D01*
X160701663Y-89603664D01*
X160645110Y-89720766D01*
X160613895Y-89878444D01*
X160588598Y-90010915D01*
X160519017Y-90170941D01*
X160387989Y-90326124D01*
X160338471Y-90376632D01*
X160259456Y-90472033D01*
X160230401Y-90533785D01*
X160212764Y-90571270D01*
X160186095Y-90706965D01*
X160167145Y-90911739D01*
X160142680Y-91142002D01*
X160102192Y-91410130D01*
X160056292Y-91637675D01*
X160024221Y-91799731D01*
X159990950Y-92044577D01*
X159964802Y-92321451D01*
X159946780Y-92608190D01*
X159937889Y-92882630D01*
X159939132Y-93122609D01*
X159951512Y-93305962D01*
X159976032Y-93410527D01*
X159984137Y-93426037D01*
X160009817Y-93508651D01*
X159969185Y-93548186D01*
X159968323Y-93548535D01*
X159944318Y-93580518D01*
X159930226Y-93658115D01*
X159926356Y-93790577D01*
X159933013Y-93987157D01*
X159950507Y-94257104D01*
X159979143Y-94609670D01*
X160019231Y-95054108D01*
X160020894Y-95073336D01*
X160030536Y-95272783D01*
X160034698Y-95547039D01*
X160033446Y-95872354D01*
X160026846Y-96224978D01*
X160014965Y-96581162D01*
X160013296Y-96621643D01*
X159999113Y-96981157D01*
X159986126Y-97336352D01*
X159975157Y-97662881D01*
X159967028Y-97936398D01*
X159962562Y-98132557D01*
X159955243Y-98595575D01*
X159841928Y-98765921D01*
X159669579Y-99025013D01*
X159653874Y-99048641D01*
X159531943Y-99235129D01*
X159484352Y-99307918D01*
X159365290Y-99503167D01*
X159304302Y-99621890D01*
X159288837Y-99651994D01*
X159247144Y-99772003D01*
X159232361Y-99880798D01*
X159236639Y-99995984D01*
X159243160Y-100055091D01*
X159264805Y-100169278D01*
X159288364Y-100214629D01*
X159288942Y-100214622D01*
X159306275Y-100207234D01*
X159331108Y-100178108D01*
X159369791Y-100115695D01*
X159428671Y-100008448D01*
X159514098Y-99844820D01*
X159632420Y-99613264D01*
X159789985Y-99302231D01*
X159922707Y-99033373D01*
X160131829Y-98585238D01*
X160333431Y-98125285D01*
X160520833Y-97670483D01*
X160687353Y-97237798D01*
X160826312Y-96844199D01*
X160931028Y-96506653D01*
X160994822Y-96242127D01*
X161057667Y-95966973D01*
X161058662Y-95964405D01*
X161475506Y-95964405D01*
X161509938Y-96043320D01*
X161593102Y-96093730D01*
X161723034Y-96117034D01*
X161786371Y-96114785D01*
X161846478Y-96090964D01*
X161836857Y-96027956D01*
X161806342Y-95936133D01*
X161774358Y-95796350D01*
X161750367Y-95720780D01*
X161684509Y-95669989D01*
X161600766Y-95706314D01*
X161516819Y-95827610D01*
X161503423Y-95856731D01*
X161475506Y-95964405D01*
X161058662Y-95964405D01*
X161157040Y-95710557D01*
X161291731Y-95528957D01*
X161472982Y-95407926D01*
X161712035Y-95333219D01*
X161714698Y-95332605D01*
X161788057Y-95292714D01*
X161908518Y-95196625D01*
X162079504Y-95041020D01*
X162304432Y-94822582D01*
X162586723Y-94537996D01*
X162929798Y-94183944D01*
X163337074Y-93757108D01*
X163391050Y-93701340D01*
X163636509Y-93465299D01*
X163922380Y-93210927D01*
X164213770Y-92968519D01*
X164475790Y-92768370D01*
X164541321Y-92720246D01*
X164880699Y-92439714D01*
X165217060Y-92115863D01*
X165502407Y-91795397D01*
X166143762Y-91795397D01*
X166200894Y-91882004D01*
X166236219Y-91909823D01*
X166329940Y-91943086D01*
X166333040Y-91943057D01*
X166372052Y-91920539D01*
X166343419Y-91841283D01*
X166295383Y-91779894D01*
X166214374Y-91739479D01*
X166171807Y-91745801D01*
X166143762Y-91795397D01*
X165502407Y-91795397D01*
X165509091Y-91787890D01*
X165647306Y-91623479D01*
X165837912Y-91429432D01*
X166005107Y-91310318D01*
X166163452Y-91256733D01*
X166327506Y-91259271D01*
X166352833Y-91263506D01*
X166402267Y-91271042D01*
X166450491Y-91272403D01*
X166507761Y-91263221D01*
X166584328Y-91239127D01*
X166690446Y-91195750D01*
X166836370Y-91128724D01*
X167032351Y-91033677D01*
X167288644Y-90906242D01*
X167615502Y-90742048D01*
X168023179Y-90536728D01*
X168026941Y-90534835D01*
X168554561Y-90298032D01*
X169162634Y-90075616D01*
X169830193Y-89875265D01*
X169885906Y-89860116D01*
X170150988Y-89786506D01*
X170418066Y-89710328D01*
X170636926Y-89645862D01*
X170647337Y-89642724D01*
X170850111Y-89588901D01*
X170976247Y-89574123D01*
X171041596Y-89596453D01*
X171062189Y-89622441D01*
X171061797Y-89680052D01*
X170987979Y-89739580D01*
X170831862Y-89806662D01*
X170584573Y-89886940D01*
X170388234Y-89946795D01*
X169613474Y-90204219D01*
X168932380Y-90467229D01*
X168347656Y-90734716D01*
X167862006Y-91005569D01*
X167786054Y-91059543D01*
X167629467Y-91186515D01*
X167431147Y-91358883D01*
X167208837Y-91561108D01*
X166980278Y-91777655D01*
X166831239Y-91920539D01*
X166798161Y-91952251D01*
X166606981Y-92131530D01*
X166450626Y-92273731D01*
X166341692Y-92367431D01*
X166292775Y-92401202D01*
X166240401Y-92418382D01*
X166113291Y-92471330D01*
X165932802Y-92551487D01*
X165719048Y-92650126D01*
X165625416Y-92694634D01*
X165380787Y-92820886D01*
X165184870Y-92944989D01*
X165001948Y-93091519D01*
X164796304Y-93285053D01*
X164732258Y-93348924D01*
X164520918Y-93579472D01*
X164368317Y-93788225D01*
X164253559Y-94002816D01*
X164160828Y-94186185D01*
X164045215Y-94345677D01*
X163907957Y-94457786D01*
X163859191Y-94489406D01*
X163727914Y-94582338D01*
X163641027Y-94654990D01*
X163563888Y-94734800D01*
X163264903Y-95050854D01*
X163032399Y-95309727D01*
X162858729Y-95520174D01*
X162736246Y-95690950D01*
X162653945Y-95805612D01*
X162533615Y-95941020D01*
X162432115Y-96021731D01*
X162348897Y-96067994D01*
X162322903Y-96090964D01*
X162271133Y-96136711D01*
X162227465Y-96237263D01*
X162196466Y-96404444D01*
X162193009Y-96426213D01*
X162153448Y-96566842D01*
X162074160Y-96683879D01*
X161930980Y-96814662D01*
X161858018Y-96881151D01*
X161723330Y-97041447D01*
X161584176Y-97258901D01*
X161434921Y-97543764D01*
X161269935Y-97906284D01*
X161083583Y-98356713D01*
X161037726Y-98469451D01*
X160934138Y-98712839D01*
X160833958Y-98935371D01*
X160753662Y-99099932D01*
X160714902Y-99173543D01*
X160533219Y-99519310D01*
X160395036Y-99787233D01*
X160297393Y-99987822D01*
X160237333Y-100131583D01*
X160211895Y-100229023D01*
X160218122Y-100290649D01*
X160218442Y-100290982D01*
X160253053Y-100326968D01*
X160313730Y-100348489D01*
X160397194Y-100365717D01*
X160401205Y-100366514D01*
X160683143Y-100439644D01*
X160886611Y-100538308D01*
X161034166Y-100677743D01*
X161120145Y-100824893D01*
X161148363Y-100873188D01*
X161165167Y-100907494D01*
X161224377Y-101003385D01*
X161276376Y-101087597D01*
X161404554Y-101246406D01*
X161406152Y-101247936D01*
X161524195Y-101360938D01*
X161552820Y-101385371D01*
X161681415Y-101495132D01*
X161843262Y-101620794D01*
X161989593Y-101723110D01*
X162100265Y-101787264D01*
X162155133Y-101798440D01*
X162158570Y-101793546D01*
X162160125Y-101717506D01*
X162128333Y-101596810D01*
X162124373Y-101585681D01*
X162085496Y-101451767D01*
X162071802Y-101356306D01*
X162072855Y-101346754D01*
X162093168Y-101341447D01*
X162129374Y-101401622D01*
X162169946Y-101500007D01*
X162203356Y-101609335D01*
X162218077Y-101702334D01*
X162252569Y-101799341D01*
X162360353Y-101901367D01*
X162394799Y-101922526D01*
X162696360Y-102117305D01*
X162919265Y-102284177D01*
X163076550Y-102435493D01*
X163181248Y-102583601D01*
X163234766Y-102712782D01*
X163246395Y-102740851D01*
X163268074Y-102797356D01*
X163378834Y-102977026D01*
X163546942Y-103173673D01*
X163749689Y-103362671D01*
X163964365Y-103519394D01*
X163968671Y-103522088D01*
X164094010Y-103608274D01*
X164260953Y-103732534D01*
X164434602Y-103868927D01*
X164438127Y-103871779D01*
X164614513Y-104014110D01*
X164784550Y-104150689D01*
X164911887Y-104252317D01*
X165397341Y-104663082D01*
X165979370Y-105225236D01*
X165980070Y-105225956D01*
X166152697Y-105415491D01*
X166332055Y-105632642D01*
X166509276Y-105864082D01*
X166675495Y-106096483D01*
X166821846Y-106316516D01*
X166939461Y-106510854D01*
X167019475Y-106666168D01*
X167053021Y-106769130D01*
X167031232Y-106806413D01*
X167019181Y-106798559D01*
X166962988Y-106730576D01*
X166884399Y-106615531D01*
X166870420Y-106595135D01*
X166774701Y-106476646D01*
X166622438Y-106305039D01*
X166426973Y-106094177D01*
X166201649Y-105857927D01*
X165959807Y-105610154D01*
X165714790Y-105364724D01*
X165479940Y-105135502D01*
X165268599Y-104936355D01*
X165163668Y-104842504D01*
X164913598Y-104637651D01*
X164619293Y-104421246D01*
X164265097Y-104182064D01*
X163835351Y-103908880D01*
X163800718Y-103887466D01*
X163484549Y-103706658D01*
X163218294Y-103587098D01*
X162980291Y-103520615D01*
X162748881Y-103499040D01*
X162665560Y-103490041D01*
X162564948Y-103434305D01*
X162463466Y-103306914D01*
X162348013Y-103147790D01*
X162148840Y-102905245D01*
X161956898Y-102691850D01*
X162703940Y-102691850D01*
X162717299Y-102761952D01*
X162771484Y-102824652D01*
X162818622Y-102810609D01*
X162822386Y-102712782D01*
X162811301Y-102658321D01*
X162769086Y-102588521D01*
X162724584Y-102598157D01*
X162703940Y-102691850D01*
X161956898Y-102691850D01*
X161912213Y-102642170D01*
X161660453Y-102384214D01*
X161550979Y-102290318D01*
X161363943Y-102159055D01*
X161151677Y-102031660D01*
X160940673Y-101922670D01*
X160757426Y-101846617D01*
X160628427Y-101818036D01*
X160602331Y-101814744D01*
X160486895Y-101771231D01*
X160351673Y-101693317D01*
X160245069Y-101632232D01*
X160108150Y-101608406D01*
X160024535Y-101666748D01*
X160007444Y-101678673D01*
X159935677Y-101845697D01*
X159901412Y-101926676D01*
X159817459Y-102058797D01*
X159712592Y-102188698D01*
X159610664Y-102287682D01*
X159535532Y-102327054D01*
X159519143Y-102322170D01*
X159456924Y-102259821D01*
X159398294Y-102160504D01*
X159371491Y-102068693D01*
X159371237Y-102064943D01*
X159341107Y-101997315D01*
X159277210Y-101910031D01*
X159202792Y-101828707D01*
X159141094Y-101778962D01*
X159115363Y-101786413D01*
X159120185Y-101803587D01*
X159165346Y-101889335D01*
X159242618Y-102010709D01*
X159275946Y-102061742D01*
X159276406Y-102062557D01*
X159336759Y-102169386D01*
X159343145Y-102180690D01*
X159369872Y-102254697D01*
X159369878Y-102255431D01*
X159391330Y-102339030D01*
X159441885Y-102459214D01*
X159443263Y-102462064D01*
X159509904Y-102663612D01*
X159560755Y-102943610D01*
X159595286Y-103280261D01*
X159612971Y-103651763D01*
X159613280Y-104036319D01*
X159595686Y-104412126D01*
X159559660Y-104757387D01*
X159504674Y-105050301D01*
X159471979Y-105181822D01*
X159417118Y-105403442D01*
X159371659Y-105588106D01*
X159318305Y-105743248D01*
X159225761Y-105945411D01*
X159116347Y-106143090D01*
X159102808Y-106164960D01*
X158965015Y-106375106D01*
X158812017Y-106590562D01*
X158655882Y-106796407D01*
X158508676Y-106977720D01*
X158382463Y-107119577D01*
X158289312Y-107207059D01*
X158241287Y-107225242D01*
X158214340Y-107173681D01*
X158176616Y-107021540D01*
X158140280Y-106787102D01*
X158106158Y-106481813D01*
X158075076Y-106117119D01*
X158047860Y-105704467D01*
X158025338Y-105255303D01*
X158008336Y-104781074D01*
X157997680Y-104293227D01*
X157994196Y-103803206D01*
X157994309Y-103587986D01*
X157993786Y-103182625D01*
X157991447Y-102866731D01*
X157986367Y-102631816D01*
X157977620Y-102469387D01*
X157964283Y-102370954D01*
X157945429Y-102328028D01*
X157920136Y-102332116D01*
X157904510Y-102352505D01*
X157887477Y-102374729D01*
X157846528Y-102447377D01*
X157843228Y-102454309D01*
X157824074Y-102494550D01*
X157811383Y-102594061D01*
X157859668Y-102717636D01*
X157882534Y-102768135D01*
X157884082Y-102774131D01*
X157906418Y-102860624D01*
X157914487Y-102985638D01*
X157907612Y-103165984D01*
X157886665Y-103424468D01*
X157865874Y-103735187D01*
X157856016Y-104296851D01*
X157873788Y-104918180D01*
X157917905Y-105575979D01*
X157987078Y-106247056D01*
X158080021Y-106908216D01*
X158087705Y-106955589D01*
X158127258Y-107188176D01*
X158140926Y-107268548D01*
X158200722Y-107599031D01*
X158263676Y-107930204D01*
X158326370Y-108245233D01*
X158385387Y-108527283D01*
X158437307Y-108759521D01*
X158478714Y-108925113D01*
X158506189Y-109007225D01*
X158544357Y-109113538D01*
X158556580Y-109318649D01*
X158522598Y-109503879D01*
X158516454Y-109537369D01*
X158428473Y-109728006D01*
X158367151Y-109831227D01*
X158317590Y-109987241D01*
X158310574Y-110132623D01*
X158307828Y-110189519D01*
X158306576Y-110310030D01*
X158278430Y-110472923D01*
X158208974Y-110597644D01*
X158130490Y-110731970D01*
X158037349Y-110960427D01*
X157940953Y-111260401D01*
X157846725Y-111616633D01*
X157818895Y-111751729D01*
X157777385Y-111999088D01*
X157730371Y-112317319D01*
X157679832Y-112689434D01*
X157627748Y-113098447D01*
X157576100Y-113527373D01*
X157526866Y-113959226D01*
X157482027Y-114377020D01*
X157443562Y-114763769D01*
X157413451Y-115102487D01*
X157393673Y-115376188D01*
X157386209Y-115567886D01*
X157382093Y-115736354D01*
X157369830Y-115928919D01*
X157352535Y-116065946D01*
X157349903Y-116078805D01*
X157323948Y-116178723D01*
X157304706Y-116211120D01*
X157300657Y-116197903D01*
X157292585Y-116100079D01*
X157286525Y-115919367D01*
X157282394Y-115669036D01*
X157280112Y-115362354D01*
X157279595Y-115012590D01*
X157280762Y-114633011D01*
X157283530Y-114236887D01*
X157287818Y-113837486D01*
X157293543Y-113448076D01*
X157300624Y-113081927D01*
X157308977Y-112752305D01*
X157318522Y-112472480D01*
X157329176Y-112255721D01*
X157333419Y-112184523D01*
X157351696Y-111782746D01*
X157360708Y-111390448D01*
X157360812Y-111022976D01*
X157352364Y-110695676D01*
X157335720Y-110423892D01*
X157311238Y-110222971D01*
X157279274Y-110108258D01*
X157275341Y-110099344D01*
X157655303Y-110099344D01*
X157691963Y-110193612D01*
X157780240Y-110252114D01*
X157889767Y-110264545D01*
X157967234Y-110221427D01*
X157979404Y-110132623D01*
X157921070Y-110049135D01*
X157814925Y-110013226D01*
X157707982Y-110033638D01*
X157655303Y-110099344D01*
X157275341Y-110099344D01*
X157263389Y-110072257D01*
X157235311Y-109905466D01*
X157251895Y-109724481D01*
X157309968Y-109583558D01*
X157329343Y-109550201D01*
X157369555Y-109405307D01*
X157374512Y-109342279D01*
X157751379Y-109342279D01*
X157753842Y-109351112D01*
X157814969Y-109432010D01*
X157925246Y-109514882D01*
X157991624Y-109550997D01*
X158079731Y-109576300D01*
X158134646Y-109543089D01*
X158146494Y-109503879D01*
X158096550Y-109445860D01*
X157960779Y-109370486D01*
X157922027Y-109352022D01*
X157806387Y-109303324D01*
X157755921Y-109300941D01*
X157751379Y-109342279D01*
X157374512Y-109342279D01*
X157384702Y-109212729D01*
X157407334Y-108979090D01*
X157473780Y-108804775D01*
X157506131Y-108743748D01*
X157540472Y-108620609D01*
X157559630Y-108441236D01*
X157566994Y-108183019D01*
X157566961Y-108071698D01*
X157561297Y-107853412D01*
X157549482Y-107676013D01*
X157533193Y-107569940D01*
X157529450Y-107557783D01*
X157508589Y-107517203D01*
X157496511Y-107563536D01*
X157490881Y-107704186D01*
X157490477Y-107727534D01*
X157484402Y-107846789D01*
X157461074Y-107935142D01*
X157404987Y-108016285D01*
X157300633Y-108113909D01*
X157132506Y-108251706D01*
X157065777Y-108303572D01*
X156814712Y-108474432D01*
X156529840Y-108640242D01*
X156239507Y-108786392D01*
X155972060Y-108898271D01*
X155755844Y-108961269D01*
X155717726Y-108968476D01*
X155536424Y-109004413D01*
X155348630Y-109043480D01*
X155336922Y-109045939D01*
X155073679Y-109081642D01*
X154791349Y-109090023D01*
X154529151Y-109071704D01*
X154326303Y-109027305D01*
X154151201Y-108942490D01*
X153904488Y-108774950D01*
X153631424Y-108549378D01*
X153347676Y-108280751D01*
X153068911Y-107984049D01*
X152810797Y-107674250D01*
X152589000Y-107366333D01*
X152544032Y-107298550D01*
X152420520Y-107118505D01*
X152313488Y-106970639D01*
X152242116Y-106881747D01*
X152179199Y-106798885D01*
X152069169Y-106576208D01*
X151969389Y-106277494D01*
X151882212Y-105919329D01*
X151809989Y-105518299D01*
X151755073Y-105090988D01*
X151719816Y-104653982D01*
X151706570Y-104223868D01*
X151717687Y-103817230D01*
X151720349Y-103791434D01*
X153159852Y-103791434D01*
X153186650Y-103780752D01*
X153267291Y-103714150D01*
X153382963Y-103605436D01*
X153407601Y-103581576D01*
X153542511Y-103468497D01*
X153622305Y-103440336D01*
X153648133Y-103497256D01*
X153621146Y-103639422D01*
X153619441Y-103645465D01*
X153597936Y-103760637D01*
X153605653Y-103824826D01*
X153645663Y-103849774D01*
X153727426Y-103836670D01*
X153841343Y-103752255D01*
X153999116Y-103589533D01*
X154019090Y-103565684D01*
X156844286Y-103565684D01*
X156850463Y-103639834D01*
X156880041Y-103780534D01*
X156927809Y-103962134D01*
X157017515Y-104280306D01*
X157085504Y-104532310D01*
X157134970Y-104734245D01*
X157171351Y-104910084D01*
X157200086Y-105083798D01*
X157226611Y-105279359D01*
X157230217Y-105307565D01*
X157264208Y-105560340D01*
X157300729Y-105813950D01*
X157332471Y-106017435D01*
X157336238Y-106039966D01*
X157372218Y-106252113D01*
X157416154Y-106507402D01*
X157459391Y-106755511D01*
X157535389Y-107188176D01*
X157507480Y-106730060D01*
X157502819Y-106659636D01*
X157477891Y-106371909D01*
X157443634Y-106063002D01*
X157403462Y-105757453D01*
X157360787Y-105479800D01*
X157319025Y-105254580D01*
X157281588Y-105106332D01*
X157249017Y-104975736D01*
X157231997Y-104822714D01*
X157230011Y-104784311D01*
X157205375Y-104631106D01*
X157161614Y-104461272D01*
X157149813Y-104423112D01*
X157086680Y-104210864D01*
X157029058Y-104006814D01*
X156998562Y-103898249D01*
X156933862Y-103697843D01*
X156882137Y-103583045D01*
X156846347Y-103561067D01*
X156844286Y-103565684D01*
X154019090Y-103565684D01*
X154119417Y-103445891D01*
X154250508Y-103268040D01*
X154341317Y-103120463D01*
X154386756Y-103040721D01*
X156699595Y-103040721D01*
X156701517Y-103052338D01*
X156736633Y-103194774D01*
X156779987Y-103295230D01*
X156798614Y-103317787D01*
X156814170Y-103300511D01*
X156800863Y-103192385D01*
X156786746Y-103106800D01*
X156773181Y-102973800D01*
X156777514Y-102840898D01*
X156781331Y-102809317D01*
X157082281Y-102809317D01*
X157159807Y-102856077D01*
X157257403Y-102877631D01*
X157398786Y-102886013D01*
X157529765Y-102877713D01*
X157605276Y-102853039D01*
X157626949Y-102827709D01*
X157629236Y-102774131D01*
X157541730Y-102743817D01*
X157359251Y-102734269D01*
X157198489Y-102743242D01*
X157098014Y-102769971D01*
X157082281Y-102809317D01*
X156781331Y-102809317D01*
X156799629Y-102657916D01*
X156827682Y-102454309D01*
X156749447Y-102657916D01*
X156702016Y-102846174D01*
X156699595Y-103040721D01*
X154386756Y-103040721D01*
X154442571Y-102942768D01*
X154581129Y-102749808D01*
X154719665Y-102602649D01*
X154845722Y-102512032D01*
X154946843Y-102488697D01*
X155010572Y-102543387D01*
X155042895Y-102567951D01*
X155098704Y-102505210D01*
X155110968Y-102485874D01*
X155212028Y-102358905D01*
X155218315Y-102352505D01*
X156773880Y-102352505D01*
X156799331Y-102377956D01*
X156824782Y-102352505D01*
X156799331Y-102327054D01*
X156773880Y-102352505D01*
X155218315Y-102352505D01*
X155346533Y-102221978D01*
X155489693Y-102097022D01*
X155616722Y-102005966D01*
X155667510Y-101985190D01*
X156781324Y-101985190D01*
X156791394Y-102086239D01*
X156793422Y-102090777D01*
X156796887Y-102089113D01*
X157090959Y-102089113D01*
X157131984Y-102177695D01*
X157172233Y-102220365D01*
X157286594Y-102266657D01*
X157425775Y-102280397D01*
X157550094Y-102259589D01*
X157619868Y-102202237D01*
X157630045Y-102169386D01*
X157615287Y-102084087D01*
X157518114Y-102036449D01*
X157330796Y-102021643D01*
X157180570Y-102024558D01*
X157101435Y-102042557D01*
X157090959Y-102089113D01*
X156796887Y-102089113D01*
X156809357Y-102083124D01*
X156814859Y-101996192D01*
X156814523Y-101980385D01*
X156805711Y-101912776D01*
X156789508Y-101933534D01*
X156781324Y-101985190D01*
X155667510Y-101985190D01*
X155702832Y-101970741D01*
X155718326Y-101970422D01*
X155815162Y-101937081D01*
X155826305Y-101849859D01*
X155816080Y-101830761D01*
X157793535Y-101830761D01*
X157799450Y-101849859D01*
X157813319Y-101894637D01*
X157876736Y-101996192D01*
X157914195Y-102041711D01*
X157941667Y-102062557D01*
X157926019Y-102004755D01*
X157909947Y-101948724D01*
X157893720Y-101839324D01*
X157888666Y-101808057D01*
X157842818Y-101767134D01*
X157824054Y-101771698D01*
X157793535Y-101830761D01*
X155816080Y-101830761D01*
X155751496Y-101710126D01*
X155683400Y-101643805D01*
X156835230Y-101643805D01*
X156835611Y-101723269D01*
X156857878Y-101761605D01*
X156896913Y-101723064D01*
X156914210Y-101666748D01*
X156893885Y-101616354D01*
X156844931Y-101628215D01*
X156835230Y-101643805D01*
X155683400Y-101643805D01*
X155598411Y-101561032D01*
X155397009Y-101452478D01*
X155194355Y-101410822D01*
X155178796Y-101411217D01*
X154990642Y-101458451D01*
X154761142Y-101575670D01*
X154505505Y-101750431D01*
X154294429Y-101924524D01*
X154238938Y-101970292D01*
X153994720Y-102205414D01*
X153976651Y-102222810D01*
X153733849Y-102495542D01*
X153525743Y-102776044D01*
X153407054Y-102962324D01*
X153335676Y-103092186D01*
X153321768Y-103148365D01*
X153366001Y-103127881D01*
X153469047Y-103027757D01*
X153487319Y-103008420D01*
X153547315Y-102948559D01*
X153570549Y-102938811D01*
X153554322Y-102989150D01*
X153495937Y-103109553D01*
X153392694Y-103309994D01*
X153327966Y-103435969D01*
X153241344Y-103609472D01*
X153181919Y-103734964D01*
X153159852Y-103791434D01*
X151720349Y-103791434D01*
X151755520Y-103450654D01*
X151780235Y-103285193D01*
X151809241Y-103080739D01*
X151824381Y-102964049D01*
X152914549Y-102964049D01*
X152922946Y-102965427D01*
X152981508Y-102921996D01*
X153076249Y-102822235D01*
X153190698Y-102686915D01*
X153308384Y-102536803D01*
X153412838Y-102392670D01*
X153487588Y-102275284D01*
X153516165Y-102205414D01*
X153502727Y-102198954D01*
X153441521Y-102244944D01*
X153345836Y-102340979D01*
X153306734Y-102385048D01*
X153232310Y-102468926D01*
X153117581Y-102610653D01*
X153018285Y-102748029D01*
X152981221Y-102806432D01*
X152925574Y-102911536D01*
X152914549Y-102964049D01*
X151824381Y-102964049D01*
X151829064Y-102927957D01*
X151836405Y-102851297D01*
X151833110Y-102838745D01*
X151796654Y-102816340D01*
X151709579Y-102801778D01*
X151559114Y-102794208D01*
X151332487Y-102792777D01*
X151016924Y-102796635D01*
X150197443Y-102810621D01*
X150029621Y-103243287D01*
X150020147Y-103267687D01*
X149913160Y-103541027D01*
X149794339Y-103841592D01*
X149687697Y-104108617D01*
X149661286Y-104175085D01*
X149573691Y-104406248D01*
X149497356Y-104622503D01*
X149446375Y-104784377D01*
X149437447Y-104815885D01*
X149376912Y-104985798D01*
X149322410Y-105061076D01*
X149276163Y-105038405D01*
X149268922Y-104973735D01*
X149281065Y-104824773D01*
X149311438Y-104614980D01*
X149356387Y-104364510D01*
X149412260Y-104093518D01*
X149475405Y-103822156D01*
X149542169Y-103570579D01*
X149588943Y-103406506D01*
X149652492Y-103171700D01*
X149686110Y-103012157D01*
X149689117Y-102913386D01*
X149660830Y-102860892D01*
X149600568Y-102840184D01*
X149507648Y-102836767D01*
X149367722Y-102841101D01*
X149199219Y-102867934D01*
X149116503Y-102922489D01*
X149110921Y-103008513D01*
X149123098Y-103059362D01*
X149149159Y-103206544D01*
X149155346Y-103252196D01*
X149172848Y-103381329D01*
X149174960Y-103400319D01*
X149181728Y-103577654D01*
X149150967Y-103731598D01*
X149072614Y-103915798D01*
X149033664Y-104004416D01*
X148947309Y-104295541D01*
X148888682Y-104668537D01*
X148878904Y-104754316D01*
X148846380Y-105010526D01*
X148811691Y-105250648D01*
X148780854Y-105432064D01*
X148774320Y-105465593D01*
X148665602Y-106042221D01*
X148582199Y-106525195D01*
X148523434Y-106919040D01*
X148488628Y-107228280D01*
X148477103Y-107457439D01*
X148471612Y-107639140D01*
X148463705Y-107692931D01*
X148439910Y-107854821D01*
X148374495Y-108029208D01*
X148372565Y-108033007D01*
X148329286Y-108133258D01*
X148300531Y-108245672D01*
X148283689Y-108392637D01*
X148276147Y-108596546D01*
X148275305Y-108876419D01*
X148275295Y-108879786D01*
X148277501Y-109017121D01*
X148287588Y-109283812D01*
X148304277Y-109580193D01*
X148325949Y-109887496D01*
X148350983Y-110186952D01*
X148377759Y-110459792D01*
X148404656Y-110687246D01*
X148430056Y-110850545D01*
X148452338Y-110930920D01*
X148456628Y-110938689D01*
X148472731Y-110981933D01*
X148493605Y-111061511D01*
X148521962Y-111190185D01*
X148560510Y-111380717D01*
X148611959Y-111645867D01*
X148679019Y-111998397D01*
X148774946Y-112495408D01*
X148866249Y-112943369D01*
X148952486Y-113336108D01*
X149038792Y-113696959D01*
X149130301Y-114049254D01*
X149176035Y-114227740D01*
X149217871Y-114420750D01*
X149233645Y-114542509D01*
X149221142Y-114580077D01*
X149201504Y-114564685D01*
X149149416Y-114474833D01*
X149099121Y-114336234D01*
X148972997Y-113915915D01*
X148691498Y-113067335D01*
X148647418Y-112938385D01*
X148557192Y-112661505D01*
X148462601Y-112358382D01*
X148378086Y-112074749D01*
X148326903Y-111901253D01*
X148242588Y-111627710D01*
X148161101Y-111375881D01*
X148094601Y-111183968D01*
X147991516Y-110880514D01*
X147873120Y-110472452D01*
X147765821Y-110040035D01*
X147673435Y-109603315D01*
X147599779Y-109182344D01*
X147548671Y-108797176D01*
X147544397Y-108740288D01*
X147687737Y-108740288D01*
X147696492Y-108855210D01*
X147718257Y-108958372D01*
X147743564Y-109032109D01*
X147759024Y-109004830D01*
X147764261Y-108876419D01*
X147763584Y-108845704D01*
X147746830Y-108734677D01*
X147714632Y-108689780D01*
X147711446Y-108690087D01*
X147687737Y-108740288D01*
X147544397Y-108740288D01*
X147523927Y-108467862D01*
X147529363Y-108214455D01*
X147540656Y-108120509D01*
X147587032Y-107828060D01*
X147636890Y-107568695D01*
X147967868Y-107568695D01*
X147977150Y-107627446D01*
X148022232Y-107723493D01*
X148082965Y-107789865D01*
X148134696Y-107793359D01*
X148137785Y-107790077D01*
X148170142Y-107692931D01*
X148156705Y-107568675D01*
X148103165Y-107474811D01*
X148058059Y-107447628D01*
X147992557Y-107465132D01*
X147967868Y-107568695D01*
X147636890Y-107568695D01*
X147655747Y-107470600D01*
X147742149Y-107071394D01*
X147841582Y-106653707D01*
X148009902Y-105826852D01*
X148097468Y-104999399D01*
X148104328Y-104868940D01*
X148123831Y-104507861D01*
X148140134Y-104229030D01*
X148154454Y-104017593D01*
X148168008Y-103858696D01*
X148182010Y-103737484D01*
X148197677Y-103639103D01*
X148216224Y-103548697D01*
X148225908Y-103499057D01*
X148245505Y-103305331D01*
X148239586Y-103136436D01*
X148239366Y-103128863D01*
X148580363Y-103128863D01*
X148605720Y-103220126D01*
X148677147Y-103292397D01*
X148745507Y-103326597D01*
X148812976Y-103340629D01*
X148853523Y-103302484D01*
X148855834Y-103252196D01*
X148808662Y-103160140D01*
X148730805Y-103076296D01*
X148652156Y-103039679D01*
X148604904Y-103057316D01*
X148580363Y-103128863D01*
X148239366Y-103128863D01*
X148235562Y-102997853D01*
X148286373Y-102805574D01*
X148302102Y-102771151D01*
X148356669Y-102608110D01*
X148396027Y-102428858D01*
X148399456Y-102406689D01*
X148417908Y-102310195D01*
X148741719Y-102310195D01*
X148745338Y-102364333D01*
X148844525Y-102451422D01*
X148971895Y-102513324D01*
X149124552Y-102521512D01*
X149241434Y-102453078D01*
X149255170Y-102436240D01*
X149285447Y-102385048D01*
X149263690Y-102352467D01*
X149173538Y-102328359D01*
X148998630Y-102302582D01*
X148832548Y-102290087D01*
X148741719Y-102310195D01*
X148417908Y-102310195D01*
X148433225Y-102230093D01*
X148481246Y-102108956D01*
X148561019Y-102032867D01*
X148675160Y-101996192D01*
X150156646Y-101996192D01*
X150182097Y-102021643D01*
X150207548Y-101996192D01*
X150182097Y-101970741D01*
X150156646Y-101996192D01*
X148675160Y-101996192D01*
X148690043Y-101991410D01*
X148885815Y-101974173D01*
X149165836Y-101970741D01*
X149750634Y-101970741D01*
X149745471Y-101932565D01*
X150360751Y-101932565D01*
X150362867Y-101956025D01*
X150388192Y-101989986D01*
X150411469Y-101996192D01*
X150457639Y-102008502D01*
X150590395Y-102015044D01*
X150805644Y-102013086D01*
X150891551Y-102010923D01*
X151113895Y-102001553D01*
X151337840Y-101987805D01*
X151542724Y-101971453D01*
X151707887Y-101954272D01*
X151812668Y-101938037D01*
X151836405Y-101924524D01*
X151794408Y-101911884D01*
X151670942Y-101878751D01*
X151487637Y-101831209D01*
X151265653Y-101774808D01*
X150720351Y-101637522D01*
X150540800Y-101740505D01*
X150504230Y-101763343D01*
X150402046Y-101852577D01*
X150360751Y-101932565D01*
X149745471Y-101932565D01*
X149721377Y-101754409D01*
X149715507Y-101711975D01*
X149690864Y-101548441D01*
X149669636Y-101426464D01*
X149671601Y-101378256D01*
X157849265Y-101378256D01*
X157858746Y-101500493D01*
X157865251Y-101517170D01*
X157876786Y-101490131D01*
X157880883Y-101385371D01*
X157879563Y-101329856D01*
X157871128Y-101268675D01*
X157857719Y-101296886D01*
X157849265Y-101378256D01*
X149671601Y-101378256D01*
X149673196Y-101339140D01*
X150171541Y-101339140D01*
X150225107Y-101377647D01*
X150299171Y-101349739D01*
X150328391Y-101315525D01*
X150360253Y-101247936D01*
X150360098Y-101244518D01*
X150319508Y-101210042D01*
X150242250Y-101217428D01*
X150179356Y-101262551D01*
X150178756Y-101263532D01*
X150171541Y-101339140D01*
X149673196Y-101339140D01*
X149676257Y-101264062D01*
X149764264Y-101097711D01*
X149919190Y-100959955D01*
X150122747Y-100866579D01*
X150356649Y-100833371D01*
X150489527Y-100842445D01*
X150705098Y-100873518D01*
X150920173Y-100918695D01*
X151087735Y-100958352D01*
X151283993Y-100999218D01*
X151429191Y-101023284D01*
X151480555Y-101029594D01*
X151646388Y-101050732D01*
X151863699Y-101079037D01*
X152099063Y-101110174D01*
X152590779Y-101175754D01*
X152746974Y-101056842D01*
X160855042Y-101056842D01*
X160856259Y-101068031D01*
X160885199Y-101185088D01*
X160929028Y-101243688D01*
X160933954Y-101244996D01*
X160986956Y-101214358D01*
X161019416Y-101121780D01*
X161024468Y-101003385D01*
X160995246Y-100895294D01*
X160947455Y-100834693D01*
X160893123Y-100836196D01*
X160858304Y-100914872D01*
X160855042Y-101056842D01*
X152746974Y-101056842D01*
X152862590Y-100968823D01*
X153040402Y-100839539D01*
X153242516Y-100700953D01*
X157239984Y-100700953D01*
X157261613Y-100787751D01*
X157374762Y-100917731D01*
X157440214Y-100979437D01*
X157518278Y-101039853D01*
X157569921Y-101042908D01*
X157608947Y-101010775D01*
X158530564Y-101010775D01*
X158556716Y-101054509D01*
X158564883Y-101051964D01*
X158594407Y-100988957D01*
X158606345Y-100867869D01*
X158605940Y-100850733D01*
X159904237Y-100850733D01*
X159913210Y-100863525D01*
X159918379Y-100867869D01*
X159992408Y-100930081D01*
X160087327Y-100972082D01*
X160152158Y-100967882D01*
X160169793Y-100937998D01*
X160183967Y-100824893D01*
X160166012Y-100688696D01*
X160120011Y-100578830D01*
X160072153Y-100529060D01*
X160028789Y-100547585D01*
X159983774Y-100616043D01*
X159964366Y-100645558D01*
X159954353Y-100663155D01*
X159906895Y-100777176D01*
X159904237Y-100850733D01*
X158605940Y-100850733D01*
X158604083Y-100772227D01*
X158592098Y-100710161D01*
X158570137Y-100749151D01*
X158538577Y-100889078D01*
X158536610Y-100899892D01*
X158535005Y-100929327D01*
X158530564Y-101010775D01*
X157608947Y-101010775D01*
X157624436Y-100998022D01*
X157654868Y-100929327D01*
X157629637Y-100794415D01*
X157601034Y-100726714D01*
X157532236Y-100662649D01*
X157405173Y-100647295D01*
X157310080Y-100655515D01*
X157239984Y-100700953D01*
X153242516Y-100700953D01*
X153264379Y-100685962D01*
X153477989Y-100547325D01*
X153520967Y-100520021D01*
X153628872Y-100445458D01*
X157819177Y-100445458D01*
X157823400Y-100478381D01*
X157893720Y-100545491D01*
X157906351Y-100555218D01*
X158009734Y-100622007D01*
X158071101Y-100642198D01*
X158074158Y-100616043D01*
X158002610Y-100543797D01*
X157901991Y-100474143D01*
X157824454Y-100444819D01*
X157819177Y-100445458D01*
X153628872Y-100445458D01*
X153673935Y-100414319D01*
X153723008Y-100374161D01*
X154237794Y-100374161D01*
X154279692Y-100392786D01*
X154306639Y-100389112D01*
X154313626Y-100358851D01*
X154306166Y-100352759D01*
X154245757Y-100358851D01*
X154237794Y-100374161D01*
X153723008Y-100374161D01*
X153781089Y-100326632D01*
X153821423Y-100273694D01*
X153814697Y-100265531D01*
X154381496Y-100265531D01*
X154406946Y-100290982D01*
X154432397Y-100265531D01*
X154410227Y-100243361D01*
X154506722Y-100243361D01*
X154522304Y-100256498D01*
X154600050Y-100265531D01*
X154611489Y-100266860D01*
X154753651Y-100269258D01*
X154920836Y-100264607D01*
X155085092Y-100253827D01*
X155218466Y-100237835D01*
X155293006Y-100217548D01*
X155367484Y-100213213D01*
X155484338Y-100244188D01*
X155492164Y-100247015D01*
X155621318Y-100273505D01*
X155810518Y-100291815D01*
X156021728Y-100298128D01*
X156062407Y-100298199D01*
X156246512Y-100305410D01*
X156382947Y-100321853D01*
X156444672Y-100344558D01*
X156446684Y-100347454D01*
X156473922Y-100358851D01*
X156518462Y-100377487D01*
X156640212Y-100382269D01*
X156774062Y-100366174D01*
X156882143Y-100333580D01*
X156898416Y-100317207D01*
X157201757Y-100317207D01*
X157254443Y-100341884D01*
X157292368Y-100335654D01*
X157333800Y-100290982D01*
X157332429Y-100278905D01*
X157285902Y-100240080D01*
X157271621Y-100242022D01*
X157209361Y-100288864D01*
X157206546Y-100290982D01*
X157201757Y-100317207D01*
X156898416Y-100317207D01*
X156926586Y-100288864D01*
X156895107Y-100258971D01*
X156788994Y-100209613D01*
X156633900Y-100157117D01*
X156577116Y-100141412D01*
X156427305Y-100109868D01*
X156254222Y-100089479D01*
X156038286Y-100079076D01*
X155759917Y-100077492D01*
X155399532Y-100083562D01*
X155283101Y-100090142D01*
X155089476Y-100111422D01*
X154887647Y-100142283D01*
X154704993Y-100177827D01*
X154568892Y-100213153D01*
X154506722Y-100243361D01*
X154410227Y-100243361D01*
X154406946Y-100240080D01*
X154381496Y-100265531D01*
X153814697Y-100265531D01*
X153793425Y-100239715D01*
X153693071Y-100159123D01*
X153606447Y-100096753D01*
X154228559Y-100096753D01*
X154230658Y-100129622D01*
X154317021Y-100118191D01*
X154483299Y-100061924D01*
X154486449Y-100060720D01*
X154663518Y-100011429D01*
X154839612Y-99987825D01*
X154952043Y-99980174D01*
X154976564Y-99959293D01*
X154926908Y-99913411D01*
X154831450Y-99883554D01*
X156247106Y-99883554D01*
X156251161Y-99886924D01*
X156332380Y-99922328D01*
X156464761Y-99958521D01*
X156468606Y-99959293D01*
X156611159Y-99987915D01*
X156734428Y-100002924D01*
X156797425Y-99995961D01*
X156814426Y-99952725D01*
X156824782Y-99848235D01*
X156841546Y-99766762D01*
X156901135Y-99698568D01*
X156963758Y-99664914D01*
X156971137Y-99621890D01*
X156893936Y-99590506D01*
X156742197Y-99578357D01*
X156715105Y-99578441D01*
X156589474Y-99584842D01*
X156545661Y-99606416D01*
X156566512Y-99650178D01*
X156589527Y-99681860D01*
X156593481Y-99730697D01*
X156526810Y-99768159D01*
X156374360Y-99806578D01*
X156349940Y-99812351D01*
X156260791Y-99848057D01*
X156247106Y-99883554D01*
X154831450Y-99883554D01*
X154807219Y-99875975D01*
X154637103Y-99888407D01*
X154453324Y-99944835D01*
X154291247Y-100038309D01*
X154228559Y-100096753D01*
X153606447Y-100096753D01*
X153535321Y-100045542D01*
X153336525Y-99909717D01*
X153113028Y-99762392D01*
X152881176Y-99614312D01*
X152657318Y-99476222D01*
X152457800Y-99358867D01*
X152298969Y-99272991D01*
X152175458Y-99206204D01*
X151979459Y-99089365D01*
X151789951Y-98966605D01*
X151635817Y-98864058D01*
X151278770Y-98645775D01*
X150938715Y-98463378D01*
X150631014Y-98324117D01*
X150371031Y-98235244D01*
X150174128Y-98204008D01*
X150132495Y-98204451D01*
X150079419Y-98216190D01*
X150062716Y-98260607D01*
X150079180Y-98359551D01*
X150125609Y-98534870D01*
X150209658Y-98807584D01*
X150324006Y-99111443D01*
X150475257Y-99460445D01*
X150671831Y-99875249D01*
X150682549Y-99897240D01*
X150802008Y-100152062D01*
X150871379Y-100324022D01*
X150891751Y-100417872D01*
X150864213Y-100438361D01*
X150789853Y-100390241D01*
X150719628Y-100320021D01*
X150603775Y-100167192D01*
X150460958Y-99942244D01*
X150286730Y-99638052D01*
X150076647Y-99247495D01*
X150009300Y-99119364D01*
X149792878Y-98704845D01*
X149621118Y-98370463D01*
X149490605Y-98109078D01*
X149397921Y-97913550D01*
X149388898Y-97892365D01*
X151021977Y-97892365D01*
X151029168Y-97918857D01*
X151085889Y-97990076D01*
X151171290Y-98035399D01*
X151302221Y-98076041D01*
X151454642Y-98108965D01*
X151301936Y-97978583D01*
X151270345Y-97952599D01*
X151144359Y-97870994D01*
X151055571Y-97849069D01*
X151021977Y-97892365D01*
X149388898Y-97892365D01*
X149339650Y-97776736D01*
X149312377Y-97691498D01*
X149312518Y-97672754D01*
X150224198Y-97672754D01*
X150232999Y-97739295D01*
X150251602Y-97752845D01*
X150338886Y-97754798D01*
X150423855Y-97701249D01*
X150462057Y-97616108D01*
X150452530Y-97565452D01*
X150394924Y-97549679D01*
X150280904Y-97615211D01*
X150224198Y-97672754D01*
X149312518Y-97672754D01*
X149312684Y-97650693D01*
X149314325Y-97648296D01*
X149385888Y-97603787D01*
X149508232Y-97565329D01*
X149718042Y-97504093D01*
X149918610Y-97412540D01*
X150066306Y-97308476D01*
X150137209Y-97205584D01*
X150172146Y-97127370D01*
X150232366Y-97084168D01*
X150273409Y-97091001D01*
X150396700Y-97133703D01*
X150553977Y-97202291D01*
X150712954Y-97281255D01*
X150841342Y-97355078D01*
X150906854Y-97408249D01*
X150959717Y-97454357D01*
X151081484Y-97529996D01*
X151241110Y-97613510D01*
X151246110Y-97616108D01*
X151373081Y-97682084D01*
X151583506Y-97806155D01*
X151757571Y-97924793D01*
X151833203Y-97981398D01*
X152011784Y-98108965D01*
X152056035Y-98140575D01*
X152327828Y-98327125D01*
X152632005Y-98530377D01*
X152951988Y-98739657D01*
X153271199Y-98944292D01*
X153573061Y-99133609D01*
X153840997Y-99296936D01*
X154058428Y-99423599D01*
X154208777Y-99502925D01*
X154216187Y-99506387D01*
X154518142Y-99633757D01*
X154785908Y-99720750D01*
X155002176Y-99762727D01*
X155149637Y-99755049D01*
X155160186Y-99751040D01*
X155255876Y-99681947D01*
X155354075Y-99570710D01*
X155463968Y-99416379D01*
X155377965Y-99263357D01*
X157448353Y-99263357D01*
X157492710Y-99328759D01*
X157538725Y-99353352D01*
X157651925Y-99367397D01*
X157721672Y-99300834D01*
X157735110Y-99235129D01*
X157694940Y-99161465D01*
X157587465Y-99156614D01*
X157493022Y-99197295D01*
X157448353Y-99263357D01*
X155377965Y-99263357D01*
X155355397Y-99223203D01*
X155336796Y-99187527D01*
X155304487Y-99100235D01*
X156519371Y-99100235D01*
X156554132Y-99149845D01*
X156672077Y-99171142D01*
X156729651Y-99165551D01*
X156812432Y-99122235D01*
X156822668Y-99058149D01*
X156748429Y-99000029D01*
X156661308Y-98986987D01*
X156561782Y-99021999D01*
X156519371Y-99100235D01*
X155304487Y-99100235D01*
X155272711Y-99014382D01*
X155256776Y-98916633D01*
X155603139Y-98916633D01*
X155611753Y-98940050D01*
X155679492Y-98967535D01*
X155714616Y-98961792D01*
X155748591Y-98924578D01*
X158030441Y-98924578D01*
X158077219Y-99010618D01*
X158113543Y-99058149D01*
X158113827Y-99058521D01*
X158194493Y-99117068D01*
X158267000Y-99086306D01*
X158285964Y-99035434D01*
X158298528Y-98916379D01*
X158300318Y-98765921D01*
X158292234Y-98617300D01*
X158275172Y-98503752D01*
X158250033Y-98458517D01*
X158221818Y-98474544D01*
X158199131Y-98553456D01*
X158171070Y-98655092D01*
X158099783Y-98774695D01*
X158045520Y-98850919D01*
X158032067Y-98916633D01*
X158030441Y-98924578D01*
X155748591Y-98924578D01*
X155755844Y-98916633D01*
X155747230Y-98893217D01*
X155679492Y-98865731D01*
X155644367Y-98871474D01*
X155603139Y-98916633D01*
X155256776Y-98916633D01*
X155246826Y-98855599D01*
X155246716Y-98844337D01*
X155210222Y-98683205D01*
X155095024Y-98535735D01*
X155056405Y-98494474D01*
X154959056Y-98356713D01*
X155348630Y-98356713D01*
X155367720Y-98386299D01*
X155450433Y-98407615D01*
X155509604Y-98398070D01*
X155552237Y-98356713D01*
X155533147Y-98327128D01*
X155450433Y-98305812D01*
X155391263Y-98315357D01*
X155348630Y-98356713D01*
X154959056Y-98356713D01*
X154942705Y-98333574D01*
X154854726Y-98157174D01*
X154850236Y-98145511D01*
X154766281Y-97954902D01*
X154646904Y-97714983D01*
X154507668Y-97454126D01*
X154364140Y-97200705D01*
X154231883Y-96983092D01*
X154126464Y-96829659D01*
X154102507Y-96798048D01*
X153993252Y-96639167D01*
X153908008Y-96494605D01*
X153876253Y-96438096D01*
X153775661Y-96284904D01*
X153659250Y-96129796D01*
X153575205Y-96023465D01*
X153431825Y-95835193D01*
X153296094Y-95650421D01*
X153282551Y-95631611D01*
X153178698Y-95492032D01*
X153050988Y-95328492D01*
X152890796Y-95130450D01*
X152689498Y-94887365D01*
X152438471Y-94588694D01*
X152129091Y-94223897D01*
X152023755Y-94097875D01*
X151900714Y-93943885D01*
X151816636Y-93830046D01*
X151785504Y-93774638D01*
X151752704Y-93722729D01*
X151662548Y-93613749D01*
X151528883Y-93463845D01*
X151365564Y-93289036D01*
X151210115Y-93121511D01*
X151069501Y-92961122D01*
X151709151Y-92961122D01*
X151719598Y-92976355D01*
X151763057Y-93012024D01*
X151768137Y-93010701D01*
X151785504Y-92961122D01*
X151783432Y-92947171D01*
X151731598Y-92910220D01*
X151713187Y-92914217D01*
X151709151Y-92961122D01*
X151069501Y-92961122D01*
X151051575Y-92940675D01*
X150928384Y-92789216D01*
X150858679Y-92688621D01*
X150851906Y-92675548D01*
X150792992Y-92473280D01*
X150771806Y-92187738D01*
X150781089Y-91988160D01*
X151235935Y-91988160D01*
X151274695Y-92068183D01*
X151354504Y-92135054D01*
X151413654Y-92129502D01*
X151427333Y-92059354D01*
X151379629Y-91943512D01*
X151333333Y-91897063D01*
X151270582Y-91928629D01*
X151235935Y-91988160D01*
X150781089Y-91988160D01*
X150788475Y-91829369D01*
X150843125Y-91408617D01*
X150866756Y-91226026D01*
X150891929Y-90907926D01*
X150908906Y-90532620D01*
X150917491Y-90125631D01*
X150917488Y-89712482D01*
X150908701Y-89318696D01*
X150890934Y-88969796D01*
X150863990Y-88691304D01*
X150837248Y-88426427D01*
X150842920Y-88265431D01*
X151136251Y-88265431D01*
X151150658Y-88308998D01*
X151246793Y-88329058D01*
X151334382Y-88314014D01*
X151378289Y-88249165D01*
X151356830Y-88205183D01*
X151281262Y-88184249D01*
X151192877Y-88205331D01*
X151136251Y-88265431D01*
X150842920Y-88265431D01*
X150844584Y-88218200D01*
X150896081Y-88069334D01*
X150998786Y-87960290D01*
X151159750Y-87871533D01*
X151216202Y-87844917D01*
X151394134Y-87744958D01*
X151539066Y-87642903D01*
X151565034Y-87621908D01*
X151681240Y-87545522D01*
X151766871Y-87514629D01*
X151812703Y-87503694D01*
X151939208Y-87456298D01*
X152117752Y-87380006D01*
X152325447Y-87284257D01*
X152453404Y-87224984D01*
X152692461Y-87121932D01*
X152910792Y-87036584D01*
X153073336Y-86983062D01*
X153156217Y-86960055D01*
X153370735Y-86895295D01*
X153557370Y-86832860D01*
X153681167Y-86790819D01*
X153928618Y-86718458D01*
X154194145Y-86652379D01*
X154458418Y-86596184D01*
X154702107Y-86553475D01*
X154905881Y-86527857D01*
X155050409Y-86522931D01*
X155116361Y-86542301D01*
X155116602Y-86556055D01*
X155061294Y-86600014D01*
X154951792Y-86646922D01*
X154820815Y-86684363D01*
X154701083Y-86699916D01*
X154648414Y-86711638D01*
X154522893Y-86755870D01*
X154364218Y-86821681D01*
X154314403Y-86842781D01*
X154104193Y-86908347D01*
X153947987Y-86916105D01*
X153853974Y-86909752D01*
X153837831Y-86939830D01*
X153837686Y-86944837D01*
X153784291Y-86991413D01*
X153654701Y-87073508D01*
X153461398Y-87183927D01*
X153216870Y-87315473D01*
X152933600Y-87460951D01*
X152878242Y-87488885D01*
X152591835Y-87636794D01*
X152334086Y-87775307D01*
X152120705Y-87895613D01*
X151967400Y-87988901D01*
X151889880Y-88046359D01*
X151843691Y-88107806D01*
X151790560Y-88249165D01*
X151788326Y-88255108D01*
X151758618Y-88475783D01*
X151752973Y-88537478D01*
X151708865Y-88767769D01*
X151637904Y-88928636D01*
X151621285Y-88954090D01*
X151593620Y-89012526D01*
X151572165Y-89092460D01*
X151555715Y-89207276D01*
X151543062Y-89370357D01*
X151532999Y-89595086D01*
X151524322Y-89894847D01*
X151515823Y-90283023D01*
X151513822Y-90382700D01*
X151507096Y-90744233D01*
X151503802Y-91021850D01*
X151504847Y-91229986D01*
X151511137Y-91383078D01*
X151523577Y-91495562D01*
X151543074Y-91581874D01*
X151570533Y-91656449D01*
X151606861Y-91733724D01*
X151639190Y-91804156D01*
X151712428Y-91998652D01*
X151728652Y-92059354D01*
X151758328Y-92170385D01*
X151803341Y-92355802D01*
X151895376Y-92545052D01*
X152044998Y-92706947D01*
X152272416Y-92868945D01*
X152301118Y-92887196D01*
X152406989Y-92961122D01*
X152452734Y-92993064D01*
X152559535Y-93083570D01*
X152599932Y-93140795D01*
X152606725Y-93170866D01*
X152653098Y-93284544D01*
X152734219Y-93454872D01*
X152839273Y-93661308D01*
X152957443Y-93883308D01*
X153077916Y-94100330D01*
X153189876Y-94291833D01*
X153282507Y-94437275D01*
X153337448Y-94519970D01*
X153441327Y-94689218D01*
X153516165Y-94827500D01*
X153578057Y-94932878D01*
X153690486Y-95090883D01*
X153821576Y-95253027D01*
X153935604Y-95389631D01*
X154079439Y-95573630D01*
X154190272Y-95728133D01*
X154389592Y-96024281D01*
X154570231Y-96282593D01*
X154714018Y-96476583D01*
X154812852Y-96594969D01*
X154882837Y-96681226D01*
X154922102Y-96759444D01*
X154954260Y-96825705D01*
X155032288Y-96920532D01*
X155039439Y-96928025D01*
X155117689Y-97030725D01*
X155220275Y-97188772D01*
X155326950Y-97371202D01*
X155449252Y-97571270D01*
X155610597Y-97800972D01*
X155764951Y-97991432D01*
X155826319Y-98060849D01*
X155936337Y-98203228D01*
X155988735Y-98314009D01*
X155992238Y-98356713D01*
X155997312Y-98418559D01*
X155997032Y-98521236D01*
X156027019Y-98590127D01*
X156087003Y-98571100D01*
X156170655Y-98467308D01*
X156271647Y-98281903D01*
X156356089Y-98118303D01*
X156483473Y-97932350D01*
X156611447Y-97828849D01*
X156750882Y-97796794D01*
X156791887Y-97801333D01*
X156919553Y-97870025D01*
X157027147Y-97998034D01*
X157099349Y-98155233D01*
X157120836Y-98311493D01*
X157076288Y-98436685D01*
X157038949Y-98475116D01*
X156995159Y-98472102D01*
X156941070Y-98385909D01*
X156906506Y-98327078D01*
X156837780Y-98261989D01*
X156791094Y-98295271D01*
X156773880Y-98425177D01*
X156775342Y-98459220D01*
X156832462Y-98622566D01*
X156957953Y-98737685D01*
X157131609Y-98800288D01*
X157333225Y-98806088D01*
X157542596Y-98750796D01*
X157739516Y-98630123D01*
X157762943Y-98609822D01*
X157864784Y-98486216D01*
X157887703Y-98350404D01*
X157838864Y-98169145D01*
X157784008Y-98025852D01*
X157686159Y-98146020D01*
X157621813Y-98220827D01*
X157593290Y-98228376D01*
X157588309Y-98162059D01*
X157599587Y-98066501D01*
X157637951Y-97927362D01*
X157666108Y-97868319D01*
X157738457Y-97811117D01*
X157872038Y-97796794D01*
X158014233Y-97823438D01*
X158179288Y-97930939D01*
X158342221Y-98126870D01*
X158509592Y-98417621D01*
X158587187Y-98561523D01*
X158656509Y-98671104D01*
X158697556Y-98713026D01*
X158734011Y-98705647D01*
X158841398Y-98639699D01*
X158949114Y-98531986D01*
X159021586Y-98415204D01*
X159075539Y-98232978D01*
X159129233Y-97941410D01*
X159171132Y-97586495D01*
X159200182Y-97188790D01*
X159215330Y-96768854D01*
X159215522Y-96347243D01*
X159199706Y-95944516D01*
X159166826Y-95581230D01*
X159158101Y-95479524D01*
X159147182Y-95271529D01*
X159136399Y-94984038D01*
X159126067Y-94629375D01*
X159116500Y-94219866D01*
X159108013Y-93767838D01*
X159100920Y-93285616D01*
X159095534Y-92785525D01*
X159076741Y-90641860D01*
X159484038Y-90641860D01*
X159487304Y-90751854D01*
X159549603Y-90791513D01*
X159658287Y-90747979D01*
X159740965Y-90666936D01*
X159796319Y-90533785D01*
X159772297Y-90408941D01*
X159738757Y-90377877D01*
X159657295Y-90384331D01*
X159569788Y-90459202D01*
X159499934Y-90586998D01*
X159484038Y-90641860D01*
X159076741Y-90641860D01*
X159074583Y-90395700D01*
X159302090Y-90186813D01*
X159352775Y-90139725D01*
X159452642Y-90034804D01*
X159512182Y-89934009D01*
X159547957Y-89802175D01*
X159576532Y-89604135D01*
X159620229Y-89372461D01*
X159722232Y-89110207D01*
X160352410Y-89110207D01*
X160392841Y-89174325D01*
X160470338Y-89185630D01*
X160564468Y-89106156D01*
X160667868Y-88939880D01*
X160708206Y-88856092D01*
X160750331Y-88735101D01*
X160731015Y-88694887D01*
X160649734Y-88735176D01*
X160505965Y-88855698D01*
X160470316Y-88889477D01*
X160366598Y-89017308D01*
X160352410Y-89110207D01*
X159722232Y-89110207D01*
X159753552Y-89029683D01*
X159968390Y-88729721D01*
X160270871Y-88464839D01*
X160667122Y-88227301D01*
X160774278Y-88166622D01*
X161048175Y-87970411D01*
X161373811Y-87688642D01*
X161750214Y-87322189D01*
X162176412Y-86871922D01*
X162656700Y-86341587D01*
X163122440Y-85811522D01*
X163513074Y-85347620D01*
X163829170Y-84949161D01*
X164071298Y-84615425D01*
X164240027Y-84345692D01*
X164290895Y-84236183D01*
X164926433Y-84236183D01*
X164967506Y-84321690D01*
X165042702Y-84338511D01*
X165118330Y-84263353D01*
X165140813Y-84212753D01*
X165168742Y-84092896D01*
X165165486Y-83993172D01*
X165129665Y-83951503D01*
X165094035Y-83961593D01*
X165011651Y-84034008D01*
X164945456Y-84140005D01*
X164926433Y-84236183D01*
X164290895Y-84236183D01*
X164335926Y-84139241D01*
X164361860Y-84073741D01*
X164492678Y-83848874D01*
X164681520Y-83619085D01*
X164943620Y-83343856D01*
X165221828Y-83397471D01*
X165405191Y-83425224D01*
X165579696Y-83429819D01*
X165767710Y-83407024D01*
X165996296Y-83353515D01*
X166292518Y-83265967D01*
X166730891Y-83147299D01*
X167269167Y-83034768D01*
X167875147Y-82936231D01*
X168531613Y-82854851D01*
X168824615Y-82825400D01*
X169207605Y-82794262D01*
X169497771Y-82781857D01*
X169699544Y-82788192D01*
X169817358Y-82813276D01*
X169855644Y-82857114D01*
X169848408Y-82892467D01*
X169792017Y-82934316D01*
X169690774Y-82942016D01*
X169498001Y-82966660D01*
X169249851Y-83004182D01*
X168970461Y-83050421D01*
X168683964Y-83101215D01*
X168414495Y-83152404D01*
X168186188Y-83199825D01*
X168023179Y-83239317D01*
X167670768Y-83339356D01*
X167220209Y-83474637D01*
X166851273Y-83597028D01*
X166553144Y-83711215D01*
X166315008Y-83821883D01*
X166126048Y-83933716D01*
X165975449Y-84051398D01*
X165935623Y-84092896D01*
X165852396Y-84179616D01*
G37*
%TD*%
M02*
