%TF.GenerationSoftware,KiCad,Pcbnew,9.0.7*%
%TF.CreationDate,2026-03-09T17:10:10+06:00*%
%TF.ProjectId,Tranceiver_101_PCB_rece,5472616e-6365-4697-9665-725f3130315f,rev?*%
%TF.SameCoordinates,Original*%
%TF.FileFunction,Soldermask,Bot*%
%TF.FilePolarity,Negative*%
%FSLAX46Y46*%
G04 Gerber Fmt 4.6, Leading zero omitted, Abs format (unit mm)*
G04 Created by KiCad (PCBNEW 9.0.7) date 2026-03-09 17:10:10*
%MOMM*%
%LPD*%
G01*
G04 APERTURE LIST*
G04 Aperture macros list*
%AMRoundRect*
0 Rectangle with rounded corners*
0 $1 Rounding radius*
0 $2 $3 $4 $5 $6 $7 $8 $9 X,Y pos of 4 corners*
0 Add a 4 corners polygon primitive as box body*
4,1,4,$2,$3,$4,$5,$6,$7,$8,$9,$2,$3,0*
0 Add four circle primitives for the rounded corners*
1,1,$1+$1,$2,$3*
1,1,$1+$1,$4,$5*
1,1,$1+$1,$6,$7*
1,1,$1+$1,$8,$9*
0 Add four rect primitives between the rounded corners*
20,1,$1+$1,$2,$3,$4,$5,0*
20,1,$1+$1,$4,$5,$6,$7,0*
20,1,$1+$1,$6,$7,$8,$9,0*
20,1,$1+$1,$8,$9,$2,$3,0*%
G04 Aperture macros list end*
%ADD10RoundRect,0.250000X-0.550000X-0.550000X0.550000X-0.550000X0.550000X0.550000X-0.550000X0.550000X0*%
%ADD11C,1.600000*%
%ADD12R,1.700000X1.700000*%
%ADD13C,1.700000*%
%ADD14C,3.500000*%
%ADD15R,2.000000X1.905000*%
%ADD16O,2.000000X1.905000*%
%ADD17R,1.600000X1.600000*%
%ADD18O,1.600000X1.600000*%
G04 APERTURE END LIST*
D10*
%TO.C,C3*%
X154700000Y-93800000D03*
D11*
X158200000Y-93800000D03*
%TD*%
D12*
%TO.C,J3*%
X164900000Y-104150000D03*
D13*
X164900000Y-106690000D03*
X164900000Y-109230000D03*
X164900000Y-111770000D03*
X164900000Y-114310000D03*
X164900000Y-116850000D03*
%TD*%
D14*
%TO.C,U2*%
X147520000Y-83950000D03*
D15*
X164180000Y-86490000D03*
D16*
X164180000Y-83950000D03*
X164180000Y-81410000D03*
%TD*%
D11*
%TO.C,C2*%
X147300000Y-95850000D03*
X149800000Y-95850000D03*
%TD*%
D17*
%TO.C,A1*%
X184060000Y-121600000D03*
D18*
X184060000Y-119060000D03*
X184060000Y-116520000D03*
X184060000Y-113980000D03*
X184060000Y-111440000D03*
X184060000Y-108900000D03*
X184060000Y-106360000D03*
X184060000Y-103820000D03*
X184060000Y-101280000D03*
X184060000Y-98740000D03*
X184060000Y-96200000D03*
X184060000Y-93660000D03*
X184060000Y-91120000D03*
X184060000Y-88580000D03*
X184060000Y-86040000D03*
X168820000Y-86040000D03*
X168820000Y-88580000D03*
X168820000Y-91120000D03*
X168820000Y-93660000D03*
X168820000Y-96200000D03*
X168820000Y-98740000D03*
X168820000Y-101280000D03*
X168820000Y-103820000D03*
X168820000Y-106360000D03*
X168820000Y-108900000D03*
X168820000Y-111440000D03*
X168820000Y-113980000D03*
X168820000Y-116520000D03*
X168820000Y-119060000D03*
X168820000Y-121600000D03*
%TD*%
D12*
%TO.C,J1*%
X160650000Y-104150000D03*
D13*
X160650000Y-106690000D03*
X160650000Y-109230000D03*
X160650000Y-111770000D03*
X160650000Y-114310000D03*
X160650000Y-116850000D03*
%TD*%
D10*
%TO.C,C4*%
X163000000Y-93950000D03*
D11*
X165000000Y-93950000D03*
%TD*%
%TO.C,C1*%
X147300000Y-91800000D03*
X149800000Y-91800000D03*
%TD*%
D12*
%TO.C,J2*%
X156450000Y-104150000D03*
D13*
X156450000Y-106690000D03*
X156450000Y-109230000D03*
X156450000Y-111770000D03*
X156450000Y-114310000D03*
X156450000Y-116850000D03*
%TD*%
D12*
%TO.C,U3*%
X153530000Y-75790000D03*
D13*
X153530000Y-73250000D03*
X156070000Y-75790000D03*
X156070000Y-73250000D03*
X158610000Y-75790000D03*
X158610000Y-73250000D03*
X161150000Y-75790000D03*
X161150000Y-73250000D03*
%TD*%
M02*
