%TF.GenerationSoftware,KiCad,Pcbnew,9.0.7*%
%TF.CreationDate,2026-03-09T17:10:09+06:00*%
%TF.ProjectId,Tranceiver_101_PCB_rece,5472616e-6365-4697-9665-725f3130315f,rev?*%
%TF.SameCoordinates,Original*%
%TF.FileFunction,Copper,L1,Top*%
%TF.FilePolarity,Positive*%
%FSLAX46Y46*%
G04 Gerber Fmt 4.6, Leading zero omitted, Abs format (unit mm)*
G04 Created by KiCad (PCBNEW 9.0.7) date 2026-03-09 17:10:09*
%MOMM*%
%LPD*%
G01*
G04 APERTURE LIST*
G04 Aperture macros list*
%AMRoundRect*
0 Rectangle with rounded corners*
0 $1 Rounding radius*
0 $2 $3 $4 $5 $6 $7 $8 $9 X,Y pos of 4 corners*
0 Add a 4 corners polygon primitive as box body*
4,1,4,$2,$3,$4,$5,$6,$7,$8,$9,$2,$3,0*
0 Add four circle primitives for the rounded corners*
1,1,$1+$1,$2,$3*
1,1,$1+$1,$4,$5*
1,1,$1+$1,$6,$7*
1,1,$1+$1,$8,$9*
0 Add four rect primitives between the rounded corners*
20,1,$1+$1,$2,$3,$4,$5,0*
20,1,$1+$1,$4,$5,$6,$7,0*
20,1,$1+$1,$6,$7,$8,$9,0*
20,1,$1+$1,$8,$9,$2,$3,0*%
G04 Aperture macros list end*
%TA.AperFunction,ComponentPad*%
%ADD10RoundRect,0.250000X-0.550000X-0.550000X0.550000X-0.550000X0.550000X0.550000X-0.550000X0.550000X0*%
%TD*%
%TA.AperFunction,ComponentPad*%
%ADD11C,1.600000*%
%TD*%
%TA.AperFunction,ComponentPad*%
%ADD12R,1.700000X1.700000*%
%TD*%
%TA.AperFunction,ComponentPad*%
%ADD13C,1.700000*%
%TD*%
%TA.AperFunction,ComponentPad*%
%ADD14R,2.000000X1.905000*%
%TD*%
%TA.AperFunction,ComponentPad*%
%ADD15O,2.000000X1.905000*%
%TD*%
%TA.AperFunction,ComponentPad*%
%ADD16R,1.600000X1.600000*%
%TD*%
%TA.AperFunction,ComponentPad*%
%ADD17O,1.600000X1.600000*%
%TD*%
%TA.AperFunction,ViaPad*%
%ADD18C,0.600000*%
%TD*%
%TA.AperFunction,Conductor*%
%ADD19C,0.200000*%
%TD*%
G04 APERTURE END LIST*
D10*
%TO.P,C3,1*%
%TO.N,+3V3*%
X154700000Y-93800000D03*
D11*
%TO.P,C3,2*%
%TO.N,GND*%
X158200000Y-93800000D03*
%TD*%
D12*
%TO.P,J3,1,Pin_1*%
%TO.N,GND*%
X164900000Y-104150000D03*
D13*
%TO.P,J3,2,Pin_2*%
X164900000Y-106690000D03*
%TO.P,J3,3,Pin_3*%
X164900000Y-109230000D03*
%TO.P,J3,4,Pin_4*%
X164900000Y-111770000D03*
%TO.P,J3,5,Pin_5*%
X164900000Y-114310000D03*
%TO.P,J3,6,Pin_6*%
X164900000Y-116850000D03*
%TD*%
D14*
%TO.P,U2,1,GND*%
%TO.N,GND*%
X164180000Y-86490000D03*
D15*
%TO.P,U2,2,VO*%
%TO.N,+3V3*%
X164180000Y-83950000D03*
%TO.P,U2,3,VI*%
%TO.N,Net-(A1-VIN)*%
X164180000Y-81410000D03*
%TD*%
D11*
%TO.P,C2,1*%
%TO.N,+3V3*%
X147300000Y-95850000D03*
%TO.P,C2,2*%
%TO.N,GND*%
X149800000Y-95850000D03*
%TD*%
D16*
%TO.P,A1,1,D1/TX*%
%TO.N,unconnected-(A1-D1{slash}TX-Pad1)*%
X184060000Y-121600000D03*
D17*
%TO.P,A1,2,D0/RX*%
%TO.N,unconnected-(A1-D0{slash}RX-Pad2)*%
X184060000Y-119060000D03*
%TO.P,A1,3,~{RESET}*%
%TO.N,unconnected-(A1-~{RESET}-Pad3)*%
X184060000Y-116520000D03*
%TO.P,A1,4,GND*%
%TO.N,GND*%
X184060000Y-113980000D03*
%TO.P,A1,5,D2*%
%TO.N,Net-(A1-D2)*%
X184060000Y-111440000D03*
%TO.P,A1,6,D3*%
%TO.N,Net-(A1-D3)*%
X184060000Y-108900000D03*
%TO.P,A1,7,D4*%
%TO.N,Net-(A1-D4)*%
X184060000Y-106360000D03*
%TO.P,A1,8,D5*%
%TO.N,Net-(A1-D5)*%
X184060000Y-103820000D03*
%TO.P,A1,9,D6*%
%TO.N,Net-(A1-D6)*%
X184060000Y-101280000D03*
%TO.P,A1,10,D7*%
%TO.N,Net-(A1-D7)*%
X184060000Y-98740000D03*
%TO.P,A1,11,D8*%
%TO.N,unconnected-(A1-D8-Pad11)*%
X184060000Y-96200000D03*
%TO.P,A1,12,D9*%
%TO.N,CE*%
X184060000Y-93660000D03*
%TO.P,A1,13,D10*%
%TO.N,CSN*%
X184060000Y-91120000D03*
%TO.P,A1,14,D11*%
%TO.N,MOSI*%
X184060000Y-88580000D03*
%TO.P,A1,15,D12*%
%TO.N,MISO*%
X184060000Y-86040000D03*
%TO.P,A1,16,D13*%
%TO.N,SCK*%
X168820000Y-86040000D03*
%TO.P,A1,17,3V3*%
%TO.N,+3V3*%
X168820000Y-88580000D03*
%TO.P,A1,18,AREF*%
%TO.N,unconnected-(A1-AREF-Pad18)*%
X168820000Y-91120000D03*
%TO.P,A1,19,A0*%
%TO.N,unconnected-(A1-A0-Pad19)*%
X168820000Y-93660000D03*
%TO.P,A1,20,A1*%
%TO.N,unconnected-(A1-A1-Pad20)*%
X168820000Y-96200000D03*
%TO.P,A1,21,A2*%
%TO.N,unconnected-(A1-A2-Pad21)*%
X168820000Y-98740000D03*
%TO.P,A1,22,A3*%
%TO.N,unconnected-(A1-A3-Pad22)*%
X168820000Y-101280000D03*
%TO.P,A1,23,A4*%
%TO.N,unconnected-(A1-A4-Pad23)*%
X168820000Y-103820000D03*
%TO.P,A1,24,A5*%
%TO.N,unconnected-(A1-A5-Pad24)*%
X168820000Y-106360000D03*
%TO.P,A1,25,A6*%
%TO.N,unconnected-(A1-A6-Pad25)*%
X168820000Y-108900000D03*
%TO.P,A1,26,A7*%
%TO.N,unconnected-(A1-A7-Pad26)*%
X168820000Y-111440000D03*
%TO.P,A1,27,+5V*%
%TO.N,+5V*%
X168820000Y-113980000D03*
%TO.P,A1,28,~{RESET}*%
%TO.N,unconnected-(A1-~{RESET}-Pad28)*%
X168820000Y-116520000D03*
%TO.P,A1,29,GND*%
%TO.N,GND*%
X168820000Y-119060000D03*
%TO.P,A1,30,VIN*%
%TO.N,Net-(A1-VIN)*%
X168820000Y-121600000D03*
%TD*%
D12*
%TO.P,J1,1,Pin_1*%
%TO.N,Net-(A1-VIN)*%
X160650000Y-104150000D03*
D13*
%TO.P,J1,2,Pin_2*%
X160650000Y-106690000D03*
%TO.P,J1,3,Pin_3*%
X160650000Y-109230000D03*
%TO.P,J1,4,Pin_4*%
X160650000Y-111770000D03*
%TO.P,J1,5,Pin_5*%
X160650000Y-114310000D03*
%TO.P,J1,6,Pin_6*%
X160650000Y-116850000D03*
%TD*%
D10*
%TO.P,C4,1*%
%TO.N,Net-(A1-VIN)*%
X163000000Y-93950000D03*
D11*
%TO.P,C4,2*%
%TO.N,GND*%
X165000000Y-93950000D03*
%TD*%
%TO.P,C1,1*%
%TO.N,Net-(A1-VIN)*%
X147300000Y-91800000D03*
%TO.P,C1,2*%
%TO.N,GND*%
X149800000Y-91800000D03*
%TD*%
D12*
%TO.P,J2,1,Pin_1*%
%TO.N,Net-(A1-D2)*%
X156450000Y-104150000D03*
D13*
%TO.P,J2,2,Pin_2*%
%TO.N,Net-(A1-D3)*%
X156450000Y-106690000D03*
%TO.P,J2,3,Pin_3*%
%TO.N,Net-(A1-D4)*%
X156450000Y-109230000D03*
%TO.P,J2,4,Pin_4*%
%TO.N,Net-(A1-D5)*%
X156450000Y-111770000D03*
%TO.P,J2,5,Pin_5*%
%TO.N,Net-(A1-D6)*%
X156450000Y-114310000D03*
%TO.P,J2,6,Pin_6*%
%TO.N,Net-(A1-D7)*%
X156450000Y-116850000D03*
%TD*%
D12*
%TO.P,U3,1,GND*%
%TO.N,GND*%
X153530000Y-75790000D03*
D13*
%TO.P,U3,2,VCC*%
%TO.N,+3V3*%
X153530000Y-73250000D03*
%TO.P,U3,3,CE*%
%TO.N,CE*%
X156070000Y-75790000D03*
%TO.P,U3,4,~{CSN}*%
%TO.N,CSN*%
X156070000Y-73250000D03*
%TO.P,U3,5,SCK*%
%TO.N,SCK*%
X158610000Y-75790000D03*
%TO.P,U3,6,MOSI*%
%TO.N,MOSI*%
X158610000Y-73250000D03*
%TO.P,U3,7,MISO*%
%TO.N,MISO*%
X161150000Y-75790000D03*
%TO.P,U3,8,IRQ*%
%TO.N,unconnected-(U3-IRQ-Pad8)*%
X161150000Y-73250000D03*
%TD*%
D18*
%TO.N,MOSI*%
X186500000Y-88500000D03*
%TO.N,Net-(A1-D7)*%
X177150000Y-118200000D03*
%TO.N,Net-(A1-D6)*%
X178250000Y-107700000D03*
%TO.N,Net-(A1-VIN)*%
X166850000Y-85750000D03*
X166770735Y-87379265D03*
%TO.N,Net-(A1-D5)*%
X179300000Y-107650000D03*
%TO.N,SCK*%
X167200000Y-78950000D03*
X165200000Y-76950000D03*
%TD*%
D19*
%TO.N,MOSI*%
X158610000Y-73250000D02*
X159761000Y-72099000D01*
X159761000Y-72099000D02*
X183416100Y-72099000D01*
X186500000Y-75182900D02*
X186500000Y-88500000D01*
X183416100Y-72099000D02*
X186500000Y-75182900D01*
%TO.N,Net-(A1-D7)*%
X177150000Y-118200000D02*
X177150000Y-105650000D01*
X177150000Y-105650000D02*
X184060000Y-98740000D01*
%TO.N,CSN*%
X185550000Y-74800000D02*
X185550000Y-89630000D01*
X157322000Y-74502000D02*
X185252000Y-74502000D01*
X185252000Y-74502000D02*
X185550000Y-74800000D01*
X185550000Y-89630000D02*
X184060000Y-91120000D01*
X156070000Y-73250000D02*
X157322000Y-74502000D01*
%TO.N,Net-(A1-D6)*%
X178250000Y-107700000D02*
X178700000Y-107250000D01*
X178700000Y-107250000D02*
X178700000Y-106640000D01*
X178700000Y-106640000D02*
X184060000Y-101280000D01*
%TO.N,+3V3*%
X164180000Y-83950000D02*
X164190000Y-83950000D01*
X149350000Y-93800000D02*
X154700000Y-93800000D01*
X164190000Y-83950000D02*
X168820000Y-88580000D01*
X147300000Y-95850000D02*
X149350000Y-93800000D01*
%TO.N,Net-(A1-VIN)*%
X168820000Y-121600000D02*
X162300000Y-121600000D01*
X164180000Y-81410000D02*
X166850000Y-84080000D01*
X162300000Y-121600000D02*
X160650000Y-119950000D01*
X166770735Y-87379265D02*
X163000000Y-91150000D01*
X163000000Y-92400000D02*
X160500000Y-89900000D01*
X163000000Y-91150000D02*
X163000000Y-93950000D01*
X160650000Y-119950000D02*
X160650000Y-116850000D01*
X160650000Y-96300000D02*
X163000000Y-93950000D01*
X160650000Y-104150000D02*
X160650000Y-96300000D01*
X163000000Y-93950000D02*
X163000000Y-92400000D01*
X160650000Y-104150000D02*
X160650000Y-116850000D01*
X149200000Y-89900000D02*
X147300000Y-91800000D01*
X166850000Y-84080000D02*
X166850000Y-85750000D01*
X160500000Y-89900000D02*
X149200000Y-89900000D01*
%TO.N,Net-(A1-D5)*%
X179300000Y-107650000D02*
X179550000Y-107400000D01*
X179550000Y-107400000D02*
X180480000Y-107400000D01*
X180480000Y-107400000D02*
X184060000Y-103820000D01*
%TO.N,CE*%
X168349000Y-77949000D02*
X184060000Y-93660000D01*
X156070000Y-75790000D02*
X158229000Y-77949000D01*
X158229000Y-77949000D02*
X168349000Y-77949000D01*
%TO.N,GND*%
X154650000Y-78350000D02*
X153530000Y-77230000D01*
X161100000Y-78350000D02*
X154650000Y-78350000D01*
X153530000Y-77230000D02*
X153530000Y-75790000D01*
X162000000Y-79250000D02*
X161100000Y-78350000D01*
X165000000Y-93950000D02*
X165000000Y-104050000D01*
X162890000Y-86490000D02*
X162000000Y-85600000D01*
X149800000Y-95850000D02*
X156150000Y-95850000D01*
X167110000Y-119060000D02*
X168820000Y-119060000D01*
X168820000Y-119060000D02*
X178980000Y-119060000D01*
X162000000Y-85600000D02*
X162000000Y-79250000D01*
X156200000Y-91800000D02*
X158200000Y-93800000D01*
X149800000Y-91800000D02*
X156200000Y-91800000D01*
X164180000Y-86490000D02*
X162890000Y-86490000D01*
X164900000Y-116850000D02*
X167110000Y-119060000D01*
X164900000Y-104150000D02*
X164900000Y-116850000D01*
X165000000Y-104050000D02*
X164900000Y-104150000D01*
X156150000Y-95850000D02*
X158200000Y-93800000D01*
X178980000Y-119060000D02*
X184060000Y-113980000D01*
%TO.N,MISO*%
X184100000Y-76100000D02*
X184060000Y-76140000D01*
X183790000Y-75790000D02*
X184100000Y-76100000D01*
X161150000Y-75790000D02*
X183790000Y-75790000D01*
X184060000Y-76140000D02*
X184060000Y-86040000D01*
%TO.N,SCK*%
X167200000Y-78950000D02*
X168820000Y-80570000D01*
X159770000Y-76950000D02*
X165200000Y-76950000D01*
X158610000Y-75790000D02*
X159770000Y-76950000D01*
X168820000Y-80570000D02*
X168820000Y-86040000D01*
%TD*%
%TA.AperFunction,NonConductor*%
G36*
X183183042Y-72719185D02*
G01*
X183203684Y-72735819D01*
X184157684Y-73689819D01*
X184191169Y-73751142D01*
X184186185Y-73820834D01*
X184144313Y-73876767D01*
X184078849Y-73901184D01*
X184070003Y-73901500D01*
X162528985Y-73901500D01*
X162461946Y-73881815D01*
X162416191Y-73829011D01*
X162406247Y-73759853D01*
X162411054Y-73739182D01*
X162420000Y-73711650D01*
X162467246Y-73566243D01*
X162500500Y-73356287D01*
X162500500Y-73143713D01*
X162467246Y-72933757D01*
X162443870Y-72861816D01*
X162441876Y-72791977D01*
X162477956Y-72732144D01*
X162540657Y-72701316D01*
X162561802Y-72699500D01*
X183116003Y-72699500D01*
X183183042Y-72719185D01*
G37*
%TD.AperFunction*%
%TA.AperFunction,NonConductor*%
G36*
X154817226Y-73885524D02*
G01*
X154829810Y-73884985D01*
X154849674Y-73896581D01*
X154871444Y-73903999D01*
X154880719Y-73914703D01*
X154890151Y-73920209D01*
X154910486Y-73949056D01*
X154914951Y-73957820D01*
X155039890Y-74129786D01*
X155190213Y-74280109D01*
X155362182Y-74405050D01*
X155370946Y-74409516D01*
X155421742Y-74457491D01*
X155438536Y-74525312D01*
X155415998Y-74591447D01*
X155370946Y-74630484D01*
X155362182Y-74634949D01*
X155190215Y-74759889D01*
X155076673Y-74873431D01*
X155015350Y-74906915D01*
X154945658Y-74901931D01*
X154889725Y-74860059D01*
X154872810Y-74829082D01*
X154823797Y-74697671D01*
X154823793Y-74697664D01*
X154737547Y-74582455D01*
X154737544Y-74582452D01*
X154622335Y-74496206D01*
X154622328Y-74496202D01*
X154490917Y-74447189D01*
X154434983Y-74405318D01*
X154410566Y-74339853D01*
X154425418Y-74271580D01*
X154446563Y-74243332D01*
X154560104Y-74129792D01*
X154685051Y-73957816D01*
X154689514Y-73949054D01*
X154698160Y-73939900D01*
X154702897Y-73928232D01*
X154721696Y-73914979D01*
X154737488Y-73898259D01*
X154749710Y-73895231D01*
X154760004Y-73887976D01*
X154782985Y-73886991D01*
X154805308Y-73881463D01*
X154817226Y-73885524D01*
G37*
%TD.AperFunction*%
%TA.AperFunction,NonConductor*%
G36*
X155048418Y-76685417D02*
G01*
X155076673Y-76706569D01*
X155190213Y-76820109D01*
X155362179Y-76945048D01*
X155362181Y-76945049D01*
X155362184Y-76945051D01*
X155551588Y-77041557D01*
X155753757Y-77107246D01*
X155963713Y-77140500D01*
X155963714Y-77140500D01*
X156176286Y-77140500D01*
X156176287Y-77140500D01*
X156386243Y-77107246D01*
X156428523Y-77093507D01*
X156498362Y-77091511D01*
X156554522Y-77123757D01*
X156968584Y-77537819D01*
X157002069Y-77599142D01*
X156997085Y-77668834D01*
X156955213Y-77724767D01*
X156889749Y-77749184D01*
X156880903Y-77749500D01*
X154950097Y-77749500D01*
X154883058Y-77729815D01*
X154862416Y-77713181D01*
X154475221Y-77325986D01*
X154441736Y-77264663D01*
X154446720Y-77194971D01*
X154488592Y-77139038D01*
X154519568Y-77122124D01*
X154622331Y-77083796D01*
X154737546Y-76997546D01*
X154823796Y-76882331D01*
X154872810Y-76750916D01*
X154914681Y-76694984D01*
X154980145Y-76670566D01*
X155048418Y-76685417D01*
G37*
%TD.AperFunction*%
%TA.AperFunction,NonConductor*%
G36*
X162805703Y-82026572D02*
G01*
X162834983Y-82063988D01*
X162889783Y-82171538D01*
X163024214Y-82356566D01*
X163185934Y-82518286D01*
X163255423Y-82568773D01*
X163270438Y-82579682D01*
X163313103Y-82635013D01*
X163319082Y-82704626D01*
X163286476Y-82766421D01*
X163270438Y-82780318D01*
X163185932Y-82841715D01*
X163024216Y-83003431D01*
X163024216Y-83003432D01*
X163024214Y-83003434D01*
X162980717Y-83063303D01*
X162889783Y-83188461D01*
X162834985Y-83296009D01*
X162787010Y-83346805D01*
X162719189Y-83363600D01*
X162653054Y-83341063D01*
X162609603Y-83286347D01*
X162600500Y-83239714D01*
X162600500Y-82120285D01*
X162620185Y-82053246D01*
X162672989Y-82007491D01*
X162742147Y-81997547D01*
X162805703Y-82026572D01*
G37*
%TD.AperFunction*%
%TA.AperFunction,NonConductor*%
G36*
X184892539Y-75122185D02*
G01*
X184938294Y-75174989D01*
X184949500Y-75226500D01*
X184949500Y-84835389D01*
X184929815Y-84902428D01*
X184877011Y-84948183D01*
X184807853Y-84958127D01*
X184752619Y-84935710D01*
X184741611Y-84927713D01*
X184728200Y-84920879D01*
X184677406Y-84872903D01*
X184660500Y-84810397D01*
X184660500Y-76344666D01*
X184664725Y-76312572D01*
X184677763Y-76263914D01*
X184700501Y-76179057D01*
X184700501Y-76020942D01*
X184659577Y-75868215D01*
X184580520Y-75731284D01*
X184468716Y-75619480D01*
X184468715Y-75619479D01*
X184464385Y-75615149D01*
X184464374Y-75615139D01*
X184277590Y-75428355D01*
X184270521Y-75421286D01*
X184270520Y-75421284D01*
X184163414Y-75314178D01*
X184129932Y-75252858D01*
X184134916Y-75183166D01*
X184176788Y-75127233D01*
X184242252Y-75102816D01*
X184251098Y-75102500D01*
X184825500Y-75102500D01*
X184892539Y-75122185D01*
G37*
%TD.AperFunction*%
%TA.AperFunction,NonConductor*%
G36*
X165885703Y-83965384D02*
G01*
X165892181Y-83971416D01*
X166213181Y-84292416D01*
X166246666Y-84353739D01*
X166249500Y-84380097D01*
X166249500Y-84860902D01*
X166229815Y-84927941D01*
X166177011Y-84973696D01*
X166107853Y-84983640D01*
X166044297Y-84954615D01*
X166037819Y-84948583D01*
X165633406Y-84544170D01*
X165599921Y-84482847D01*
X165603155Y-84418172D01*
X165644722Y-84290245D01*
X165680500Y-84064354D01*
X165680500Y-84059097D01*
X165700185Y-83992058D01*
X165752989Y-83946303D01*
X165822147Y-83936359D01*
X165885703Y-83965384D01*
G37*
%TD.AperFunction*%
%TA.AperFunction,NonConductor*%
G36*
X162805703Y-84566572D02*
G01*
X162834983Y-84603988D01*
X162889783Y-84711538D01*
X163022525Y-84894242D01*
X163046005Y-84960046D01*
X163030180Y-85028100D01*
X162992750Y-85069105D01*
X162980028Y-85077904D01*
X162937669Y-85093704D01*
X162822454Y-85179954D01*
X162811659Y-85194373D01*
X162795043Y-85205868D01*
X162780276Y-85210754D01*
X162767823Y-85220075D01*
X162747781Y-85221506D01*
X162728711Y-85227817D01*
X162713647Y-85223944D01*
X162698131Y-85225053D01*
X162680498Y-85215422D01*
X162661042Y-85210421D01*
X162650462Y-85199017D01*
X162636811Y-85191562D01*
X162627184Y-85173928D01*
X162613520Y-85159201D01*
X162610785Y-85143889D01*
X162603331Y-85130236D01*
X162600500Y-85103889D01*
X162600500Y-84660285D01*
X162620185Y-84593246D01*
X162672989Y-84547491D01*
X162742147Y-84537547D01*
X162805703Y-84566572D01*
G37*
%TD.AperFunction*%
%TA.AperFunction,NonConductor*%
G36*
X166380898Y-78569185D02*
G01*
X166426653Y-78621989D01*
X166436597Y-78691147D01*
X166431299Y-78710454D01*
X166432031Y-78710676D01*
X166430261Y-78716510D01*
X166399500Y-78871153D01*
X166399500Y-79028846D01*
X166430261Y-79183489D01*
X166430264Y-79183501D01*
X166490602Y-79329172D01*
X166490609Y-79329185D01*
X166578210Y-79460288D01*
X166578213Y-79460292D01*
X166689707Y-79571786D01*
X166689711Y-79571789D01*
X166820814Y-79659390D01*
X166820827Y-79659397D01*
X166966498Y-79719735D01*
X166966503Y-79719737D01*
X167031147Y-79732595D01*
X167121849Y-79750638D01*
X167183760Y-79783023D01*
X167185339Y-79784574D01*
X168183181Y-80782416D01*
X168216666Y-80843739D01*
X168219500Y-80870097D01*
X168219500Y-84810397D01*
X168199815Y-84877436D01*
X168151800Y-84920879D01*
X168138389Y-84927712D01*
X167972786Y-85048028D01*
X167828032Y-85192782D01*
X167828028Y-85192787D01*
X167730699Y-85326750D01*
X167706571Y-85345355D01*
X167683898Y-85365722D01*
X167679164Y-85366488D01*
X167675369Y-85369416D01*
X167645009Y-85372023D01*
X167614928Y-85376898D01*
X167610532Y-85374984D01*
X167605756Y-85375395D01*
X167578809Y-85361176D01*
X167550864Y-85349013D01*
X167546455Y-85344105D01*
X167543961Y-85342789D01*
X167527279Y-85322756D01*
X167471398Y-85239125D01*
X167450520Y-85172448D01*
X167450500Y-85170234D01*
X167450500Y-84000945D01*
X167450500Y-84000943D01*
X167409577Y-83848216D01*
X167409577Y-83848215D01*
X167409577Y-83848214D01*
X167380639Y-83798095D01*
X167380637Y-83798092D01*
X167330520Y-83711284D01*
X167218716Y-83599480D01*
X167218715Y-83599479D01*
X167214385Y-83595149D01*
X167214374Y-83595139D01*
X165630953Y-82011718D01*
X165597468Y-81950395D01*
X165600703Y-81885719D01*
X165644722Y-81750245D01*
X165680500Y-81524354D01*
X165680500Y-81295646D01*
X165644722Y-81069755D01*
X165644721Y-81069751D01*
X165644721Y-81069750D01*
X165574049Y-80852244D01*
X165574048Y-80852242D01*
X165470217Y-80648462D01*
X165335786Y-80463434D01*
X165174066Y-80301714D01*
X164989038Y-80167283D01*
X164785255Y-80063450D01*
X164567748Y-79992778D01*
X164398326Y-79965944D01*
X164341854Y-79957000D01*
X164018146Y-79957000D01*
X163942849Y-79968926D01*
X163792253Y-79992778D01*
X163792250Y-79992778D01*
X163574744Y-80063450D01*
X163370961Y-80167283D01*
X163324162Y-80201285D01*
X163185934Y-80301714D01*
X163185932Y-80301716D01*
X163185931Y-80301716D01*
X163024216Y-80463431D01*
X163024216Y-80463432D01*
X163024214Y-80463434D01*
X163004226Y-80490945D01*
X162889783Y-80648461D01*
X162834985Y-80756009D01*
X162787010Y-80806805D01*
X162719189Y-80823600D01*
X162653054Y-80801063D01*
X162609603Y-80746347D01*
X162600500Y-80699714D01*
X162600500Y-79170944D01*
X162600499Y-79170938D01*
X162595826Y-79153500D01*
X162592141Y-79139744D01*
X162559577Y-79018215D01*
X162530639Y-78968095D01*
X162480520Y-78881284D01*
X162368716Y-78769480D01*
X162368715Y-78769479D01*
X162364385Y-78765149D01*
X162364374Y-78765139D01*
X162360416Y-78761181D01*
X162326931Y-78699858D01*
X162331915Y-78630166D01*
X162373787Y-78574233D01*
X162439251Y-78549816D01*
X162448097Y-78549500D01*
X166313859Y-78549500D01*
X166380898Y-78569185D01*
G37*
%TD.AperFunction*%
%TA.AperFunction,NonConductor*%
G36*
X165885702Y-86495383D02*
G01*
X165892180Y-86501415D01*
X166121365Y-86730600D01*
X166154850Y-86791923D01*
X166149866Y-86861615D01*
X166136787Y-86887171D01*
X166061343Y-87000081D01*
X166061337Y-87000092D01*
X166000999Y-87145763D01*
X166000996Y-87145773D01*
X165970097Y-87301113D01*
X165961331Y-87317869D01*
X165957312Y-87336348D01*
X165938569Y-87361384D01*
X165937712Y-87363024D01*
X165936161Y-87364602D01*
X165892180Y-87408583D01*
X165830857Y-87442068D01*
X165761165Y-87437084D01*
X165705232Y-87395212D01*
X165680815Y-87329748D01*
X165680499Y-87320926D01*
X165680499Y-86589095D01*
X165700184Y-86522057D01*
X165752988Y-86476302D01*
X165822146Y-86466358D01*
X165885702Y-86495383D01*
G37*
%TD.AperFunction*%
%TA.AperFunction,NonConductor*%
G36*
X183402539Y-76410185D02*
G01*
X183448294Y-76462989D01*
X183459500Y-76514500D01*
X183459500Y-84810397D01*
X183439815Y-84877436D01*
X183391800Y-84920879D01*
X183378389Y-84927712D01*
X183212786Y-85048028D01*
X183068028Y-85192786D01*
X182947715Y-85358386D01*
X182854781Y-85540776D01*
X182791522Y-85735465D01*
X182759500Y-85937648D01*
X182759500Y-86142351D01*
X182791522Y-86344534D01*
X182854781Y-86539223D01*
X182947715Y-86721613D01*
X183068028Y-86887213D01*
X183212786Y-87031971D01*
X183367749Y-87144556D01*
X183378390Y-87152287D01*
X183469840Y-87198883D01*
X183471080Y-87199515D01*
X183521876Y-87247490D01*
X183538671Y-87315311D01*
X183516134Y-87381446D01*
X183471080Y-87420485D01*
X183378386Y-87467715D01*
X183212786Y-87588028D01*
X183068028Y-87732786D01*
X182947715Y-87898386D01*
X182854781Y-88080776D01*
X182791522Y-88275465D01*
X182759500Y-88477648D01*
X182759500Y-88682351D01*
X182791522Y-88884534D01*
X182854781Y-89079223D01*
X182918691Y-89204653D01*
X182937923Y-89242397D01*
X182947715Y-89261613D01*
X183068028Y-89427213D01*
X183212786Y-89571971D01*
X183367749Y-89684556D01*
X183378390Y-89692287D01*
X183469840Y-89738883D01*
X183471080Y-89739515D01*
X183521876Y-89787490D01*
X183538671Y-89855311D01*
X183516134Y-89921446D01*
X183471080Y-89960485D01*
X183378386Y-90007715D01*
X183212786Y-90128028D01*
X183068028Y-90272786D01*
X182947715Y-90438386D01*
X182854781Y-90620776D01*
X182791522Y-90815465D01*
X182759500Y-91017648D01*
X182759500Y-91210903D01*
X182739815Y-91277942D01*
X182687011Y-91323697D01*
X182617853Y-91333641D01*
X182554297Y-91304616D01*
X182547819Y-91298584D01*
X168836590Y-77587355D01*
X168836588Y-77587352D01*
X168717717Y-77468481D01*
X168717716Y-77468480D01*
X168630904Y-77418360D01*
X168630904Y-77418359D01*
X168630900Y-77418358D01*
X168580785Y-77389423D01*
X168428057Y-77348499D01*
X168269943Y-77348499D01*
X168262347Y-77348499D01*
X168262331Y-77348500D01*
X166086878Y-77348500D01*
X166019839Y-77328815D01*
X165974084Y-77276011D01*
X165964140Y-77206853D01*
X165968219Y-77188498D01*
X165969730Y-77183511D01*
X165969737Y-77183497D01*
X166000500Y-77028842D01*
X166000500Y-76871158D01*
X166000500Y-76871155D01*
X166000499Y-76871153D01*
X165969738Y-76716510D01*
X165969737Y-76716503D01*
X165960824Y-76694984D01*
X165907063Y-76565192D01*
X165908771Y-76564484D01*
X165896291Y-76504556D01*
X165921289Y-76439311D01*
X165977592Y-76397938D01*
X166019892Y-76390500D01*
X183335500Y-76390500D01*
X183402539Y-76410185D01*
G37*
%TD.AperFunction*%
%TA.AperFunction,NonConductor*%
G36*
X153727465Y-92420185D02*
G01*
X153773220Y-92472989D01*
X153783164Y-92542147D01*
X153754139Y-92605703D01*
X153725522Y-92630039D01*
X153681344Y-92657287D01*
X153557289Y-92781342D01*
X153465187Y-92930663D01*
X153465185Y-92930668D01*
X153410000Y-93097204D01*
X153409088Y-93101467D01*
X153375801Y-93162898D01*
X153314586Y-93196581D01*
X153287837Y-93199500D01*
X150434421Y-93199500D01*
X150367382Y-93179815D01*
X150321627Y-93127011D01*
X150311683Y-93057853D01*
X150340708Y-92994297D01*
X150378126Y-92965015D01*
X150391838Y-92958028D01*
X150481610Y-92912287D01*
X150584248Y-92837717D01*
X150647213Y-92791971D01*
X150647215Y-92791968D01*
X150647219Y-92791966D01*
X150791966Y-92647219D01*
X150791968Y-92647215D01*
X150791971Y-92647213D01*
X150912284Y-92481614D01*
X150912285Y-92481613D01*
X150912287Y-92481610D01*
X150919117Y-92468204D01*
X150967091Y-92417409D01*
X151029602Y-92400500D01*
X153660426Y-92400500D01*
X153727465Y-92420185D01*
G37*
%TD.AperFunction*%
%TA.AperFunction,NonConductor*%
G36*
X155966942Y-92420185D02*
G01*
X156012697Y-92472989D01*
X156022641Y-92542147D01*
X156002748Y-92585705D01*
X156898624Y-93348421D01*
X156936909Y-93406868D01*
X156937518Y-93476735D01*
X156936173Y-93481155D01*
X156931522Y-93495468D01*
X156899500Y-93697648D01*
X156899500Y-93902351D01*
X156931523Y-94104535D01*
X156936172Y-94118845D01*
X156938165Y-94188687D01*
X156905921Y-94244841D01*
X155937584Y-95213181D01*
X155876261Y-95246666D01*
X155849903Y-95249500D01*
X155658511Y-95249500D01*
X155591472Y-95229815D01*
X155545717Y-95177011D01*
X155535773Y-95107853D01*
X155564798Y-95044297D01*
X155593412Y-95019962D01*
X155718656Y-94942712D01*
X155842712Y-94818656D01*
X155934814Y-94669334D01*
X155989999Y-94502797D01*
X156000500Y-94400009D01*
X156000499Y-93199992D01*
X155996677Y-93162581D01*
X155989999Y-93097203D01*
X155989998Y-93097200D01*
X155967274Y-93028625D01*
X155934814Y-92930666D01*
X155842712Y-92781344D01*
X155718656Y-92657288D01*
X155718655Y-92657287D01*
X155674478Y-92630039D01*
X155627753Y-92578091D01*
X155616530Y-92509129D01*
X155644373Y-92445047D01*
X155702442Y-92406190D01*
X155739574Y-92400500D01*
X155899903Y-92400500D01*
X155966942Y-92420185D01*
G37*
%TD.AperFunction*%
%TA.AperFunction,NonConductor*%
G36*
X153354876Y-94420185D02*
G01*
X153400631Y-94472989D01*
X153409089Y-94498541D01*
X153409999Y-94502792D01*
X153436088Y-94581522D01*
X153465186Y-94669334D01*
X153557288Y-94818656D01*
X153681344Y-94942712D01*
X153806586Y-95019961D01*
X153853310Y-95071909D01*
X153864533Y-95140871D01*
X153836689Y-95204954D01*
X153778621Y-95243810D01*
X153741489Y-95249500D01*
X151029602Y-95249500D01*
X150962563Y-95229815D01*
X150919117Y-95181795D01*
X150917999Y-95179601D01*
X150912287Y-95168390D01*
X150912285Y-95168387D01*
X150912284Y-95168385D01*
X150791971Y-95002786D01*
X150647213Y-94858028D01*
X150481613Y-94737715D01*
X150481612Y-94737714D01*
X150481610Y-94737713D01*
X150347403Y-94669331D01*
X150299222Y-94644781D01*
X150299219Y-94644780D01*
X150291986Y-94642430D01*
X150234313Y-94602992D01*
X150207115Y-94538634D01*
X150219030Y-94469787D01*
X150266275Y-94418312D01*
X150330307Y-94400500D01*
X153287837Y-94400500D01*
X153354876Y-94420185D01*
G37*
%TD.AperFunction*%
%TA.AperFunction,NonConductor*%
G36*
X182678834Y-103612914D02*
G01*
X182734767Y-103654786D01*
X182759184Y-103720250D01*
X182759500Y-103729096D01*
X182759500Y-103922351D01*
X182791523Y-104124535D01*
X182796172Y-104138845D01*
X182798165Y-104208687D01*
X182765921Y-104264841D01*
X180267584Y-106763181D01*
X180206261Y-106796666D01*
X180179903Y-106799500D01*
X179689096Y-106799500D01*
X179622057Y-106779815D01*
X179576302Y-106727011D01*
X179566358Y-106657853D01*
X179595383Y-106594297D01*
X179601415Y-106587819D01*
X181100757Y-105088477D01*
X182547821Y-103641413D01*
X182609142Y-103607930D01*
X182678834Y-103612914D01*
G37*
%TD.AperFunction*%
%TA.AperFunction,NonConductor*%
G36*
X182678834Y-101072915D02*
G01*
X182734767Y-101114787D01*
X182759184Y-101180251D01*
X182759500Y-101189097D01*
X182759500Y-101382351D01*
X182791523Y-101584535D01*
X182796172Y-101598845D01*
X182798165Y-101668687D01*
X182765921Y-101724841D01*
X178331286Y-106159478D01*
X178219481Y-106271282D01*
X178219479Y-106271285D01*
X178169361Y-106358094D01*
X178169359Y-106358096D01*
X178140425Y-106408209D01*
X178140424Y-106408210D01*
X178140423Y-106408215D01*
X178099499Y-106560943D01*
X178099499Y-106560945D01*
X178099499Y-106729046D01*
X178099500Y-106729059D01*
X178099500Y-106813121D01*
X178079815Y-106880160D01*
X178027011Y-106925915D01*
X178022069Y-106927785D01*
X178022130Y-106927933D01*
X178016506Y-106930262D01*
X178016503Y-106930263D01*
X177922974Y-106969003D01*
X177921952Y-106969427D01*
X177852482Y-106976895D01*
X177790003Y-106945619D01*
X177754351Y-106885530D01*
X177750500Y-106854865D01*
X177750500Y-105950097D01*
X177770185Y-105883058D01*
X177786819Y-105862416D01*
X182547819Y-101101416D01*
X182609142Y-101067931D01*
X182678834Y-101072915D01*
G37*
%TD.AperFunction*%
%TA.AperFunction,NonConductor*%
G36*
X182678834Y-106152914D02*
G01*
X182734767Y-106194786D01*
X182759184Y-106260250D01*
X182759500Y-106269096D01*
X182759500Y-106462351D01*
X182791522Y-106664534D01*
X182854781Y-106859223D01*
X182947715Y-107041613D01*
X183068028Y-107207213D01*
X183212786Y-107351971D01*
X183367749Y-107464556D01*
X183378390Y-107472287D01*
X183469840Y-107518883D01*
X183471080Y-107519515D01*
X183521876Y-107567490D01*
X183538671Y-107635311D01*
X183516134Y-107701446D01*
X183471080Y-107740485D01*
X183378386Y-107787715D01*
X183212786Y-107908028D01*
X183068028Y-108052786D01*
X182947715Y-108218386D01*
X182854781Y-108400776D01*
X182791522Y-108595465D01*
X182759500Y-108797648D01*
X182759500Y-109002351D01*
X182791522Y-109204534D01*
X182854781Y-109399223D01*
X182947715Y-109581613D01*
X183068028Y-109747213D01*
X183212786Y-109891971D01*
X183367749Y-110004556D01*
X183378390Y-110012287D01*
X183469840Y-110058883D01*
X183471080Y-110059515D01*
X183521876Y-110107490D01*
X183538671Y-110175311D01*
X183516134Y-110241446D01*
X183471080Y-110280485D01*
X183378386Y-110327715D01*
X183212786Y-110448028D01*
X183068028Y-110592786D01*
X182947715Y-110758386D01*
X182854781Y-110940776D01*
X182791522Y-111135465D01*
X182759500Y-111337648D01*
X182759500Y-111542351D01*
X182791522Y-111744534D01*
X182854781Y-111939223D01*
X182947715Y-112121613D01*
X183068028Y-112287213D01*
X183212786Y-112431971D01*
X183367749Y-112544556D01*
X183378390Y-112552287D01*
X183469840Y-112598883D01*
X183471080Y-112599515D01*
X183521876Y-112647490D01*
X183538671Y-112715311D01*
X183516134Y-112781446D01*
X183471080Y-112820485D01*
X183378386Y-112867715D01*
X183212786Y-112988028D01*
X183068028Y-113132786D01*
X182947715Y-113298386D01*
X182854781Y-113480776D01*
X182791522Y-113675465D01*
X182759500Y-113877648D01*
X182759500Y-114082351D01*
X182791522Y-114284534D01*
X182796173Y-114298848D01*
X182798165Y-114368690D01*
X182765921Y-114424842D01*
X178767584Y-118423181D01*
X178706261Y-118456666D01*
X178679903Y-118459500D01*
X178065660Y-118459500D01*
X177998621Y-118439815D01*
X177952866Y-118387011D01*
X177942922Y-118317853D01*
X177944042Y-118311310D01*
X177950500Y-118278841D01*
X177950500Y-118121155D01*
X177950499Y-118121153D01*
X177927405Y-118005052D01*
X177919737Y-117966503D01*
X177883950Y-117880104D01*
X177859397Y-117820827D01*
X177859390Y-117820814D01*
X177771398Y-117689125D01*
X177750520Y-117622447D01*
X177750500Y-117620234D01*
X177750500Y-108545134D01*
X177770185Y-108478095D01*
X177822989Y-108432340D01*
X177892147Y-108422396D01*
X177921950Y-108430572D01*
X178016503Y-108469737D01*
X178171153Y-108500499D01*
X178171156Y-108500500D01*
X178171158Y-108500500D01*
X178328844Y-108500500D01*
X178328845Y-108500499D01*
X178483497Y-108469737D01*
X178629179Y-108409394D01*
X178743524Y-108332990D01*
X178810201Y-108312113D01*
X178877581Y-108330597D01*
X178881285Y-108332976D01*
X178920821Y-108359394D01*
X178920823Y-108359395D01*
X178920827Y-108359397D01*
X179066498Y-108419735D01*
X179066503Y-108419737D01*
X179221153Y-108450499D01*
X179221156Y-108450500D01*
X179221158Y-108450500D01*
X179378844Y-108450500D01*
X179378845Y-108450499D01*
X179533497Y-108419737D01*
X179679179Y-108359394D01*
X179810289Y-108271789D01*
X179921789Y-108160289D01*
X179991734Y-108055608D01*
X180045346Y-108010804D01*
X180094836Y-108000500D01*
X180393331Y-108000500D01*
X180393347Y-108000501D01*
X180400943Y-108000501D01*
X180559054Y-108000501D01*
X180559057Y-108000501D01*
X180711785Y-107959577D01*
X180761904Y-107930639D01*
X180848716Y-107880520D01*
X180960520Y-107768716D01*
X180960520Y-107768714D01*
X180970728Y-107758507D01*
X180970729Y-107758504D01*
X182547820Y-106181413D01*
X182609142Y-106147930D01*
X182678834Y-106152914D01*
G37*
%TD.AperFunction*%
%TA.AperFunction,NonConductor*%
G36*
X168158584Y-78614067D02*
G01*
X168184905Y-78634140D01*
X182765922Y-93215157D01*
X182799407Y-93276480D01*
X182796173Y-93341155D01*
X182791522Y-93355468D01*
X182759500Y-93557648D01*
X182759500Y-93762351D01*
X182791522Y-93964534D01*
X182854781Y-94159223D01*
X182947715Y-94341613D01*
X183068028Y-94507213D01*
X183212786Y-94651971D01*
X183330805Y-94737715D01*
X183378390Y-94772287D01*
X183469394Y-94818656D01*
X183471080Y-94819515D01*
X183521876Y-94867490D01*
X183538671Y-94935311D01*
X183516134Y-95001446D01*
X183471080Y-95040485D01*
X183378386Y-95087715D01*
X183212786Y-95208028D01*
X183068028Y-95352786D01*
X182947715Y-95518386D01*
X182854781Y-95700776D01*
X182791522Y-95895465D01*
X182759500Y-96097648D01*
X182759500Y-96302351D01*
X182791522Y-96504534D01*
X182854781Y-96699223D01*
X182947715Y-96881613D01*
X183068028Y-97047213D01*
X183212786Y-97191971D01*
X183367749Y-97304556D01*
X183378390Y-97312287D01*
X183469840Y-97358883D01*
X183471080Y-97359515D01*
X183521876Y-97407490D01*
X183538671Y-97475311D01*
X183516134Y-97541446D01*
X183471080Y-97580485D01*
X183378386Y-97627715D01*
X183212786Y-97748028D01*
X183068028Y-97892786D01*
X182947715Y-98058386D01*
X182854781Y-98240776D01*
X182791522Y-98435465D01*
X182759500Y-98637648D01*
X182759500Y-98842351D01*
X182791523Y-99044535D01*
X182796172Y-99058845D01*
X182798165Y-99128687D01*
X182765921Y-99184841D01*
X176781286Y-105169478D01*
X176669481Y-105281282D01*
X176669479Y-105281285D01*
X176625452Y-105357544D01*
X176625451Y-105357545D01*
X176590423Y-105418215D01*
X176549499Y-105570943D01*
X176549499Y-105570945D01*
X176549499Y-105739046D01*
X176549500Y-105739059D01*
X176549500Y-117620234D01*
X176529815Y-117687273D01*
X176528602Y-117689125D01*
X176440609Y-117820814D01*
X176440602Y-117820827D01*
X176380264Y-117966498D01*
X176380261Y-117966510D01*
X176349500Y-118121153D01*
X176349500Y-118278841D01*
X176355958Y-118311310D01*
X176349729Y-118380902D01*
X176306866Y-118436078D01*
X176240976Y-118459322D01*
X176234340Y-118459500D01*
X170049602Y-118459500D01*
X169982563Y-118439815D01*
X169939117Y-118391795D01*
X169932287Y-118378390D01*
X169932285Y-118378387D01*
X169932284Y-118378385D01*
X169811971Y-118212786D01*
X169667213Y-118068028D01*
X169501614Y-117947715D01*
X169495006Y-117944348D01*
X169408917Y-117900483D01*
X169358123Y-117852511D01*
X169341328Y-117784690D01*
X169363865Y-117718555D01*
X169408917Y-117679516D01*
X169501610Y-117632287D01*
X169604106Y-117557820D01*
X169667213Y-117511971D01*
X169667215Y-117511968D01*
X169667219Y-117511966D01*
X169811966Y-117367219D01*
X169811968Y-117367215D01*
X169811971Y-117367213D01*
X169880275Y-117273199D01*
X169932287Y-117201610D01*
X170025220Y-117019219D01*
X170088477Y-116824534D01*
X170120500Y-116622352D01*
X170120500Y-116417648D01*
X170088477Y-116215465D01*
X170025218Y-116020776D01*
X169991503Y-115954607D01*
X169932287Y-115838390D01*
X169924556Y-115827749D01*
X169811971Y-115672786D01*
X169667213Y-115528028D01*
X169501614Y-115407715D01*
X169495006Y-115404348D01*
X169408917Y-115360483D01*
X169358123Y-115312511D01*
X169341328Y-115244690D01*
X169363865Y-115178555D01*
X169408917Y-115139516D01*
X169501610Y-115092287D01*
X169604106Y-115017820D01*
X169667213Y-114971971D01*
X169667215Y-114971968D01*
X169667219Y-114971966D01*
X169811966Y-114827219D01*
X169811968Y-114827215D01*
X169811971Y-114827213D01*
X169864732Y-114754590D01*
X169932287Y-114661610D01*
X170025220Y-114479219D01*
X170088477Y-114284534D01*
X170120500Y-114082352D01*
X170120500Y-113877648D01*
X170088477Y-113675466D01*
X170025220Y-113480781D01*
X170025218Y-113480778D01*
X170025218Y-113480776D01*
X169991503Y-113414607D01*
X169932287Y-113298390D01*
X169924556Y-113287749D01*
X169811971Y-113132786D01*
X169667213Y-112988028D01*
X169501614Y-112867715D01*
X169495006Y-112864348D01*
X169408917Y-112820483D01*
X169358123Y-112772511D01*
X169341328Y-112704690D01*
X169363865Y-112638555D01*
X169408917Y-112599516D01*
X169501610Y-112552287D01*
X169604106Y-112477820D01*
X169667213Y-112431971D01*
X169667215Y-112431968D01*
X169667219Y-112431966D01*
X169811966Y-112287219D01*
X169811968Y-112287215D01*
X169811971Y-112287213D01*
X169864732Y-112214590D01*
X169932287Y-112121610D01*
X170025220Y-111939219D01*
X170088477Y-111744534D01*
X170120500Y-111542352D01*
X170120500Y-111337648D01*
X170088477Y-111135466D01*
X170025220Y-110940781D01*
X170025218Y-110940778D01*
X170025218Y-110940776D01*
X169991503Y-110874607D01*
X169932287Y-110758390D01*
X169924556Y-110747749D01*
X169811971Y-110592786D01*
X169667213Y-110448028D01*
X169501614Y-110327715D01*
X169495006Y-110324348D01*
X169408917Y-110280483D01*
X169358123Y-110232511D01*
X169341328Y-110164690D01*
X169363865Y-110098555D01*
X169408917Y-110059516D01*
X169501610Y-110012287D01*
X169604106Y-109937820D01*
X169667213Y-109891971D01*
X169667215Y-109891968D01*
X169667219Y-109891966D01*
X169811966Y-109747219D01*
X169811968Y-109747215D01*
X169811971Y-109747213D01*
X169864732Y-109674590D01*
X169932287Y-109581610D01*
X170025220Y-109399219D01*
X170088477Y-109204534D01*
X170120500Y-109002352D01*
X170120500Y-108797648D01*
X170088477Y-108595466D01*
X170025220Y-108400781D01*
X170025218Y-108400778D01*
X170025218Y-108400776D01*
X169988644Y-108328997D01*
X169932287Y-108218390D01*
X169924556Y-108207749D01*
X169811971Y-108052786D01*
X169667213Y-107908028D01*
X169501614Y-107787715D01*
X169444278Y-107758501D01*
X169408917Y-107740483D01*
X169358123Y-107692511D01*
X169341328Y-107624690D01*
X169363865Y-107558555D01*
X169408917Y-107519516D01*
X169501610Y-107472287D01*
X169604106Y-107397820D01*
X169667213Y-107351971D01*
X169667215Y-107351968D01*
X169667219Y-107351966D01*
X169811966Y-107207219D01*
X169811968Y-107207215D01*
X169811971Y-107207213D01*
X169864732Y-107134590D01*
X169932287Y-107041610D01*
X170025220Y-106859219D01*
X170088477Y-106664534D01*
X170120500Y-106462352D01*
X170120500Y-106257648D01*
X170088477Y-106055465D01*
X170059127Y-105965137D01*
X170025220Y-105860781D01*
X170025218Y-105860778D01*
X170025218Y-105860776D01*
X169963199Y-105739059D01*
X169932287Y-105678390D01*
X169924556Y-105667749D01*
X169811971Y-105512786D01*
X169667213Y-105368028D01*
X169501614Y-105247715D01*
X169491041Y-105242328D01*
X169408917Y-105200483D01*
X169358123Y-105152511D01*
X169341328Y-105084690D01*
X169363865Y-105018555D01*
X169408917Y-104979516D01*
X169501610Y-104932287D01*
X169522770Y-104916913D01*
X169667213Y-104811971D01*
X169667215Y-104811968D01*
X169667219Y-104811966D01*
X169811966Y-104667219D01*
X169811968Y-104667215D01*
X169811971Y-104667213D01*
X169864732Y-104594590D01*
X169932287Y-104501610D01*
X170025220Y-104319219D01*
X170088477Y-104124534D01*
X170120500Y-103922352D01*
X170120500Y-103717648D01*
X170088477Y-103515465D01*
X170059127Y-103425137D01*
X170025220Y-103320781D01*
X170025218Y-103320778D01*
X170025218Y-103320776D01*
X169959866Y-103192517D01*
X169932287Y-103138390D01*
X169873642Y-103057671D01*
X169811971Y-102972786D01*
X169667213Y-102828028D01*
X169501614Y-102707715D01*
X169495006Y-102704348D01*
X169408917Y-102660483D01*
X169358123Y-102612511D01*
X169341328Y-102544690D01*
X169363865Y-102478555D01*
X169408917Y-102439516D01*
X169501610Y-102392287D01*
X169522770Y-102376913D01*
X169667213Y-102271971D01*
X169667215Y-102271968D01*
X169667219Y-102271966D01*
X169811966Y-102127219D01*
X169811968Y-102127215D01*
X169811971Y-102127213D01*
X169864732Y-102054590D01*
X169932287Y-101961610D01*
X170025220Y-101779219D01*
X170088477Y-101584534D01*
X170120500Y-101382352D01*
X170120500Y-101177648D01*
X170088477Y-100975466D01*
X170025220Y-100780781D01*
X170025218Y-100780778D01*
X170025218Y-100780776D01*
X169991503Y-100714607D01*
X169932287Y-100598390D01*
X169924556Y-100587749D01*
X169811971Y-100432786D01*
X169667213Y-100288028D01*
X169501614Y-100167715D01*
X169495006Y-100164348D01*
X169408917Y-100120483D01*
X169358123Y-100072511D01*
X169341328Y-100004690D01*
X169363865Y-99938555D01*
X169408917Y-99899516D01*
X169501610Y-99852287D01*
X169522770Y-99836913D01*
X169667213Y-99731971D01*
X169667215Y-99731968D01*
X169667219Y-99731966D01*
X169811966Y-99587219D01*
X169811968Y-99587215D01*
X169811971Y-99587213D01*
X169864732Y-99514590D01*
X169932287Y-99421610D01*
X170025220Y-99239219D01*
X170088477Y-99044534D01*
X170120500Y-98842352D01*
X170120500Y-98637648D01*
X170088477Y-98435466D01*
X170025220Y-98240781D01*
X170025218Y-98240778D01*
X170025218Y-98240776D01*
X169991503Y-98174607D01*
X169932287Y-98058390D01*
X169924556Y-98047749D01*
X169811971Y-97892786D01*
X169667213Y-97748028D01*
X169501614Y-97627715D01*
X169495006Y-97624348D01*
X169408917Y-97580483D01*
X169358123Y-97532511D01*
X169341328Y-97464690D01*
X169363865Y-97398555D01*
X169408917Y-97359516D01*
X169501610Y-97312287D01*
X169522770Y-97296913D01*
X169667213Y-97191971D01*
X169667215Y-97191968D01*
X169667219Y-97191966D01*
X169811966Y-97047219D01*
X169811968Y-97047215D01*
X169811971Y-97047213D01*
X169873674Y-96962284D01*
X169932287Y-96881610D01*
X170025220Y-96699219D01*
X170088477Y-96504534D01*
X170120500Y-96302352D01*
X170120500Y-96097648D01*
X170088477Y-95895466D01*
X170025220Y-95700781D01*
X170025218Y-95700778D01*
X170025218Y-95700776D01*
X169991503Y-95634607D01*
X169932287Y-95518390D01*
X169889057Y-95458888D01*
X169811971Y-95352786D01*
X169667213Y-95208028D01*
X169501614Y-95087715D01*
X169495006Y-95084348D01*
X169408917Y-95040483D01*
X169358123Y-94992511D01*
X169341328Y-94924690D01*
X169363865Y-94858555D01*
X169408917Y-94819516D01*
X169501610Y-94772287D01*
X169549195Y-94737715D01*
X169667213Y-94651971D01*
X169667215Y-94651968D01*
X169667219Y-94651966D01*
X169811966Y-94507219D01*
X169811968Y-94507215D01*
X169811971Y-94507213D01*
X169889858Y-94400009D01*
X169932287Y-94341610D01*
X170025220Y-94159219D01*
X170088477Y-93964534D01*
X170120500Y-93762352D01*
X170120500Y-93557648D01*
X170088477Y-93355465D01*
X170059127Y-93265137D01*
X170025220Y-93160781D01*
X170025218Y-93160778D01*
X170025218Y-93160776D01*
X169984398Y-93080663D01*
X169932287Y-92978390D01*
X169913681Y-92952781D01*
X169811971Y-92812786D01*
X169667213Y-92668028D01*
X169501614Y-92547715D01*
X169482227Y-92537837D01*
X169408917Y-92500483D01*
X169358123Y-92452511D01*
X169341328Y-92384690D01*
X169363865Y-92318555D01*
X169408917Y-92279516D01*
X169501610Y-92232287D01*
X169522770Y-92216913D01*
X169667213Y-92111971D01*
X169667215Y-92111968D01*
X169667219Y-92111966D01*
X169811966Y-91967219D01*
X169811968Y-91967215D01*
X169811971Y-91967213D01*
X169864732Y-91894590D01*
X169932287Y-91801610D01*
X170025220Y-91619219D01*
X170088477Y-91424534D01*
X170120500Y-91222352D01*
X170120500Y-91017648D01*
X170088477Y-90815466D01*
X170086060Y-90808028D01*
X170046968Y-90687715D01*
X170025220Y-90620781D01*
X170025218Y-90620778D01*
X170025218Y-90620776D01*
X169979740Y-90531522D01*
X169932287Y-90438390D01*
X169924556Y-90427749D01*
X169811971Y-90272786D01*
X169667213Y-90128028D01*
X169501614Y-90007715D01*
X169483952Y-89998716D01*
X169408917Y-89960483D01*
X169358123Y-89912511D01*
X169341328Y-89844690D01*
X169363865Y-89778555D01*
X169408917Y-89739516D01*
X169501610Y-89692287D01*
X169522770Y-89676913D01*
X169667213Y-89571971D01*
X169667215Y-89571968D01*
X169667219Y-89571966D01*
X169811966Y-89427219D01*
X169811968Y-89427215D01*
X169811971Y-89427213D01*
X169878840Y-89335174D01*
X169932287Y-89261610D01*
X170025220Y-89079219D01*
X170088477Y-88884534D01*
X170120500Y-88682352D01*
X170120500Y-88477648D01*
X170088477Y-88275466D01*
X170025220Y-88080781D01*
X170025218Y-88080778D01*
X170025218Y-88080776D01*
X169990792Y-88013213D01*
X169932287Y-87898390D01*
X169923498Y-87886293D01*
X169811971Y-87732786D01*
X169667213Y-87588028D01*
X169501614Y-87467715D01*
X169495006Y-87464348D01*
X169408917Y-87420483D01*
X169358123Y-87372511D01*
X169341328Y-87304690D01*
X169363865Y-87238555D01*
X169408917Y-87199516D01*
X169501610Y-87152287D01*
X169522770Y-87136913D01*
X169667213Y-87031971D01*
X169667215Y-87031968D01*
X169667219Y-87031966D01*
X169811966Y-86887219D01*
X169811968Y-86887215D01*
X169811971Y-86887213D01*
X169925755Y-86730600D01*
X169932287Y-86721610D01*
X170025220Y-86539219D01*
X170088477Y-86344534D01*
X170120500Y-86142352D01*
X170120500Y-85937648D01*
X170117114Y-85916269D01*
X170088477Y-85735465D01*
X170025218Y-85540776D01*
X169982675Y-85457282D01*
X169932287Y-85358390D01*
X169920952Y-85342789D01*
X169811971Y-85192786D01*
X169667213Y-85048028D01*
X169501610Y-84927712D01*
X169488200Y-84920879D01*
X169437406Y-84872903D01*
X169420500Y-84810397D01*
X169420500Y-80659059D01*
X169420501Y-80659046D01*
X169420501Y-80490945D01*
X169420501Y-80490943D01*
X169379577Y-80338215D01*
X169350639Y-80288095D01*
X169300520Y-80201284D01*
X169188716Y-80089480D01*
X169188715Y-80089479D01*
X169184385Y-80085149D01*
X169184374Y-80085139D01*
X168034574Y-78935339D01*
X168025511Y-78918741D01*
X168012380Y-78905133D01*
X168001973Y-78875636D01*
X168001089Y-78874016D01*
X168000638Y-78871850D01*
X167975607Y-78746013D01*
X167981834Y-78676421D01*
X168024697Y-78621244D01*
X168090587Y-78597999D01*
X168158584Y-78614067D01*
G37*
%TD.AperFunction*%
%TA.AperFunction,NonConductor*%
G36*
X167396883Y-88010819D02*
G01*
X167419396Y-88028631D01*
X167525924Y-88135159D01*
X167559407Y-88196479D01*
X167556173Y-88261155D01*
X167551522Y-88275468D01*
X167519500Y-88477648D01*
X167519500Y-88682351D01*
X167551522Y-88884534D01*
X167614781Y-89079223D01*
X167678691Y-89204653D01*
X167697923Y-89242397D01*
X167707715Y-89261613D01*
X167828028Y-89427213D01*
X167972786Y-89571971D01*
X168127749Y-89684556D01*
X168138390Y-89692287D01*
X168229840Y-89738883D01*
X168231080Y-89739515D01*
X168281876Y-89787490D01*
X168298671Y-89855311D01*
X168276134Y-89921446D01*
X168231080Y-89960485D01*
X168138386Y-90007715D01*
X167972786Y-90128028D01*
X167828028Y-90272786D01*
X167707715Y-90438386D01*
X167614781Y-90620776D01*
X167551522Y-90815465D01*
X167519500Y-91017648D01*
X167519500Y-91222351D01*
X167551522Y-91424534D01*
X167614781Y-91619223D01*
X167707715Y-91801613D01*
X167828028Y-91967213D01*
X167972786Y-92111971D01*
X168127749Y-92224556D01*
X168138390Y-92232287D01*
X168229840Y-92278883D01*
X168231080Y-92279515D01*
X168281876Y-92327490D01*
X168298671Y-92395311D01*
X168276134Y-92461446D01*
X168231080Y-92500485D01*
X168138386Y-92547715D01*
X167972786Y-92668028D01*
X167828028Y-92812786D01*
X167707715Y-92978386D01*
X167614781Y-93160776D01*
X167551522Y-93355465D01*
X167519500Y-93557648D01*
X167519500Y-93762351D01*
X167551522Y-93964534D01*
X167614781Y-94159223D01*
X167707715Y-94341613D01*
X167828028Y-94507213D01*
X167972786Y-94651971D01*
X168090805Y-94737715D01*
X168138390Y-94772287D01*
X168229394Y-94818656D01*
X168231080Y-94819515D01*
X168281876Y-94867490D01*
X168298671Y-94935311D01*
X168276134Y-95001446D01*
X168231080Y-95040485D01*
X168138386Y-95087715D01*
X167972786Y-95208028D01*
X167828028Y-95352786D01*
X167707715Y-95518386D01*
X167614781Y-95700776D01*
X167551522Y-95895465D01*
X167519500Y-96097648D01*
X167519500Y-96302351D01*
X167551522Y-96504534D01*
X167614781Y-96699223D01*
X167707715Y-96881613D01*
X167828028Y-97047213D01*
X167972786Y-97191971D01*
X168127749Y-97304556D01*
X168138390Y-97312287D01*
X168229840Y-97358883D01*
X168231080Y-97359515D01*
X168281876Y-97407490D01*
X168298671Y-97475311D01*
X168276134Y-97541446D01*
X168231080Y-97580485D01*
X168138386Y-97627715D01*
X167972786Y-97748028D01*
X167828028Y-97892786D01*
X167707715Y-98058386D01*
X167614781Y-98240776D01*
X167551522Y-98435465D01*
X167519500Y-98637648D01*
X167519500Y-98842351D01*
X167551522Y-99044534D01*
X167614781Y-99239223D01*
X167707715Y-99421613D01*
X167828028Y-99587213D01*
X167972786Y-99731971D01*
X168127749Y-99844556D01*
X168138390Y-99852287D01*
X168229840Y-99898883D01*
X168231080Y-99899515D01*
X168281876Y-99947490D01*
X168298671Y-100015311D01*
X168276134Y-100081446D01*
X168231080Y-100120485D01*
X168138386Y-100167715D01*
X167972786Y-100288028D01*
X167828028Y-100432786D01*
X167707715Y-100598386D01*
X167614781Y-100780776D01*
X167551522Y-100975465D01*
X167519500Y-101177648D01*
X167519500Y-101382351D01*
X167551522Y-101584534D01*
X167614781Y-101779223D01*
X167707715Y-101961613D01*
X167828028Y-102127213D01*
X167972786Y-102271971D01*
X168127749Y-102384556D01*
X168138390Y-102392287D01*
X168229840Y-102438883D01*
X168231080Y-102439515D01*
X168281876Y-102487490D01*
X168298671Y-102555311D01*
X168276134Y-102621446D01*
X168231080Y-102660485D01*
X168138386Y-102707715D01*
X167972786Y-102828028D01*
X167828028Y-102972786D01*
X167707715Y-103138386D01*
X167614781Y-103320776D01*
X167551522Y-103515465D01*
X167519500Y-103717648D01*
X167519500Y-103922351D01*
X167551522Y-104124534D01*
X167614781Y-104319223D01*
X167707715Y-104501613D01*
X167828028Y-104667213D01*
X167972786Y-104811971D01*
X168127749Y-104924556D01*
X168138390Y-104932287D01*
X168229840Y-104978883D01*
X168231080Y-104979515D01*
X168281876Y-105027490D01*
X168298671Y-105095311D01*
X168276134Y-105161446D01*
X168231080Y-105200485D01*
X168138386Y-105247715D01*
X167972786Y-105368028D01*
X167828028Y-105512786D01*
X167707715Y-105678386D01*
X167614781Y-105860776D01*
X167551522Y-106055465D01*
X167519500Y-106257648D01*
X167519500Y-106462351D01*
X167551522Y-106664534D01*
X167614781Y-106859223D01*
X167707715Y-107041613D01*
X167828028Y-107207213D01*
X167972786Y-107351971D01*
X168127749Y-107464556D01*
X168138390Y-107472287D01*
X168229840Y-107518883D01*
X168231080Y-107519515D01*
X168281876Y-107567490D01*
X168298671Y-107635311D01*
X168276134Y-107701446D01*
X168231080Y-107740485D01*
X168138386Y-107787715D01*
X167972786Y-107908028D01*
X167828028Y-108052786D01*
X167707715Y-108218386D01*
X167614781Y-108400776D01*
X167551522Y-108595465D01*
X167519500Y-108797648D01*
X167519500Y-109002351D01*
X167551522Y-109204534D01*
X167614781Y-109399223D01*
X167707715Y-109581613D01*
X167828028Y-109747213D01*
X167972786Y-109891971D01*
X168127749Y-110004556D01*
X168138390Y-110012287D01*
X168229840Y-110058883D01*
X168231080Y-110059515D01*
X168281876Y-110107490D01*
X168298671Y-110175311D01*
X168276134Y-110241446D01*
X168231080Y-110280485D01*
X168138386Y-110327715D01*
X167972786Y-110448028D01*
X167828028Y-110592786D01*
X167707715Y-110758386D01*
X167614781Y-110940776D01*
X167551522Y-111135465D01*
X167519500Y-111337648D01*
X167519500Y-111542351D01*
X167551522Y-111744534D01*
X167614781Y-111939223D01*
X167707715Y-112121613D01*
X167828028Y-112287213D01*
X167972786Y-112431971D01*
X168127749Y-112544556D01*
X168138390Y-112552287D01*
X168229840Y-112598883D01*
X168231080Y-112599515D01*
X168281876Y-112647490D01*
X168298671Y-112715311D01*
X168276134Y-112781446D01*
X168231080Y-112820485D01*
X168138386Y-112867715D01*
X167972786Y-112988028D01*
X167828028Y-113132786D01*
X167707715Y-113298386D01*
X167614781Y-113480776D01*
X167551522Y-113675465D01*
X167519500Y-113877648D01*
X167519500Y-114082351D01*
X167551522Y-114284534D01*
X167614781Y-114479223D01*
X167707715Y-114661613D01*
X167828028Y-114827213D01*
X167972786Y-114971971D01*
X168127749Y-115084556D01*
X168138390Y-115092287D01*
X168229840Y-115138883D01*
X168231080Y-115139515D01*
X168281876Y-115187490D01*
X168298671Y-115255311D01*
X168276134Y-115321446D01*
X168231080Y-115360485D01*
X168138386Y-115407715D01*
X167972786Y-115528028D01*
X167828028Y-115672786D01*
X167707715Y-115838386D01*
X167614781Y-116020776D01*
X167551522Y-116215465D01*
X167519500Y-116417648D01*
X167519500Y-116622351D01*
X167551522Y-116824534D01*
X167614781Y-117019223D01*
X167707715Y-117201613D01*
X167828028Y-117367213D01*
X167972786Y-117511971D01*
X168121800Y-117620234D01*
X168138390Y-117632287D01*
X168209309Y-117668422D01*
X168231080Y-117679515D01*
X168281876Y-117727490D01*
X168298671Y-117795311D01*
X168276134Y-117861446D01*
X168231080Y-117900485D01*
X168138386Y-117947715D01*
X167972786Y-118068028D01*
X167828028Y-118212786D01*
X167707715Y-118378385D01*
X167700883Y-118391795D01*
X167690433Y-118402859D01*
X167684111Y-118416703D01*
X167666931Y-118427743D01*
X167652909Y-118442591D01*
X167637227Y-118446832D01*
X167625333Y-118454477D01*
X167590398Y-118459500D01*
X167410097Y-118459500D01*
X167343058Y-118439815D01*
X167322416Y-118423181D01*
X166233757Y-117334522D01*
X166200272Y-117273199D01*
X166203507Y-117208523D01*
X166217246Y-117166243D01*
X166250500Y-116956287D01*
X166250500Y-116743713D01*
X166217246Y-116533757D01*
X166151557Y-116331588D01*
X166055051Y-116142184D01*
X166055049Y-116142181D01*
X166055048Y-116142179D01*
X165930109Y-115970213D01*
X165779786Y-115819890D01*
X165607820Y-115694951D01*
X165607205Y-115694637D01*
X165599054Y-115690484D01*
X165548259Y-115642512D01*
X165531463Y-115574692D01*
X165553999Y-115508556D01*
X165599054Y-115469515D01*
X165607816Y-115465051D01*
X165751740Y-115360485D01*
X165779786Y-115340109D01*
X165779788Y-115340106D01*
X165779792Y-115340104D01*
X165930104Y-115189792D01*
X165930106Y-115189788D01*
X165930109Y-115189786D01*
X166055048Y-115017820D01*
X166055047Y-115017820D01*
X166055051Y-115017816D01*
X166151557Y-114828412D01*
X166217246Y-114626243D01*
X166250500Y-114416287D01*
X166250500Y-114203713D01*
X166217246Y-113993757D01*
X166151557Y-113791588D01*
X166055051Y-113602184D01*
X166055049Y-113602181D01*
X166055048Y-113602179D01*
X165930109Y-113430213D01*
X165779786Y-113279890D01*
X165607820Y-113154951D01*
X165607205Y-113154637D01*
X165599054Y-113150484D01*
X165548259Y-113102512D01*
X165531463Y-113034692D01*
X165553999Y-112968556D01*
X165599054Y-112929515D01*
X165607816Y-112925051D01*
X165751740Y-112820485D01*
X165779786Y-112800109D01*
X165779788Y-112800106D01*
X165779792Y-112800104D01*
X165930104Y-112649792D01*
X165930106Y-112649788D01*
X165930109Y-112649786D01*
X166055048Y-112477820D01*
X166055047Y-112477820D01*
X166055051Y-112477816D01*
X166151557Y-112288412D01*
X166217246Y-112086243D01*
X166250500Y-111876287D01*
X166250500Y-111663713D01*
X166217246Y-111453757D01*
X166151557Y-111251588D01*
X166055051Y-111062184D01*
X166055049Y-111062181D01*
X166055048Y-111062179D01*
X165930109Y-110890213D01*
X165779786Y-110739890D01*
X165607820Y-110614951D01*
X165607205Y-110614637D01*
X165599054Y-110610484D01*
X165548259Y-110562512D01*
X165531463Y-110494692D01*
X165553999Y-110428556D01*
X165599054Y-110389515D01*
X165607816Y-110385051D01*
X165751740Y-110280485D01*
X165779786Y-110260109D01*
X165779788Y-110260106D01*
X165779792Y-110260104D01*
X165930104Y-110109792D01*
X165930106Y-110109788D01*
X165930109Y-110109786D01*
X166055048Y-109937820D01*
X166055047Y-109937820D01*
X166055051Y-109937816D01*
X166151557Y-109748412D01*
X166217246Y-109546243D01*
X166250500Y-109336287D01*
X166250500Y-109123713D01*
X166217246Y-108913757D01*
X166151557Y-108711588D01*
X166055051Y-108522184D01*
X166055049Y-108522181D01*
X166055048Y-108522179D01*
X165930109Y-108350213D01*
X165779786Y-108199890D01*
X165607820Y-108074951D01*
X165607205Y-108074637D01*
X165599054Y-108070484D01*
X165548259Y-108022512D01*
X165531463Y-107954692D01*
X165553999Y-107888556D01*
X165599054Y-107849515D01*
X165607816Y-107845051D01*
X165712887Y-107768713D01*
X165779786Y-107720109D01*
X165779788Y-107720106D01*
X165779792Y-107720104D01*
X165930104Y-107569792D01*
X165930106Y-107569788D01*
X165930109Y-107569786D01*
X166055048Y-107397820D01*
X166055047Y-107397820D01*
X166055051Y-107397816D01*
X166151557Y-107208412D01*
X166217246Y-107006243D01*
X166250500Y-106796287D01*
X166250500Y-106583713D01*
X166217246Y-106373757D01*
X166151557Y-106171588D01*
X166055051Y-105982184D01*
X166055049Y-105982181D01*
X166055048Y-105982179D01*
X165930109Y-105810213D01*
X165816569Y-105696673D01*
X165783084Y-105635350D01*
X165788068Y-105565658D01*
X165829940Y-105509725D01*
X165860915Y-105492810D01*
X165992331Y-105443796D01*
X166107546Y-105357546D01*
X166193796Y-105242331D01*
X166244091Y-105107483D01*
X166250500Y-105047873D01*
X166250499Y-103252128D01*
X166244091Y-103192517D01*
X166223901Y-103138386D01*
X166193797Y-103057671D01*
X166193793Y-103057664D01*
X166107547Y-102942455D01*
X166107544Y-102942452D01*
X165992335Y-102856206D01*
X165992328Y-102856202D01*
X165857482Y-102805908D01*
X165857483Y-102805908D01*
X165797883Y-102799501D01*
X165797881Y-102799500D01*
X165797873Y-102799500D01*
X165797865Y-102799500D01*
X165724500Y-102799500D01*
X165657461Y-102779815D01*
X165611706Y-102727011D01*
X165600500Y-102675500D01*
X165600500Y-95179601D01*
X165620185Y-95112562D01*
X165668206Y-95069116D01*
X165681610Y-95062287D01*
X165847219Y-94941966D01*
X165991966Y-94797219D01*
X165991968Y-94797215D01*
X165991971Y-94797213D01*
X166044732Y-94724590D01*
X166112287Y-94631610D01*
X166205220Y-94449219D01*
X166268477Y-94254534D01*
X166300500Y-94052352D01*
X166300500Y-93847648D01*
X166268477Y-93645466D01*
X166205220Y-93450781D01*
X166205218Y-93450778D01*
X166205218Y-93450776D01*
X166171503Y-93384607D01*
X166112287Y-93268390D01*
X166091968Y-93240423D01*
X165991971Y-93102786D01*
X165847213Y-92958028D01*
X165681613Y-92837715D01*
X165681612Y-92837714D01*
X165681610Y-92837713D01*
X165621896Y-92807287D01*
X165499223Y-92744781D01*
X165304534Y-92681522D01*
X165129995Y-92653878D01*
X165102352Y-92649500D01*
X164897648Y-92649500D01*
X164873329Y-92653351D01*
X164695465Y-92681522D01*
X164500776Y-92744781D01*
X164318391Y-92837712D01*
X164318383Y-92837717D01*
X164248085Y-92888790D01*
X164182279Y-92912269D01*
X164114225Y-92896442D01*
X164087521Y-92876153D01*
X164018656Y-92807288D01*
X163943995Y-92761237D01*
X163869336Y-92715187D01*
X163869331Y-92715185D01*
X163702795Y-92660000D01*
X163698533Y-92659088D01*
X163671382Y-92644376D01*
X163643297Y-92631550D01*
X163640938Y-92627879D01*
X163637102Y-92625801D01*
X163622214Y-92598744D01*
X163605523Y-92572772D01*
X163604673Y-92566866D01*
X163603419Y-92564586D01*
X163600500Y-92537837D01*
X163600500Y-92489059D01*
X163600501Y-92489046D01*
X163600501Y-92313348D01*
X163600500Y-92313330D01*
X163600500Y-91450097D01*
X163620185Y-91383058D01*
X163636819Y-91362416D01*
X165207434Y-89791801D01*
X166785399Y-88213836D01*
X166846720Y-88180353D01*
X166848887Y-88179902D01*
X166849576Y-88179765D01*
X166849577Y-88179765D01*
X167004232Y-88149002D01*
X167149914Y-88088659D01*
X167262827Y-88013212D01*
X167329503Y-87992335D01*
X167396883Y-88010819D01*
G37*
%TD.AperFunction*%
%TA.AperFunction,NonConductor*%
G36*
X164180943Y-94992656D02*
G01*
X164213112Y-94993464D01*
X164216702Y-94995213D01*
X164218535Y-94995345D01*
X164233955Y-95003622D01*
X164244838Y-95008927D01*
X164246473Y-95010036D01*
X164318390Y-95062287D01*
X164338714Y-95072642D01*
X164345136Y-95077001D01*
X164362607Y-95098217D01*
X164382589Y-95117088D01*
X164384499Y-95124801D01*
X164389552Y-95130937D01*
X164399500Y-95179601D01*
X164399500Y-102675500D01*
X164379815Y-102742539D01*
X164327011Y-102788294D01*
X164275500Y-102799500D01*
X164002130Y-102799500D01*
X164002123Y-102799501D01*
X163942516Y-102805908D01*
X163807671Y-102856202D01*
X163807664Y-102856206D01*
X163692455Y-102942452D01*
X163692452Y-102942455D01*
X163606206Y-103057664D01*
X163606202Y-103057671D01*
X163555908Y-103192517D01*
X163549501Y-103252116D01*
X163549501Y-103252123D01*
X163549500Y-103252135D01*
X163549500Y-105047870D01*
X163549501Y-105047876D01*
X163555908Y-105107483D01*
X163606202Y-105242328D01*
X163606206Y-105242335D01*
X163692452Y-105357544D01*
X163692455Y-105357547D01*
X163807664Y-105443793D01*
X163807671Y-105443797D01*
X163939082Y-105492810D01*
X163995016Y-105534681D01*
X164019433Y-105600145D01*
X164004582Y-105668418D01*
X163983431Y-105696673D01*
X163869889Y-105810215D01*
X163744951Y-105982179D01*
X163648444Y-106171585D01*
X163582753Y-106373760D01*
X163549500Y-106583713D01*
X163549500Y-106796286D01*
X163578105Y-106976895D01*
X163582754Y-107006243D01*
X163648055Y-107207219D01*
X163648444Y-107208414D01*
X163744951Y-107397820D01*
X163869890Y-107569786D01*
X164020213Y-107720109D01*
X164192182Y-107845050D01*
X164200946Y-107849516D01*
X164251742Y-107897491D01*
X164268536Y-107965312D01*
X164245998Y-108031447D01*
X164200946Y-108070484D01*
X164192182Y-108074949D01*
X164020213Y-108199890D01*
X163869890Y-108350213D01*
X163744951Y-108522179D01*
X163648444Y-108711585D01*
X163582753Y-108913760D01*
X163568722Y-109002351D01*
X163549500Y-109123713D01*
X163549500Y-109336287D01*
X163582754Y-109546243D01*
X163648055Y-109747219D01*
X163648444Y-109748414D01*
X163744951Y-109937820D01*
X163869890Y-110109786D01*
X164020213Y-110260109D01*
X164192182Y-110385050D01*
X164200946Y-110389516D01*
X164251742Y-110437491D01*
X164268536Y-110505312D01*
X164245998Y-110571447D01*
X164200946Y-110610484D01*
X164192182Y-110614949D01*
X164020213Y-110739890D01*
X163869890Y-110890213D01*
X163744951Y-111062179D01*
X163648444Y-111251585D01*
X163582753Y-111453760D01*
X163568722Y-111542351D01*
X163549500Y-111663713D01*
X163549500Y-111876287D01*
X163582754Y-112086243D01*
X163648055Y-112287219D01*
X163648444Y-112288414D01*
X163744951Y-112477820D01*
X163869890Y-112649786D01*
X164020213Y-112800109D01*
X164192182Y-112925050D01*
X164200946Y-112929516D01*
X164251742Y-112977491D01*
X164268536Y-113045312D01*
X164245998Y-113111447D01*
X164200946Y-113150484D01*
X164192182Y-113154949D01*
X164020213Y-113279890D01*
X163869890Y-113430213D01*
X163744951Y-113602179D01*
X163648444Y-113791585D01*
X163582753Y-113993760D01*
X163568722Y-114082351D01*
X163549500Y-114203713D01*
X163549500Y-114416287D01*
X163582754Y-114626243D01*
X163648055Y-114827219D01*
X163648444Y-114828414D01*
X163744951Y-115017820D01*
X163869890Y-115189786D01*
X164020213Y-115340109D01*
X164192182Y-115465050D01*
X164200946Y-115469516D01*
X164251742Y-115517491D01*
X164268536Y-115585312D01*
X164245998Y-115651447D01*
X164200946Y-115690484D01*
X164192182Y-115694949D01*
X164020213Y-115819890D01*
X163869890Y-115970213D01*
X163744951Y-116142179D01*
X163648444Y-116331585D01*
X163582753Y-116533760D01*
X163549500Y-116743713D01*
X163549500Y-116956286D01*
X163582753Y-117166239D01*
X163582753Y-117166241D01*
X163582754Y-117166243D01*
X163648055Y-117367219D01*
X163648444Y-117368414D01*
X163744951Y-117557820D01*
X163869890Y-117729786D01*
X164020213Y-117880109D01*
X164192179Y-118005048D01*
X164192181Y-118005049D01*
X164192184Y-118005051D01*
X164381588Y-118101557D01*
X164583757Y-118167246D01*
X164793713Y-118200500D01*
X164793714Y-118200500D01*
X165006286Y-118200500D01*
X165006287Y-118200500D01*
X165216243Y-118167246D01*
X165258523Y-118153507D01*
X165328362Y-118151511D01*
X165384522Y-118183757D01*
X166625139Y-119424374D01*
X166625149Y-119424385D01*
X166629479Y-119428715D01*
X166629480Y-119428716D01*
X166741284Y-119540520D01*
X166811890Y-119581284D01*
X166878215Y-119619577D01*
X167030943Y-119660501D01*
X167030946Y-119660501D01*
X167196653Y-119660501D01*
X167196669Y-119660500D01*
X167590398Y-119660500D01*
X167657437Y-119680185D01*
X167700883Y-119728205D01*
X167707715Y-119741614D01*
X167828028Y-119907213D01*
X167972786Y-120051971D01*
X168127749Y-120164556D01*
X168138390Y-120172287D01*
X168227732Y-120217809D01*
X168231080Y-120219515D01*
X168281876Y-120267490D01*
X168298671Y-120335311D01*
X168276134Y-120401446D01*
X168231080Y-120440485D01*
X168138386Y-120487715D01*
X167972786Y-120608028D01*
X167828028Y-120752786D01*
X167707715Y-120918385D01*
X167700883Y-120931795D01*
X167652909Y-120982591D01*
X167590398Y-120999500D01*
X162600097Y-120999500D01*
X162533058Y-120979815D01*
X162512416Y-120963181D01*
X161286819Y-119737584D01*
X161253334Y-119676261D01*
X161250500Y-119649903D01*
X161250500Y-118135718D01*
X161270185Y-118068679D01*
X161318207Y-118025233D01*
X161357815Y-118005052D01*
X161357815Y-118005051D01*
X161357816Y-118005051D01*
X161501740Y-117900485D01*
X161529786Y-117880109D01*
X161529788Y-117880106D01*
X161529792Y-117880104D01*
X161680104Y-117729792D01*
X161680106Y-117729788D01*
X161680109Y-117729786D01*
X161805048Y-117557820D01*
X161805047Y-117557820D01*
X161805051Y-117557816D01*
X161901557Y-117368412D01*
X161967246Y-117166243D01*
X162000500Y-116956287D01*
X162000500Y-116743713D01*
X161967246Y-116533757D01*
X161901557Y-116331588D01*
X161805051Y-116142184D01*
X161805049Y-116142181D01*
X161805048Y-116142179D01*
X161680109Y-115970213D01*
X161529786Y-115819890D01*
X161357820Y-115694951D01*
X161357205Y-115694637D01*
X161349054Y-115690484D01*
X161298259Y-115642512D01*
X161281463Y-115574692D01*
X161303999Y-115508556D01*
X161349054Y-115469515D01*
X161357816Y-115465051D01*
X161501740Y-115360485D01*
X161529786Y-115340109D01*
X161529788Y-115340106D01*
X161529792Y-115340104D01*
X161680104Y-115189792D01*
X161680106Y-115189788D01*
X161680109Y-115189786D01*
X161805048Y-115017820D01*
X161805047Y-115017820D01*
X161805051Y-115017816D01*
X161901557Y-114828412D01*
X161967246Y-114626243D01*
X162000500Y-114416287D01*
X162000500Y-114203713D01*
X161967246Y-113993757D01*
X161901557Y-113791588D01*
X161805051Y-113602184D01*
X161805049Y-113602181D01*
X161805048Y-113602179D01*
X161680109Y-113430213D01*
X161529786Y-113279890D01*
X161357820Y-113154951D01*
X161357205Y-113154637D01*
X161349054Y-113150484D01*
X161298259Y-113102512D01*
X161281463Y-113034692D01*
X161303999Y-112968556D01*
X161349054Y-112929515D01*
X161357816Y-112925051D01*
X161501740Y-112820485D01*
X161529786Y-112800109D01*
X161529788Y-112800106D01*
X161529792Y-112800104D01*
X161680104Y-112649792D01*
X161680106Y-112649788D01*
X161680109Y-112649786D01*
X161805048Y-112477820D01*
X161805047Y-112477820D01*
X161805051Y-112477816D01*
X161901557Y-112288412D01*
X161967246Y-112086243D01*
X162000500Y-111876287D01*
X162000500Y-111663713D01*
X161967246Y-111453757D01*
X161901557Y-111251588D01*
X161805051Y-111062184D01*
X161805049Y-111062181D01*
X161805048Y-111062179D01*
X161680109Y-110890213D01*
X161529786Y-110739890D01*
X161357820Y-110614951D01*
X161357205Y-110614637D01*
X161349054Y-110610484D01*
X161298259Y-110562512D01*
X161281463Y-110494692D01*
X161303999Y-110428556D01*
X161349054Y-110389515D01*
X161357816Y-110385051D01*
X161501740Y-110280485D01*
X161529786Y-110260109D01*
X161529788Y-110260106D01*
X161529792Y-110260104D01*
X161680104Y-110109792D01*
X161680106Y-110109788D01*
X161680109Y-110109786D01*
X161805048Y-109937820D01*
X161805047Y-109937820D01*
X161805051Y-109937816D01*
X161901557Y-109748412D01*
X161967246Y-109546243D01*
X162000500Y-109336287D01*
X162000500Y-109123713D01*
X161967246Y-108913757D01*
X161901557Y-108711588D01*
X161805051Y-108522184D01*
X161805049Y-108522181D01*
X161805048Y-108522179D01*
X161680109Y-108350213D01*
X161529786Y-108199890D01*
X161357820Y-108074951D01*
X161357205Y-108074637D01*
X161349054Y-108070484D01*
X161298259Y-108022512D01*
X161281463Y-107954692D01*
X161303999Y-107888556D01*
X161349054Y-107849515D01*
X161357816Y-107845051D01*
X161462887Y-107768713D01*
X161529786Y-107720109D01*
X161529788Y-107720106D01*
X161529792Y-107720104D01*
X161680104Y-107569792D01*
X161680106Y-107569788D01*
X161680109Y-107569786D01*
X161805048Y-107397820D01*
X161805047Y-107397820D01*
X161805051Y-107397816D01*
X161901557Y-107208412D01*
X161967246Y-107006243D01*
X162000500Y-106796287D01*
X162000500Y-106583713D01*
X161967246Y-106373757D01*
X161901557Y-106171588D01*
X161805051Y-105982184D01*
X161805049Y-105982181D01*
X161805048Y-105982179D01*
X161680109Y-105810213D01*
X161566569Y-105696673D01*
X161533084Y-105635350D01*
X161538068Y-105565658D01*
X161579940Y-105509725D01*
X161610915Y-105492810D01*
X161742331Y-105443796D01*
X161857546Y-105357546D01*
X161943796Y-105242331D01*
X161994091Y-105107483D01*
X162000500Y-105047873D01*
X162000499Y-103252128D01*
X161994091Y-103192517D01*
X161973901Y-103138386D01*
X161943797Y-103057671D01*
X161943793Y-103057664D01*
X161857547Y-102942455D01*
X161857544Y-102942452D01*
X161742335Y-102856206D01*
X161742328Y-102856202D01*
X161607482Y-102805908D01*
X161607483Y-102805908D01*
X161547883Y-102799501D01*
X161547881Y-102799500D01*
X161547873Y-102799500D01*
X161547865Y-102799500D01*
X161374500Y-102799500D01*
X161307461Y-102779815D01*
X161261706Y-102727011D01*
X161250500Y-102675500D01*
X161250500Y-96600096D01*
X161270185Y-96533057D01*
X161286814Y-96512420D01*
X162512416Y-95286817D01*
X162573739Y-95253333D01*
X162600097Y-95250499D01*
X163600002Y-95250499D01*
X163600008Y-95250499D01*
X163702797Y-95239999D01*
X163869334Y-95184814D01*
X164018656Y-95092712D01*
X164087524Y-95023843D01*
X164115773Y-95008418D01*
X164143264Y-94991711D01*
X164146234Y-94991785D01*
X164148843Y-94990361D01*
X164180943Y-94992656D01*
G37*
%TD.AperFunction*%
%TA.AperFunction,NonConductor*%
G36*
X186742539Y-70920185D02*
G01*
X186788294Y-70972989D01*
X186799500Y-71024500D01*
X186799500Y-74333803D01*
X186779815Y-74400842D01*
X186727011Y-74446597D01*
X186657853Y-74456541D01*
X186594297Y-74427516D01*
X186587819Y-74421484D01*
X183903690Y-71737355D01*
X183903688Y-71737352D01*
X183784817Y-71618481D01*
X183784816Y-71618480D01*
X183698004Y-71568360D01*
X183698004Y-71568359D01*
X183698000Y-71568358D01*
X183647885Y-71539423D01*
X183495157Y-71498499D01*
X183337043Y-71498499D01*
X183329447Y-71498499D01*
X183329431Y-71498500D01*
X159847670Y-71498500D01*
X159847654Y-71498499D01*
X159840058Y-71498499D01*
X159681943Y-71498499D01*
X159574587Y-71527265D01*
X159529210Y-71539424D01*
X159529209Y-71539425D01*
X159479096Y-71568359D01*
X159479095Y-71568360D01*
X159435689Y-71593420D01*
X159392285Y-71618479D01*
X159392282Y-71618481D01*
X159280478Y-71730286D01*
X159094522Y-71916241D01*
X159033199Y-71949726D01*
X158968523Y-71946491D01*
X158926245Y-71932754D01*
X158786272Y-71910584D01*
X158716287Y-71899500D01*
X158503713Y-71899500D01*
X158455042Y-71907208D01*
X158293760Y-71932753D01*
X158091585Y-71998444D01*
X157902179Y-72094951D01*
X157730213Y-72219890D01*
X157579890Y-72370213D01*
X157454949Y-72542182D01*
X157450484Y-72550946D01*
X157402509Y-72601742D01*
X157334688Y-72618536D01*
X157268553Y-72595998D01*
X157229516Y-72550946D01*
X157225050Y-72542182D01*
X157100109Y-72370213D01*
X156949786Y-72219890D01*
X156777820Y-72094951D01*
X156588414Y-71998444D01*
X156588413Y-71998443D01*
X156588412Y-71998443D01*
X156386243Y-71932754D01*
X156386241Y-71932753D01*
X156386240Y-71932753D01*
X156224957Y-71907208D01*
X156176287Y-71899500D01*
X155963713Y-71899500D01*
X155915042Y-71907208D01*
X155753760Y-71932753D01*
X155551585Y-71998444D01*
X155362179Y-72094951D01*
X155190213Y-72219890D01*
X155039890Y-72370213D01*
X154914949Y-72542182D01*
X154910484Y-72550946D01*
X154862509Y-72601742D01*
X154794688Y-72618536D01*
X154728553Y-72595998D01*
X154689516Y-72550946D01*
X154685050Y-72542182D01*
X154560109Y-72370213D01*
X154409786Y-72219890D01*
X154237820Y-72094951D01*
X154048414Y-71998444D01*
X154048413Y-71998443D01*
X154048412Y-71998443D01*
X153846243Y-71932754D01*
X153846241Y-71932753D01*
X153846240Y-71932753D01*
X153684957Y-71907208D01*
X153636287Y-71899500D01*
X153423713Y-71899500D01*
X153375042Y-71907208D01*
X153213760Y-71932753D01*
X153011585Y-71998444D01*
X152822179Y-72094951D01*
X152650213Y-72219890D01*
X152499890Y-72370213D01*
X152374951Y-72542179D01*
X152278444Y-72731585D01*
X152212753Y-72933760D01*
X152179500Y-73143713D01*
X152179500Y-73356287D01*
X152212754Y-73566243D01*
X152252906Y-73689819D01*
X152278444Y-73768414D01*
X152374951Y-73957820D01*
X152499890Y-74129786D01*
X152613430Y-74243326D01*
X152646915Y-74304649D01*
X152641931Y-74374341D01*
X152600059Y-74430274D01*
X152569083Y-74447189D01*
X152437669Y-74496203D01*
X152437664Y-74496206D01*
X152322455Y-74582452D01*
X152322452Y-74582455D01*
X152236206Y-74697664D01*
X152236202Y-74697671D01*
X152185908Y-74832517D01*
X152179501Y-74892116D01*
X152179500Y-74892135D01*
X152179500Y-76687870D01*
X152179501Y-76687876D01*
X152185908Y-76747483D01*
X152236202Y-76882328D01*
X152236206Y-76882335D01*
X152322452Y-76997544D01*
X152322455Y-76997547D01*
X152437664Y-77083793D01*
X152437671Y-77083797D01*
X152437674Y-77083798D01*
X152572517Y-77134091D01*
X152632127Y-77140500D01*
X152805499Y-77140499D01*
X152872538Y-77160183D01*
X152918293Y-77212987D01*
X152929499Y-77264499D01*
X152929499Y-77309054D01*
X152929498Y-77309054D01*
X152970423Y-77461785D01*
X152974289Y-77468481D01*
X153049477Y-77598712D01*
X153049481Y-77598717D01*
X153168349Y-77717585D01*
X153168355Y-77717590D01*
X154165139Y-78714374D01*
X154165149Y-78714385D01*
X154169479Y-78718715D01*
X154169480Y-78718716D01*
X154281284Y-78830520D01*
X154281286Y-78830521D01*
X154281290Y-78830524D01*
X154351667Y-78871156D01*
X154351671Y-78871157D01*
X154351672Y-78871158D01*
X154384943Y-78890367D01*
X154418212Y-78909576D01*
X154418214Y-78909576D01*
X154418215Y-78909577D01*
X154570942Y-78950500D01*
X154570943Y-78950500D01*
X160799903Y-78950500D01*
X160866942Y-78970185D01*
X160887584Y-78986819D01*
X161363181Y-79462416D01*
X161396666Y-79523739D01*
X161399500Y-79550097D01*
X161399500Y-85513330D01*
X161399499Y-85513348D01*
X161399499Y-85679054D01*
X161399498Y-85679054D01*
X161440423Y-85831785D01*
X161450015Y-85848398D01*
X161450016Y-85848401D01*
X161519475Y-85968709D01*
X161519481Y-85968717D01*
X161638349Y-86087585D01*
X161638355Y-86087590D01*
X162405139Y-86854374D01*
X162405149Y-86854385D01*
X162409479Y-86858715D01*
X162409480Y-86858716D01*
X162521284Y-86970520D01*
X162575898Y-87002051D01*
X162617502Y-87026071D01*
X162626407Y-87035411D01*
X162665716Y-87076637D01*
X162665716Y-87076638D01*
X162665717Y-87076639D01*
X162665718Y-87076649D01*
X162679500Y-87133457D01*
X162679500Y-87490369D01*
X162679501Y-87490376D01*
X162685908Y-87549983D01*
X162736202Y-87684828D01*
X162736206Y-87684835D01*
X162822452Y-87800044D01*
X162822455Y-87800047D01*
X162937664Y-87886293D01*
X162937671Y-87886297D01*
X163072517Y-87936591D01*
X163072516Y-87936591D01*
X163079444Y-87937335D01*
X163132127Y-87943000D01*
X165058402Y-87942999D01*
X165125441Y-87962684D01*
X165171196Y-88015487D01*
X165181140Y-88084646D01*
X165152115Y-88148202D01*
X165146083Y-88154680D01*
X162634439Y-90666324D01*
X162634432Y-90666331D01*
X162631286Y-90669478D01*
X162631284Y-90669480D01*
X162519480Y-90781284D01*
X162488607Y-90834757D01*
X162480870Y-90843694D01*
X162461022Y-90856460D01*
X162443944Y-90872744D01*
X162432181Y-90875010D01*
X162422107Y-90881491D01*
X162398508Y-90881500D01*
X162375337Y-90885966D01*
X162364216Y-90881514D01*
X162352237Y-90881519D01*
X162332379Y-90868768D01*
X162310472Y-90859998D01*
X162299444Y-90850209D01*
X160987590Y-89538355D01*
X160987588Y-89538352D01*
X160868717Y-89419481D01*
X160868716Y-89419480D01*
X160781904Y-89369360D01*
X160781904Y-89369359D01*
X160781900Y-89369358D01*
X160731785Y-89340423D01*
X160579057Y-89299499D01*
X160420943Y-89299499D01*
X160413347Y-89299499D01*
X160413331Y-89299500D01*
X149286670Y-89299500D01*
X149286654Y-89299499D01*
X149279058Y-89299499D01*
X149120943Y-89299499D01*
X149044579Y-89319961D01*
X148968214Y-89340423D01*
X148968209Y-89340426D01*
X148831290Y-89419475D01*
X148831282Y-89419481D01*
X147744841Y-90505921D01*
X147683518Y-90539406D01*
X147618845Y-90536172D01*
X147604535Y-90531523D01*
X147503443Y-90515511D01*
X147402352Y-90499500D01*
X147197648Y-90499500D01*
X147173329Y-90503351D01*
X146995465Y-90531522D01*
X146800776Y-90594781D01*
X146618386Y-90687715D01*
X146452786Y-90808028D01*
X146308028Y-90952786D01*
X146187715Y-91118386D01*
X146094781Y-91300776D01*
X146031522Y-91495465D01*
X145999500Y-91697648D01*
X145999500Y-91902351D01*
X146031522Y-92104534D01*
X146094781Y-92299223D01*
X146155001Y-92417409D01*
X146186412Y-92479057D01*
X146187715Y-92481613D01*
X146308028Y-92647213D01*
X146452786Y-92791971D01*
X146568655Y-92876153D01*
X146618390Y-92912287D01*
X146734607Y-92971503D01*
X146800776Y-93005218D01*
X146800778Y-93005218D01*
X146800781Y-93005220D01*
X146905137Y-93039127D01*
X146995465Y-93068477D01*
X147096557Y-93084488D01*
X147197648Y-93100500D01*
X147197649Y-93100500D01*
X147402351Y-93100500D01*
X147402352Y-93100500D01*
X147604534Y-93068477D01*
X147799219Y-93005220D01*
X147981610Y-92912287D01*
X148084248Y-92837717D01*
X148147213Y-92791971D01*
X148147215Y-92791968D01*
X148147219Y-92791966D01*
X148291966Y-92647219D01*
X148291968Y-92647215D01*
X148291971Y-92647213D01*
X148364261Y-92547713D01*
X148412287Y-92481610D01*
X148439515Y-92428171D01*
X148487490Y-92377376D01*
X148555311Y-92360581D01*
X148621446Y-92383118D01*
X148660484Y-92428171D01*
X148686412Y-92479057D01*
X148687715Y-92481613D01*
X148808028Y-92647213D01*
X148952786Y-92791971D01*
X149068655Y-92876153D01*
X149118390Y-92912287D01*
X149214979Y-92961501D01*
X149252559Y-92980650D01*
X149303355Y-93028625D01*
X149320150Y-93096446D01*
X149297612Y-93162581D01*
X149242897Y-93206032D01*
X149228360Y-93210909D01*
X149198336Y-93218954D01*
X149118213Y-93240423D01*
X148981281Y-93319482D01*
X147744842Y-94555921D01*
X147683519Y-94589406D01*
X147618848Y-94586173D01*
X147604534Y-94581522D01*
X147429995Y-94553878D01*
X147402352Y-94549500D01*
X147197648Y-94549500D01*
X147173329Y-94553351D01*
X146995465Y-94581522D01*
X146800776Y-94644781D01*
X146618386Y-94737715D01*
X146452786Y-94858028D01*
X146308028Y-95002786D01*
X146187715Y-95168386D01*
X146094781Y-95350776D01*
X146031522Y-95545465D01*
X145999500Y-95747648D01*
X145999500Y-95952351D01*
X146031522Y-96154534D01*
X146094781Y-96349223D01*
X146187715Y-96531613D01*
X146308028Y-96697213D01*
X146452786Y-96841971D01*
X146607749Y-96954556D01*
X146618390Y-96962287D01*
X146734607Y-97021503D01*
X146800776Y-97055218D01*
X146800778Y-97055218D01*
X146800781Y-97055220D01*
X146905137Y-97089127D01*
X146995465Y-97118477D01*
X147096557Y-97134488D01*
X147197648Y-97150500D01*
X147197649Y-97150500D01*
X147402351Y-97150500D01*
X147402352Y-97150500D01*
X147604534Y-97118477D01*
X147799219Y-97055220D01*
X147981610Y-96962287D01*
X148092653Y-96881610D01*
X148147213Y-96841971D01*
X148147215Y-96841968D01*
X148147219Y-96841966D01*
X148291966Y-96697219D01*
X148291968Y-96697215D01*
X148291971Y-96697213D01*
X148362529Y-96600096D01*
X148412287Y-96531610D01*
X148439515Y-96478171D01*
X148487490Y-96427376D01*
X148555311Y-96410581D01*
X148621446Y-96433118D01*
X148660485Y-96478172D01*
X148687715Y-96531613D01*
X148808028Y-96697213D01*
X148952786Y-96841971D01*
X149107749Y-96954556D01*
X149118390Y-96962287D01*
X149234607Y-97021503D01*
X149300776Y-97055218D01*
X149300778Y-97055218D01*
X149300781Y-97055220D01*
X149405137Y-97089127D01*
X149495465Y-97118477D01*
X149596557Y-97134488D01*
X149697648Y-97150500D01*
X149697649Y-97150500D01*
X149902351Y-97150500D01*
X149902352Y-97150500D01*
X150104534Y-97118477D01*
X150299219Y-97055220D01*
X150481610Y-96962287D01*
X150592653Y-96881610D01*
X150647213Y-96841971D01*
X150647215Y-96841968D01*
X150647219Y-96841966D01*
X150791966Y-96697219D01*
X150791968Y-96697215D01*
X150791971Y-96697213D01*
X150912284Y-96531614D01*
X150912285Y-96531613D01*
X150912287Y-96531610D01*
X150919117Y-96518204D01*
X150967091Y-96467409D01*
X151029602Y-96450500D01*
X156063331Y-96450500D01*
X156063347Y-96450501D01*
X156070943Y-96450501D01*
X156229054Y-96450501D01*
X156229057Y-96450501D01*
X156381785Y-96409577D01*
X156434647Y-96379057D01*
X156434648Y-96379057D01*
X156518709Y-96330524D01*
X156518708Y-96330524D01*
X156518716Y-96330520D01*
X156630520Y-96218716D01*
X156630520Y-96218714D01*
X156640724Y-96208511D01*
X156640727Y-96208506D01*
X157755159Y-95094075D01*
X157816480Y-95060592D01*
X157881154Y-95063826D01*
X157895466Y-95068477D01*
X158097648Y-95100500D01*
X158097649Y-95100500D01*
X158302351Y-95100500D01*
X158302352Y-95100500D01*
X158504534Y-95068477D01*
X158699219Y-95005220D01*
X158881610Y-94912287D01*
X159010482Y-94818657D01*
X159047213Y-94791971D01*
X159047215Y-94791968D01*
X159047219Y-94791966D01*
X159191966Y-94647219D01*
X159191968Y-94647215D01*
X159191971Y-94647213D01*
X159293685Y-94507213D01*
X159312287Y-94481610D01*
X159405220Y-94299219D01*
X159468477Y-94104534D01*
X159500500Y-93902352D01*
X159500500Y-93697648D01*
X159468477Y-93495466D01*
X159453956Y-93450776D01*
X159411296Y-93319482D01*
X159405220Y-93300781D01*
X159405218Y-93300778D01*
X159405218Y-93300776D01*
X159353865Y-93199992D01*
X159312287Y-93118390D01*
X159300950Y-93102786D01*
X159191971Y-92952786D01*
X159047213Y-92808028D01*
X158881613Y-92687715D01*
X158881612Y-92687714D01*
X158881610Y-92687713D01*
X158806613Y-92649500D01*
X158699223Y-92594781D01*
X158504534Y-92531522D01*
X158329995Y-92503878D01*
X158302352Y-92499500D01*
X158097648Y-92499500D01*
X158059599Y-92505526D01*
X157895468Y-92531522D01*
X157886717Y-92534365D01*
X157881154Y-92536173D01*
X157811313Y-92538167D01*
X157755157Y-92505922D01*
X156687590Y-91438355D01*
X156687588Y-91438352D01*
X156568717Y-91319481D01*
X156568716Y-91319480D01*
X156481904Y-91269360D01*
X156481904Y-91269359D01*
X156481900Y-91269358D01*
X156431785Y-91240423D01*
X156279057Y-91199499D01*
X156120943Y-91199499D01*
X156113347Y-91199499D01*
X156113331Y-91199500D01*
X151029602Y-91199500D01*
X150962563Y-91179815D01*
X150919117Y-91131795D01*
X150912284Y-91118385D01*
X150791971Y-90952786D01*
X150647219Y-90808034D01*
X150532682Y-90724819D01*
X150490016Y-90669489D01*
X150484037Y-90599875D01*
X150516642Y-90538080D01*
X150577481Y-90503723D01*
X150605567Y-90500500D01*
X160199903Y-90500500D01*
X160266942Y-90520185D01*
X160287584Y-90536819D01*
X162240348Y-92489583D01*
X162273833Y-92550906D01*
X162268849Y-92620598D01*
X162226977Y-92676531D01*
X162191673Y-92694969D01*
X162130672Y-92715183D01*
X162130663Y-92715187D01*
X161981342Y-92807289D01*
X161857289Y-92931342D01*
X161765187Y-93080663D01*
X161765185Y-93080668D01*
X161758293Y-93101467D01*
X161710001Y-93247203D01*
X161710001Y-93247204D01*
X161710000Y-93247204D01*
X161699500Y-93349983D01*
X161699500Y-94349902D01*
X161679815Y-94416941D01*
X161663181Y-94437583D01*
X160169481Y-95931282D01*
X160169479Y-95931285D01*
X160119361Y-96018094D01*
X160119359Y-96018096D01*
X160090425Y-96068209D01*
X160090424Y-96068210D01*
X160090423Y-96068215D01*
X160049499Y-96220943D01*
X160049499Y-96220945D01*
X160049499Y-96389046D01*
X160049500Y-96389059D01*
X160049500Y-102675500D01*
X160029815Y-102742539D01*
X159977011Y-102788294D01*
X159925501Y-102799500D01*
X159752130Y-102799500D01*
X159752123Y-102799501D01*
X159692516Y-102805908D01*
X159557671Y-102856202D01*
X159557664Y-102856206D01*
X159442455Y-102942452D01*
X159442452Y-102942455D01*
X159356206Y-103057664D01*
X159356202Y-103057671D01*
X159305908Y-103192517D01*
X159299501Y-103252116D01*
X159299501Y-103252123D01*
X159299500Y-103252135D01*
X159299500Y-105047870D01*
X159299501Y-105047876D01*
X159305908Y-105107483D01*
X159356202Y-105242328D01*
X159356206Y-105242335D01*
X159442452Y-105357544D01*
X159442455Y-105357547D01*
X159557664Y-105443793D01*
X159557671Y-105443797D01*
X159689082Y-105492810D01*
X159745016Y-105534681D01*
X159769433Y-105600145D01*
X159754582Y-105668418D01*
X159733431Y-105696673D01*
X159619889Y-105810215D01*
X159494951Y-105982179D01*
X159398444Y-106171585D01*
X159332753Y-106373760D01*
X159299500Y-106583713D01*
X159299500Y-106796286D01*
X159328105Y-106976895D01*
X159332754Y-107006243D01*
X159398055Y-107207219D01*
X159398444Y-107208414D01*
X159494951Y-107397820D01*
X159619890Y-107569786D01*
X159770213Y-107720109D01*
X159942182Y-107845050D01*
X159950946Y-107849516D01*
X160001742Y-107897491D01*
X160018536Y-107965312D01*
X159995998Y-108031447D01*
X159950946Y-108070484D01*
X159942182Y-108074949D01*
X159770213Y-108199890D01*
X159619890Y-108350213D01*
X159494951Y-108522179D01*
X159398444Y-108711585D01*
X159332753Y-108913760D01*
X159318722Y-109002351D01*
X159299500Y-109123713D01*
X159299500Y-109336287D01*
X159332754Y-109546243D01*
X159398055Y-109747219D01*
X159398444Y-109748414D01*
X159494951Y-109937820D01*
X159619890Y-110109786D01*
X159770213Y-110260109D01*
X159942182Y-110385050D01*
X159950946Y-110389516D01*
X160001742Y-110437491D01*
X160018536Y-110505312D01*
X159995998Y-110571447D01*
X159950946Y-110610484D01*
X159942182Y-110614949D01*
X159770213Y-110739890D01*
X159619890Y-110890213D01*
X159494951Y-111062179D01*
X159398444Y-111251585D01*
X159332753Y-111453760D01*
X159318722Y-111542351D01*
X159299500Y-111663713D01*
X159299500Y-111876287D01*
X159332754Y-112086243D01*
X159398055Y-112287219D01*
X159398444Y-112288414D01*
X159494951Y-112477820D01*
X159619890Y-112649786D01*
X159770213Y-112800109D01*
X159942182Y-112925050D01*
X159950946Y-112929516D01*
X160001742Y-112977491D01*
X160018536Y-113045312D01*
X159995998Y-113111447D01*
X159950946Y-113150484D01*
X159942182Y-113154949D01*
X159770213Y-113279890D01*
X159619890Y-113430213D01*
X159494951Y-113602179D01*
X159398444Y-113791585D01*
X159332753Y-113993760D01*
X159318722Y-114082351D01*
X159299500Y-114203713D01*
X159299500Y-114416287D01*
X159332754Y-114626243D01*
X159398055Y-114827219D01*
X159398444Y-114828414D01*
X159494951Y-115017820D01*
X159619890Y-115189786D01*
X159770213Y-115340109D01*
X159942182Y-115465050D01*
X159950946Y-115469516D01*
X160001742Y-115517491D01*
X160018536Y-115585312D01*
X159995998Y-115651447D01*
X159950946Y-115690484D01*
X159942182Y-115694949D01*
X159770213Y-115819890D01*
X159619890Y-115970213D01*
X159494951Y-116142179D01*
X159398444Y-116331585D01*
X159332753Y-116533760D01*
X159299500Y-116743713D01*
X159299500Y-116956286D01*
X159332753Y-117166239D01*
X159332753Y-117166241D01*
X159332754Y-117166243D01*
X159398055Y-117367219D01*
X159398444Y-117368414D01*
X159494951Y-117557820D01*
X159619890Y-117729786D01*
X159770213Y-117880109D01*
X159942184Y-118005051D01*
X159942184Y-118005052D01*
X159981793Y-118025233D01*
X160032590Y-118073206D01*
X160049500Y-118135718D01*
X160049500Y-119863330D01*
X160049499Y-119863348D01*
X160049499Y-120029054D01*
X160049498Y-120029054D01*
X160055638Y-120051969D01*
X160090423Y-120181785D01*
X160102829Y-120203273D01*
X160119358Y-120231900D01*
X160119359Y-120231904D01*
X160119360Y-120231904D01*
X160162085Y-120305908D01*
X160169479Y-120318714D01*
X160169481Y-120318717D01*
X160288349Y-120437585D01*
X160288355Y-120437590D01*
X161815139Y-121964374D01*
X161815149Y-121964385D01*
X161819479Y-121968715D01*
X161819480Y-121968716D01*
X161931284Y-122080520D01*
X161931286Y-122080521D01*
X161931290Y-122080524D01*
X162068209Y-122159573D01*
X162068216Y-122159577D01*
X162180019Y-122189534D01*
X162220942Y-122200500D01*
X162220943Y-122200500D01*
X167590398Y-122200500D01*
X167657437Y-122220185D01*
X167700883Y-122268205D01*
X167707715Y-122281614D01*
X167828028Y-122447213D01*
X167972786Y-122591971D01*
X168127749Y-122704556D01*
X168138390Y-122712287D01*
X168227212Y-122757544D01*
X168320776Y-122805218D01*
X168320778Y-122805218D01*
X168320781Y-122805220D01*
X168425137Y-122839127D01*
X168515465Y-122868477D01*
X168616557Y-122884488D01*
X168717648Y-122900500D01*
X168717649Y-122900500D01*
X168922351Y-122900500D01*
X168922352Y-122900500D01*
X169124534Y-122868477D01*
X169319219Y-122805220D01*
X169501610Y-122712287D01*
X169597901Y-122642328D01*
X169667213Y-122591971D01*
X169667215Y-122591968D01*
X169667219Y-122591966D01*
X169811966Y-122447219D01*
X169811968Y-122447215D01*
X169811971Y-122447213D01*
X169864732Y-122374590D01*
X169932287Y-122281610D01*
X170025220Y-122099219D01*
X170088477Y-121904534D01*
X170120500Y-121702352D01*
X170120500Y-121497648D01*
X170088477Y-121295466D01*
X170025220Y-121100781D01*
X170025218Y-121100778D01*
X170025218Y-121100776D01*
X169991503Y-121034607D01*
X169932287Y-120918390D01*
X169924556Y-120907749D01*
X169811971Y-120752786D01*
X169667213Y-120608028D01*
X169501614Y-120487715D01*
X169495006Y-120484348D01*
X169408917Y-120440483D01*
X169358123Y-120392511D01*
X169341328Y-120324690D01*
X169363865Y-120258555D01*
X169408917Y-120219516D01*
X169501610Y-120172287D01*
X169522770Y-120156913D01*
X169667213Y-120051971D01*
X169667215Y-120051968D01*
X169667219Y-120051966D01*
X169811966Y-119907219D01*
X169811968Y-119907215D01*
X169811971Y-119907213D01*
X169932284Y-119741614D01*
X169932285Y-119741613D01*
X169932287Y-119741610D01*
X169939117Y-119728204D01*
X169987091Y-119677409D01*
X170049602Y-119660500D01*
X178893331Y-119660500D01*
X178893347Y-119660501D01*
X178900943Y-119660501D01*
X179059054Y-119660501D01*
X179059057Y-119660501D01*
X179211785Y-119619577D01*
X179278110Y-119581284D01*
X179348716Y-119540520D01*
X179460520Y-119428716D01*
X179460520Y-119428714D01*
X179470724Y-119418511D01*
X179470728Y-119418506D01*
X182547819Y-116341415D01*
X182609142Y-116307930D01*
X182678834Y-116312914D01*
X182734767Y-116354786D01*
X182759184Y-116420250D01*
X182759500Y-116429096D01*
X182759500Y-116622351D01*
X182791522Y-116824534D01*
X182854781Y-117019223D01*
X182947715Y-117201613D01*
X183068028Y-117367213D01*
X183212786Y-117511971D01*
X183361800Y-117620234D01*
X183378390Y-117632287D01*
X183449309Y-117668422D01*
X183471080Y-117679515D01*
X183521876Y-117727490D01*
X183538671Y-117795311D01*
X183516134Y-117861446D01*
X183471080Y-117900485D01*
X183378386Y-117947715D01*
X183212786Y-118068028D01*
X183068028Y-118212786D01*
X182947715Y-118378386D01*
X182854781Y-118560776D01*
X182791522Y-118755465D01*
X182759500Y-118957648D01*
X182759500Y-119162351D01*
X182791522Y-119364534D01*
X182854781Y-119559223D01*
X182947715Y-119741613D01*
X183068028Y-119907213D01*
X183212784Y-120051969D01*
X183249068Y-120078330D01*
X183291735Y-120133659D01*
X183297715Y-120203273D01*
X183265109Y-120265068D01*
X183204271Y-120299426D01*
X183189440Y-120301938D01*
X183152519Y-120305907D01*
X183017671Y-120356202D01*
X183017664Y-120356206D01*
X182902455Y-120442452D01*
X182902452Y-120442455D01*
X182816206Y-120557664D01*
X182816202Y-120557671D01*
X182765908Y-120692517D01*
X182759501Y-120752116D01*
X182759501Y-120752123D01*
X182759500Y-120752135D01*
X182759500Y-122447870D01*
X182759501Y-122447876D01*
X182765908Y-122507483D01*
X182816202Y-122642328D01*
X182816206Y-122642335D01*
X182902452Y-122757544D01*
X182902455Y-122757547D01*
X183017664Y-122843793D01*
X183017671Y-122843797D01*
X183152517Y-122894091D01*
X183152516Y-122894091D01*
X183159444Y-122894835D01*
X183212127Y-122900500D01*
X184907872Y-122900499D01*
X184967483Y-122894091D01*
X185102331Y-122843796D01*
X185217546Y-122757546D01*
X185303796Y-122642331D01*
X185354091Y-122507483D01*
X185360500Y-122447873D01*
X185360499Y-120752128D01*
X185354091Y-120692517D01*
X185303796Y-120557669D01*
X185303795Y-120557668D01*
X185303793Y-120557664D01*
X185217547Y-120442455D01*
X185217544Y-120442452D01*
X185102335Y-120356206D01*
X185102328Y-120356202D01*
X184967482Y-120305908D01*
X184967483Y-120305908D01*
X184930560Y-120301939D01*
X184866009Y-120275201D01*
X184826160Y-120217809D01*
X184823667Y-120147984D01*
X184859319Y-120087895D01*
X184870930Y-120078331D01*
X184907219Y-120051966D01*
X185051966Y-119907219D01*
X185051968Y-119907215D01*
X185051971Y-119907213D01*
X185104732Y-119834590D01*
X185172287Y-119741610D01*
X185265220Y-119559219D01*
X185328477Y-119364534D01*
X185360500Y-119162352D01*
X185360500Y-118957648D01*
X185328477Y-118755466D01*
X185265220Y-118560781D01*
X185265218Y-118560778D01*
X185265218Y-118560776D01*
X185231503Y-118494607D01*
X185172287Y-118378390D01*
X185123551Y-118311310D01*
X185051971Y-118212786D01*
X184907213Y-118068028D01*
X184741614Y-117947715D01*
X184735006Y-117944348D01*
X184648917Y-117900483D01*
X184598123Y-117852511D01*
X184581328Y-117784690D01*
X184603865Y-117718555D01*
X184648917Y-117679516D01*
X184741610Y-117632287D01*
X184844106Y-117557820D01*
X184907213Y-117511971D01*
X184907215Y-117511968D01*
X184907219Y-117511966D01*
X185051966Y-117367219D01*
X185051968Y-117367215D01*
X185051971Y-117367213D01*
X185120275Y-117273199D01*
X185172287Y-117201610D01*
X185265220Y-117019219D01*
X185328477Y-116824534D01*
X185360500Y-116622352D01*
X185360500Y-116417648D01*
X185328477Y-116215465D01*
X185265218Y-116020776D01*
X185231503Y-115954607D01*
X185172287Y-115838390D01*
X185164556Y-115827749D01*
X185051971Y-115672786D01*
X184907213Y-115528028D01*
X184741614Y-115407715D01*
X184735006Y-115404348D01*
X184648917Y-115360483D01*
X184598123Y-115312511D01*
X184581328Y-115244690D01*
X184603865Y-115178555D01*
X184648917Y-115139516D01*
X184741610Y-115092287D01*
X184844106Y-115017820D01*
X184907213Y-114971971D01*
X184907215Y-114971968D01*
X184907219Y-114971966D01*
X185051966Y-114827219D01*
X185051968Y-114827215D01*
X185051971Y-114827213D01*
X185104732Y-114754590D01*
X185172287Y-114661610D01*
X185265220Y-114479219D01*
X185328477Y-114284534D01*
X185360500Y-114082352D01*
X185360500Y-113877648D01*
X185328477Y-113675466D01*
X185265220Y-113480781D01*
X185265218Y-113480778D01*
X185265218Y-113480776D01*
X185231503Y-113414607D01*
X185172287Y-113298390D01*
X185164556Y-113287749D01*
X185051971Y-113132786D01*
X184907213Y-112988028D01*
X184741614Y-112867715D01*
X184735006Y-112864348D01*
X184648917Y-112820483D01*
X184598123Y-112772511D01*
X184581328Y-112704690D01*
X184603865Y-112638555D01*
X184648917Y-112599516D01*
X184741610Y-112552287D01*
X184844106Y-112477820D01*
X184907213Y-112431971D01*
X184907215Y-112431968D01*
X184907219Y-112431966D01*
X185051966Y-112287219D01*
X185051968Y-112287215D01*
X185051971Y-112287213D01*
X185104732Y-112214590D01*
X185172287Y-112121610D01*
X185265220Y-111939219D01*
X185328477Y-111744534D01*
X185360500Y-111542352D01*
X185360500Y-111337648D01*
X185328477Y-111135466D01*
X185265220Y-110940781D01*
X185265218Y-110940778D01*
X185265218Y-110940776D01*
X185231503Y-110874607D01*
X185172287Y-110758390D01*
X185164556Y-110747749D01*
X185051971Y-110592786D01*
X184907213Y-110448028D01*
X184741614Y-110327715D01*
X184735006Y-110324348D01*
X184648917Y-110280483D01*
X184598123Y-110232511D01*
X184581328Y-110164690D01*
X184603865Y-110098555D01*
X184648917Y-110059516D01*
X184741610Y-110012287D01*
X184844106Y-109937820D01*
X184907213Y-109891971D01*
X184907215Y-109891968D01*
X184907219Y-109891966D01*
X185051966Y-109747219D01*
X185051968Y-109747215D01*
X185051971Y-109747213D01*
X185104732Y-109674590D01*
X185172287Y-109581610D01*
X185265220Y-109399219D01*
X185328477Y-109204534D01*
X185360500Y-109002352D01*
X185360500Y-108797648D01*
X185328477Y-108595466D01*
X185265220Y-108400781D01*
X185265218Y-108400778D01*
X185265218Y-108400776D01*
X185228644Y-108328997D01*
X185172287Y-108218390D01*
X185164556Y-108207749D01*
X185051971Y-108052786D01*
X184907213Y-107908028D01*
X184741614Y-107787715D01*
X184684278Y-107758501D01*
X184648917Y-107740483D01*
X184598123Y-107692511D01*
X184581328Y-107624690D01*
X184603865Y-107558555D01*
X184648917Y-107519516D01*
X184741610Y-107472287D01*
X184844106Y-107397820D01*
X184907213Y-107351971D01*
X184907215Y-107351968D01*
X184907219Y-107351966D01*
X185051966Y-107207219D01*
X185051968Y-107207215D01*
X185051971Y-107207213D01*
X185104732Y-107134590D01*
X185172287Y-107041610D01*
X185265220Y-106859219D01*
X185328477Y-106664534D01*
X185360500Y-106462352D01*
X185360500Y-106257648D01*
X185328477Y-106055465D01*
X185299127Y-105965137D01*
X185265220Y-105860781D01*
X185265218Y-105860778D01*
X185265218Y-105860776D01*
X185203199Y-105739059D01*
X185172287Y-105678390D01*
X185164556Y-105667749D01*
X185051971Y-105512786D01*
X184907213Y-105368028D01*
X184741614Y-105247715D01*
X184731041Y-105242328D01*
X184648917Y-105200483D01*
X184598123Y-105152511D01*
X184581328Y-105084690D01*
X184603865Y-105018555D01*
X184648917Y-104979516D01*
X184741610Y-104932287D01*
X184762770Y-104916913D01*
X184907213Y-104811971D01*
X184907215Y-104811968D01*
X184907219Y-104811966D01*
X185051966Y-104667219D01*
X185051968Y-104667215D01*
X185051971Y-104667213D01*
X185104732Y-104594590D01*
X185172287Y-104501610D01*
X185265220Y-104319219D01*
X185328477Y-104124534D01*
X185360500Y-103922352D01*
X185360500Y-103717648D01*
X185328477Y-103515465D01*
X185299127Y-103425137D01*
X185265220Y-103320781D01*
X185265218Y-103320778D01*
X185265218Y-103320776D01*
X185199866Y-103192517D01*
X185172287Y-103138390D01*
X185113642Y-103057671D01*
X185051971Y-102972786D01*
X184907213Y-102828028D01*
X184741614Y-102707715D01*
X184735006Y-102704348D01*
X184648917Y-102660483D01*
X184598123Y-102612511D01*
X184581328Y-102544690D01*
X184603865Y-102478555D01*
X184648917Y-102439516D01*
X184741610Y-102392287D01*
X184762770Y-102376913D01*
X184907213Y-102271971D01*
X184907215Y-102271968D01*
X184907219Y-102271966D01*
X185051966Y-102127219D01*
X185051968Y-102127215D01*
X185051971Y-102127213D01*
X185104732Y-102054590D01*
X185172287Y-101961610D01*
X185265220Y-101779219D01*
X185328477Y-101584534D01*
X185360500Y-101382352D01*
X185360500Y-101177648D01*
X185328477Y-100975466D01*
X185265220Y-100780781D01*
X185265218Y-100780778D01*
X185265218Y-100780776D01*
X185231503Y-100714607D01*
X185172287Y-100598390D01*
X185164556Y-100587749D01*
X185051971Y-100432786D01*
X184907213Y-100288028D01*
X184741614Y-100167715D01*
X184735006Y-100164348D01*
X184648917Y-100120483D01*
X184598123Y-100072511D01*
X184581328Y-100004690D01*
X184603865Y-99938555D01*
X184648917Y-99899516D01*
X184741610Y-99852287D01*
X184762770Y-99836913D01*
X184907213Y-99731971D01*
X184907215Y-99731968D01*
X184907219Y-99731966D01*
X185051966Y-99587219D01*
X185051968Y-99587215D01*
X185051971Y-99587213D01*
X185104732Y-99514590D01*
X185172287Y-99421610D01*
X185265220Y-99239219D01*
X185328477Y-99044534D01*
X185360500Y-98842352D01*
X185360500Y-98637648D01*
X185328477Y-98435466D01*
X185265220Y-98240781D01*
X185265218Y-98240778D01*
X185265218Y-98240776D01*
X185231503Y-98174607D01*
X185172287Y-98058390D01*
X185164556Y-98047749D01*
X185051971Y-97892786D01*
X184907213Y-97748028D01*
X184741614Y-97627715D01*
X184735006Y-97624348D01*
X184648917Y-97580483D01*
X184598123Y-97532511D01*
X184581328Y-97464690D01*
X184603865Y-97398555D01*
X184648917Y-97359516D01*
X184741610Y-97312287D01*
X184762770Y-97296913D01*
X184907213Y-97191971D01*
X184907215Y-97191968D01*
X184907219Y-97191966D01*
X185051966Y-97047219D01*
X185051968Y-97047215D01*
X185051971Y-97047213D01*
X185113674Y-96962284D01*
X185172287Y-96881610D01*
X185265220Y-96699219D01*
X185328477Y-96504534D01*
X185360500Y-96302352D01*
X185360500Y-96097648D01*
X185328477Y-95895466D01*
X185265220Y-95700781D01*
X185265218Y-95700778D01*
X185265218Y-95700776D01*
X185231503Y-95634607D01*
X185172287Y-95518390D01*
X185129057Y-95458888D01*
X185051971Y-95352786D01*
X184907213Y-95208028D01*
X184741614Y-95087715D01*
X184735006Y-95084348D01*
X184648917Y-95040483D01*
X184598123Y-94992511D01*
X184581328Y-94924690D01*
X184603865Y-94858555D01*
X184648917Y-94819516D01*
X184741610Y-94772287D01*
X184789195Y-94737715D01*
X184907213Y-94651971D01*
X184907215Y-94651968D01*
X184907219Y-94651966D01*
X185051966Y-94507219D01*
X185051968Y-94507215D01*
X185051971Y-94507213D01*
X185129858Y-94400009D01*
X185172287Y-94341610D01*
X185265220Y-94159219D01*
X185328477Y-93964534D01*
X185360500Y-93762352D01*
X185360500Y-93557648D01*
X185328477Y-93355465D01*
X185299127Y-93265137D01*
X185265220Y-93160781D01*
X185265218Y-93160778D01*
X185265218Y-93160776D01*
X185224398Y-93080663D01*
X185172287Y-92978390D01*
X185153681Y-92952781D01*
X185051971Y-92812786D01*
X184907213Y-92668028D01*
X184741614Y-92547715D01*
X184722227Y-92537837D01*
X184648917Y-92500483D01*
X184598123Y-92452511D01*
X184581328Y-92384690D01*
X184603865Y-92318555D01*
X184648917Y-92279516D01*
X184741610Y-92232287D01*
X184762770Y-92216913D01*
X184907213Y-92111971D01*
X184907215Y-92111968D01*
X184907219Y-92111966D01*
X185051966Y-91967219D01*
X185051968Y-91967215D01*
X185051971Y-91967213D01*
X185104732Y-91894590D01*
X185172287Y-91801610D01*
X185265220Y-91619219D01*
X185328477Y-91424534D01*
X185360500Y-91222352D01*
X185360500Y-91017648D01*
X185328477Y-90815466D01*
X185323825Y-90801151D01*
X185321832Y-90731312D01*
X185354075Y-90675158D01*
X185918713Y-90110521D01*
X185918716Y-90110520D01*
X186030520Y-89998716D01*
X186080639Y-89911904D01*
X186109577Y-89861785D01*
X186150500Y-89709058D01*
X186150500Y-89550943D01*
X186150500Y-89397757D01*
X186170185Y-89330718D01*
X186222989Y-89284963D01*
X186292147Y-89275019D01*
X186298692Y-89276140D01*
X186421155Y-89300500D01*
X186421158Y-89300500D01*
X186578843Y-89300500D01*
X186594564Y-89297372D01*
X186651309Y-89286085D01*
X186720899Y-89292312D01*
X186776077Y-89335174D01*
X186799322Y-89401063D01*
X186799500Y-89407702D01*
X186799500Y-126875500D01*
X186779815Y-126942539D01*
X186727011Y-126988294D01*
X186675500Y-126999500D01*
X143874500Y-126999500D01*
X143807461Y-126979815D01*
X143761706Y-126927011D01*
X143750500Y-126875500D01*
X143750500Y-103252135D01*
X155099500Y-103252135D01*
X155099500Y-105047870D01*
X155099501Y-105047876D01*
X155105908Y-105107483D01*
X155156202Y-105242328D01*
X155156206Y-105242335D01*
X155242452Y-105357544D01*
X155242455Y-105357547D01*
X155357664Y-105443793D01*
X155357671Y-105443797D01*
X155489082Y-105492810D01*
X155545016Y-105534681D01*
X155569433Y-105600145D01*
X155554582Y-105668418D01*
X155533431Y-105696673D01*
X155419889Y-105810215D01*
X155294951Y-105982179D01*
X155198444Y-106171585D01*
X155132753Y-106373760D01*
X155099500Y-106583713D01*
X155099500Y-106796286D01*
X155128105Y-106976895D01*
X155132754Y-107006243D01*
X155198055Y-107207219D01*
X155198444Y-107208414D01*
X155294951Y-107397820D01*
X155419890Y-107569786D01*
X155570213Y-107720109D01*
X155742182Y-107845050D01*
X155750946Y-107849516D01*
X155801742Y-107897491D01*
X155818536Y-107965312D01*
X155795998Y-108031447D01*
X155750946Y-108070484D01*
X155742182Y-108074949D01*
X155570213Y-108199890D01*
X155419890Y-108350213D01*
X155294951Y-108522179D01*
X155198444Y-108711585D01*
X155132753Y-108913760D01*
X155118722Y-109002351D01*
X155099500Y-109123713D01*
X155099500Y-109336287D01*
X155132754Y-109546243D01*
X155198055Y-109747219D01*
X155198444Y-109748414D01*
X155294951Y-109937820D01*
X155419890Y-110109786D01*
X155570213Y-110260109D01*
X155742182Y-110385050D01*
X155750946Y-110389516D01*
X155801742Y-110437491D01*
X155818536Y-110505312D01*
X155795998Y-110571447D01*
X155750946Y-110610484D01*
X155742182Y-110614949D01*
X155570213Y-110739890D01*
X155419890Y-110890213D01*
X155294951Y-111062179D01*
X155198444Y-111251585D01*
X155132753Y-111453760D01*
X155118722Y-111542351D01*
X155099500Y-111663713D01*
X155099500Y-111876287D01*
X155132754Y-112086243D01*
X155198055Y-112287219D01*
X155198444Y-112288414D01*
X155294951Y-112477820D01*
X155419890Y-112649786D01*
X155570213Y-112800109D01*
X155742182Y-112925050D01*
X155750946Y-112929516D01*
X155801742Y-112977491D01*
X155818536Y-113045312D01*
X155795998Y-113111447D01*
X155750946Y-113150484D01*
X155742182Y-113154949D01*
X155570213Y-113279890D01*
X155419890Y-113430213D01*
X155294951Y-113602179D01*
X155198444Y-113791585D01*
X155132753Y-113993760D01*
X155118722Y-114082351D01*
X155099500Y-114203713D01*
X155099500Y-114416287D01*
X155132754Y-114626243D01*
X155198055Y-114827219D01*
X155198444Y-114828414D01*
X155294951Y-115017820D01*
X155419890Y-115189786D01*
X155570213Y-115340109D01*
X155742182Y-115465050D01*
X155750946Y-115469516D01*
X155801742Y-115517491D01*
X155818536Y-115585312D01*
X155795998Y-115651447D01*
X155750946Y-115690484D01*
X155742182Y-115694949D01*
X155570213Y-115819890D01*
X155419890Y-115970213D01*
X155294951Y-116142179D01*
X155198444Y-116331585D01*
X155132753Y-116533760D01*
X155099500Y-116743713D01*
X155099500Y-116956286D01*
X155132753Y-117166239D01*
X155132753Y-117166241D01*
X155132754Y-117166243D01*
X155198055Y-117367219D01*
X155198444Y-117368414D01*
X155294951Y-117557820D01*
X155419890Y-117729786D01*
X155570213Y-117880109D01*
X155742179Y-118005048D01*
X155742181Y-118005049D01*
X155742184Y-118005051D01*
X155931588Y-118101557D01*
X156133757Y-118167246D01*
X156343713Y-118200500D01*
X156343714Y-118200500D01*
X156556286Y-118200500D01*
X156556287Y-118200500D01*
X156766243Y-118167246D01*
X156968412Y-118101557D01*
X157157816Y-118005051D01*
X157301740Y-117900485D01*
X157329786Y-117880109D01*
X157329788Y-117880106D01*
X157329792Y-117880104D01*
X157480104Y-117729792D01*
X157480106Y-117729788D01*
X157480109Y-117729786D01*
X157605048Y-117557820D01*
X157605047Y-117557820D01*
X157605051Y-117557816D01*
X157701557Y-117368412D01*
X157767246Y-117166243D01*
X157800500Y-116956287D01*
X157800500Y-116743713D01*
X157767246Y-116533757D01*
X157701557Y-116331588D01*
X157605051Y-116142184D01*
X157605049Y-116142181D01*
X157605048Y-116142179D01*
X157480109Y-115970213D01*
X157329786Y-115819890D01*
X157157820Y-115694951D01*
X157157115Y-115694591D01*
X157149054Y-115690485D01*
X157098259Y-115642512D01*
X157081463Y-115574692D01*
X157103999Y-115508556D01*
X157149054Y-115469515D01*
X157157816Y-115465051D01*
X157301740Y-115360485D01*
X157329786Y-115340109D01*
X157329788Y-115340106D01*
X157329792Y-115340104D01*
X157480104Y-115189792D01*
X157480106Y-115189788D01*
X157480109Y-115189786D01*
X157605048Y-115017820D01*
X157605047Y-115017820D01*
X157605051Y-115017816D01*
X157701557Y-114828412D01*
X157767246Y-114626243D01*
X157800500Y-114416287D01*
X157800500Y-114203713D01*
X157767246Y-113993757D01*
X157701557Y-113791588D01*
X157605051Y-113602184D01*
X157605049Y-113602181D01*
X157605048Y-113602179D01*
X157480109Y-113430213D01*
X157329786Y-113279890D01*
X157157820Y-113154951D01*
X157157115Y-113154591D01*
X157149054Y-113150485D01*
X157098259Y-113102512D01*
X157081463Y-113034692D01*
X157103999Y-112968556D01*
X157149054Y-112929515D01*
X157157816Y-112925051D01*
X157301740Y-112820485D01*
X157329786Y-112800109D01*
X157329788Y-112800106D01*
X157329792Y-112800104D01*
X157480104Y-112649792D01*
X157480106Y-112649788D01*
X157480109Y-112649786D01*
X157605048Y-112477820D01*
X157605047Y-112477820D01*
X157605051Y-112477816D01*
X157701557Y-112288412D01*
X157767246Y-112086243D01*
X157800500Y-111876287D01*
X157800500Y-111663713D01*
X157767246Y-111453757D01*
X157701557Y-111251588D01*
X157605051Y-111062184D01*
X157605049Y-111062181D01*
X157605048Y-111062179D01*
X157480109Y-110890213D01*
X157329786Y-110739890D01*
X157157820Y-110614951D01*
X157157115Y-110614591D01*
X157149054Y-110610485D01*
X157098259Y-110562512D01*
X157081463Y-110494692D01*
X157103999Y-110428556D01*
X157149054Y-110389515D01*
X157157816Y-110385051D01*
X157301740Y-110280485D01*
X157329786Y-110260109D01*
X157329788Y-110260106D01*
X157329792Y-110260104D01*
X157480104Y-110109792D01*
X157480106Y-110109788D01*
X157480109Y-110109786D01*
X157605048Y-109937820D01*
X157605047Y-109937820D01*
X157605051Y-109937816D01*
X157701557Y-109748412D01*
X157767246Y-109546243D01*
X157800500Y-109336287D01*
X157800500Y-109123713D01*
X157767246Y-108913757D01*
X157701557Y-108711588D01*
X157605051Y-108522184D01*
X157605049Y-108522181D01*
X157605048Y-108522179D01*
X157480109Y-108350213D01*
X157329786Y-108199890D01*
X157157820Y-108074951D01*
X157157115Y-108074591D01*
X157149054Y-108070485D01*
X157098259Y-108022512D01*
X157081463Y-107954692D01*
X157103999Y-107888556D01*
X157149054Y-107849515D01*
X157157816Y-107845051D01*
X157262887Y-107768713D01*
X157329786Y-107720109D01*
X157329788Y-107720106D01*
X157329792Y-107720104D01*
X157480104Y-107569792D01*
X157480106Y-107569788D01*
X157480109Y-107569786D01*
X157605048Y-107397820D01*
X157605047Y-107397820D01*
X157605051Y-107397816D01*
X157701557Y-107208412D01*
X157767246Y-107006243D01*
X157800500Y-106796287D01*
X157800500Y-106583713D01*
X157767246Y-106373757D01*
X157701557Y-106171588D01*
X157605051Y-105982184D01*
X157605049Y-105982181D01*
X157605048Y-105982179D01*
X157480109Y-105810213D01*
X157366569Y-105696673D01*
X157333084Y-105635350D01*
X157338068Y-105565658D01*
X157379940Y-105509725D01*
X157410915Y-105492810D01*
X157542331Y-105443796D01*
X157657546Y-105357546D01*
X157743796Y-105242331D01*
X157794091Y-105107483D01*
X157800500Y-105047873D01*
X157800499Y-103252128D01*
X157794091Y-103192517D01*
X157773901Y-103138386D01*
X157743797Y-103057671D01*
X157743793Y-103057664D01*
X157657547Y-102942455D01*
X157657544Y-102942452D01*
X157542335Y-102856206D01*
X157542328Y-102856202D01*
X157407482Y-102805908D01*
X157407483Y-102805908D01*
X157347883Y-102799501D01*
X157347881Y-102799500D01*
X157347873Y-102799500D01*
X157347864Y-102799500D01*
X155552129Y-102799500D01*
X155552123Y-102799501D01*
X155492516Y-102805908D01*
X155357671Y-102856202D01*
X155357664Y-102856206D01*
X155242455Y-102942452D01*
X155242452Y-102942455D01*
X155156206Y-103057664D01*
X155156202Y-103057671D01*
X155105908Y-103192517D01*
X155099501Y-103252116D01*
X155099501Y-103252123D01*
X155099500Y-103252135D01*
X143750500Y-103252135D01*
X143750500Y-83818872D01*
X145519500Y-83818872D01*
X145519500Y-84081127D01*
X145546123Y-84283339D01*
X145553730Y-84341116D01*
X145621288Y-84593246D01*
X145621602Y-84594418D01*
X145621605Y-84594428D01*
X145721953Y-84836690D01*
X145721958Y-84836700D01*
X145853075Y-85063803D01*
X146012718Y-85271851D01*
X146012726Y-85271860D01*
X146198140Y-85457274D01*
X146198148Y-85457281D01*
X146406196Y-85616924D01*
X146633299Y-85748041D01*
X146633309Y-85748046D01*
X146875571Y-85848394D01*
X146875581Y-85848398D01*
X147128884Y-85916270D01*
X147388880Y-85950500D01*
X147388887Y-85950500D01*
X147651113Y-85950500D01*
X147651120Y-85950500D01*
X147911116Y-85916270D01*
X148164419Y-85848398D01*
X148406697Y-85748043D01*
X148633803Y-85616924D01*
X148841851Y-85457282D01*
X148841855Y-85457277D01*
X148841860Y-85457274D01*
X149027274Y-85271860D01*
X149027277Y-85271855D01*
X149027282Y-85271851D01*
X149186924Y-85063803D01*
X149318043Y-84836697D01*
X149418398Y-84594419D01*
X149486270Y-84341116D01*
X149520500Y-84081120D01*
X149520500Y-83818880D01*
X149486270Y-83558884D01*
X149418398Y-83305581D01*
X149369886Y-83188462D01*
X149318046Y-83063309D01*
X149318041Y-83063299D01*
X149186924Y-82836196D01*
X149027281Y-82628148D01*
X149027274Y-82628140D01*
X148841860Y-82442726D01*
X148841851Y-82442718D01*
X148633803Y-82283075D01*
X148406700Y-82151958D01*
X148406690Y-82151953D01*
X148164428Y-82051605D01*
X148164421Y-82051603D01*
X148164419Y-82051602D01*
X147911116Y-81983730D01*
X147853339Y-81976123D01*
X147651127Y-81949500D01*
X147651120Y-81949500D01*
X147388880Y-81949500D01*
X147388872Y-81949500D01*
X147157772Y-81979926D01*
X147128884Y-81983730D01*
X147024431Y-82011718D01*
X146875581Y-82051602D01*
X146875571Y-82051605D01*
X146633309Y-82151953D01*
X146633299Y-82151958D01*
X146406196Y-82283075D01*
X146198148Y-82442718D01*
X146012718Y-82628148D01*
X145853075Y-82836196D01*
X145721958Y-83063299D01*
X145721953Y-83063309D01*
X145621605Y-83305571D01*
X145621602Y-83305581D01*
X145553730Y-83558885D01*
X145519500Y-83818872D01*
X143750500Y-83818872D01*
X143750500Y-71024500D01*
X143770185Y-70957461D01*
X143822989Y-70911706D01*
X143874500Y-70900500D01*
X186675500Y-70900500D01*
X186742539Y-70920185D01*
G37*
%TD.AperFunction*%
M02*
