%TF.GenerationSoftware,KiCad,Pcbnew,9.0.7*%
%TF.CreationDate,2026-03-05T19:18:57+06:00*%
%TF.ProjectId,Tranceiver_101_PCB_rece,5472616e-6365-4697-9665-725f3130315f,rev?*%
%TF.SameCoordinates,Original*%
%TF.FileFunction,Legend,Top*%
%TF.FilePolarity,Positive*%
%FSLAX46Y46*%
G04 Gerber Fmt 4.6, Leading zero omitted, Abs format (unit mm)*
G04 Created by KiCad (PCBNEW 9.0.7) date 2026-03-05 19:18:57*
%MOMM*%
%LPD*%
G01*
G04 APERTURE LIST*
%ADD10C,0.150000*%
%ADD11C,0.120000*%
G04 APERTURE END LIST*
D10*
X156283333Y-88909580D02*
X156235714Y-88957200D01*
X156235714Y-88957200D02*
X156092857Y-89004819D01*
X156092857Y-89004819D02*
X155997619Y-89004819D01*
X155997619Y-89004819D02*
X155854762Y-88957200D01*
X155854762Y-88957200D02*
X155759524Y-88861961D01*
X155759524Y-88861961D02*
X155711905Y-88766723D01*
X155711905Y-88766723D02*
X155664286Y-88576247D01*
X155664286Y-88576247D02*
X155664286Y-88433390D01*
X155664286Y-88433390D02*
X155711905Y-88242914D01*
X155711905Y-88242914D02*
X155759524Y-88147676D01*
X155759524Y-88147676D02*
X155854762Y-88052438D01*
X155854762Y-88052438D02*
X155997619Y-88004819D01*
X155997619Y-88004819D02*
X156092857Y-88004819D01*
X156092857Y-88004819D02*
X156235714Y-88052438D01*
X156235714Y-88052438D02*
X156283333Y-88100057D01*
X156616667Y-88004819D02*
X157235714Y-88004819D01*
X157235714Y-88004819D02*
X156902381Y-88385771D01*
X156902381Y-88385771D02*
X157045238Y-88385771D01*
X157045238Y-88385771D02*
X157140476Y-88433390D01*
X157140476Y-88433390D02*
X157188095Y-88481009D01*
X157188095Y-88481009D02*
X157235714Y-88576247D01*
X157235714Y-88576247D02*
X157235714Y-88814342D01*
X157235714Y-88814342D02*
X157188095Y-88909580D01*
X157188095Y-88909580D02*
X157140476Y-88957200D01*
X157140476Y-88957200D02*
X157045238Y-89004819D01*
X157045238Y-89004819D02*
X156759524Y-89004819D01*
X156759524Y-89004819D02*
X156664286Y-88957200D01*
X156664286Y-88957200D02*
X156616667Y-88909580D01*
X164566666Y-101224819D02*
X164566666Y-101939104D01*
X164566666Y-101939104D02*
X164519047Y-102081961D01*
X164519047Y-102081961D02*
X164423809Y-102177200D01*
X164423809Y-102177200D02*
X164280952Y-102224819D01*
X164280952Y-102224819D02*
X164185714Y-102224819D01*
X164947619Y-101224819D02*
X165566666Y-101224819D01*
X165566666Y-101224819D02*
X165233333Y-101605771D01*
X165233333Y-101605771D02*
X165376190Y-101605771D01*
X165376190Y-101605771D02*
X165471428Y-101653390D01*
X165471428Y-101653390D02*
X165519047Y-101701009D01*
X165519047Y-101701009D02*
X165566666Y-101796247D01*
X165566666Y-101796247D02*
X165566666Y-102034342D01*
X165566666Y-102034342D02*
X165519047Y-102129580D01*
X165519047Y-102129580D02*
X165471428Y-102177200D01*
X165471428Y-102177200D02*
X165376190Y-102224819D01*
X165376190Y-102224819D02*
X165090476Y-102224819D01*
X165090476Y-102224819D02*
X164995238Y-102177200D01*
X164995238Y-102177200D02*
X164947619Y-102129580D01*
X143224819Y-84711904D02*
X144034342Y-84711904D01*
X144034342Y-84711904D02*
X144129580Y-84664285D01*
X144129580Y-84664285D02*
X144177200Y-84616666D01*
X144177200Y-84616666D02*
X144224819Y-84521428D01*
X144224819Y-84521428D02*
X144224819Y-84330952D01*
X144224819Y-84330952D02*
X144177200Y-84235714D01*
X144177200Y-84235714D02*
X144129580Y-84188095D01*
X144129580Y-84188095D02*
X144034342Y-84140476D01*
X144034342Y-84140476D02*
X143224819Y-84140476D01*
X143320057Y-83711904D02*
X143272438Y-83664285D01*
X143272438Y-83664285D02*
X143224819Y-83569047D01*
X143224819Y-83569047D02*
X143224819Y-83330952D01*
X143224819Y-83330952D02*
X143272438Y-83235714D01*
X143272438Y-83235714D02*
X143320057Y-83188095D01*
X143320057Y-83188095D02*
X143415295Y-83140476D01*
X143415295Y-83140476D02*
X143510533Y-83140476D01*
X143510533Y-83140476D02*
X143653390Y-83188095D01*
X143653390Y-83188095D02*
X144224819Y-83759523D01*
X144224819Y-83759523D02*
X144224819Y-83140476D01*
X148383333Y-93709580D02*
X148335714Y-93757200D01*
X148335714Y-93757200D02*
X148192857Y-93804819D01*
X148192857Y-93804819D02*
X148097619Y-93804819D01*
X148097619Y-93804819D02*
X147954762Y-93757200D01*
X147954762Y-93757200D02*
X147859524Y-93661961D01*
X147859524Y-93661961D02*
X147811905Y-93566723D01*
X147811905Y-93566723D02*
X147764286Y-93376247D01*
X147764286Y-93376247D02*
X147764286Y-93233390D01*
X147764286Y-93233390D02*
X147811905Y-93042914D01*
X147811905Y-93042914D02*
X147859524Y-92947676D01*
X147859524Y-92947676D02*
X147954762Y-92852438D01*
X147954762Y-92852438D02*
X148097619Y-92804819D01*
X148097619Y-92804819D02*
X148192857Y-92804819D01*
X148192857Y-92804819D02*
X148335714Y-92852438D01*
X148335714Y-92852438D02*
X148383333Y-92900057D01*
X148764286Y-92900057D02*
X148811905Y-92852438D01*
X148811905Y-92852438D02*
X148907143Y-92804819D01*
X148907143Y-92804819D02*
X149145238Y-92804819D01*
X149145238Y-92804819D02*
X149240476Y-92852438D01*
X149240476Y-92852438D02*
X149288095Y-92900057D01*
X149288095Y-92900057D02*
X149335714Y-92995295D01*
X149335714Y-92995295D02*
X149335714Y-93090533D01*
X149335714Y-93090533D02*
X149288095Y-93233390D01*
X149288095Y-93233390D02*
X148716667Y-93804819D01*
X148716667Y-93804819D02*
X149335714Y-93804819D01*
X175725714Y-126849104D02*
X176201904Y-126849104D01*
X175630476Y-127134819D02*
X175963809Y-126134819D01*
X175963809Y-126134819D02*
X176297142Y-127134819D01*
X177154285Y-127134819D02*
X176582857Y-127134819D01*
X176868571Y-127134819D02*
X176868571Y-126134819D01*
X176868571Y-126134819D02*
X176773333Y-126277676D01*
X176773333Y-126277676D02*
X176678095Y-126372914D01*
X176678095Y-126372914D02*
X176582857Y-126420533D01*
X177701904Y-86585180D02*
X177701904Y-85775657D01*
X177701904Y-85775657D02*
X177654285Y-85680419D01*
X177654285Y-85680419D02*
X177606666Y-85632800D01*
X177606666Y-85632800D02*
X177511428Y-85585180D01*
X177511428Y-85585180D02*
X177320952Y-85585180D01*
X177320952Y-85585180D02*
X177225714Y-85632800D01*
X177225714Y-85632800D02*
X177178095Y-85680419D01*
X177178095Y-85680419D02*
X177130476Y-85775657D01*
X177130476Y-85775657D02*
X177130476Y-86585180D01*
X176701904Y-85632800D02*
X176559047Y-85585180D01*
X176559047Y-85585180D02*
X176320952Y-85585180D01*
X176320952Y-85585180D02*
X176225714Y-85632800D01*
X176225714Y-85632800D02*
X176178095Y-85680419D01*
X176178095Y-85680419D02*
X176130476Y-85775657D01*
X176130476Y-85775657D02*
X176130476Y-85870895D01*
X176130476Y-85870895D02*
X176178095Y-85966133D01*
X176178095Y-85966133D02*
X176225714Y-86013752D01*
X176225714Y-86013752D02*
X176320952Y-86061371D01*
X176320952Y-86061371D02*
X176511428Y-86108990D01*
X176511428Y-86108990D02*
X176606666Y-86156609D01*
X176606666Y-86156609D02*
X176654285Y-86204228D01*
X176654285Y-86204228D02*
X176701904Y-86299466D01*
X176701904Y-86299466D02*
X176701904Y-86394704D01*
X176701904Y-86394704D02*
X176654285Y-86489942D01*
X176654285Y-86489942D02*
X176606666Y-86537561D01*
X176606666Y-86537561D02*
X176511428Y-86585180D01*
X176511428Y-86585180D02*
X176273333Y-86585180D01*
X176273333Y-86585180D02*
X176130476Y-86537561D01*
X175368571Y-86108990D02*
X175225714Y-86061371D01*
X175225714Y-86061371D02*
X175178095Y-86013752D01*
X175178095Y-86013752D02*
X175130476Y-85918514D01*
X175130476Y-85918514D02*
X175130476Y-85775657D01*
X175130476Y-85775657D02*
X175178095Y-85680419D01*
X175178095Y-85680419D02*
X175225714Y-85632800D01*
X175225714Y-85632800D02*
X175320952Y-85585180D01*
X175320952Y-85585180D02*
X175701904Y-85585180D01*
X175701904Y-85585180D02*
X175701904Y-86585180D01*
X175701904Y-86585180D02*
X175368571Y-86585180D01*
X175368571Y-86585180D02*
X175273333Y-86537561D01*
X175273333Y-86537561D02*
X175225714Y-86489942D01*
X175225714Y-86489942D02*
X175178095Y-86394704D01*
X175178095Y-86394704D02*
X175178095Y-86299466D01*
X175178095Y-86299466D02*
X175225714Y-86204228D01*
X175225714Y-86204228D02*
X175273333Y-86156609D01*
X175273333Y-86156609D02*
X175368571Y-86108990D01*
X175368571Y-86108990D02*
X175701904Y-86108990D01*
X160316666Y-101224819D02*
X160316666Y-101939104D01*
X160316666Y-101939104D02*
X160269047Y-102081961D01*
X160269047Y-102081961D02*
X160173809Y-102177200D01*
X160173809Y-102177200D02*
X160030952Y-102224819D01*
X160030952Y-102224819D02*
X159935714Y-102224819D01*
X161316666Y-102224819D02*
X160745238Y-102224819D01*
X161030952Y-102224819D02*
X161030952Y-101224819D01*
X161030952Y-101224819D02*
X160935714Y-101367676D01*
X160935714Y-101367676D02*
X160840476Y-101462914D01*
X160840476Y-101462914D02*
X160745238Y-101510533D01*
X163833333Y-90559580D02*
X163785714Y-90607200D01*
X163785714Y-90607200D02*
X163642857Y-90654819D01*
X163642857Y-90654819D02*
X163547619Y-90654819D01*
X163547619Y-90654819D02*
X163404762Y-90607200D01*
X163404762Y-90607200D02*
X163309524Y-90511961D01*
X163309524Y-90511961D02*
X163261905Y-90416723D01*
X163261905Y-90416723D02*
X163214286Y-90226247D01*
X163214286Y-90226247D02*
X163214286Y-90083390D01*
X163214286Y-90083390D02*
X163261905Y-89892914D01*
X163261905Y-89892914D02*
X163309524Y-89797676D01*
X163309524Y-89797676D02*
X163404762Y-89702438D01*
X163404762Y-89702438D02*
X163547619Y-89654819D01*
X163547619Y-89654819D02*
X163642857Y-89654819D01*
X163642857Y-89654819D02*
X163785714Y-89702438D01*
X163785714Y-89702438D02*
X163833333Y-89750057D01*
X164690476Y-89988152D02*
X164690476Y-90654819D01*
X164452381Y-89607200D02*
X164214286Y-90321485D01*
X164214286Y-90321485D02*
X164833333Y-90321485D01*
X148383333Y-89659580D02*
X148335714Y-89707200D01*
X148335714Y-89707200D02*
X148192857Y-89754819D01*
X148192857Y-89754819D02*
X148097619Y-89754819D01*
X148097619Y-89754819D02*
X147954762Y-89707200D01*
X147954762Y-89707200D02*
X147859524Y-89611961D01*
X147859524Y-89611961D02*
X147811905Y-89516723D01*
X147811905Y-89516723D02*
X147764286Y-89326247D01*
X147764286Y-89326247D02*
X147764286Y-89183390D01*
X147764286Y-89183390D02*
X147811905Y-88992914D01*
X147811905Y-88992914D02*
X147859524Y-88897676D01*
X147859524Y-88897676D02*
X147954762Y-88802438D01*
X147954762Y-88802438D02*
X148097619Y-88754819D01*
X148097619Y-88754819D02*
X148192857Y-88754819D01*
X148192857Y-88754819D02*
X148335714Y-88802438D01*
X148335714Y-88802438D02*
X148383333Y-88850057D01*
X149335714Y-89754819D02*
X148764286Y-89754819D01*
X149050000Y-89754819D02*
X149050000Y-88754819D01*
X149050000Y-88754819D02*
X148954762Y-88897676D01*
X148954762Y-88897676D02*
X148859524Y-88992914D01*
X148859524Y-88992914D02*
X148764286Y-89040533D01*
X156116666Y-101224819D02*
X156116666Y-101939104D01*
X156116666Y-101939104D02*
X156069047Y-102081961D01*
X156069047Y-102081961D02*
X155973809Y-102177200D01*
X155973809Y-102177200D02*
X155830952Y-102224819D01*
X155830952Y-102224819D02*
X155735714Y-102224819D01*
X156545238Y-101320057D02*
X156592857Y-101272438D01*
X156592857Y-101272438D02*
X156688095Y-101224819D01*
X156688095Y-101224819D02*
X156926190Y-101224819D01*
X156926190Y-101224819D02*
X157021428Y-101272438D01*
X157021428Y-101272438D02*
X157069047Y-101320057D01*
X157069047Y-101320057D02*
X157116666Y-101415295D01*
X157116666Y-101415295D02*
X157116666Y-101510533D01*
X157116666Y-101510533D02*
X157069047Y-101653390D01*
X157069047Y-101653390D02*
X156497619Y-102224819D01*
X156497619Y-102224819D02*
X157116666Y-102224819D01*
X149984819Y-76551904D02*
X150794342Y-76551904D01*
X150794342Y-76551904D02*
X150889580Y-76504285D01*
X150889580Y-76504285D02*
X150937200Y-76456666D01*
X150937200Y-76456666D02*
X150984819Y-76361428D01*
X150984819Y-76361428D02*
X150984819Y-76170952D01*
X150984819Y-76170952D02*
X150937200Y-76075714D01*
X150937200Y-76075714D02*
X150889580Y-76028095D01*
X150889580Y-76028095D02*
X150794342Y-75980476D01*
X150794342Y-75980476D02*
X149984819Y-75980476D01*
X149984819Y-75599523D02*
X149984819Y-74980476D01*
X149984819Y-74980476D02*
X150365771Y-75313809D01*
X150365771Y-75313809D02*
X150365771Y-75170952D01*
X150365771Y-75170952D02*
X150413390Y-75075714D01*
X150413390Y-75075714D02*
X150461009Y-75028095D01*
X150461009Y-75028095D02*
X150556247Y-74980476D01*
X150556247Y-74980476D02*
X150794342Y-74980476D01*
X150794342Y-74980476D02*
X150889580Y-75028095D01*
X150889580Y-75028095D02*
X150937200Y-75075714D01*
X150937200Y-75075714D02*
X150984819Y-75170952D01*
X150984819Y-75170952D02*
X150984819Y-75456666D01*
X150984819Y-75456666D02*
X150937200Y-75551904D01*
X150937200Y-75551904D02*
X150889580Y-75599523D01*
D11*
%TO.C,C3*%
X152040302Y-91485000D02*
X152840302Y-91485000D01*
X152440302Y-91085000D02*
X152440302Y-91885000D01*
X156450000Y-89720000D02*
X156450000Y-97880000D01*
X156490000Y-89720000D02*
X156490000Y-97880000D01*
X156530000Y-89721000D02*
X156530000Y-97879000D01*
X156570000Y-89722000D02*
X156570000Y-97878000D01*
X156610000Y-89723000D02*
X156610000Y-97877000D01*
X156650000Y-89725000D02*
X156650000Y-97875000D01*
X156690000Y-89727000D02*
X156690000Y-97873000D01*
X156730000Y-89730000D02*
X156730000Y-97870000D01*
X156770000Y-89732000D02*
X156770000Y-97868000D01*
X156810000Y-89736000D02*
X156810000Y-97864000D01*
X156850000Y-89739000D02*
X156850000Y-97861000D01*
X156890000Y-89744000D02*
X156890000Y-97856000D01*
X156930000Y-89748000D02*
X156930000Y-97852000D01*
X156970000Y-89753000D02*
X156970000Y-97847000D01*
X157010000Y-89758000D02*
X157010000Y-97842000D01*
X157050000Y-89764000D02*
X157050000Y-97836000D01*
X157090000Y-89770000D02*
X157090000Y-97830000D01*
X157130000Y-89777000D02*
X157130000Y-97823000D01*
X157170000Y-89783000D02*
X157170000Y-92760000D01*
X157170000Y-94840000D02*
X157170000Y-97817000D01*
X157210000Y-89791000D02*
X157210000Y-92760000D01*
X157210000Y-94840000D02*
X157210000Y-97809000D01*
X157250000Y-89798000D02*
X157250000Y-92760000D01*
X157250000Y-94840000D02*
X157250000Y-97802000D01*
X157290000Y-89807000D02*
X157290000Y-92760000D01*
X157290000Y-94840000D02*
X157290000Y-97793000D01*
X157330000Y-89815000D02*
X157330000Y-92760000D01*
X157330000Y-94840000D02*
X157330000Y-97785000D01*
X157370000Y-89824000D02*
X157370000Y-92760000D01*
X157370000Y-94840000D02*
X157370000Y-97776000D01*
X157410000Y-89833000D02*
X157410000Y-92760000D01*
X157410000Y-94840000D02*
X157410000Y-97767000D01*
X157450000Y-89843000D02*
X157450000Y-92760000D01*
X157450000Y-94840000D02*
X157450000Y-97757000D01*
X157490000Y-89853000D02*
X157490000Y-92760000D01*
X157490000Y-94840000D02*
X157490000Y-97747000D01*
X157530000Y-89864000D02*
X157530000Y-92760000D01*
X157530000Y-94840000D02*
X157530000Y-97736000D01*
X157570000Y-89875000D02*
X157570000Y-92760000D01*
X157570000Y-94840000D02*
X157570000Y-97725000D01*
X157610000Y-89887000D02*
X157610000Y-92760000D01*
X157610000Y-94840000D02*
X157610000Y-97713000D01*
X157650000Y-89899000D02*
X157650000Y-92760000D01*
X157650000Y-94840000D02*
X157650000Y-97701000D01*
X157690000Y-89911000D02*
X157690000Y-92760000D01*
X157690000Y-94840000D02*
X157690000Y-97689000D01*
X157730000Y-89924000D02*
X157730000Y-92760000D01*
X157730000Y-94840000D02*
X157730000Y-97676000D01*
X157770000Y-89937000D02*
X157770000Y-92760000D01*
X157770000Y-94840000D02*
X157770000Y-97663000D01*
X157810000Y-89951000D02*
X157810000Y-92760000D01*
X157810000Y-94840000D02*
X157810000Y-97649000D01*
X157850000Y-89965000D02*
X157850000Y-92760000D01*
X157850000Y-94840000D02*
X157850000Y-97635000D01*
X157890000Y-89980000D02*
X157890000Y-92760000D01*
X157890000Y-94840000D02*
X157890000Y-97620000D01*
X157930000Y-89995000D02*
X157930000Y-92760000D01*
X157930000Y-94840000D02*
X157930000Y-97605000D01*
X157970000Y-90011000D02*
X157970000Y-92760000D01*
X157970000Y-94840000D02*
X157970000Y-97589000D01*
X158010000Y-90027000D02*
X158010000Y-92760000D01*
X158010000Y-94840000D02*
X158010000Y-97573000D01*
X158050000Y-90043000D02*
X158050000Y-92760000D01*
X158050000Y-94840000D02*
X158050000Y-97557000D01*
X158090000Y-90060000D02*
X158090000Y-92760000D01*
X158090000Y-94840000D02*
X158090000Y-97540000D01*
X158130000Y-90078000D02*
X158130000Y-92760000D01*
X158130000Y-94840000D02*
X158130000Y-97522000D01*
X158170000Y-90096000D02*
X158170000Y-92760000D01*
X158170000Y-94840000D02*
X158170000Y-97504000D01*
X158210000Y-90115000D02*
X158210000Y-92760000D01*
X158210000Y-94840000D02*
X158210000Y-97485000D01*
X158250000Y-90134000D02*
X158250000Y-92760000D01*
X158250000Y-94840000D02*
X158250000Y-97466000D01*
X158290000Y-90154000D02*
X158290000Y-92760000D01*
X158290000Y-94840000D02*
X158290000Y-97446000D01*
X158330000Y-90174000D02*
X158330000Y-92760000D01*
X158330000Y-94840000D02*
X158330000Y-97426000D01*
X158370000Y-90195000D02*
X158370000Y-92760000D01*
X158370000Y-94840000D02*
X158370000Y-97405000D01*
X158410000Y-90216000D02*
X158410000Y-92760000D01*
X158410000Y-94840000D02*
X158410000Y-97384000D01*
X158450000Y-90238000D02*
X158450000Y-92760000D01*
X158450000Y-94840000D02*
X158450000Y-97362000D01*
X158490000Y-90261000D02*
X158490000Y-92760000D01*
X158490000Y-94840000D02*
X158490000Y-97339000D01*
X158530000Y-90284000D02*
X158530000Y-92760000D01*
X158530000Y-94840000D02*
X158530000Y-97316000D01*
X158570000Y-90307000D02*
X158570000Y-92760000D01*
X158570000Y-94840000D02*
X158570000Y-97293000D01*
X158610000Y-90332000D02*
X158610000Y-92760000D01*
X158610000Y-94840000D02*
X158610000Y-97268000D01*
X158650000Y-90357000D02*
X158650000Y-92760000D01*
X158650000Y-94840000D02*
X158650000Y-97243000D01*
X158690000Y-90382000D02*
X158690000Y-92760000D01*
X158690000Y-94840000D02*
X158690000Y-97218000D01*
X158730000Y-90408000D02*
X158730000Y-92760000D01*
X158730000Y-94840000D02*
X158730000Y-97192000D01*
X158770000Y-90435000D02*
X158770000Y-92760000D01*
X158770000Y-94840000D02*
X158770000Y-97165000D01*
X158810000Y-90463000D02*
X158810000Y-92760000D01*
X158810000Y-94840000D02*
X158810000Y-97137000D01*
X158850000Y-90491000D02*
X158850000Y-92760000D01*
X158850000Y-94840000D02*
X158850000Y-97109000D01*
X158890000Y-90520000D02*
X158890000Y-92760000D01*
X158890000Y-94840000D02*
X158890000Y-97080000D01*
X158930000Y-90550000D02*
X158930000Y-92760000D01*
X158930000Y-94840000D02*
X158930000Y-97050000D01*
X158970000Y-90581000D02*
X158970000Y-92760000D01*
X158970000Y-94840000D02*
X158970000Y-97019000D01*
X159010000Y-90612000D02*
X159010000Y-92760000D01*
X159010000Y-94840000D02*
X159010000Y-96988000D01*
X159050000Y-90644000D02*
X159050000Y-92760000D01*
X159050000Y-94840000D02*
X159050000Y-96956000D01*
X159090000Y-90677000D02*
X159090000Y-92760000D01*
X159090000Y-94840000D02*
X159090000Y-96923000D01*
X159130000Y-90711000D02*
X159130000Y-92760000D01*
X159130000Y-94840000D02*
X159130000Y-96889000D01*
X159170000Y-90745000D02*
X159170000Y-92760000D01*
X159170000Y-94840000D02*
X159170000Y-96855000D01*
X159210000Y-90781000D02*
X159210000Y-92760000D01*
X159210000Y-94840000D02*
X159210000Y-96819000D01*
X159250000Y-90818000D02*
X159250000Y-96782000D01*
X159290000Y-90855000D02*
X159290000Y-96745000D01*
X159330000Y-90894000D02*
X159330000Y-96706000D01*
X159370000Y-90933000D02*
X159370000Y-96667000D01*
X159410000Y-90974000D02*
X159410000Y-96626000D01*
X159450000Y-91016000D02*
X159450000Y-96584000D01*
X159490000Y-91059000D02*
X159490000Y-96541000D01*
X159530000Y-91104000D02*
X159530000Y-96496000D01*
X159570000Y-91149000D02*
X159570000Y-96451000D01*
X159610000Y-91196000D02*
X159610000Y-96404000D01*
X159650000Y-91245000D02*
X159650000Y-96355000D01*
X159690000Y-91295000D02*
X159690000Y-96305000D01*
X159730000Y-91347000D02*
X159730000Y-96253000D01*
X159770000Y-91400000D02*
X159770000Y-96200000D01*
X159810000Y-91456000D02*
X159810000Y-96144000D01*
X159850000Y-91513000D02*
X159850000Y-96087000D01*
X159890000Y-91573000D02*
X159890000Y-96027000D01*
X159930000Y-91635000D02*
X159930000Y-95965000D01*
X159970000Y-91699000D02*
X159970000Y-95901000D01*
X160010000Y-91766000D02*
X160010000Y-95834000D01*
X160050000Y-91836000D02*
X160050000Y-95764000D01*
X160090000Y-91910000D02*
X160090000Y-95690000D01*
X160130000Y-91987000D02*
X160130000Y-95613000D01*
X160170000Y-92069000D02*
X160170000Y-95531000D01*
X160210000Y-92156000D02*
X160210000Y-95444000D01*
X160250000Y-92248000D02*
X160250000Y-95352000D01*
X160290000Y-92347000D02*
X160290000Y-95253000D01*
X160330000Y-92454000D02*
X160330000Y-95146000D01*
X160370000Y-92572000D02*
X160370000Y-95028000D01*
X160410000Y-92703000D02*
X160410000Y-94897000D01*
X160450000Y-92853000D02*
X160450000Y-94747000D01*
X160490000Y-93032000D02*
X160490000Y-94568000D01*
X160530000Y-93267000D02*
X160530000Y-94333000D01*
X160570000Y-93800000D02*
G75*
G02*
X152330000Y-93800000I-4120000J0D01*
G01*
X152330000Y-93800000D02*
G75*
G02*
X160570000Y-93800000I4120000J0D01*
G01*
%TO.C,J3*%
X163520000Y-102770000D02*
X164900000Y-102770000D01*
X163520000Y-104150000D02*
X163520000Y-102770000D01*
X163520000Y-105420000D02*
X163520000Y-118230000D01*
X163520000Y-105420000D02*
X166280000Y-105420000D01*
X163520000Y-118230000D02*
X166280000Y-118230000D01*
X166280000Y-105420000D02*
X166280000Y-118230000D01*
%TO.C,U2*%
X144610000Y-89060000D02*
X144610000Y-78840000D01*
X160480000Y-78840000D02*
X144610000Y-78840000D01*
X160480000Y-80925000D02*
X162920000Y-80925000D01*
X160480000Y-81895000D02*
X162920000Y-81895000D01*
X160480000Y-83465000D02*
X162920000Y-83465000D01*
X160480000Y-84435000D02*
X162920000Y-84435000D01*
X160480000Y-86005000D02*
X162920000Y-86005000D01*
X160480000Y-86975000D02*
X162920000Y-86975000D01*
X160480000Y-89060000D02*
X144610000Y-89060000D01*
X160480000Y-89060000D02*
X160480000Y-78840000D01*
%TO.C,C2*%
X145930000Y-94480000D02*
X151170000Y-94480000D01*
X145930000Y-97220000D02*
X145930000Y-94480000D01*
X151170000Y-94480000D02*
X151170000Y-97220000D01*
X151170000Y-97220000D02*
X145930000Y-97220000D01*
%TO.C,A1*%
X167420000Y-82100000D02*
X167420000Y-125540000D01*
X167420000Y-82100000D02*
X172500000Y-82100000D01*
X167420000Y-125540000D02*
X185460000Y-125540000D01*
X170090000Y-84770000D02*
X167420000Y-84770000D01*
X170090000Y-122870000D02*
X167420000Y-122870000D01*
X170090000Y-122870000D02*
X170090000Y-84770000D01*
X172500000Y-79560000D02*
X180380000Y-79560000D01*
X172500000Y-89980000D02*
X172500000Y-79560000D01*
X180380000Y-79560000D02*
X180380000Y-89980000D01*
X180380000Y-89980000D02*
X172500000Y-89980000D01*
X182790000Y-84770000D02*
X185460000Y-84770000D01*
X182790000Y-120330000D02*
X182790000Y-84770000D01*
X182790000Y-120330000D02*
X182790000Y-122870000D01*
X182790000Y-120330000D02*
X185460000Y-120330000D01*
X182790000Y-122870000D02*
X185460000Y-122870000D01*
X185460000Y-82100000D02*
X180380000Y-82100000D01*
X185460000Y-120330000D02*
X185460000Y-82100000D01*
X185460000Y-125540000D02*
X185460000Y-122870000D01*
%TO.C,J1*%
X159270000Y-102770000D02*
X160650000Y-102770000D01*
X159270000Y-104150000D02*
X159270000Y-102770000D01*
X159270000Y-105420000D02*
X159270000Y-118230000D01*
X159270000Y-105420000D02*
X162030000Y-105420000D01*
X159270000Y-118230000D02*
X162030000Y-118230000D01*
X162030000Y-105420000D02*
X162030000Y-118230000D01*
%TO.C,C4*%
X161195225Y-92475000D02*
X161695225Y-92475000D01*
X161445225Y-92225000D02*
X161445225Y-92725000D01*
X164000000Y-91370000D02*
X164000000Y-92910000D01*
X164000000Y-94990000D02*
X164000000Y-96530000D01*
X164040000Y-91370000D02*
X164040000Y-92910000D01*
X164040000Y-94990000D02*
X164040000Y-96530000D01*
X164080000Y-91371000D02*
X164080000Y-92910000D01*
X164080000Y-94990000D02*
X164080000Y-96529000D01*
X164120000Y-91373000D02*
X164120000Y-92910000D01*
X164120000Y-94990000D02*
X164120000Y-96527000D01*
X164160000Y-91375000D02*
X164160000Y-92910000D01*
X164160000Y-94990000D02*
X164160000Y-96525000D01*
X164200000Y-91378000D02*
X164200000Y-92910000D01*
X164200000Y-94990000D02*
X164200000Y-96522000D01*
X164240000Y-91381000D02*
X164240000Y-92910000D01*
X164240000Y-94990000D02*
X164240000Y-96519000D01*
X164280000Y-91385000D02*
X164280000Y-92910000D01*
X164280000Y-94990000D02*
X164280000Y-96515000D01*
X164320000Y-91390000D02*
X164320000Y-92910000D01*
X164320000Y-94990000D02*
X164320000Y-96510000D01*
X164360000Y-91395000D02*
X164360000Y-92910000D01*
X164360000Y-94990000D02*
X164360000Y-96505000D01*
X164400000Y-91401000D02*
X164400000Y-92910000D01*
X164400000Y-94990000D02*
X164400000Y-96499000D01*
X164440000Y-91407000D02*
X164440000Y-92910000D01*
X164440000Y-94990000D02*
X164440000Y-96493000D01*
X164480000Y-91414000D02*
X164480000Y-92910000D01*
X164480000Y-94990000D02*
X164480000Y-96486000D01*
X164520000Y-91422000D02*
X164520000Y-92910000D01*
X164520000Y-94990000D02*
X164520000Y-96478000D01*
X164560000Y-91431000D02*
X164560000Y-92910000D01*
X164560000Y-94990000D02*
X164560000Y-96469000D01*
X164600000Y-91440000D02*
X164600000Y-92910000D01*
X164600000Y-94990000D02*
X164600000Y-96460000D01*
X164640000Y-91449000D02*
X164640000Y-92910000D01*
X164640000Y-94990000D02*
X164640000Y-96451000D01*
X164680000Y-91460000D02*
X164680000Y-92910000D01*
X164680000Y-94990000D02*
X164680000Y-96440000D01*
X164720000Y-91471000D02*
X164720000Y-92910000D01*
X164720000Y-94990000D02*
X164720000Y-96429000D01*
X164760000Y-91483000D02*
X164760000Y-92910000D01*
X164760000Y-94990000D02*
X164760000Y-96417000D01*
X164800000Y-91495000D02*
X164800000Y-92910000D01*
X164800000Y-94990000D02*
X164800000Y-96405000D01*
X164840000Y-91508000D02*
X164840000Y-92910000D01*
X164840000Y-94990000D02*
X164840000Y-96392000D01*
X164880000Y-91522000D02*
X164880000Y-92910000D01*
X164880000Y-94990000D02*
X164880000Y-96378000D01*
X164920000Y-91537000D02*
X164920000Y-92910000D01*
X164920000Y-94990000D02*
X164920000Y-96363000D01*
X164960000Y-91552000D02*
X164960000Y-92910000D01*
X164960000Y-94990000D02*
X164960000Y-96348000D01*
X165000000Y-91568000D02*
X165000000Y-92910000D01*
X165000000Y-94990000D02*
X165000000Y-96332000D01*
X165040000Y-91585000D02*
X165040000Y-92910000D01*
X165040000Y-94990000D02*
X165040000Y-96315000D01*
X165080000Y-91603000D02*
X165080000Y-92910000D01*
X165080000Y-94990000D02*
X165080000Y-96297000D01*
X165120000Y-91621000D02*
X165120000Y-92910000D01*
X165120000Y-94990000D02*
X165120000Y-96279000D01*
X165160000Y-91641000D02*
X165160000Y-92910000D01*
X165160000Y-94990000D02*
X165160000Y-96259000D01*
X165200000Y-91661000D02*
X165200000Y-92910000D01*
X165200000Y-94990000D02*
X165200000Y-96239000D01*
X165240000Y-91682000D02*
X165240000Y-92910000D01*
X165240000Y-94990000D02*
X165240000Y-96218000D01*
X165280000Y-91704000D02*
X165280000Y-92910000D01*
X165280000Y-94990000D02*
X165280000Y-96196000D01*
X165320000Y-91727000D02*
X165320000Y-92910000D01*
X165320000Y-94990000D02*
X165320000Y-96173000D01*
X165360000Y-91751000D02*
X165360000Y-92910000D01*
X165360000Y-94990000D02*
X165360000Y-96149000D01*
X165400000Y-91775000D02*
X165400000Y-92910000D01*
X165400000Y-94990000D02*
X165400000Y-96125000D01*
X165440000Y-91801000D02*
X165440000Y-92910000D01*
X165440000Y-94990000D02*
X165440000Y-96099000D01*
X165480000Y-91828000D02*
X165480000Y-92910000D01*
X165480000Y-94990000D02*
X165480000Y-96072000D01*
X165520000Y-91856000D02*
X165520000Y-92910000D01*
X165520000Y-94990000D02*
X165520000Y-96044000D01*
X165560000Y-91885000D02*
X165560000Y-92910000D01*
X165560000Y-94990000D02*
X165560000Y-96015000D01*
X165600000Y-91915000D02*
X165600000Y-92910000D01*
X165600000Y-94990000D02*
X165600000Y-95985000D01*
X165640000Y-91947000D02*
X165640000Y-92910000D01*
X165640000Y-94990000D02*
X165640000Y-95953000D01*
X165680000Y-91980000D02*
X165680000Y-92910000D01*
X165680000Y-94990000D02*
X165680000Y-95920000D01*
X165720000Y-92014000D02*
X165720000Y-92910000D01*
X165720000Y-94990000D02*
X165720000Y-95886000D01*
X165760000Y-92049000D02*
X165760000Y-92910000D01*
X165760000Y-94990000D02*
X165760000Y-95851000D01*
X165800000Y-92086000D02*
X165800000Y-92910000D01*
X165800000Y-94990000D02*
X165800000Y-95814000D01*
X165840000Y-92125000D02*
X165840000Y-92910000D01*
X165840000Y-94990000D02*
X165840000Y-95775000D01*
X165880000Y-92165000D02*
X165880000Y-92910000D01*
X165880000Y-94990000D02*
X165880000Y-95735000D01*
X165920000Y-92207000D02*
X165920000Y-92910000D01*
X165920000Y-94990000D02*
X165920000Y-95693000D01*
X165960000Y-92251000D02*
X165960000Y-92910000D01*
X165960000Y-94990000D02*
X165960000Y-95649000D01*
X166000000Y-92298000D02*
X166000000Y-92910000D01*
X166000000Y-94990000D02*
X166000000Y-95602000D01*
X166040000Y-92346000D02*
X166040000Y-95554000D01*
X166080000Y-92397000D02*
X166080000Y-95503000D01*
X166120000Y-92451000D02*
X166120000Y-95449000D01*
X166160000Y-92507000D02*
X166160000Y-95393000D01*
X166200000Y-92567000D02*
X166200000Y-95333000D01*
X166240000Y-92631000D02*
X166240000Y-95269000D01*
X166280000Y-92699000D02*
X166280000Y-95201000D01*
X166320000Y-92773000D02*
X166320000Y-95127000D01*
X166360000Y-92852000D02*
X166360000Y-95048000D01*
X166400000Y-92939000D02*
X166400000Y-94961000D01*
X166440000Y-93036000D02*
X166440000Y-94864000D01*
X166480000Y-93145000D02*
X166480000Y-94755000D01*
X166520000Y-93273000D02*
X166520000Y-94627000D01*
X166560000Y-93433000D02*
X166560000Y-94467000D01*
X166600000Y-93667000D02*
X166600000Y-94233000D01*
X166620000Y-93950000D02*
G75*
G02*
X161380000Y-93950000I-2620000J0D01*
G01*
X161380000Y-93950000D02*
G75*
G02*
X166620000Y-93950000I2620000J0D01*
G01*
%TO.C,C1*%
X145930000Y-90430000D02*
X151170000Y-90430000D01*
X145930000Y-93170000D02*
X145930000Y-90430000D01*
X151170000Y-90430000D02*
X151170000Y-93170000D01*
X151170000Y-93170000D02*
X145930000Y-93170000D01*
%TO.C,J2*%
X155070000Y-102770000D02*
X156450000Y-102770000D01*
X155070000Y-104150000D02*
X155070000Y-102770000D01*
X155070000Y-105420000D02*
X155070000Y-118230000D01*
X155070000Y-105420000D02*
X157830000Y-105420000D01*
X155070000Y-118230000D02*
X157830000Y-118230000D01*
X157830000Y-105420000D02*
X157830000Y-118230000D01*
%TO.C,U3*%
X151430000Y-48190000D02*
X166880000Y-48190000D01*
X151430000Y-77390000D02*
X151430000Y-48190000D01*
X151430000Y-77390000D02*
X151430000Y-77390000D01*
X152006000Y-71726000D02*
X162674000Y-71726000D01*
X152006000Y-77060000D02*
X152006000Y-71726000D01*
X152006000Y-77060000D02*
X152006000Y-77060000D01*
X162674000Y-71726000D02*
X162674000Y-77060000D01*
X162674000Y-77060000D02*
X152006000Y-77060000D01*
X162674000Y-77060000D02*
X162674000Y-77060000D01*
X166880000Y-48190000D02*
X166880000Y-77390000D01*
X166880000Y-77390000D02*
X151430000Y-77390000D01*
X153770000Y-77926000D02*
X153290000Y-77926000D01*
X153530000Y-77590000D01*
X153770000Y-77926000D01*
G36*
X153770000Y-77926000D02*
G01*
X153290000Y-77926000D01*
X153530000Y-77590000D01*
X153770000Y-77926000D01*
G37*
%TD*%
M02*
