%TF.GenerationSoftware,KiCad,Pcbnew,9.0.7*%
%TF.CreationDate,2026-03-05T19:18:57+06:00*%
%TF.ProjectId,Tranceiver_101_PCB_rece,5472616e-6365-4697-9665-725f3130315f,rev?*%
%TF.SameCoordinates,Original*%
%TF.FileFunction,Copper,L2,Bot*%
%TF.FilePolarity,Positive*%
%FSLAX46Y46*%
G04 Gerber Fmt 4.6, Leading zero omitted, Abs format (unit mm)*
G04 Created by KiCad (PCBNEW 9.0.7) date 2026-03-05 19:18:57*
%MOMM*%
%LPD*%
G01*
G04 APERTURE LIST*
G04 Aperture macros list*
%AMRoundRect*
0 Rectangle with rounded corners*
0 $1 Rounding radius*
0 $2 $3 $4 $5 $6 $7 $8 $9 X,Y pos of 4 corners*
0 Add a 4 corners polygon primitive as box body*
4,1,4,$2,$3,$4,$5,$6,$7,$8,$9,$2,$3,0*
0 Add four circle primitives for the rounded corners*
1,1,$1+$1,$2,$3*
1,1,$1+$1,$4,$5*
1,1,$1+$1,$6,$7*
1,1,$1+$1,$8,$9*
0 Add four rect primitives between the rounded corners*
20,1,$1+$1,$2,$3,$4,$5,0*
20,1,$1+$1,$4,$5,$6,$7,0*
20,1,$1+$1,$6,$7,$8,$9,0*
20,1,$1+$1,$8,$9,$2,$3,0*%
G04 Aperture macros list end*
%TA.AperFunction,ComponentPad*%
%ADD10RoundRect,0.250000X-0.550000X-0.550000X0.550000X-0.550000X0.550000X0.550000X-0.550000X0.550000X0*%
%TD*%
%TA.AperFunction,ComponentPad*%
%ADD11C,1.600000*%
%TD*%
%TA.AperFunction,ComponentPad*%
%ADD12R,1.700000X1.700000*%
%TD*%
%TA.AperFunction,ComponentPad*%
%ADD13C,1.700000*%
%TD*%
%TA.AperFunction,ComponentPad*%
%ADD14R,2.000000X1.905000*%
%TD*%
%TA.AperFunction,ComponentPad*%
%ADD15O,2.000000X1.905000*%
%TD*%
%TA.AperFunction,ComponentPad*%
%ADD16R,1.600000X1.600000*%
%TD*%
%TA.AperFunction,ComponentPad*%
%ADD17O,1.600000X1.600000*%
%TD*%
%TA.AperFunction,ViaPad*%
%ADD18C,0.600000*%
%TD*%
%TA.AperFunction,Conductor*%
%ADD19C,0.200000*%
%TD*%
G04 APERTURE END LIST*
D10*
%TO.P,C3,1*%
%TO.N,+3V3*%
X154700000Y-93800000D03*
D11*
%TO.P,C3,2*%
%TO.N,GND*%
X158200000Y-93800000D03*
%TD*%
D12*
%TO.P,J3,1,Pin_1*%
%TO.N,GND*%
X164900000Y-104150000D03*
D13*
%TO.P,J3,2,Pin_2*%
X164900000Y-106690000D03*
%TO.P,J3,3,Pin_3*%
X164900000Y-109230000D03*
%TO.P,J3,4,Pin_4*%
X164900000Y-111770000D03*
%TO.P,J3,5,Pin_5*%
X164900000Y-114310000D03*
%TO.P,J3,6,Pin_6*%
X164900000Y-116850000D03*
%TD*%
D14*
%TO.P,U2,1,GND*%
%TO.N,GND*%
X164180000Y-86490000D03*
D15*
%TO.P,U2,2,VO*%
%TO.N,+3V3*%
X164180000Y-83950000D03*
%TO.P,U2,3,VI*%
%TO.N,Net-(A1-VIN)*%
X164180000Y-81410000D03*
%TD*%
D11*
%TO.P,C2,1*%
%TO.N,+3V3*%
X147300000Y-95850000D03*
%TO.P,C2,2*%
%TO.N,GND*%
X149800000Y-95850000D03*
%TD*%
D16*
%TO.P,A1,1,D1/TX*%
%TO.N,unconnected-(A1-D1{slash}TX-Pad1)*%
X184060000Y-121600000D03*
D17*
%TO.P,A1,2,D0/RX*%
%TO.N,unconnected-(A1-D0{slash}RX-Pad2)*%
X184060000Y-119060000D03*
%TO.P,A1,3,~{RESET}*%
%TO.N,unconnected-(A1-~{RESET}-Pad3)*%
X184060000Y-116520000D03*
%TO.P,A1,4,GND*%
%TO.N,GND*%
X184060000Y-113980000D03*
%TO.P,A1,5,D2*%
%TO.N,Net-(A1-D2)*%
X184060000Y-111440000D03*
%TO.P,A1,6,D3*%
%TO.N,Net-(A1-D3)*%
X184060000Y-108900000D03*
%TO.P,A1,7,D4*%
%TO.N,Net-(A1-D4)*%
X184060000Y-106360000D03*
%TO.P,A1,8,D5*%
%TO.N,Net-(A1-D5)*%
X184060000Y-103820000D03*
%TO.P,A1,9,D6*%
%TO.N,Net-(A1-D6)*%
X184060000Y-101280000D03*
%TO.P,A1,10,D7*%
%TO.N,Net-(A1-D7)*%
X184060000Y-98740000D03*
%TO.P,A1,11,D8*%
%TO.N,unconnected-(A1-D8-Pad11)*%
X184060000Y-96200000D03*
%TO.P,A1,12,D9*%
%TO.N,CE*%
X184060000Y-93660000D03*
%TO.P,A1,13,D10*%
%TO.N,CSN*%
X184060000Y-91120000D03*
%TO.P,A1,14,D11*%
%TO.N,MOSI*%
X184060000Y-88580000D03*
%TO.P,A1,15,D12*%
%TO.N,MISO*%
X184060000Y-86040000D03*
%TO.P,A1,16,D13*%
%TO.N,SCK*%
X168820000Y-86040000D03*
%TO.P,A1,17,3V3*%
%TO.N,+3V3*%
X168820000Y-88580000D03*
%TO.P,A1,18,AREF*%
%TO.N,unconnected-(A1-AREF-Pad18)*%
X168820000Y-91120000D03*
%TO.P,A1,19,A0*%
%TO.N,unconnected-(A1-A0-Pad19)*%
X168820000Y-93660000D03*
%TO.P,A1,20,A1*%
%TO.N,unconnected-(A1-A1-Pad20)*%
X168820000Y-96200000D03*
%TO.P,A1,21,A2*%
%TO.N,unconnected-(A1-A2-Pad21)*%
X168820000Y-98740000D03*
%TO.P,A1,22,A3*%
%TO.N,unconnected-(A1-A3-Pad22)*%
X168820000Y-101280000D03*
%TO.P,A1,23,A4*%
%TO.N,unconnected-(A1-A4-Pad23)*%
X168820000Y-103820000D03*
%TO.P,A1,24,A5*%
%TO.N,unconnected-(A1-A5-Pad24)*%
X168820000Y-106360000D03*
%TO.P,A1,25,A6*%
%TO.N,unconnected-(A1-A6-Pad25)*%
X168820000Y-108900000D03*
%TO.P,A1,26,A7*%
%TO.N,unconnected-(A1-A7-Pad26)*%
X168820000Y-111440000D03*
%TO.P,A1,27,+5V*%
%TO.N,+5V*%
X168820000Y-113980000D03*
%TO.P,A1,28,~{RESET}*%
%TO.N,unconnected-(A1-~{RESET}-Pad28)*%
X168820000Y-116520000D03*
%TO.P,A1,29,GND*%
%TO.N,GND*%
X168820000Y-119060000D03*
%TO.P,A1,30,VIN*%
%TO.N,Net-(A1-VIN)*%
X168820000Y-121600000D03*
%TD*%
D12*
%TO.P,J1,1,Pin_1*%
%TO.N,Net-(A1-VIN)*%
X160650000Y-104150000D03*
D13*
%TO.P,J1,2,Pin_2*%
X160650000Y-106690000D03*
%TO.P,J1,3,Pin_3*%
X160650000Y-109230000D03*
%TO.P,J1,4,Pin_4*%
X160650000Y-111770000D03*
%TO.P,J1,5,Pin_5*%
X160650000Y-114310000D03*
%TO.P,J1,6,Pin_6*%
X160650000Y-116850000D03*
%TD*%
D10*
%TO.P,C4,1*%
%TO.N,Net-(A1-VIN)*%
X163000000Y-93950000D03*
D11*
%TO.P,C4,2*%
%TO.N,GND*%
X165000000Y-93950000D03*
%TD*%
%TO.P,C1,1*%
%TO.N,Net-(A1-VIN)*%
X147300000Y-91800000D03*
%TO.P,C1,2*%
%TO.N,GND*%
X149800000Y-91800000D03*
%TD*%
D12*
%TO.P,J2,1,Pin_1*%
%TO.N,Net-(A1-D2)*%
X156450000Y-104150000D03*
D13*
%TO.P,J2,2,Pin_2*%
%TO.N,Net-(A1-D3)*%
X156450000Y-106690000D03*
%TO.P,J2,3,Pin_3*%
%TO.N,Net-(A1-D4)*%
X156450000Y-109230000D03*
%TO.P,J2,4,Pin_4*%
%TO.N,Net-(A1-D5)*%
X156450000Y-111770000D03*
%TO.P,J2,5,Pin_5*%
%TO.N,Net-(A1-D6)*%
X156450000Y-114310000D03*
%TO.P,J2,6,Pin_6*%
%TO.N,Net-(A1-D7)*%
X156450000Y-116850000D03*
%TD*%
D12*
%TO.P,U3,1,GND*%
%TO.N,GND*%
X153530000Y-75790000D03*
D13*
%TO.P,U3,2,VCC*%
%TO.N,+3V3*%
X153530000Y-73250000D03*
%TO.P,U3,3,CE*%
%TO.N,CE*%
X156070000Y-75790000D03*
%TO.P,U3,4,~{CSN}*%
%TO.N,CSN*%
X156070000Y-73250000D03*
%TO.P,U3,5,SCK*%
%TO.N,SCK*%
X158610000Y-75790000D03*
%TO.P,U3,6,MOSI*%
%TO.N,MOSI*%
X158610000Y-73250000D03*
%TO.P,U3,7,MISO*%
%TO.N,MISO*%
X161150000Y-75790000D03*
%TO.P,U3,8,IRQ*%
%TO.N,unconnected-(U3-IRQ-Pad8)*%
X161150000Y-73250000D03*
%TD*%
D18*
%TO.N,MOSI*%
X186500000Y-88500000D03*
%TO.N,Net-(A1-D7)*%
X177150000Y-118200000D03*
%TO.N,Net-(A1-D6)*%
X178250000Y-107700000D03*
%TO.N,Net-(A1-VIN)*%
X166850000Y-85750000D03*
X166770735Y-87379265D03*
%TO.N,Net-(A1-D5)*%
X179300000Y-107650000D03*
%TO.N,SCK*%
X167200000Y-78950000D03*
X165200000Y-76950000D03*
%TD*%
D19*
%TO.N,MOSI*%
X186100000Y-88500000D02*
X186020000Y-88580000D01*
X186020000Y-88580000D02*
X184060000Y-88580000D01*
X186500000Y-88500000D02*
X186100000Y-88500000D01*
%TO.N,Net-(A1-D7)*%
X175189000Y-120161000D02*
X177150000Y-118200000D01*
X159761000Y-120161000D02*
X175189000Y-120161000D01*
X156450000Y-116850000D02*
X159761000Y-120161000D01*
%TO.N,Net-(A1-D4)*%
X157361000Y-97639000D02*
X175339000Y-97639000D01*
X156450000Y-109230000D02*
X153400000Y-106180000D01*
X175339000Y-97639000D02*
X184060000Y-106360000D01*
X153400000Y-106180000D02*
X153400000Y-101600000D01*
X153400000Y-101600000D02*
X157361000Y-97639000D01*
%TO.N,Net-(A1-D6)*%
X156450000Y-114310000D02*
X160379000Y-110381000D01*
X175949000Y-110001000D02*
X178250000Y-107700000D01*
X168363950Y-110001000D02*
X175949000Y-110001000D01*
X167983950Y-110381000D02*
X168363950Y-110001000D01*
X160379000Y-110381000D02*
X167983950Y-110381000D01*
%TO.N,+3V3*%
X161450000Y-71200000D02*
X155580000Y-71200000D01*
X160400000Y-87730000D02*
X164180000Y-83950000D01*
X162550000Y-72300000D02*
X161450000Y-71200000D01*
X154700000Y-93800000D02*
X157400000Y-91100000D01*
X164180000Y-83950000D02*
X162550000Y-82320000D01*
X155580000Y-71200000D02*
X153530000Y-73250000D01*
X160400000Y-91100000D02*
X160400000Y-87730000D01*
X157400000Y-91100000D02*
X160400000Y-91100000D01*
X162550000Y-82320000D02*
X162550000Y-72300000D01*
%TO.N,Net-(A1-VIN)*%
X166850000Y-87300000D02*
X166770735Y-87379265D01*
X166850000Y-85750000D02*
X166850000Y-87300000D01*
%TO.N,Net-(A1-D2)*%
X156450000Y-104150000D02*
X158219000Y-102381000D01*
X175001000Y-102381000D02*
X184060000Y-111440000D01*
X158219000Y-102381000D02*
X175001000Y-102381000D01*
%TO.N,Net-(A1-D5)*%
X160141000Y-108079000D02*
X168083950Y-108079000D01*
X177851000Y-107099000D02*
X178749000Y-107099000D01*
X156450000Y-111770000D02*
X160141000Y-108079000D01*
X177489000Y-107461000D02*
X177851000Y-107099000D01*
X168701950Y-107461000D02*
X177489000Y-107461000D01*
X168083950Y-108079000D02*
X168701950Y-107461000D01*
X178749000Y-107099000D02*
X179300000Y-107650000D01*
%TO.N,GND*%
X158200000Y-93800000D02*
X160200000Y-91800000D01*
X165000000Y-93950000D02*
X165000000Y-87310000D01*
X160200000Y-91800000D02*
X162850000Y-91800000D01*
X165000000Y-87310000D02*
X164180000Y-86490000D01*
X162850000Y-91800000D02*
X165000000Y-93950000D01*
%TO.N,SCK*%
X165200000Y-76950000D02*
X167200000Y-78950000D01*
%TO.N,Net-(A1-D3)*%
X175339000Y-100179000D02*
X184060000Y-108900000D01*
X158119000Y-100179000D02*
X175339000Y-100179000D01*
X155299000Y-105539000D02*
X155299000Y-102999000D01*
X155299000Y-102999000D02*
X158119000Y-100179000D01*
X156450000Y-106690000D02*
X155299000Y-105539000D01*
%TD*%
%TA.AperFunction,NonConductor*%
G36*
X160509687Y-71802294D02*
G01*
X160515949Y-71801119D01*
X160542808Y-71812020D01*
X160570614Y-71820185D01*
X160574784Y-71824998D01*
X160580690Y-71827395D01*
X160597394Y-71851091D01*
X160616369Y-71872989D01*
X160617275Y-71879293D01*
X160620947Y-71884502D01*
X160622188Y-71913460D01*
X160626313Y-71942147D01*
X160623666Y-71947942D01*
X160623939Y-71954307D01*
X160609329Y-71979336D01*
X160597288Y-72005703D01*
X160591122Y-72010527D01*
X160588717Y-72014649D01*
X160559870Y-72034985D01*
X160442180Y-72094951D01*
X160270213Y-72219890D01*
X160119890Y-72370213D01*
X159994949Y-72542182D01*
X159990484Y-72550946D01*
X159942509Y-72601742D01*
X159874688Y-72618536D01*
X159808553Y-72595998D01*
X159769516Y-72550946D01*
X159765050Y-72542182D01*
X159640109Y-72370213D01*
X159489786Y-72219890D01*
X159317819Y-72094951D01*
X159317818Y-72094950D01*
X159317816Y-72094949D01*
X159200130Y-72034985D01*
X159149334Y-71987010D01*
X159132539Y-71919189D01*
X159155076Y-71853054D01*
X159209792Y-71809603D01*
X159256425Y-71800500D01*
X160503575Y-71800500D01*
X160509687Y-71802294D01*
G37*
%TD.AperFunction*%
%TA.AperFunction,NonConductor*%
G36*
X158030614Y-71820185D02*
G01*
X158076369Y-71872989D01*
X158086313Y-71942147D01*
X158057288Y-72005703D01*
X158019870Y-72034985D01*
X157902180Y-72094951D01*
X157730213Y-72219890D01*
X157579890Y-72370213D01*
X157454949Y-72542182D01*
X157450484Y-72550946D01*
X157402509Y-72601742D01*
X157334688Y-72618536D01*
X157268553Y-72595998D01*
X157229516Y-72550946D01*
X157225050Y-72542182D01*
X157100109Y-72370213D01*
X156949786Y-72219890D01*
X156777819Y-72094951D01*
X156777818Y-72094950D01*
X156777816Y-72094949D01*
X156660130Y-72034985D01*
X156609334Y-71987010D01*
X156592539Y-71919189D01*
X156615076Y-71853054D01*
X156669792Y-71809603D01*
X156716425Y-71800500D01*
X157963575Y-71800500D01*
X158030614Y-71820185D01*
G37*
%TD.AperFunction*%
%TA.AperFunction,NonConductor*%
G36*
X154871444Y-73903999D02*
G01*
X154910486Y-73949056D01*
X154914951Y-73957820D01*
X155039890Y-74129786D01*
X155190213Y-74280109D01*
X155362182Y-74405050D01*
X155370946Y-74409516D01*
X155421742Y-74457491D01*
X155438536Y-74525312D01*
X155415998Y-74591447D01*
X155370946Y-74630484D01*
X155362182Y-74634949D01*
X155190215Y-74759889D01*
X155076673Y-74873431D01*
X155015350Y-74906915D01*
X154945658Y-74901931D01*
X154889725Y-74860059D01*
X154872810Y-74829082D01*
X154823797Y-74697671D01*
X154823793Y-74697664D01*
X154737547Y-74582455D01*
X154737544Y-74582452D01*
X154622335Y-74496206D01*
X154622328Y-74496202D01*
X154490917Y-74447189D01*
X154434983Y-74405318D01*
X154410566Y-74339853D01*
X154425418Y-74271580D01*
X154446563Y-74243332D01*
X154560104Y-74129792D01*
X154685051Y-73957816D01*
X154689514Y-73949054D01*
X154737488Y-73898259D01*
X154805308Y-73881463D01*
X154871444Y-73903999D01*
G37*
%TD.AperFunction*%
%TA.AperFunction,NonConductor*%
G36*
X159951444Y-73903999D02*
G01*
X159990486Y-73949056D01*
X159994951Y-73957820D01*
X160119890Y-74129786D01*
X160270213Y-74280109D01*
X160442182Y-74405050D01*
X160450946Y-74409516D01*
X160501742Y-74457491D01*
X160518536Y-74525312D01*
X160495998Y-74591447D01*
X160450946Y-74630484D01*
X160442182Y-74634949D01*
X160270213Y-74759890D01*
X160119890Y-74910213D01*
X159994949Y-75082182D01*
X159990484Y-75090946D01*
X159942509Y-75141742D01*
X159874688Y-75158536D01*
X159808553Y-75135998D01*
X159769516Y-75090946D01*
X159765050Y-75082182D01*
X159640109Y-74910213D01*
X159489786Y-74759890D01*
X159317820Y-74634951D01*
X159317115Y-74634591D01*
X159309054Y-74630485D01*
X159258259Y-74582512D01*
X159241463Y-74514692D01*
X159263999Y-74448556D01*
X159309054Y-74409515D01*
X159317816Y-74405051D01*
X159407554Y-74339853D01*
X159489786Y-74280109D01*
X159489788Y-74280106D01*
X159489792Y-74280104D01*
X159640104Y-74129792D01*
X159640106Y-74129788D01*
X159640109Y-74129786D01*
X159765048Y-73957820D01*
X159765047Y-73957820D01*
X159765051Y-73957816D01*
X159769514Y-73949054D01*
X159817488Y-73898259D01*
X159885308Y-73881463D01*
X159951444Y-73903999D01*
G37*
%TD.AperFunction*%
%TA.AperFunction,NonConductor*%
G36*
X157357226Y-73885524D02*
G01*
X157369810Y-73884985D01*
X157389674Y-73896581D01*
X157411444Y-73903999D01*
X157420719Y-73914703D01*
X157430151Y-73920209D01*
X157450486Y-73949056D01*
X157454951Y-73957820D01*
X157579890Y-74129786D01*
X157730213Y-74280109D01*
X157902182Y-74405050D01*
X157910946Y-74409516D01*
X157961742Y-74457491D01*
X157978536Y-74525312D01*
X157955998Y-74591447D01*
X157910946Y-74630484D01*
X157902182Y-74634949D01*
X157730213Y-74759890D01*
X157579890Y-74910213D01*
X157454949Y-75082182D01*
X157450484Y-75090946D01*
X157402509Y-75141742D01*
X157334688Y-75158536D01*
X157268553Y-75135998D01*
X157229516Y-75090946D01*
X157225050Y-75082182D01*
X157100109Y-74910213D01*
X156949786Y-74759890D01*
X156777820Y-74634951D01*
X156777115Y-74634591D01*
X156769054Y-74630485D01*
X156718259Y-74582512D01*
X156701463Y-74514692D01*
X156723999Y-74448556D01*
X156769054Y-74409515D01*
X156777816Y-74405051D01*
X156867554Y-74339853D01*
X156949786Y-74280109D01*
X156949788Y-74280106D01*
X156949792Y-74280104D01*
X157100104Y-74129792D01*
X157100106Y-74129788D01*
X157100109Y-74129786D01*
X157225048Y-73957820D01*
X157225047Y-73957820D01*
X157225051Y-73957816D01*
X157229514Y-73949054D01*
X157238160Y-73939900D01*
X157242897Y-73928232D01*
X157261696Y-73914979D01*
X157277488Y-73898259D01*
X157289710Y-73895231D01*
X157300004Y-73887976D01*
X157322985Y-73886991D01*
X157345308Y-73881463D01*
X157357226Y-73885524D01*
G37*
%TD.AperFunction*%
%TA.AperFunction,NonConductor*%
G36*
X162598834Y-86482913D02*
G01*
X162654767Y-86524785D01*
X162679184Y-86590249D01*
X162679500Y-86599095D01*
X162679501Y-87490364D01*
X162679501Y-87490376D01*
X162685908Y-87549983D01*
X162736202Y-87684828D01*
X162736206Y-87684835D01*
X162822452Y-87800044D01*
X162822455Y-87800047D01*
X162937664Y-87886293D01*
X162937671Y-87886297D01*
X163072517Y-87936591D01*
X163072516Y-87936591D01*
X163079444Y-87937335D01*
X163132127Y-87943000D01*
X164275500Y-87942999D01*
X164342539Y-87962684D01*
X164388294Y-88015487D01*
X164399500Y-88066999D01*
X164399500Y-92200903D01*
X164379815Y-92267942D01*
X164327011Y-92313697D01*
X164257853Y-92323641D01*
X164194297Y-92294616D01*
X164187819Y-92288584D01*
X163337590Y-91438355D01*
X163337588Y-91438352D01*
X163218717Y-91319481D01*
X163218716Y-91319480D01*
X163131904Y-91269360D01*
X163131904Y-91269359D01*
X163131900Y-91269358D01*
X163081785Y-91240423D01*
X162929057Y-91199499D01*
X162770943Y-91199499D01*
X162763347Y-91199499D01*
X162763331Y-91199500D01*
X161124500Y-91199500D01*
X161057461Y-91179815D01*
X161011706Y-91127011D01*
X161000500Y-91075500D01*
X161000500Y-88030096D01*
X161020185Y-87963057D01*
X161036814Y-87942420D01*
X162467821Y-86511412D01*
X162529142Y-86477929D01*
X162598834Y-86482913D01*
G37*
%TD.AperFunction*%
%TA.AperFunction,NonConductor*%
G36*
X167511563Y-100799185D02*
G01*
X167557318Y-100851989D01*
X167567262Y-100921147D01*
X167562455Y-100941817D01*
X167551524Y-100975457D01*
X167551523Y-100975464D01*
X167519500Y-101177648D01*
X167519500Y-101382351D01*
X167551523Y-101584535D01*
X167551524Y-101584542D01*
X167562455Y-101618183D01*
X167564450Y-101688024D01*
X167528369Y-101747856D01*
X167465668Y-101778684D01*
X167444524Y-101780500D01*
X158305670Y-101780500D01*
X158305654Y-101780499D01*
X158298058Y-101780499D01*
X158139943Y-101780499D01*
X157987215Y-101821423D01*
X157987213Y-101821423D01*
X157987213Y-101821424D01*
X157939909Y-101848735D01*
X157850948Y-101900097D01*
X157850281Y-101900482D01*
X156987583Y-102763181D01*
X156926260Y-102796666D01*
X156899902Y-102799500D01*
X156647096Y-102799500D01*
X156580057Y-102779815D01*
X156534302Y-102727011D01*
X156524358Y-102657853D01*
X156553383Y-102594297D01*
X156559415Y-102587819D01*
X157366735Y-101780500D01*
X158331416Y-100815819D01*
X158392739Y-100782334D01*
X158419097Y-100779500D01*
X167444524Y-100779500D01*
X167511563Y-100799185D01*
G37*
%TD.AperFunction*%
%TA.AperFunction,NonConductor*%
G36*
X175105942Y-98259185D02*
G01*
X175126584Y-98275819D01*
X182765922Y-105915157D01*
X182799407Y-105976480D01*
X182796173Y-106041155D01*
X182791522Y-106055468D01*
X182759500Y-106257648D01*
X182759500Y-106450903D01*
X182739815Y-106517942D01*
X182687011Y-106563697D01*
X182617853Y-106573641D01*
X182554297Y-106544616D01*
X182547819Y-106538584D01*
X175826590Y-99817355D01*
X175826588Y-99817352D01*
X175707717Y-99698481D01*
X175707716Y-99698480D01*
X175620904Y-99648360D01*
X175620904Y-99648359D01*
X175620900Y-99648358D01*
X175570785Y-99619423D01*
X175418057Y-99578499D01*
X175259943Y-99578499D01*
X175252347Y-99578499D01*
X175252331Y-99578500D01*
X170054697Y-99578500D01*
X169987658Y-99558815D01*
X169941903Y-99506011D01*
X169931959Y-99436853D01*
X169944212Y-99398205D01*
X170025218Y-99239223D01*
X170025218Y-99239222D01*
X170025220Y-99239219D01*
X170088477Y-99044534D01*
X170120500Y-98842352D01*
X170120500Y-98637648D01*
X170088477Y-98435466D01*
X170088475Y-98435462D01*
X170088475Y-98435457D01*
X170077545Y-98401817D01*
X170075550Y-98331976D01*
X170111631Y-98272144D01*
X170174332Y-98241316D01*
X170195476Y-98239500D01*
X175038903Y-98239500D01*
X175105942Y-98259185D01*
G37*
%TD.AperFunction*%
%TA.AperFunction,NonConductor*%
G36*
X167511563Y-98259185D02*
G01*
X167557318Y-98311989D01*
X167567262Y-98381147D01*
X167562455Y-98401817D01*
X167551524Y-98435457D01*
X167551523Y-98435464D01*
X167519500Y-98637648D01*
X167519500Y-98842351D01*
X167551522Y-99044534D01*
X167614781Y-99239223D01*
X167695788Y-99398205D01*
X167708684Y-99466874D01*
X167682408Y-99531614D01*
X167625302Y-99571872D01*
X167585303Y-99578500D01*
X158198057Y-99578500D01*
X158039942Y-99578500D01*
X157887215Y-99619423D01*
X157887214Y-99619423D01*
X157887212Y-99619424D01*
X157887209Y-99619425D01*
X157837096Y-99648359D01*
X157837095Y-99648360D01*
X157793689Y-99673420D01*
X157750285Y-99698479D01*
X157750282Y-99698481D01*
X154818481Y-102630282D01*
X154818477Y-102630287D01*
X154773777Y-102707712D01*
X154773777Y-102707713D01*
X154739423Y-102767214D01*
X154730772Y-102799500D01*
X154698499Y-102919943D01*
X154698499Y-102919945D01*
X154698499Y-103088046D01*
X154698500Y-103088059D01*
X154698500Y-105452330D01*
X154698499Y-105452348D01*
X154698499Y-105618054D01*
X154698498Y-105618054D01*
X154739423Y-105770787D01*
X154758234Y-105803366D01*
X154758235Y-105803369D01*
X154818475Y-105907709D01*
X154818481Y-105907717D01*
X154937349Y-106026585D01*
X154937355Y-106026590D01*
X155116241Y-106205476D01*
X155149726Y-106266799D01*
X155146492Y-106331473D01*
X155132753Y-106373757D01*
X155099500Y-106583713D01*
X155099500Y-106730903D01*
X155079815Y-106797942D01*
X155027011Y-106843697D01*
X154957853Y-106853641D01*
X154894297Y-106824616D01*
X154887819Y-106818584D01*
X154036819Y-105967584D01*
X154003334Y-105906261D01*
X154000500Y-105879903D01*
X154000500Y-101900097D01*
X154020185Y-101833058D01*
X154036819Y-101812416D01*
X157573416Y-98275819D01*
X157634739Y-98242334D01*
X157661097Y-98239500D01*
X167444524Y-98239500D01*
X167511563Y-98259185D01*
G37*
%TD.AperFunction*%
%TA.AperFunction,NonConductor*%
G36*
X174767942Y-103001185D02*
G01*
X174788584Y-103017819D01*
X178057584Y-106286819D01*
X178091069Y-106348142D01*
X178086085Y-106417834D01*
X178044213Y-106473767D01*
X177978749Y-106498184D01*
X177969903Y-106498500D01*
X177930057Y-106498500D01*
X177771942Y-106498500D01*
X177619215Y-106539423D01*
X177619214Y-106539423D01*
X177619212Y-106539424D01*
X177619209Y-106539425D01*
X177569096Y-106568359D01*
X177569095Y-106568360D01*
X177542503Y-106583713D01*
X177482285Y-106618479D01*
X177482282Y-106618481D01*
X177276583Y-106824181D01*
X177215260Y-106857666D01*
X177188902Y-106860500D01*
X170195476Y-106860500D01*
X170128437Y-106840815D01*
X170082682Y-106788011D01*
X170072738Y-106718853D01*
X170077545Y-106698183D01*
X170088475Y-106664542D01*
X170088475Y-106664538D01*
X170088477Y-106664534D01*
X170120500Y-106462352D01*
X170120500Y-106257648D01*
X170088477Y-106055466D01*
X170076797Y-106019520D01*
X170025218Y-105860776D01*
X169991503Y-105794607D01*
X169932287Y-105678390D01*
X169924556Y-105667749D01*
X169811971Y-105512786D01*
X169667213Y-105368028D01*
X169501614Y-105247715D01*
X169491041Y-105242328D01*
X169408917Y-105200483D01*
X169358123Y-105152511D01*
X169341328Y-105084690D01*
X169363865Y-105018555D01*
X169408917Y-104979516D01*
X169501610Y-104932287D01*
X169522770Y-104916913D01*
X169667213Y-104811971D01*
X169667215Y-104811968D01*
X169667219Y-104811966D01*
X169811966Y-104667219D01*
X169811968Y-104667215D01*
X169811971Y-104667213D01*
X169864732Y-104594590D01*
X169932287Y-104501610D01*
X170025220Y-104319219D01*
X170088477Y-104124534D01*
X170120500Y-103922352D01*
X170120500Y-103717648D01*
X170088477Y-103515466D01*
X170025220Y-103320781D01*
X170025218Y-103320778D01*
X170025218Y-103320776D01*
X169959866Y-103192517D01*
X169944211Y-103161793D01*
X169931316Y-103093126D01*
X169957592Y-103028386D01*
X170014698Y-102988128D01*
X170054697Y-102981500D01*
X174700903Y-102981500D01*
X174767942Y-103001185D01*
G37*
%TD.AperFunction*%
%TA.AperFunction,NonConductor*%
G36*
X167587943Y-102982275D02*
G01*
X167590614Y-102981614D01*
X167621269Y-102992061D01*
X167652342Y-103001185D01*
X167654143Y-103003264D01*
X167656749Y-103004152D01*
X167676895Y-103029521D01*
X167698097Y-103053989D01*
X167698488Y-103056711D01*
X167700200Y-103058867D01*
X167703431Y-103091087D01*
X167708041Y-103123147D01*
X167706981Y-103126488D01*
X167707172Y-103128388D01*
X167695788Y-103161795D01*
X167614781Y-103320776D01*
X167551522Y-103515465D01*
X167519500Y-103717648D01*
X167519500Y-103922351D01*
X167551522Y-104124534D01*
X167614781Y-104319223D01*
X167707715Y-104501613D01*
X167828028Y-104667213D01*
X167972786Y-104811971D01*
X168127749Y-104924556D01*
X168138390Y-104932287D01*
X168229840Y-104978883D01*
X168231080Y-104979515D01*
X168281876Y-105027490D01*
X168298671Y-105095311D01*
X168276134Y-105161446D01*
X168231080Y-105200485D01*
X168138386Y-105247715D01*
X167972786Y-105368028D01*
X167828028Y-105512786D01*
X167707715Y-105678386D01*
X167614781Y-105860776D01*
X167551522Y-106055465D01*
X167519500Y-106257648D01*
X167519500Y-106462351D01*
X167551522Y-106664534D01*
X167614781Y-106859223D01*
X167707715Y-107041613D01*
X167828028Y-107207213D01*
X167879584Y-107258769D01*
X167883922Y-107266714D01*
X167891170Y-107272140D01*
X167900404Y-107296899D01*
X167913069Y-107320092D01*
X167912423Y-107329121D01*
X167915587Y-107337604D01*
X167909970Y-107363424D01*
X167908085Y-107389784D01*
X167902266Y-107398837D01*
X167900735Y-107405877D01*
X167879584Y-107434131D01*
X167871534Y-107442181D01*
X167810211Y-107475666D01*
X167783853Y-107478500D01*
X166216290Y-107478500D01*
X166149251Y-107458815D01*
X166103496Y-107406011D01*
X166093552Y-107336853D01*
X166105805Y-107298205D01*
X166151557Y-107208412D01*
X166217246Y-107006243D01*
X166250500Y-106796287D01*
X166250500Y-106583713D01*
X166217246Y-106373757D01*
X166151557Y-106171588D01*
X166055051Y-105982184D01*
X166055049Y-105982181D01*
X166055048Y-105982179D01*
X165930109Y-105810213D01*
X165816569Y-105696673D01*
X165783084Y-105635350D01*
X165788068Y-105565658D01*
X165829940Y-105509725D01*
X165860915Y-105492810D01*
X165992331Y-105443796D01*
X166107546Y-105357546D01*
X166193796Y-105242331D01*
X166244091Y-105107483D01*
X166250500Y-105047873D01*
X166250499Y-103252128D01*
X166244091Y-103192517D01*
X166232632Y-103161795D01*
X166227798Y-103148833D01*
X166222814Y-103079142D01*
X166256299Y-103017819D01*
X166317622Y-102984334D01*
X166343980Y-102981500D01*
X167585303Y-102981500D01*
X167587943Y-102982275D01*
G37*
%TD.AperFunction*%
%TA.AperFunction,NonConductor*%
G36*
X163523059Y-103001185D02*
G01*
X163568814Y-103053989D01*
X163578758Y-103123147D01*
X163572202Y-103148833D01*
X163555908Y-103192517D01*
X163549501Y-103252116D01*
X163549501Y-103252123D01*
X163549500Y-103252135D01*
X163549500Y-105047870D01*
X163549501Y-105047876D01*
X163555908Y-105107483D01*
X163606202Y-105242328D01*
X163606206Y-105242335D01*
X163692452Y-105357544D01*
X163692455Y-105357547D01*
X163807664Y-105443793D01*
X163807671Y-105443797D01*
X163939082Y-105492810D01*
X163995016Y-105534681D01*
X164019433Y-105600145D01*
X164004582Y-105668418D01*
X163983431Y-105696673D01*
X163869889Y-105810215D01*
X163744951Y-105982179D01*
X163648444Y-106171585D01*
X163582753Y-106373760D01*
X163551095Y-106573641D01*
X163549500Y-106583713D01*
X163549500Y-106796287D01*
X163582754Y-107006243D01*
X163648443Y-107208412D01*
X163693529Y-107296899D01*
X163694195Y-107298205D01*
X163707091Y-107366874D01*
X163680815Y-107431615D01*
X163623709Y-107471872D01*
X163583710Y-107478500D01*
X161966290Y-107478500D01*
X161899251Y-107458815D01*
X161853496Y-107406011D01*
X161843552Y-107336853D01*
X161855805Y-107298205D01*
X161901557Y-107208412D01*
X161967246Y-107006243D01*
X162000500Y-106796287D01*
X162000500Y-106583713D01*
X161967246Y-106373757D01*
X161901557Y-106171588D01*
X161805051Y-105982184D01*
X161805049Y-105982181D01*
X161805048Y-105982179D01*
X161680109Y-105810213D01*
X161566569Y-105696673D01*
X161533084Y-105635350D01*
X161538068Y-105565658D01*
X161579940Y-105509725D01*
X161610915Y-105492810D01*
X161742331Y-105443796D01*
X161857546Y-105357546D01*
X161943796Y-105242331D01*
X161994091Y-105107483D01*
X162000500Y-105047873D01*
X162000499Y-103252128D01*
X161994091Y-103192517D01*
X161982632Y-103161795D01*
X161977798Y-103148833D01*
X161972814Y-103079142D01*
X162006299Y-103017819D01*
X162067622Y-102984334D01*
X162093980Y-102981500D01*
X163456020Y-102981500D01*
X163523059Y-103001185D01*
G37*
%TD.AperFunction*%
%TA.AperFunction,NonConductor*%
G36*
X175105942Y-100799185D02*
G01*
X175126584Y-100815819D01*
X182765922Y-108455157D01*
X182799407Y-108516480D01*
X182796173Y-108581155D01*
X182791522Y-108595468D01*
X182759500Y-108797648D01*
X182759500Y-108990902D01*
X182739815Y-109057941D01*
X182687011Y-109103696D01*
X182617853Y-109113640D01*
X182554297Y-109084615D01*
X182547819Y-109078583D01*
X175488590Y-102019355D01*
X175488588Y-102019352D01*
X175369717Y-101900481D01*
X175369709Y-101900475D01*
X175250733Y-101831785D01*
X175250733Y-101831784D01*
X175250728Y-101831783D01*
X175244467Y-101828167D01*
X175232786Y-101821423D01*
X175194603Y-101811192D01*
X175080057Y-101780499D01*
X174921943Y-101780499D01*
X174914347Y-101780499D01*
X174914331Y-101780500D01*
X170195476Y-101780500D01*
X170128437Y-101760815D01*
X170082682Y-101708011D01*
X170072738Y-101638853D01*
X170077545Y-101618183D01*
X170088475Y-101584542D01*
X170088475Y-101584538D01*
X170088477Y-101584534D01*
X170120500Y-101382352D01*
X170120500Y-101177648D01*
X170088477Y-100975466D01*
X170088475Y-100975462D01*
X170088475Y-100975457D01*
X170077545Y-100941817D01*
X170075550Y-100871976D01*
X170111631Y-100812144D01*
X170174332Y-100781316D01*
X170195476Y-100779500D01*
X175038903Y-100779500D01*
X175105942Y-100799185D01*
G37*
%TD.AperFunction*%
%TA.AperFunction,NonConductor*%
G36*
X159273059Y-103001185D02*
G01*
X159318814Y-103053989D01*
X159328758Y-103123147D01*
X159322202Y-103148833D01*
X159305908Y-103192517D01*
X159299501Y-103252116D01*
X159299501Y-103252123D01*
X159299500Y-103252135D01*
X159299500Y-105047870D01*
X159299501Y-105047876D01*
X159305908Y-105107483D01*
X159356202Y-105242328D01*
X159356206Y-105242335D01*
X159442452Y-105357544D01*
X159442455Y-105357547D01*
X159557664Y-105443793D01*
X159557671Y-105443797D01*
X159689082Y-105492810D01*
X159745016Y-105534681D01*
X159769433Y-105600145D01*
X159754582Y-105668418D01*
X159733431Y-105696673D01*
X159619889Y-105810215D01*
X159494951Y-105982179D01*
X159398444Y-106171585D01*
X159332753Y-106373760D01*
X159301095Y-106573641D01*
X159299500Y-106583713D01*
X159299500Y-106796287D01*
X159332754Y-107006243D01*
X159398055Y-107207219D01*
X159398444Y-107208414D01*
X159494951Y-107397820D01*
X159619890Y-107569786D01*
X159622753Y-107572649D01*
X159656238Y-107633972D01*
X159651254Y-107703664D01*
X159622753Y-107748011D01*
X158012181Y-109358583D01*
X157950858Y-109392068D01*
X157881166Y-109387084D01*
X157825233Y-109345212D01*
X157800816Y-109279748D01*
X157800500Y-109270902D01*
X157800500Y-109123713D01*
X157781278Y-109002351D01*
X157767246Y-108913757D01*
X157701557Y-108711588D01*
X157605051Y-108522184D01*
X157605049Y-108522181D01*
X157605048Y-108522179D01*
X157480109Y-108350213D01*
X157329786Y-108199890D01*
X157157820Y-108074951D01*
X157157115Y-108074591D01*
X157149054Y-108070485D01*
X157098259Y-108022512D01*
X157081463Y-107954692D01*
X157103999Y-107888556D01*
X157149054Y-107849515D01*
X157157816Y-107845051D01*
X157236736Y-107787713D01*
X157329786Y-107720109D01*
X157329788Y-107720106D01*
X157329792Y-107720104D01*
X157480104Y-107569792D01*
X157480106Y-107569788D01*
X157480109Y-107569786D01*
X157605048Y-107397820D01*
X157605047Y-107397820D01*
X157605051Y-107397816D01*
X157701557Y-107208412D01*
X157767246Y-107006243D01*
X157800500Y-106796287D01*
X157800500Y-106583713D01*
X157767246Y-106373757D01*
X157701557Y-106171588D01*
X157605051Y-105982184D01*
X157605049Y-105982181D01*
X157605048Y-105982179D01*
X157480109Y-105810213D01*
X157366569Y-105696673D01*
X157333084Y-105635350D01*
X157338068Y-105565658D01*
X157379940Y-105509725D01*
X157410915Y-105492810D01*
X157542331Y-105443796D01*
X157657546Y-105357546D01*
X157743796Y-105242331D01*
X157794091Y-105107483D01*
X157800500Y-105047873D01*
X157800499Y-103700097D01*
X157820184Y-103633059D01*
X157836818Y-103612417D01*
X158431417Y-103017819D01*
X158492740Y-102984334D01*
X158519098Y-102981500D01*
X159206020Y-102981500D01*
X159273059Y-103001185D01*
G37*
%TD.AperFunction*%
%TA.AperFunction,NonConductor*%
G36*
X176806942Y-108081185D02*
G01*
X176852697Y-108133989D01*
X176862641Y-108203147D01*
X176833616Y-108266703D01*
X176827584Y-108273181D01*
X175736584Y-109364181D01*
X175675261Y-109397666D01*
X175648903Y-109400500D01*
X170195476Y-109400500D01*
X170128437Y-109380815D01*
X170082682Y-109328011D01*
X170072738Y-109258853D01*
X170077545Y-109238183D01*
X170088475Y-109204542D01*
X170088475Y-109204538D01*
X170088477Y-109204534D01*
X170120500Y-109002352D01*
X170120500Y-108797648D01*
X170088477Y-108595466D01*
X170025220Y-108400781D01*
X170025218Y-108400778D01*
X170025218Y-108400776D01*
X169980041Y-108312113D01*
X169944211Y-108241793D01*
X169931316Y-108173126D01*
X169957592Y-108108386D01*
X170014698Y-108068128D01*
X170054697Y-108061500D01*
X176739903Y-108061500D01*
X176806942Y-108081185D01*
G37*
%TD.AperFunction*%
%TA.AperFunction,NonConductor*%
G36*
X167462539Y-108699185D02*
G01*
X167508294Y-108751989D01*
X167519500Y-108803500D01*
X167519500Y-109002351D01*
X167551522Y-109204534D01*
X167614781Y-109399223D01*
X167707715Y-109581613D01*
X167709169Y-109583615D01*
X167709486Y-109584506D01*
X167710259Y-109585766D01*
X167709994Y-109585928D01*
X167732649Y-109649421D01*
X167716823Y-109717475D01*
X167666717Y-109766170D01*
X167608851Y-109780500D01*
X166311802Y-109780500D01*
X166244763Y-109760815D01*
X166199008Y-109708011D01*
X166189064Y-109638853D01*
X166193871Y-109618182D01*
X166217246Y-109546243D01*
X166250500Y-109336287D01*
X166250500Y-109123713D01*
X166217246Y-108913757D01*
X166193870Y-108841816D01*
X166191876Y-108771977D01*
X166227956Y-108712144D01*
X166290657Y-108681316D01*
X166311802Y-108679500D01*
X167395500Y-108679500D01*
X167462539Y-108699185D01*
G37*
%TD.AperFunction*%
%TA.AperFunction,NonConductor*%
G36*
X163515188Y-108687425D02*
G01*
X163542910Y-108692223D01*
X163548264Y-108697137D01*
X163555237Y-108699185D01*
X163573656Y-108720442D01*
X163594385Y-108739467D01*
X163596232Y-108746496D01*
X163600992Y-108751989D01*
X163604995Y-108779835D01*
X163612147Y-108807041D01*
X163610377Y-108817264D01*
X163610936Y-108821147D01*
X163606129Y-108841818D01*
X163582753Y-108913760D01*
X163552670Y-109103696D01*
X163549500Y-109123713D01*
X163549500Y-109336287D01*
X163582754Y-109546243D01*
X163595648Y-109585928D01*
X163606129Y-109618182D01*
X163608124Y-109688023D01*
X163572044Y-109747856D01*
X163509343Y-109778684D01*
X163488198Y-109780500D01*
X162061802Y-109780500D01*
X161994763Y-109760815D01*
X161949008Y-109708011D01*
X161939064Y-109638853D01*
X161943871Y-109618182D01*
X161967246Y-109546243D01*
X162000500Y-109336287D01*
X162000500Y-109123713D01*
X161967246Y-108913757D01*
X161943870Y-108841816D01*
X161941876Y-108771977D01*
X161977956Y-108712144D01*
X162040657Y-108681316D01*
X162061802Y-108679500D01*
X163488198Y-108679500D01*
X163515188Y-108687425D01*
G37*
%TD.AperFunction*%
%TA.AperFunction,NonConductor*%
G36*
X159382574Y-109789173D02*
G01*
X159438507Y-109831045D01*
X159449724Y-109849060D01*
X159494947Y-109937814D01*
X159494948Y-109937815D01*
X159619890Y-110109786D01*
X159622753Y-110112649D01*
X159656238Y-110173972D01*
X159651254Y-110243664D01*
X159622753Y-110288011D01*
X158012181Y-111898583D01*
X157950858Y-111932068D01*
X157881166Y-111927084D01*
X157825233Y-111885212D01*
X157800816Y-111819748D01*
X157800500Y-111810902D01*
X157800500Y-111663713D01*
X157781278Y-111542351D01*
X157767246Y-111453757D01*
X157753506Y-111411473D01*
X157751512Y-111341635D01*
X157783755Y-111285478D01*
X159251561Y-109817672D01*
X159312882Y-109784189D01*
X159382574Y-109789173D01*
G37*
%TD.AperFunction*%
%TA.AperFunction,NonConductor*%
G36*
X163586350Y-110982275D02*
G01*
X163589021Y-110981614D01*
X163619676Y-110992061D01*
X163650749Y-111001185D01*
X163652550Y-111003264D01*
X163655156Y-111004152D01*
X163675302Y-111029521D01*
X163696504Y-111053989D01*
X163696895Y-111056711D01*
X163698607Y-111058867D01*
X163701838Y-111091087D01*
X163706448Y-111123147D01*
X163705388Y-111126488D01*
X163705579Y-111128388D01*
X163694195Y-111161795D01*
X163648444Y-111251585D01*
X163582753Y-111453760D01*
X163582753Y-111453762D01*
X163549500Y-111663713D01*
X163549500Y-111876287D01*
X163582754Y-112086243D01*
X163648055Y-112287219D01*
X163648444Y-112288414D01*
X163744951Y-112477820D01*
X163869890Y-112649786D01*
X164020213Y-112800109D01*
X164192182Y-112925050D01*
X164200946Y-112929516D01*
X164251742Y-112977491D01*
X164268536Y-113045312D01*
X164245998Y-113111447D01*
X164200946Y-113150484D01*
X164192182Y-113154949D01*
X164020213Y-113279890D01*
X163869890Y-113430213D01*
X163744951Y-113602179D01*
X163648444Y-113791585D01*
X163582753Y-113993760D01*
X163582753Y-113993762D01*
X163549500Y-114203713D01*
X163549500Y-114416287D01*
X163582754Y-114626243D01*
X163648055Y-114827219D01*
X163648444Y-114828414D01*
X163744951Y-115017820D01*
X163869890Y-115189786D01*
X164020213Y-115340109D01*
X164192182Y-115465050D01*
X164200946Y-115469516D01*
X164251742Y-115517491D01*
X164268536Y-115585312D01*
X164245998Y-115651447D01*
X164200946Y-115690484D01*
X164192182Y-115694949D01*
X164020213Y-115819890D01*
X163869890Y-115970213D01*
X163744951Y-116142179D01*
X163648444Y-116331585D01*
X163582753Y-116533760D01*
X163549500Y-116743713D01*
X163549500Y-116956286D01*
X163582753Y-117166239D01*
X163582753Y-117166241D01*
X163582754Y-117166243D01*
X163648055Y-117367219D01*
X163648444Y-117368414D01*
X163744951Y-117557820D01*
X163869890Y-117729786D01*
X164020213Y-117880109D01*
X164192179Y-118005048D01*
X164192181Y-118005049D01*
X164192184Y-118005051D01*
X164381588Y-118101557D01*
X164583757Y-118167246D01*
X164793713Y-118200500D01*
X164793714Y-118200500D01*
X165006286Y-118200500D01*
X165006287Y-118200500D01*
X165216243Y-118167246D01*
X165418412Y-118101557D01*
X165607816Y-118005051D01*
X165751740Y-117900485D01*
X165779786Y-117880109D01*
X165779788Y-117880106D01*
X165779792Y-117880104D01*
X165930104Y-117729792D01*
X165930106Y-117729788D01*
X165930109Y-117729786D01*
X166055048Y-117557820D01*
X166055047Y-117557820D01*
X166055051Y-117557816D01*
X166151557Y-117368412D01*
X166217246Y-117166243D01*
X166250500Y-116956287D01*
X166250500Y-116743713D01*
X166217246Y-116533757D01*
X166151557Y-116331588D01*
X166055051Y-116142184D01*
X166055049Y-116142181D01*
X166055048Y-116142179D01*
X165930109Y-115970213D01*
X165779786Y-115819890D01*
X165607820Y-115694951D01*
X165607115Y-115694591D01*
X165599054Y-115690485D01*
X165548259Y-115642512D01*
X165531463Y-115574692D01*
X165553999Y-115508556D01*
X165599054Y-115469515D01*
X165607816Y-115465051D01*
X165751740Y-115360485D01*
X165779786Y-115340109D01*
X165779788Y-115340106D01*
X165779792Y-115340104D01*
X165930104Y-115189792D01*
X165930106Y-115189788D01*
X165930109Y-115189786D01*
X166055048Y-115017820D01*
X166055047Y-115017820D01*
X166055051Y-115017816D01*
X166151557Y-114828412D01*
X166217246Y-114626243D01*
X166250500Y-114416287D01*
X166250500Y-114203713D01*
X166217246Y-113993757D01*
X166151557Y-113791588D01*
X166055051Y-113602184D01*
X166055049Y-113602181D01*
X166055048Y-113602179D01*
X165930109Y-113430213D01*
X165779786Y-113279890D01*
X165607820Y-113154951D01*
X165607115Y-113154591D01*
X165599054Y-113150485D01*
X165548259Y-113102512D01*
X165531463Y-113034692D01*
X165553999Y-112968556D01*
X165599054Y-112929515D01*
X165607816Y-112925051D01*
X165751740Y-112820485D01*
X165779786Y-112800109D01*
X165779788Y-112800106D01*
X165779792Y-112800104D01*
X165930104Y-112649792D01*
X165930106Y-112649788D01*
X165930109Y-112649786D01*
X166055048Y-112477820D01*
X166055047Y-112477820D01*
X166055051Y-112477816D01*
X166151557Y-112288412D01*
X166217246Y-112086243D01*
X166250500Y-111876287D01*
X166250500Y-111663713D01*
X166217246Y-111453757D01*
X166151557Y-111251588D01*
X166105804Y-111161794D01*
X166092909Y-111093126D01*
X166119185Y-111028385D01*
X166176291Y-110988128D01*
X166216290Y-110981500D01*
X167431194Y-110981500D01*
X167498233Y-111001185D01*
X167543988Y-111053989D01*
X167553932Y-111123147D01*
X167551767Y-111134449D01*
X167551522Y-111135465D01*
X167519500Y-111337648D01*
X167519500Y-111542351D01*
X167551522Y-111744534D01*
X167614781Y-111939223D01*
X167707715Y-112121613D01*
X167828028Y-112287213D01*
X167972786Y-112431971D01*
X168127749Y-112544556D01*
X168138390Y-112552287D01*
X168229840Y-112598883D01*
X168231080Y-112599515D01*
X168281876Y-112647490D01*
X168298671Y-112715311D01*
X168276134Y-112781446D01*
X168231080Y-112820485D01*
X168138386Y-112867715D01*
X167972786Y-112988028D01*
X167828028Y-113132786D01*
X167707715Y-113298386D01*
X167614781Y-113480776D01*
X167551522Y-113675465D01*
X167519500Y-113877648D01*
X167519500Y-114082351D01*
X167551522Y-114284534D01*
X167614781Y-114479223D01*
X167707715Y-114661613D01*
X167828028Y-114827213D01*
X167972786Y-114971971D01*
X168127749Y-115084556D01*
X168138390Y-115092287D01*
X168229840Y-115138883D01*
X168231080Y-115139515D01*
X168281876Y-115187490D01*
X168298671Y-115255311D01*
X168276134Y-115321446D01*
X168231080Y-115360485D01*
X168138386Y-115407715D01*
X167972786Y-115528028D01*
X167828028Y-115672786D01*
X167707715Y-115838386D01*
X167614781Y-116020776D01*
X167551522Y-116215465D01*
X167519500Y-116417648D01*
X167519500Y-116622351D01*
X167551522Y-116824534D01*
X167614781Y-117019223D01*
X167707715Y-117201613D01*
X167828028Y-117367213D01*
X167972786Y-117511971D01*
X168127749Y-117624556D01*
X168138390Y-117632287D01*
X168229840Y-117678883D01*
X168231080Y-117679515D01*
X168281876Y-117727490D01*
X168298671Y-117795311D01*
X168276134Y-117861446D01*
X168231080Y-117900485D01*
X168138386Y-117947715D01*
X167972786Y-118068028D01*
X167828028Y-118212786D01*
X167707715Y-118378386D01*
X167614781Y-118560776D01*
X167551522Y-118755465D01*
X167519500Y-118957648D01*
X167519500Y-119162351D01*
X167551523Y-119364535D01*
X167551524Y-119364542D01*
X167562455Y-119398183D01*
X167564450Y-119468024D01*
X167528369Y-119527856D01*
X167465668Y-119558684D01*
X167444524Y-119560500D01*
X160061097Y-119560500D01*
X159994058Y-119540815D01*
X159973416Y-119524181D01*
X157783757Y-117334522D01*
X157750272Y-117273199D01*
X157753507Y-117208523D01*
X157767246Y-117166243D01*
X157800500Y-116956287D01*
X157800500Y-116743713D01*
X157767246Y-116533757D01*
X157701557Y-116331588D01*
X157605051Y-116142184D01*
X157605049Y-116142181D01*
X157605048Y-116142179D01*
X157480109Y-115970213D01*
X157329786Y-115819890D01*
X157157820Y-115694951D01*
X157157115Y-115694591D01*
X157149054Y-115690485D01*
X157098259Y-115642512D01*
X157081463Y-115574692D01*
X157103999Y-115508556D01*
X157149054Y-115469515D01*
X157157816Y-115465051D01*
X157301740Y-115360485D01*
X157329786Y-115340109D01*
X157329788Y-115340106D01*
X157329792Y-115340104D01*
X157480104Y-115189792D01*
X157480106Y-115189788D01*
X157480109Y-115189786D01*
X157605048Y-115017820D01*
X157605047Y-115017820D01*
X157605051Y-115017816D01*
X157701557Y-114828412D01*
X157767246Y-114626243D01*
X157800500Y-114416287D01*
X157800500Y-114203713D01*
X157767246Y-113993757D01*
X157753506Y-113951473D01*
X157751512Y-113881635D01*
X157783755Y-113825478D01*
X159251561Y-112357672D01*
X159312882Y-112324189D01*
X159382574Y-112329173D01*
X159438507Y-112371045D01*
X159449724Y-112389060D01*
X159494947Y-112477814D01*
X159494948Y-112477815D01*
X159619890Y-112649786D01*
X159770213Y-112800109D01*
X159942182Y-112925050D01*
X159950946Y-112929516D01*
X160001742Y-112977491D01*
X160018536Y-113045312D01*
X159995998Y-113111447D01*
X159950946Y-113150484D01*
X159942182Y-113154949D01*
X159770213Y-113279890D01*
X159619890Y-113430213D01*
X159494951Y-113602179D01*
X159398444Y-113791585D01*
X159332753Y-113993760D01*
X159332753Y-113993762D01*
X159299500Y-114203713D01*
X159299500Y-114416287D01*
X159332754Y-114626243D01*
X159398055Y-114827219D01*
X159398444Y-114828414D01*
X159494951Y-115017820D01*
X159619890Y-115189786D01*
X159770213Y-115340109D01*
X159942182Y-115465050D01*
X159950946Y-115469516D01*
X160001742Y-115517491D01*
X160018536Y-115585312D01*
X159995998Y-115651447D01*
X159950946Y-115690484D01*
X159942182Y-115694949D01*
X159770213Y-115819890D01*
X159619890Y-115970213D01*
X159494951Y-116142179D01*
X159398444Y-116331585D01*
X159332753Y-116533760D01*
X159299500Y-116743713D01*
X159299500Y-116956286D01*
X159332753Y-117166239D01*
X159332753Y-117166241D01*
X159332754Y-117166243D01*
X159398055Y-117367219D01*
X159398444Y-117368414D01*
X159494951Y-117557820D01*
X159619890Y-117729786D01*
X159770213Y-117880109D01*
X159942179Y-118005048D01*
X159942181Y-118005049D01*
X159942184Y-118005051D01*
X160131588Y-118101557D01*
X160333757Y-118167246D01*
X160543713Y-118200500D01*
X160543714Y-118200500D01*
X160756286Y-118200500D01*
X160756287Y-118200500D01*
X160966243Y-118167246D01*
X161168412Y-118101557D01*
X161357816Y-118005051D01*
X161501740Y-117900485D01*
X161529786Y-117880109D01*
X161529788Y-117880106D01*
X161529792Y-117880104D01*
X161680104Y-117729792D01*
X161680106Y-117729788D01*
X161680109Y-117729786D01*
X161805048Y-117557820D01*
X161805047Y-117557820D01*
X161805051Y-117557816D01*
X161901557Y-117368412D01*
X161967246Y-117166243D01*
X162000500Y-116956287D01*
X162000500Y-116743713D01*
X161967246Y-116533757D01*
X161901557Y-116331588D01*
X161805051Y-116142184D01*
X161805049Y-116142181D01*
X161805048Y-116142179D01*
X161680109Y-115970213D01*
X161529786Y-115819890D01*
X161357820Y-115694951D01*
X161357115Y-115694591D01*
X161349054Y-115690485D01*
X161298259Y-115642512D01*
X161281463Y-115574692D01*
X161303999Y-115508556D01*
X161349054Y-115469515D01*
X161357816Y-115465051D01*
X161501740Y-115360485D01*
X161529786Y-115340109D01*
X161529788Y-115340106D01*
X161529792Y-115340104D01*
X161680104Y-115189792D01*
X161680106Y-115189788D01*
X161680109Y-115189786D01*
X161805048Y-115017820D01*
X161805047Y-115017820D01*
X161805051Y-115017816D01*
X161901557Y-114828412D01*
X161967246Y-114626243D01*
X162000500Y-114416287D01*
X162000500Y-114203713D01*
X161967246Y-113993757D01*
X161901557Y-113791588D01*
X161805051Y-113602184D01*
X161805049Y-113602181D01*
X161805048Y-113602179D01*
X161680109Y-113430213D01*
X161529786Y-113279890D01*
X161357820Y-113154951D01*
X161357115Y-113154591D01*
X161349054Y-113150485D01*
X161298259Y-113102512D01*
X161281463Y-113034692D01*
X161303999Y-112968556D01*
X161349054Y-112929515D01*
X161357816Y-112925051D01*
X161501740Y-112820485D01*
X161529786Y-112800109D01*
X161529788Y-112800106D01*
X161529792Y-112800104D01*
X161680104Y-112649792D01*
X161680106Y-112649788D01*
X161680109Y-112649786D01*
X161805048Y-112477820D01*
X161805047Y-112477820D01*
X161805051Y-112477816D01*
X161901557Y-112288412D01*
X161967246Y-112086243D01*
X162000500Y-111876287D01*
X162000500Y-111663713D01*
X161967246Y-111453757D01*
X161901557Y-111251588D01*
X161855804Y-111161794D01*
X161842909Y-111093126D01*
X161869185Y-111028385D01*
X161926291Y-110988128D01*
X161966290Y-110981500D01*
X163583710Y-110981500D01*
X163586350Y-110982275D01*
G37*
%TD.AperFunction*%
%TA.AperFunction,NonConductor*%
G36*
X154797941Y-70920185D02*
G01*
X154843696Y-70972989D01*
X154853640Y-71042147D01*
X154824615Y-71105703D01*
X154818583Y-71112181D01*
X154014522Y-71916241D01*
X153953199Y-71949726D01*
X153888523Y-71946491D01*
X153846245Y-71932754D01*
X153688539Y-71907776D01*
X153636287Y-71899500D01*
X153423713Y-71899500D01*
X153375042Y-71907208D01*
X153213760Y-71932753D01*
X153011585Y-71998444D01*
X152822179Y-72094951D01*
X152650213Y-72219890D01*
X152499890Y-72370213D01*
X152374951Y-72542179D01*
X152278444Y-72731585D01*
X152212753Y-72933760D01*
X152179500Y-73143713D01*
X152179500Y-73356286D01*
X152212753Y-73566239D01*
X152278444Y-73768414D01*
X152374951Y-73957820D01*
X152499890Y-74129786D01*
X152613430Y-74243326D01*
X152646915Y-74304649D01*
X152641931Y-74374341D01*
X152600059Y-74430274D01*
X152569083Y-74447189D01*
X152437669Y-74496203D01*
X152437664Y-74496206D01*
X152322455Y-74582452D01*
X152322452Y-74582455D01*
X152236206Y-74697664D01*
X152236202Y-74697671D01*
X152185908Y-74832517D01*
X152179501Y-74892116D01*
X152179500Y-74892135D01*
X152179500Y-76687870D01*
X152179501Y-76687876D01*
X152185908Y-76747483D01*
X152236202Y-76882328D01*
X152236206Y-76882335D01*
X152322452Y-76997544D01*
X152322455Y-76997547D01*
X152437664Y-77083793D01*
X152437671Y-77083797D01*
X152572517Y-77134091D01*
X152572516Y-77134091D01*
X152579444Y-77134835D01*
X152632127Y-77140500D01*
X154427872Y-77140499D01*
X154487483Y-77134091D01*
X154622331Y-77083796D01*
X154737546Y-76997546D01*
X154823796Y-76882331D01*
X154872810Y-76750916D01*
X154914681Y-76694984D01*
X154980145Y-76670566D01*
X155048418Y-76685417D01*
X155076673Y-76706569D01*
X155190213Y-76820109D01*
X155362179Y-76945048D01*
X155362181Y-76945049D01*
X155362184Y-76945051D01*
X155551588Y-77041557D01*
X155753757Y-77107246D01*
X155963713Y-77140500D01*
X155963714Y-77140500D01*
X156176286Y-77140500D01*
X156176287Y-77140500D01*
X156386243Y-77107246D01*
X156588412Y-77041557D01*
X156777816Y-76945051D01*
X156864138Y-76882335D01*
X156949786Y-76820109D01*
X156949788Y-76820106D01*
X156949792Y-76820104D01*
X157100104Y-76669792D01*
X157100106Y-76669788D01*
X157100109Y-76669786D01*
X157225048Y-76497820D01*
X157225047Y-76497820D01*
X157225051Y-76497816D01*
X157229514Y-76489054D01*
X157277488Y-76438259D01*
X157345308Y-76421463D01*
X157411444Y-76443999D01*
X157450486Y-76489056D01*
X157454951Y-76497820D01*
X157579890Y-76669786D01*
X157730213Y-76820109D01*
X157902179Y-76945048D01*
X157902181Y-76945049D01*
X157902184Y-76945051D01*
X158091588Y-77041557D01*
X158293757Y-77107246D01*
X158503713Y-77140500D01*
X158503714Y-77140500D01*
X158716286Y-77140500D01*
X158716287Y-77140500D01*
X158926243Y-77107246D01*
X159128412Y-77041557D01*
X159317816Y-76945051D01*
X159404138Y-76882335D01*
X159489786Y-76820109D01*
X159489788Y-76820106D01*
X159489792Y-76820104D01*
X159640104Y-76669792D01*
X159640106Y-76669788D01*
X159640109Y-76669786D01*
X159765048Y-76497820D01*
X159765047Y-76497820D01*
X159765051Y-76497816D01*
X159769514Y-76489054D01*
X159817488Y-76438259D01*
X159885308Y-76421463D01*
X159951444Y-76443999D01*
X159990486Y-76489056D01*
X159994951Y-76497820D01*
X160119890Y-76669786D01*
X160270213Y-76820109D01*
X160442179Y-76945048D01*
X160442181Y-76945049D01*
X160442184Y-76945051D01*
X160631588Y-77041557D01*
X160833757Y-77107246D01*
X161043713Y-77140500D01*
X161043714Y-77140500D01*
X161256286Y-77140500D01*
X161256287Y-77140500D01*
X161466243Y-77107246D01*
X161668412Y-77041557D01*
X161769206Y-76990199D01*
X161837874Y-76977304D01*
X161902614Y-77003580D01*
X161942872Y-77060686D01*
X161949500Y-77100685D01*
X161949500Y-82233330D01*
X161949499Y-82233348D01*
X161949499Y-82399054D01*
X161949498Y-82399054D01*
X161990423Y-82551785D01*
X162019358Y-82601900D01*
X162019359Y-82601904D01*
X162019360Y-82601904D01*
X162069479Y-82688714D01*
X162069481Y-82688717D01*
X162188349Y-82807585D01*
X162188355Y-82807590D01*
X162729045Y-83348280D01*
X162762530Y-83409603D01*
X162759295Y-83474278D01*
X162715278Y-83609751D01*
X162682155Y-83818886D01*
X162679500Y-83835646D01*
X162679500Y-84064354D01*
X162682156Y-84081120D01*
X162715278Y-84290248D01*
X162759295Y-84425720D01*
X162761290Y-84495561D01*
X162729045Y-84551718D01*
X160031286Y-87249478D01*
X159919481Y-87361282D01*
X159919477Y-87361287D01*
X159872109Y-87443333D01*
X159872109Y-87443334D01*
X159840423Y-87498214D01*
X159840423Y-87498215D01*
X159799499Y-87650943D01*
X159799499Y-87650945D01*
X159799499Y-87819046D01*
X159799500Y-87819059D01*
X159799500Y-90375500D01*
X159779815Y-90442539D01*
X159727011Y-90488294D01*
X159675500Y-90499500D01*
X157486670Y-90499500D01*
X157486654Y-90499499D01*
X157479058Y-90499499D01*
X157320943Y-90499499D01*
X157244579Y-90519961D01*
X157168214Y-90540423D01*
X157168209Y-90540426D01*
X157031290Y-90619475D01*
X157031282Y-90619481D01*
X155187582Y-92463181D01*
X155126259Y-92496666D01*
X155099901Y-92499500D01*
X154099998Y-92499500D01*
X154099980Y-92499501D01*
X153997203Y-92510000D01*
X153997200Y-92510001D01*
X153830668Y-92565185D01*
X153830663Y-92565187D01*
X153681342Y-92657289D01*
X153557289Y-92781342D01*
X153465187Y-92930663D01*
X153465186Y-92930666D01*
X153410001Y-93097203D01*
X153410001Y-93097204D01*
X153410000Y-93097204D01*
X153399500Y-93199983D01*
X153399500Y-94400001D01*
X153399501Y-94400018D01*
X153410000Y-94502796D01*
X153410001Y-94502799D01*
X153457050Y-94644781D01*
X153465186Y-94669334D01*
X153557288Y-94818656D01*
X153681344Y-94942712D01*
X153830666Y-95034814D01*
X153997203Y-95089999D01*
X154099991Y-95100500D01*
X155300008Y-95100499D01*
X155402797Y-95089999D01*
X155569334Y-95034814D01*
X155718656Y-94942712D01*
X155842712Y-94818656D01*
X155934814Y-94669334D01*
X155989999Y-94502797D01*
X156000500Y-94400009D01*
X156000499Y-93400096D01*
X156020183Y-93333058D01*
X156036813Y-93312421D01*
X157612417Y-91736819D01*
X157673740Y-91703334D01*
X157700098Y-91700500D01*
X159150903Y-91700500D01*
X159217942Y-91720185D01*
X159263697Y-91772989D01*
X159273641Y-91842147D01*
X159244616Y-91905703D01*
X159238584Y-91912181D01*
X158644842Y-92505921D01*
X158583519Y-92539406D01*
X158518848Y-92536173D01*
X158504534Y-92531522D01*
X158329995Y-92503878D01*
X158302352Y-92499500D01*
X158097648Y-92499500D01*
X158073329Y-92503351D01*
X157895465Y-92531522D01*
X157700776Y-92594781D01*
X157518386Y-92687715D01*
X157352786Y-92808028D01*
X157208028Y-92952786D01*
X157087715Y-93118386D01*
X156994781Y-93300776D01*
X156931522Y-93495465D01*
X156899500Y-93697648D01*
X156899500Y-93902351D01*
X156931522Y-94104534D01*
X156994781Y-94299223D01*
X157087715Y-94481613D01*
X157208028Y-94647213D01*
X157352786Y-94791971D01*
X157507749Y-94904556D01*
X157518390Y-94912287D01*
X157629020Y-94968656D01*
X157700776Y-95005218D01*
X157700778Y-95005218D01*
X157700781Y-95005220D01*
X157758106Y-95023846D01*
X157895465Y-95068477D01*
X157996557Y-95084488D01*
X158097648Y-95100500D01*
X158097649Y-95100500D01*
X158302351Y-95100500D01*
X158302352Y-95100500D01*
X158504534Y-95068477D01*
X158699219Y-95005220D01*
X158881610Y-94912287D01*
X159009301Y-94819515D01*
X159047213Y-94791971D01*
X159047215Y-94791968D01*
X159047219Y-94791966D01*
X159191966Y-94647219D01*
X159191968Y-94647215D01*
X159191971Y-94647213D01*
X159296892Y-94502799D01*
X159312287Y-94481610D01*
X159405220Y-94299219D01*
X159468477Y-94104534D01*
X159500500Y-93902352D01*
X159500500Y-93697648D01*
X159468477Y-93495466D01*
X159463825Y-93481151D01*
X159461832Y-93411312D01*
X159494075Y-93355158D01*
X160412416Y-92436819D01*
X160473739Y-92403334D01*
X160500097Y-92400500D01*
X162549903Y-92400500D01*
X162579343Y-92409144D01*
X162609330Y-92415668D01*
X162614345Y-92419422D01*
X162616942Y-92420185D01*
X162637584Y-92436819D01*
X162638584Y-92437819D01*
X162672069Y-92499142D01*
X162667085Y-92568834D01*
X162625213Y-92624767D01*
X162559749Y-92649184D01*
X162550904Y-92649500D01*
X162399999Y-92649500D01*
X162399980Y-92649501D01*
X162297203Y-92660000D01*
X162297200Y-92660001D01*
X162130668Y-92715185D01*
X162130663Y-92715187D01*
X161981342Y-92807289D01*
X161857289Y-92931342D01*
X161765187Y-93080663D01*
X161765185Y-93080668D01*
X161757858Y-93102781D01*
X161710001Y-93247203D01*
X161710001Y-93247204D01*
X161710000Y-93247204D01*
X161699500Y-93349983D01*
X161699500Y-94550001D01*
X161699501Y-94550018D01*
X161710000Y-94652796D01*
X161710001Y-94652799D01*
X161765185Y-94819331D01*
X161765187Y-94819336D01*
X161794889Y-94867490D01*
X161857288Y-94968656D01*
X161981344Y-95092712D01*
X162130666Y-95184814D01*
X162297203Y-95239999D01*
X162399991Y-95250500D01*
X163600008Y-95250499D01*
X163702797Y-95239999D01*
X163869334Y-95184814D01*
X164018656Y-95092712D01*
X164087524Y-95023843D01*
X164148843Y-94990361D01*
X164218535Y-94995345D01*
X164248082Y-95011206D01*
X164318390Y-95062287D01*
X164393383Y-95100498D01*
X164500776Y-95155218D01*
X164500778Y-95155218D01*
X164500781Y-95155220D01*
X164591856Y-95184812D01*
X164695465Y-95218477D01*
X164796557Y-95234488D01*
X164897648Y-95250500D01*
X164897649Y-95250500D01*
X165102351Y-95250500D01*
X165102352Y-95250500D01*
X165304534Y-95218477D01*
X165499219Y-95155220D01*
X165681610Y-95062287D01*
X165777649Y-94992511D01*
X165847213Y-94941971D01*
X165847215Y-94941968D01*
X165847219Y-94941966D01*
X165991966Y-94797219D01*
X165991968Y-94797215D01*
X165991971Y-94797213D01*
X166044732Y-94724590D01*
X166112287Y-94631610D01*
X166205220Y-94449219D01*
X166268477Y-94254534D01*
X166300500Y-94052352D01*
X166300500Y-93847648D01*
X166268477Y-93645466D01*
X166205220Y-93450781D01*
X166205218Y-93450778D01*
X166205218Y-93450776D01*
X166171503Y-93384607D01*
X166112287Y-93268390D01*
X166062587Y-93199983D01*
X165991971Y-93102786D01*
X165847213Y-92958028D01*
X165681610Y-92837712D01*
X165668200Y-92830879D01*
X165617406Y-92782903D01*
X165600500Y-92720397D01*
X165600500Y-87757221D01*
X165620185Y-87690182D01*
X165623412Y-87685532D01*
X165623797Y-87684829D01*
X165674091Y-87549982D01*
X165680500Y-87490373D01*
X165680499Y-85489628D01*
X165674091Y-85430017D01*
X165653718Y-85375395D01*
X165623797Y-85295171D01*
X165623793Y-85295164D01*
X165537547Y-85179955D01*
X165537544Y-85179952D01*
X165422335Y-85093706D01*
X165422328Y-85093702D01*
X165394459Y-85083308D01*
X165338525Y-85041437D01*
X165314108Y-84975973D01*
X165328960Y-84907700D01*
X165337460Y-84894260D01*
X165470217Y-84711538D01*
X165574048Y-84507758D01*
X165644722Y-84290245D01*
X165680500Y-84064354D01*
X165680500Y-83835646D01*
X165644722Y-83609755D01*
X165644721Y-83609751D01*
X165644721Y-83609750D01*
X165574049Y-83392244D01*
X165470216Y-83188461D01*
X165335786Y-83003434D01*
X165174066Y-82841714D01*
X165089559Y-82780316D01*
X165046896Y-82724988D01*
X165040917Y-82655375D01*
X165073523Y-82593580D01*
X165089556Y-82579685D01*
X165174066Y-82518286D01*
X165335786Y-82356566D01*
X165470217Y-82171538D01*
X165574048Y-81967758D01*
X165644722Y-81750245D01*
X165680500Y-81524354D01*
X165680500Y-81295646D01*
X165644722Y-81069755D01*
X165644721Y-81069751D01*
X165644721Y-81069750D01*
X165574049Y-80852244D01*
X165470216Y-80648461D01*
X165335786Y-80463434D01*
X165174066Y-80301714D01*
X164989038Y-80167283D01*
X164939341Y-80141961D01*
X164785255Y-80063450D01*
X164567748Y-79992778D01*
X164398326Y-79965944D01*
X164341854Y-79957000D01*
X164018146Y-79957000D01*
X163942849Y-79968926D01*
X163792253Y-79992778D01*
X163792250Y-79992778D01*
X163574744Y-80063450D01*
X163370958Y-80167285D01*
X163347385Y-80184412D01*
X163281579Y-80207892D01*
X163213525Y-80192067D01*
X163164830Y-80141961D01*
X163150500Y-80084094D01*
X163150500Y-76871153D01*
X164399500Y-76871153D01*
X164399500Y-77028846D01*
X164430261Y-77183489D01*
X164430264Y-77183501D01*
X164490602Y-77329172D01*
X164490609Y-77329185D01*
X164578210Y-77460288D01*
X164578213Y-77460292D01*
X164689707Y-77571786D01*
X164689711Y-77571789D01*
X164820814Y-77659390D01*
X164820827Y-77659397D01*
X164966498Y-77719735D01*
X164966503Y-77719737D01*
X165031147Y-77732595D01*
X165121849Y-77750638D01*
X165183760Y-77783023D01*
X165185339Y-77784574D01*
X166365425Y-78964660D01*
X166398910Y-79025983D01*
X166399361Y-79028149D01*
X166430261Y-79183491D01*
X166430264Y-79183501D01*
X166490602Y-79329172D01*
X166490609Y-79329185D01*
X166578210Y-79460288D01*
X166578213Y-79460292D01*
X166689707Y-79571786D01*
X166689711Y-79571789D01*
X166820814Y-79659390D01*
X166820827Y-79659397D01*
X166966498Y-79719735D01*
X166966503Y-79719737D01*
X167121153Y-79750499D01*
X167121156Y-79750500D01*
X167121158Y-79750500D01*
X167278844Y-79750500D01*
X167278845Y-79750499D01*
X167433497Y-79719737D01*
X167579179Y-79659394D01*
X167710289Y-79571789D01*
X167821789Y-79460289D01*
X167909394Y-79329179D01*
X167969737Y-79183497D01*
X168000500Y-79028842D01*
X168000500Y-78871158D01*
X168000500Y-78871155D01*
X168000499Y-78871153D01*
X167969738Y-78716510D01*
X167969737Y-78716503D01*
X167969735Y-78716498D01*
X167909397Y-78570827D01*
X167909390Y-78570814D01*
X167821789Y-78439711D01*
X167821786Y-78439707D01*
X167710292Y-78328213D01*
X167710288Y-78328210D01*
X167579185Y-78240609D01*
X167579172Y-78240602D01*
X167433501Y-78180264D01*
X167433491Y-78180261D01*
X167278149Y-78149361D01*
X167216238Y-78116976D01*
X167214660Y-78115425D01*
X166034574Y-76935339D01*
X166001089Y-76874016D01*
X166000638Y-76871849D01*
X165969738Y-76716510D01*
X165969737Y-76716503D01*
X165960824Y-76694984D01*
X165909397Y-76570827D01*
X165909390Y-76570814D01*
X165821789Y-76439711D01*
X165821786Y-76439707D01*
X165710292Y-76328213D01*
X165710288Y-76328210D01*
X165579185Y-76240609D01*
X165579172Y-76240602D01*
X165433501Y-76180264D01*
X165433489Y-76180261D01*
X165278845Y-76149500D01*
X165278842Y-76149500D01*
X165121158Y-76149500D01*
X165121155Y-76149500D01*
X164966510Y-76180261D01*
X164966498Y-76180264D01*
X164820827Y-76240602D01*
X164820814Y-76240609D01*
X164689711Y-76328210D01*
X164689707Y-76328213D01*
X164578213Y-76439707D01*
X164578210Y-76439711D01*
X164490609Y-76570814D01*
X164490602Y-76570827D01*
X164430264Y-76716498D01*
X164430261Y-76716510D01*
X164399500Y-76871153D01*
X163150500Y-76871153D01*
X163150500Y-72389059D01*
X163150501Y-72389046D01*
X163150501Y-72220945D01*
X163150501Y-72220943D01*
X163109577Y-72068215D01*
X163069294Y-71998443D01*
X163030520Y-71931284D01*
X162918716Y-71819480D01*
X162918715Y-71819479D01*
X162914385Y-71815149D01*
X162914374Y-71815139D01*
X162211416Y-71112181D01*
X162177931Y-71050858D01*
X162182915Y-70981166D01*
X162224787Y-70925233D01*
X162290251Y-70900816D01*
X162299097Y-70900500D01*
X186675500Y-70900500D01*
X186742539Y-70920185D01*
X186788294Y-70972989D01*
X186799500Y-71024500D01*
X186799500Y-87592297D01*
X186779815Y-87659336D01*
X186727011Y-87705091D01*
X186657853Y-87715035D01*
X186651309Y-87713914D01*
X186578845Y-87699500D01*
X186578842Y-87699500D01*
X186421158Y-87699500D01*
X186421155Y-87699500D01*
X186266510Y-87730261D01*
X186266498Y-87730264D01*
X186120827Y-87790602D01*
X186120814Y-87790609D01*
X185989714Y-87878208D01*
X185989708Y-87878213D01*
X185972691Y-87895230D01*
X185965406Y-87900066D01*
X185962254Y-87904551D01*
X185947272Y-87912107D01*
X185931796Y-87922383D01*
X185924602Y-87925313D01*
X185868215Y-87940423D01*
X185821952Y-87967132D01*
X185814090Y-87970336D01*
X185793820Y-87972395D01*
X185767306Y-87979500D01*
X185289602Y-87979500D01*
X185222563Y-87959815D01*
X185179117Y-87911795D01*
X185172284Y-87898385D01*
X185051971Y-87732786D01*
X184907213Y-87588028D01*
X184741614Y-87467715D01*
X184722757Y-87458107D01*
X184648917Y-87420483D01*
X184598123Y-87372511D01*
X184581328Y-87304690D01*
X184603865Y-87238555D01*
X184648917Y-87199516D01*
X184741610Y-87152287D01*
X184762770Y-87136913D01*
X184907213Y-87031971D01*
X184907215Y-87031968D01*
X184907219Y-87031966D01*
X185051966Y-86887219D01*
X185051968Y-86887215D01*
X185051971Y-86887213D01*
X185163795Y-86733298D01*
X185172287Y-86721610D01*
X185265220Y-86539219D01*
X185328477Y-86344534D01*
X185360500Y-86142352D01*
X185360500Y-85937648D01*
X185328477Y-85735466D01*
X185307580Y-85671153D01*
X185265218Y-85540776D01*
X185222675Y-85457282D01*
X185172287Y-85358390D01*
X185160952Y-85342789D01*
X185051971Y-85192786D01*
X184907213Y-85048028D01*
X184741613Y-84927715D01*
X184741612Y-84927714D01*
X184741610Y-84927713D01*
X184675916Y-84894240D01*
X184559223Y-84834781D01*
X184364534Y-84771522D01*
X184189995Y-84743878D01*
X184162352Y-84739500D01*
X183957648Y-84739500D01*
X183933329Y-84743351D01*
X183755465Y-84771522D01*
X183560776Y-84834781D01*
X183378386Y-84927715D01*
X183212786Y-85048028D01*
X183068028Y-85192786D01*
X182947715Y-85358386D01*
X182854781Y-85540776D01*
X182791522Y-85735465D01*
X182759500Y-85937648D01*
X182759500Y-86142351D01*
X182791522Y-86344534D01*
X182854781Y-86539223D01*
X182905919Y-86639585D01*
X182945394Y-86717059D01*
X182947715Y-86721613D01*
X183068028Y-86887213D01*
X183212786Y-87031971D01*
X183367749Y-87144556D01*
X183378390Y-87152287D01*
X183469840Y-87198883D01*
X183471080Y-87199515D01*
X183521876Y-87247490D01*
X183538671Y-87315311D01*
X183516134Y-87381446D01*
X183471080Y-87420485D01*
X183378386Y-87467715D01*
X183212786Y-87588028D01*
X183068028Y-87732786D01*
X182947715Y-87898386D01*
X182854781Y-88080776D01*
X182791522Y-88275465D01*
X182759500Y-88477648D01*
X182759500Y-88682351D01*
X182791522Y-88884534D01*
X182854781Y-89079223D01*
X182906385Y-89180500D01*
X182937923Y-89242397D01*
X182947715Y-89261613D01*
X183068028Y-89427213D01*
X183212786Y-89571971D01*
X183367749Y-89684556D01*
X183378390Y-89692287D01*
X183469840Y-89738883D01*
X183471080Y-89739515D01*
X183521876Y-89787490D01*
X183538671Y-89855311D01*
X183516134Y-89921446D01*
X183471080Y-89960485D01*
X183378386Y-90007715D01*
X183212786Y-90128028D01*
X183068028Y-90272786D01*
X182947715Y-90438386D01*
X182854781Y-90620776D01*
X182791522Y-90815465D01*
X182759500Y-91017648D01*
X182759500Y-91222351D01*
X182791522Y-91424534D01*
X182854781Y-91619223D01*
X182947715Y-91801613D01*
X183068028Y-91967213D01*
X183212786Y-92111971D01*
X183335193Y-92200903D01*
X183378390Y-92232287D01*
X183448367Y-92267942D01*
X183471080Y-92279515D01*
X183521876Y-92327490D01*
X183538671Y-92395311D01*
X183516134Y-92461446D01*
X183471080Y-92500485D01*
X183378386Y-92547715D01*
X183212786Y-92668028D01*
X183068028Y-92812786D01*
X182947715Y-92978386D01*
X182854781Y-93160776D01*
X182791522Y-93355465D01*
X182759500Y-93557648D01*
X182759500Y-93762351D01*
X182791522Y-93964534D01*
X182854781Y-94159223D01*
X182947715Y-94341613D01*
X183068028Y-94507213D01*
X183212786Y-94651971D01*
X183330805Y-94737715D01*
X183378390Y-94772287D01*
X183469394Y-94818656D01*
X183471080Y-94819515D01*
X183521876Y-94867490D01*
X183538671Y-94935311D01*
X183516134Y-95001446D01*
X183471080Y-95040485D01*
X183378386Y-95087715D01*
X183212786Y-95208028D01*
X183068028Y-95352786D01*
X182947715Y-95518386D01*
X182854781Y-95700776D01*
X182791522Y-95895465D01*
X182759500Y-96097648D01*
X182759500Y-96302351D01*
X182791522Y-96504534D01*
X182854781Y-96699223D01*
X182947715Y-96881613D01*
X183068028Y-97047213D01*
X183212786Y-97191971D01*
X183367749Y-97304556D01*
X183378390Y-97312287D01*
X183469840Y-97358883D01*
X183471080Y-97359515D01*
X183521876Y-97407490D01*
X183538671Y-97475311D01*
X183516134Y-97541446D01*
X183471080Y-97580485D01*
X183378386Y-97627715D01*
X183212786Y-97748028D01*
X183068028Y-97892786D01*
X182947715Y-98058386D01*
X182854781Y-98240776D01*
X182791522Y-98435465D01*
X182759500Y-98637648D01*
X182759500Y-98842351D01*
X182791522Y-99044534D01*
X182854781Y-99239223D01*
X182947715Y-99421613D01*
X183068028Y-99587213D01*
X183212786Y-99731971D01*
X183367749Y-99844556D01*
X183378390Y-99852287D01*
X183469840Y-99898883D01*
X183471080Y-99899515D01*
X183521876Y-99947490D01*
X183538671Y-100015311D01*
X183516134Y-100081446D01*
X183471080Y-100120485D01*
X183378386Y-100167715D01*
X183212786Y-100288028D01*
X183068028Y-100432786D01*
X182947715Y-100598386D01*
X182854781Y-100780776D01*
X182791522Y-100975465D01*
X182759500Y-101177648D01*
X182759500Y-101382351D01*
X182791522Y-101584534D01*
X182854781Y-101779223D01*
X182947715Y-101961613D01*
X183068028Y-102127213D01*
X183212786Y-102271971D01*
X183367749Y-102384556D01*
X183378390Y-102392287D01*
X183469840Y-102438883D01*
X183471080Y-102439515D01*
X183521876Y-102487490D01*
X183538671Y-102555311D01*
X183516134Y-102621446D01*
X183471080Y-102660485D01*
X183378386Y-102707715D01*
X183212786Y-102828028D01*
X183068028Y-102972786D01*
X182947715Y-103138386D01*
X182854781Y-103320776D01*
X182791522Y-103515465D01*
X182759500Y-103717648D01*
X182759500Y-103910903D01*
X182739815Y-103977942D01*
X182687011Y-104023697D01*
X182617853Y-104033641D01*
X182554297Y-104004616D01*
X182547819Y-103998584D01*
X175826590Y-97277355D01*
X175826588Y-97277352D01*
X175707717Y-97158481D01*
X175707716Y-97158480D01*
X175620904Y-97108360D01*
X175620904Y-97108359D01*
X175620900Y-97108358D01*
X175570785Y-97079423D01*
X175418057Y-97038499D01*
X175259943Y-97038499D01*
X175252347Y-97038499D01*
X175252331Y-97038500D01*
X170054697Y-97038500D01*
X169987658Y-97018815D01*
X169941903Y-96966011D01*
X169931959Y-96896853D01*
X169944212Y-96858205D01*
X169952487Y-96841966D01*
X170025220Y-96699219D01*
X170088477Y-96504534D01*
X170120500Y-96302352D01*
X170120500Y-96097648D01*
X170088477Y-95895466D01*
X170025220Y-95700781D01*
X170025218Y-95700778D01*
X170025218Y-95700776D01*
X169991503Y-95634607D01*
X169932287Y-95518390D01*
X169910643Y-95488599D01*
X169811971Y-95352786D01*
X169667213Y-95208028D01*
X169501614Y-95087715D01*
X169463857Y-95068477D01*
X169408917Y-95040483D01*
X169358123Y-94992511D01*
X169341328Y-94924690D01*
X169363865Y-94858555D01*
X169408917Y-94819516D01*
X169501610Y-94772287D01*
X169549195Y-94737715D01*
X169667213Y-94651971D01*
X169667215Y-94651968D01*
X169667219Y-94651966D01*
X169811966Y-94507219D01*
X169811968Y-94507215D01*
X169811971Y-94507213D01*
X169889858Y-94400009D01*
X169932287Y-94341610D01*
X170025220Y-94159219D01*
X170088477Y-93964534D01*
X170120500Y-93762352D01*
X170120500Y-93557648D01*
X170088477Y-93355466D01*
X170088376Y-93355156D01*
X170059127Y-93265137D01*
X170025220Y-93160781D01*
X170025218Y-93160778D01*
X170025218Y-93160776D01*
X169984398Y-93080663D01*
X169932287Y-92978390D01*
X169913681Y-92952781D01*
X169811971Y-92812786D01*
X169667213Y-92668028D01*
X169501614Y-92547715D01*
X169485307Y-92539406D01*
X169408917Y-92500483D01*
X169358123Y-92452511D01*
X169341328Y-92384690D01*
X169363865Y-92318555D01*
X169408917Y-92279516D01*
X169501610Y-92232287D01*
X169544807Y-92200903D01*
X169667213Y-92111971D01*
X169667215Y-92111968D01*
X169667219Y-92111966D01*
X169811966Y-91967219D01*
X169811968Y-91967215D01*
X169811971Y-91967213D01*
X169902835Y-91842147D01*
X169932287Y-91801610D01*
X170025220Y-91619219D01*
X170088477Y-91424534D01*
X170120500Y-91222352D01*
X170120500Y-91017648D01*
X170088477Y-90815466D01*
X170086060Y-90808028D01*
X170046968Y-90687715D01*
X170025220Y-90620781D01*
X170025218Y-90620778D01*
X170025218Y-90620776D01*
X169963424Y-90499500D01*
X169932287Y-90438390D01*
X169924556Y-90427749D01*
X169811971Y-90272786D01*
X169667213Y-90128028D01*
X169501614Y-90007715D01*
X169495006Y-90004348D01*
X169408917Y-89960483D01*
X169358123Y-89912511D01*
X169341328Y-89844690D01*
X169363865Y-89778555D01*
X169408917Y-89739516D01*
X169501610Y-89692287D01*
X169522770Y-89676913D01*
X169667213Y-89571971D01*
X169667215Y-89571968D01*
X169667219Y-89571966D01*
X169811966Y-89427219D01*
X169811968Y-89427215D01*
X169811971Y-89427213D01*
X169904032Y-89300500D01*
X169932287Y-89261610D01*
X170025220Y-89079219D01*
X170088477Y-88884534D01*
X170120500Y-88682352D01*
X170120500Y-88477648D01*
X170088477Y-88275466D01*
X170025220Y-88080781D01*
X170025218Y-88080778D01*
X170025218Y-88080776D01*
X169984595Y-88001051D01*
X169932287Y-87898390D01*
X169917624Y-87878208D01*
X169811971Y-87732786D01*
X169667213Y-87588028D01*
X169501614Y-87467715D01*
X169482757Y-87458107D01*
X169408917Y-87420483D01*
X169358123Y-87372511D01*
X169341328Y-87304690D01*
X169363865Y-87238555D01*
X169408917Y-87199516D01*
X169501610Y-87152287D01*
X169522770Y-87136913D01*
X169667213Y-87031971D01*
X169667215Y-87031968D01*
X169667219Y-87031966D01*
X169811966Y-86887219D01*
X169811968Y-86887215D01*
X169811971Y-86887213D01*
X169923795Y-86733298D01*
X169932287Y-86721610D01*
X170025220Y-86539219D01*
X170088477Y-86344534D01*
X170120500Y-86142352D01*
X170120500Y-85937648D01*
X170088477Y-85735466D01*
X170067580Y-85671153D01*
X170025218Y-85540776D01*
X169982675Y-85457282D01*
X169932287Y-85358390D01*
X169920952Y-85342789D01*
X169811971Y-85192786D01*
X169667213Y-85048028D01*
X169501613Y-84927715D01*
X169501612Y-84927714D01*
X169501610Y-84927713D01*
X169435916Y-84894240D01*
X169319223Y-84834781D01*
X169124534Y-84771522D01*
X168949995Y-84743878D01*
X168922352Y-84739500D01*
X168717648Y-84739500D01*
X168693329Y-84743351D01*
X168515465Y-84771522D01*
X168320776Y-84834781D01*
X168138386Y-84927715D01*
X167972786Y-85048028D01*
X167828032Y-85192782D01*
X167828028Y-85192787D01*
X167730699Y-85326750D01*
X167675369Y-85369416D01*
X167605756Y-85375395D01*
X167543961Y-85342789D01*
X167527279Y-85322756D01*
X167471789Y-85239711D01*
X167471786Y-85239707D01*
X167360292Y-85128213D01*
X167360288Y-85128210D01*
X167229185Y-85040609D01*
X167229172Y-85040602D01*
X167083501Y-84980264D01*
X167083489Y-84980261D01*
X166928845Y-84949500D01*
X166928842Y-84949500D01*
X166771158Y-84949500D01*
X166771155Y-84949500D01*
X166616510Y-84980261D01*
X166616498Y-84980264D01*
X166470827Y-85040602D01*
X166470814Y-85040609D01*
X166339711Y-85128210D01*
X166339707Y-85128213D01*
X166228213Y-85239707D01*
X166228210Y-85239711D01*
X166140609Y-85370814D01*
X166140602Y-85370827D01*
X166080264Y-85516498D01*
X166080261Y-85516510D01*
X166049500Y-85671153D01*
X166049500Y-85828846D01*
X166080261Y-85983489D01*
X166080264Y-85983501D01*
X166140602Y-86129172D01*
X166140609Y-86129185D01*
X166228602Y-86260874D01*
X166249480Y-86327551D01*
X166249500Y-86329765D01*
X166249500Y-86717059D01*
X166229815Y-86784098D01*
X166213181Y-86804740D01*
X166148948Y-86868972D01*
X166148945Y-86868976D01*
X166061344Y-87000079D01*
X166061337Y-87000092D01*
X166000999Y-87145763D01*
X166000996Y-87145775D01*
X165970235Y-87300418D01*
X165970235Y-87458111D01*
X166000996Y-87612754D01*
X166000999Y-87612766D01*
X166061337Y-87758437D01*
X166061344Y-87758450D01*
X166148945Y-87889553D01*
X166148948Y-87889557D01*
X166260442Y-88001051D01*
X166260446Y-88001054D01*
X166391549Y-88088655D01*
X166391562Y-88088662D01*
X166537233Y-88149000D01*
X166537238Y-88149002D01*
X166691888Y-88179764D01*
X166691891Y-88179765D01*
X166691893Y-88179765D01*
X166849579Y-88179765D01*
X166849580Y-88179764D01*
X167004232Y-88149002D01*
X167149914Y-88088659D01*
X167281024Y-88001054D01*
X167392524Y-87889554D01*
X167480129Y-87758444D01*
X167540472Y-87612762D01*
X167571235Y-87458107D01*
X167571235Y-87300423D01*
X167571235Y-87300420D01*
X167571234Y-87300418D01*
X167560254Y-87245220D01*
X167540472Y-87145768D01*
X167540470Y-87145763D01*
X167480130Y-87000087D01*
X167480128Y-87000083D01*
X167471398Y-86987018D01*
X167465747Y-86968973D01*
X167455523Y-86953063D01*
X167451071Y-86922101D01*
X167450520Y-86920341D01*
X167450500Y-86918128D01*
X167450500Y-86733298D01*
X167470185Y-86666259D01*
X167522989Y-86620504D01*
X167592147Y-86610560D01*
X167655703Y-86639585D01*
X167684985Y-86677004D01*
X167707713Y-86721611D01*
X167828028Y-86887213D01*
X167972786Y-87031971D01*
X168127749Y-87144556D01*
X168138390Y-87152287D01*
X168229840Y-87198883D01*
X168231080Y-87199515D01*
X168281876Y-87247490D01*
X168298671Y-87315311D01*
X168276134Y-87381446D01*
X168231080Y-87420485D01*
X168138386Y-87467715D01*
X167972786Y-87588028D01*
X167828028Y-87732786D01*
X167707715Y-87898386D01*
X167614781Y-88080776D01*
X167551522Y-88275465D01*
X167519500Y-88477648D01*
X167519500Y-88682351D01*
X167551522Y-88884534D01*
X167614781Y-89079223D01*
X167666385Y-89180500D01*
X167697923Y-89242397D01*
X167707715Y-89261613D01*
X167828028Y-89427213D01*
X167972786Y-89571971D01*
X168127749Y-89684556D01*
X168138390Y-89692287D01*
X168229840Y-89738883D01*
X168231080Y-89739515D01*
X168281876Y-89787490D01*
X168298671Y-89855311D01*
X168276134Y-89921446D01*
X168231080Y-89960485D01*
X168138386Y-90007715D01*
X167972786Y-90128028D01*
X167828028Y-90272786D01*
X167707715Y-90438386D01*
X167614781Y-90620776D01*
X167551522Y-90815465D01*
X167519500Y-91017648D01*
X167519500Y-91222351D01*
X167551522Y-91424534D01*
X167614781Y-91619223D01*
X167707715Y-91801613D01*
X167828028Y-91967213D01*
X167972786Y-92111971D01*
X168095193Y-92200903D01*
X168138390Y-92232287D01*
X168208367Y-92267942D01*
X168231080Y-92279515D01*
X168281876Y-92327490D01*
X168298671Y-92395311D01*
X168276134Y-92461446D01*
X168231080Y-92500485D01*
X168138386Y-92547715D01*
X167972786Y-92668028D01*
X167828028Y-92812786D01*
X167707715Y-92978386D01*
X167614781Y-93160776D01*
X167551522Y-93355465D01*
X167519500Y-93557648D01*
X167519500Y-93762351D01*
X167551522Y-93964534D01*
X167614781Y-94159223D01*
X167707715Y-94341613D01*
X167828028Y-94507213D01*
X167972786Y-94651971D01*
X168090805Y-94737715D01*
X168138390Y-94772287D01*
X168229394Y-94818656D01*
X168231080Y-94819515D01*
X168281876Y-94867490D01*
X168298671Y-94935311D01*
X168276134Y-95001446D01*
X168231080Y-95040485D01*
X168138386Y-95087715D01*
X167972786Y-95208028D01*
X167828028Y-95352786D01*
X167707715Y-95518386D01*
X167614781Y-95700776D01*
X167551522Y-95895465D01*
X167519500Y-96097648D01*
X167519500Y-96302351D01*
X167551522Y-96504534D01*
X167614781Y-96699223D01*
X167670854Y-96809271D01*
X167687513Y-96841966D01*
X167695788Y-96858205D01*
X167708684Y-96926874D01*
X167682408Y-96991614D01*
X167625302Y-97031872D01*
X167585303Y-97038500D01*
X157447669Y-97038500D01*
X157447653Y-97038499D01*
X157440057Y-97038499D01*
X157281943Y-97038499D01*
X157174587Y-97067265D01*
X157129210Y-97079424D01*
X157129209Y-97079425D01*
X157079096Y-97108359D01*
X157079095Y-97108360D01*
X157061572Y-97118477D01*
X156992285Y-97158479D01*
X156992282Y-97158481D01*
X152919481Y-101231282D01*
X152919479Y-101231285D01*
X152869361Y-101318094D01*
X152869359Y-101318096D01*
X152840425Y-101368209D01*
X152840424Y-101368210D01*
X152840423Y-101368215D01*
X152799499Y-101520943D01*
X152799499Y-101520945D01*
X152799499Y-101689046D01*
X152799500Y-101689059D01*
X152799500Y-106093330D01*
X152799499Y-106093348D01*
X152799499Y-106259054D01*
X152799498Y-106259054D01*
X152840423Y-106411786D01*
X152856167Y-106439053D01*
X152856168Y-106439058D01*
X152856170Y-106439058D01*
X152914115Y-106539423D01*
X152919479Y-106548714D01*
X152919481Y-106548717D01*
X153038349Y-106667585D01*
X153038355Y-106667590D01*
X155116241Y-108745476D01*
X155149726Y-108806799D01*
X155146492Y-108871473D01*
X155132753Y-108913757D01*
X155102670Y-109103696D01*
X155099500Y-109123713D01*
X155099500Y-109336287D01*
X155132754Y-109546243D01*
X155198262Y-109747856D01*
X155198444Y-109748414D01*
X155294951Y-109937820D01*
X155419890Y-110109786D01*
X155570213Y-110260109D01*
X155742182Y-110385050D01*
X155750946Y-110389516D01*
X155801742Y-110437491D01*
X155818536Y-110505312D01*
X155795998Y-110571447D01*
X155750946Y-110610484D01*
X155742182Y-110614949D01*
X155570213Y-110739890D01*
X155419890Y-110890213D01*
X155294951Y-111062179D01*
X155198444Y-111251585D01*
X155132753Y-111453760D01*
X155132753Y-111453762D01*
X155099500Y-111663713D01*
X155099500Y-111876287D01*
X155132754Y-112086243D01*
X155198055Y-112287219D01*
X155198444Y-112288414D01*
X155294951Y-112477820D01*
X155419890Y-112649786D01*
X155570213Y-112800109D01*
X155742182Y-112925050D01*
X155750946Y-112929516D01*
X155801742Y-112977491D01*
X155818536Y-113045312D01*
X155795998Y-113111447D01*
X155750946Y-113150484D01*
X155742182Y-113154949D01*
X155570213Y-113279890D01*
X155419890Y-113430213D01*
X155294951Y-113602179D01*
X155198444Y-113791585D01*
X155132753Y-113993760D01*
X155132753Y-113993762D01*
X155099500Y-114203713D01*
X155099500Y-114416287D01*
X155132754Y-114626243D01*
X155198055Y-114827219D01*
X155198444Y-114828414D01*
X155294951Y-115017820D01*
X155419890Y-115189786D01*
X155570213Y-115340109D01*
X155742182Y-115465050D01*
X155750946Y-115469516D01*
X155801742Y-115517491D01*
X155818536Y-115585312D01*
X155795998Y-115651447D01*
X155750946Y-115690484D01*
X155742182Y-115694949D01*
X155570213Y-115819890D01*
X155419890Y-115970213D01*
X155294951Y-116142179D01*
X155198444Y-116331585D01*
X155132753Y-116533760D01*
X155099500Y-116743713D01*
X155099500Y-116956286D01*
X155132753Y-117166239D01*
X155132753Y-117166241D01*
X155132754Y-117166243D01*
X155198055Y-117367219D01*
X155198444Y-117368414D01*
X155294951Y-117557820D01*
X155419890Y-117729786D01*
X155570213Y-117880109D01*
X155742179Y-118005048D01*
X155742181Y-118005049D01*
X155742184Y-118005051D01*
X155931588Y-118101557D01*
X156133757Y-118167246D01*
X156343713Y-118200500D01*
X156343714Y-118200500D01*
X156556286Y-118200500D01*
X156556287Y-118200500D01*
X156766243Y-118167246D01*
X156808523Y-118153507D01*
X156878362Y-118151511D01*
X156934522Y-118183757D01*
X159276139Y-120525374D01*
X159276149Y-120525385D01*
X159280479Y-120529715D01*
X159280480Y-120529716D01*
X159392284Y-120641520D01*
X159479095Y-120691639D01*
X159479097Y-120691641D01*
X159517151Y-120713611D01*
X159529215Y-120720577D01*
X159681943Y-120761500D01*
X159840057Y-120761500D01*
X167585303Y-120761500D01*
X167652342Y-120781185D01*
X167698097Y-120833989D01*
X167708041Y-120903147D01*
X167695788Y-120941795D01*
X167614781Y-121100776D01*
X167551522Y-121295465D01*
X167519500Y-121497648D01*
X167519500Y-121702351D01*
X167551522Y-121904534D01*
X167614781Y-122099223D01*
X167707715Y-122281613D01*
X167828028Y-122447213D01*
X167972786Y-122591971D01*
X168127749Y-122704556D01*
X168138390Y-122712287D01*
X168227212Y-122757544D01*
X168320776Y-122805218D01*
X168320778Y-122805218D01*
X168320781Y-122805220D01*
X168425137Y-122839127D01*
X168515465Y-122868477D01*
X168616557Y-122884488D01*
X168717648Y-122900500D01*
X168717649Y-122900500D01*
X168922351Y-122900500D01*
X168922352Y-122900500D01*
X169124534Y-122868477D01*
X169319219Y-122805220D01*
X169501610Y-122712287D01*
X169597901Y-122642328D01*
X169667213Y-122591971D01*
X169667215Y-122591968D01*
X169667219Y-122591966D01*
X169811966Y-122447219D01*
X169811968Y-122447215D01*
X169811971Y-122447213D01*
X169864732Y-122374590D01*
X169932287Y-122281610D01*
X170025220Y-122099219D01*
X170088477Y-121904534D01*
X170120500Y-121702352D01*
X170120500Y-121497648D01*
X170088477Y-121295466D01*
X170025220Y-121100781D01*
X170025218Y-121100778D01*
X170025218Y-121100776D01*
X169944212Y-120941795D01*
X169931316Y-120873126D01*
X169957592Y-120808386D01*
X170014698Y-120768128D01*
X170054697Y-120761500D01*
X175102331Y-120761500D01*
X175102347Y-120761501D01*
X175109943Y-120761501D01*
X175268054Y-120761501D01*
X175268057Y-120761501D01*
X175420785Y-120720577D01*
X175470904Y-120691639D01*
X175557716Y-120641520D01*
X175669520Y-120529716D01*
X175669520Y-120529714D01*
X175679728Y-120519507D01*
X175679729Y-120519504D01*
X177164664Y-119034571D01*
X177225985Y-119001088D01*
X177228152Y-119000637D01*
X177228841Y-119000500D01*
X177228842Y-119000500D01*
X177383497Y-118969737D01*
X177529179Y-118909394D01*
X177660289Y-118821789D01*
X177771789Y-118710289D01*
X177859394Y-118579179D01*
X177919737Y-118433497D01*
X177950500Y-118278842D01*
X177950500Y-118121158D01*
X177950500Y-118121155D01*
X177950499Y-118121153D01*
X177939932Y-118068028D01*
X177919737Y-117966503D01*
X177883950Y-117880104D01*
X177859397Y-117820827D01*
X177859390Y-117820814D01*
X177771789Y-117689711D01*
X177771786Y-117689707D01*
X177660292Y-117578213D01*
X177660288Y-117578210D01*
X177529185Y-117490609D01*
X177529172Y-117490602D01*
X177383501Y-117430264D01*
X177383489Y-117430261D01*
X177228845Y-117399500D01*
X177228842Y-117399500D01*
X177071158Y-117399500D01*
X177071155Y-117399500D01*
X176916510Y-117430261D01*
X176916498Y-117430264D01*
X176770827Y-117490602D01*
X176770814Y-117490609D01*
X176639711Y-117578210D01*
X176639707Y-117578213D01*
X176528213Y-117689707D01*
X176528210Y-117689711D01*
X176440609Y-117820814D01*
X176440602Y-117820827D01*
X176380264Y-117966498D01*
X176380261Y-117966508D01*
X176349362Y-118121848D01*
X176316977Y-118183759D01*
X176315426Y-118185337D01*
X174976584Y-119524181D01*
X174915261Y-119557666D01*
X174888903Y-119560500D01*
X170195476Y-119560500D01*
X170128437Y-119540815D01*
X170082682Y-119488011D01*
X170072738Y-119418853D01*
X170077545Y-119398183D01*
X170088475Y-119364542D01*
X170088475Y-119364538D01*
X170088477Y-119364534D01*
X170120500Y-119162352D01*
X170120500Y-118957648D01*
X170088477Y-118755466D01*
X170025220Y-118560781D01*
X170025218Y-118560778D01*
X170025218Y-118560776D01*
X169991503Y-118494607D01*
X169932287Y-118378390D01*
X169859965Y-118278846D01*
X169811971Y-118212786D01*
X169667213Y-118068028D01*
X169501614Y-117947715D01*
X169495006Y-117944348D01*
X169408917Y-117900483D01*
X169358123Y-117852511D01*
X169341328Y-117784690D01*
X169363865Y-117718555D01*
X169408917Y-117679516D01*
X169501610Y-117632287D01*
X169576040Y-117578211D01*
X169667213Y-117511971D01*
X169667215Y-117511968D01*
X169667219Y-117511966D01*
X169811966Y-117367219D01*
X169811968Y-117367215D01*
X169811971Y-117367213D01*
X169880275Y-117273199D01*
X169932287Y-117201610D01*
X170025220Y-117019219D01*
X170088477Y-116824534D01*
X170120500Y-116622352D01*
X170120500Y-116417648D01*
X170088477Y-116215466D01*
X170025220Y-116020781D01*
X170025218Y-116020778D01*
X170025218Y-116020776D01*
X169991503Y-115954607D01*
X169932287Y-115838390D01*
X169924556Y-115827749D01*
X169811971Y-115672786D01*
X169667213Y-115528028D01*
X169501614Y-115407715D01*
X169495006Y-115404348D01*
X169408917Y-115360483D01*
X169358123Y-115312511D01*
X169341328Y-115244690D01*
X169363865Y-115178555D01*
X169408917Y-115139516D01*
X169501610Y-115092287D01*
X169604106Y-115017820D01*
X169667213Y-114971971D01*
X169667215Y-114971968D01*
X169667219Y-114971966D01*
X169811966Y-114827219D01*
X169811968Y-114827215D01*
X169811971Y-114827213D01*
X169864732Y-114754590D01*
X169932287Y-114661610D01*
X170025220Y-114479219D01*
X170088477Y-114284534D01*
X170120500Y-114082352D01*
X170120500Y-113877648D01*
X170088477Y-113675466D01*
X170025220Y-113480781D01*
X170025218Y-113480778D01*
X170025218Y-113480776D01*
X169991503Y-113414607D01*
X169932287Y-113298390D01*
X169924556Y-113287749D01*
X169811971Y-113132786D01*
X169667213Y-112988028D01*
X169501614Y-112867715D01*
X169495006Y-112864348D01*
X169408917Y-112820483D01*
X169358123Y-112772511D01*
X169341328Y-112704690D01*
X169363865Y-112638555D01*
X169408917Y-112599516D01*
X169501610Y-112552287D01*
X169604106Y-112477820D01*
X169667213Y-112431971D01*
X169667215Y-112431968D01*
X169667219Y-112431966D01*
X169811966Y-112287219D01*
X169811968Y-112287215D01*
X169811971Y-112287213D01*
X169864732Y-112214590D01*
X169932287Y-112121610D01*
X170025220Y-111939219D01*
X170088477Y-111744534D01*
X170120500Y-111542352D01*
X170120500Y-111337648D01*
X170088477Y-111135466D01*
X170086177Y-111128388D01*
X170025218Y-110940776D01*
X169944212Y-110781795D01*
X169931316Y-110713126D01*
X169957592Y-110648386D01*
X170014698Y-110608128D01*
X170054697Y-110601500D01*
X175862331Y-110601500D01*
X175862347Y-110601501D01*
X175869943Y-110601501D01*
X176028054Y-110601501D01*
X176028057Y-110601501D01*
X176180785Y-110560577D01*
X176230904Y-110531639D01*
X176317716Y-110481520D01*
X176429520Y-110369716D01*
X176429520Y-110369714D01*
X176439728Y-110359507D01*
X176439729Y-110359504D01*
X178264662Y-108534572D01*
X178325983Y-108501089D01*
X178328150Y-108500638D01*
X178386085Y-108489113D01*
X178483497Y-108469737D01*
X178629179Y-108409394D01*
X178743524Y-108332990D01*
X178810201Y-108312113D01*
X178877581Y-108330597D01*
X178881285Y-108332976D01*
X178920821Y-108359394D01*
X178920823Y-108359395D01*
X178920827Y-108359397D01*
X179066498Y-108419735D01*
X179066503Y-108419737D01*
X179221153Y-108450499D01*
X179221156Y-108450500D01*
X179221158Y-108450500D01*
X179378844Y-108450500D01*
X179378845Y-108450499D01*
X179533497Y-108419737D01*
X179679179Y-108359394D01*
X179810289Y-108271789D01*
X179838740Y-108243337D01*
X179900061Y-108209853D01*
X179969753Y-108214837D01*
X180014102Y-108243338D01*
X182765921Y-110995157D01*
X182799406Y-111056480D01*
X182796173Y-111121149D01*
X182791523Y-111135460D01*
X182791523Y-111135462D01*
X182759500Y-111337648D01*
X182759500Y-111542351D01*
X182791522Y-111744534D01*
X182854781Y-111939223D01*
X182947715Y-112121613D01*
X183068028Y-112287213D01*
X183212786Y-112431971D01*
X183367749Y-112544556D01*
X183378390Y-112552287D01*
X183469840Y-112598883D01*
X183471080Y-112599515D01*
X183521876Y-112647490D01*
X183538671Y-112715311D01*
X183516134Y-112781446D01*
X183471080Y-112820485D01*
X183378386Y-112867715D01*
X183212786Y-112988028D01*
X183068028Y-113132786D01*
X182947715Y-113298386D01*
X182854781Y-113480776D01*
X182791522Y-113675465D01*
X182759500Y-113877648D01*
X182759500Y-114082351D01*
X182791522Y-114284534D01*
X182854781Y-114479223D01*
X182947715Y-114661613D01*
X183068028Y-114827213D01*
X183212786Y-114971971D01*
X183367749Y-115084556D01*
X183378390Y-115092287D01*
X183469840Y-115138883D01*
X183471080Y-115139515D01*
X183521876Y-115187490D01*
X183538671Y-115255311D01*
X183516134Y-115321446D01*
X183471080Y-115360485D01*
X183378386Y-115407715D01*
X183212786Y-115528028D01*
X183068028Y-115672786D01*
X182947715Y-115838386D01*
X182854781Y-116020776D01*
X182791522Y-116215465D01*
X182759500Y-116417648D01*
X182759500Y-116622351D01*
X182791522Y-116824534D01*
X182854781Y-117019223D01*
X182947715Y-117201613D01*
X183068028Y-117367213D01*
X183212786Y-117511971D01*
X183367749Y-117624556D01*
X183378390Y-117632287D01*
X183469840Y-117678883D01*
X183471080Y-117679515D01*
X183521876Y-117727490D01*
X183538671Y-117795311D01*
X183516134Y-117861446D01*
X183471080Y-117900485D01*
X183378386Y-117947715D01*
X183212786Y-118068028D01*
X183068028Y-118212786D01*
X182947715Y-118378386D01*
X182854781Y-118560776D01*
X182791522Y-118755465D01*
X182759500Y-118957648D01*
X182759500Y-119162351D01*
X182791522Y-119364534D01*
X182854781Y-119559223D01*
X182947715Y-119741613D01*
X183068028Y-119907213D01*
X183212784Y-120051969D01*
X183249068Y-120078330D01*
X183291735Y-120133659D01*
X183297715Y-120203273D01*
X183265109Y-120265068D01*
X183204271Y-120299426D01*
X183189440Y-120301938D01*
X183152519Y-120305907D01*
X183017671Y-120356202D01*
X183017664Y-120356206D01*
X182902455Y-120442452D01*
X182902452Y-120442455D01*
X182816206Y-120557664D01*
X182816202Y-120557671D01*
X182765908Y-120692517D01*
X182759501Y-120752116D01*
X182759501Y-120752123D01*
X182759500Y-120752135D01*
X182759500Y-122447870D01*
X182759501Y-122447876D01*
X182765908Y-122507483D01*
X182816202Y-122642328D01*
X182816206Y-122642335D01*
X182902452Y-122757544D01*
X182902455Y-122757547D01*
X183017664Y-122843793D01*
X183017671Y-122843797D01*
X183152517Y-122894091D01*
X183152516Y-122894091D01*
X183159444Y-122894835D01*
X183212127Y-122900500D01*
X184907872Y-122900499D01*
X184967483Y-122894091D01*
X185102331Y-122843796D01*
X185217546Y-122757546D01*
X185303796Y-122642331D01*
X185354091Y-122507483D01*
X185360500Y-122447873D01*
X185360499Y-120752128D01*
X185354091Y-120692517D01*
X185353764Y-120691641D01*
X185303797Y-120557671D01*
X185303793Y-120557664D01*
X185217547Y-120442455D01*
X185217544Y-120442452D01*
X185102335Y-120356206D01*
X185102328Y-120356202D01*
X184967482Y-120305908D01*
X184967483Y-120305908D01*
X184930560Y-120301939D01*
X184866009Y-120275201D01*
X184826160Y-120217809D01*
X184823667Y-120147984D01*
X184859319Y-120087895D01*
X184870930Y-120078331D01*
X184907219Y-120051966D01*
X185051966Y-119907219D01*
X185051968Y-119907215D01*
X185051971Y-119907213D01*
X185104732Y-119834590D01*
X185172287Y-119741610D01*
X185265220Y-119559219D01*
X185328477Y-119364534D01*
X185360500Y-119162352D01*
X185360500Y-118957648D01*
X185328477Y-118755466D01*
X185265220Y-118560781D01*
X185265218Y-118560778D01*
X185265218Y-118560776D01*
X185231503Y-118494607D01*
X185172287Y-118378390D01*
X185099965Y-118278846D01*
X185051971Y-118212786D01*
X184907213Y-118068028D01*
X184741614Y-117947715D01*
X184735006Y-117944348D01*
X184648917Y-117900483D01*
X184598123Y-117852511D01*
X184581328Y-117784690D01*
X184603865Y-117718555D01*
X184648917Y-117679516D01*
X184741610Y-117632287D01*
X184816040Y-117578211D01*
X184907213Y-117511971D01*
X184907215Y-117511968D01*
X184907219Y-117511966D01*
X185051966Y-117367219D01*
X185051968Y-117367215D01*
X185051971Y-117367213D01*
X185120275Y-117273199D01*
X185172287Y-117201610D01*
X185265220Y-117019219D01*
X185328477Y-116824534D01*
X185360500Y-116622352D01*
X185360500Y-116417648D01*
X185328477Y-116215466D01*
X185265220Y-116020781D01*
X185265218Y-116020778D01*
X185265218Y-116020776D01*
X185231503Y-115954607D01*
X185172287Y-115838390D01*
X185164556Y-115827749D01*
X185051971Y-115672786D01*
X184907213Y-115528028D01*
X184741614Y-115407715D01*
X184735006Y-115404348D01*
X184648917Y-115360483D01*
X184598123Y-115312511D01*
X184581328Y-115244690D01*
X184603865Y-115178555D01*
X184648917Y-115139516D01*
X184741610Y-115092287D01*
X184844106Y-115017820D01*
X184907213Y-114971971D01*
X184907215Y-114971968D01*
X184907219Y-114971966D01*
X185051966Y-114827219D01*
X185051968Y-114827215D01*
X185051971Y-114827213D01*
X185104732Y-114754590D01*
X185172287Y-114661610D01*
X185265220Y-114479219D01*
X185328477Y-114284534D01*
X185360500Y-114082352D01*
X185360500Y-113877648D01*
X185328477Y-113675466D01*
X185265220Y-113480781D01*
X185265218Y-113480778D01*
X185265218Y-113480776D01*
X185231503Y-113414607D01*
X185172287Y-113298390D01*
X185164556Y-113287749D01*
X185051971Y-113132786D01*
X184907213Y-112988028D01*
X184741614Y-112867715D01*
X184735006Y-112864348D01*
X184648917Y-112820483D01*
X184598123Y-112772511D01*
X184581328Y-112704690D01*
X184603865Y-112638555D01*
X184648917Y-112599516D01*
X184741610Y-112552287D01*
X184844106Y-112477820D01*
X184907213Y-112431971D01*
X184907215Y-112431968D01*
X184907219Y-112431966D01*
X185051966Y-112287219D01*
X185051968Y-112287215D01*
X185051971Y-112287213D01*
X185104732Y-112214590D01*
X185172287Y-112121610D01*
X185265220Y-111939219D01*
X185328477Y-111744534D01*
X185360500Y-111542352D01*
X185360500Y-111337648D01*
X185328477Y-111135466D01*
X185326177Y-111128388D01*
X185265218Y-110940776D01*
X185184212Y-110781795D01*
X185172287Y-110758390D01*
X185164556Y-110747749D01*
X185051971Y-110592786D01*
X184907213Y-110448028D01*
X184741614Y-110327715D01*
X184735006Y-110324348D01*
X184648917Y-110280483D01*
X184598123Y-110232511D01*
X184581328Y-110164690D01*
X184603865Y-110098555D01*
X184648917Y-110059516D01*
X184741610Y-110012287D01*
X184844106Y-109937820D01*
X184907213Y-109891971D01*
X184907215Y-109891968D01*
X184907219Y-109891966D01*
X185051966Y-109747219D01*
X185051968Y-109747215D01*
X185051971Y-109747213D01*
X185130698Y-109638853D01*
X185172287Y-109581610D01*
X185265220Y-109399219D01*
X185328477Y-109204534D01*
X185360500Y-109002352D01*
X185360500Y-108797648D01*
X185328477Y-108595466D01*
X185265220Y-108400781D01*
X185265218Y-108400778D01*
X185265218Y-108400776D01*
X185229459Y-108330597D01*
X185172287Y-108218390D01*
X185161212Y-108203147D01*
X185051971Y-108052786D01*
X184907213Y-107908028D01*
X184741614Y-107787715D01*
X184735006Y-107784348D01*
X184648917Y-107740483D01*
X184598123Y-107692511D01*
X184581328Y-107624690D01*
X184603865Y-107558555D01*
X184648917Y-107519516D01*
X184741610Y-107472287D01*
X184832832Y-107406011D01*
X184907213Y-107351971D01*
X184907215Y-107351968D01*
X184907219Y-107351966D01*
X185051966Y-107207219D01*
X185051968Y-107207215D01*
X185051971Y-107207213D01*
X185104732Y-107134590D01*
X185172287Y-107041610D01*
X185265220Y-106859219D01*
X185328477Y-106664534D01*
X185360500Y-106462352D01*
X185360500Y-106257648D01*
X185328477Y-106055466D01*
X185316797Y-106019520D01*
X185265218Y-105860776D01*
X185231503Y-105794607D01*
X185172287Y-105678390D01*
X185164556Y-105667749D01*
X185051971Y-105512786D01*
X184907213Y-105368028D01*
X184741614Y-105247715D01*
X184731041Y-105242328D01*
X184648917Y-105200483D01*
X184598123Y-105152511D01*
X184581328Y-105084690D01*
X184603865Y-105018555D01*
X184648917Y-104979516D01*
X184741610Y-104932287D01*
X184762770Y-104916913D01*
X184907213Y-104811971D01*
X184907215Y-104811968D01*
X184907219Y-104811966D01*
X185051966Y-104667219D01*
X185051968Y-104667215D01*
X185051971Y-104667213D01*
X185104732Y-104594590D01*
X185172287Y-104501610D01*
X185265220Y-104319219D01*
X185328477Y-104124534D01*
X185360500Y-103922352D01*
X185360500Y-103717648D01*
X185328477Y-103515466D01*
X185265220Y-103320781D01*
X185265218Y-103320778D01*
X185265218Y-103320776D01*
X185199866Y-103192517D01*
X185172287Y-103138390D01*
X185135720Y-103088059D01*
X185051971Y-102972786D01*
X184907213Y-102828028D01*
X184741614Y-102707715D01*
X184735006Y-102704348D01*
X184648917Y-102660483D01*
X184598123Y-102612511D01*
X184581328Y-102544690D01*
X184603865Y-102478555D01*
X184648917Y-102439516D01*
X184741610Y-102392287D01*
X184762770Y-102376913D01*
X184907213Y-102271971D01*
X184907215Y-102271968D01*
X184907219Y-102271966D01*
X185051966Y-102127219D01*
X185051968Y-102127215D01*
X185051971Y-102127213D01*
X185135470Y-102012284D01*
X185172287Y-101961610D01*
X185265220Y-101779219D01*
X185328477Y-101584534D01*
X185360500Y-101382352D01*
X185360500Y-101177648D01*
X185328477Y-100975466D01*
X185328476Y-100975464D01*
X185288357Y-100851989D01*
X185265220Y-100780781D01*
X185265218Y-100780778D01*
X185265218Y-100780776D01*
X185231503Y-100714607D01*
X185172287Y-100598390D01*
X185164556Y-100587749D01*
X185051971Y-100432786D01*
X184907213Y-100288028D01*
X184741614Y-100167715D01*
X184735006Y-100164348D01*
X184648917Y-100120483D01*
X184598123Y-100072511D01*
X184581328Y-100004690D01*
X184603865Y-99938555D01*
X184648917Y-99899516D01*
X184741610Y-99852287D01*
X184799423Y-99810284D01*
X184907213Y-99731971D01*
X184907215Y-99731968D01*
X184907219Y-99731966D01*
X185051966Y-99587219D01*
X185051968Y-99587215D01*
X185051971Y-99587213D01*
X185161212Y-99436853D01*
X185172287Y-99421610D01*
X185265220Y-99239219D01*
X185328477Y-99044534D01*
X185360500Y-98842352D01*
X185360500Y-98637648D01*
X185328477Y-98435466D01*
X185328476Y-98435464D01*
X185288357Y-98311989D01*
X185265220Y-98240781D01*
X185265218Y-98240778D01*
X185265218Y-98240776D01*
X185231503Y-98174607D01*
X185172287Y-98058390D01*
X185164556Y-98047749D01*
X185051971Y-97892786D01*
X184907213Y-97748028D01*
X184741614Y-97627715D01*
X184735006Y-97624348D01*
X184648917Y-97580483D01*
X184598123Y-97532511D01*
X184581328Y-97464690D01*
X184603865Y-97398555D01*
X184648917Y-97359516D01*
X184741610Y-97312287D01*
X184799423Y-97270284D01*
X184907213Y-97191971D01*
X184907215Y-97191968D01*
X184907219Y-97191966D01*
X185051966Y-97047219D01*
X185051968Y-97047215D01*
X185051971Y-97047213D01*
X185161212Y-96896853D01*
X185172287Y-96881610D01*
X185265220Y-96699219D01*
X185328477Y-96504534D01*
X185360500Y-96302352D01*
X185360500Y-96097648D01*
X185328477Y-95895466D01*
X185265220Y-95700781D01*
X185265218Y-95700778D01*
X185265218Y-95700776D01*
X185231503Y-95634607D01*
X185172287Y-95518390D01*
X185150643Y-95488599D01*
X185051971Y-95352786D01*
X184907213Y-95208028D01*
X184741614Y-95087715D01*
X184703857Y-95068477D01*
X184648917Y-95040483D01*
X184598123Y-94992511D01*
X184581328Y-94924690D01*
X184603865Y-94858555D01*
X184648917Y-94819516D01*
X184741610Y-94772287D01*
X184789195Y-94737715D01*
X184907213Y-94651971D01*
X184907215Y-94651968D01*
X184907219Y-94651966D01*
X185051966Y-94507219D01*
X185051968Y-94507215D01*
X185051971Y-94507213D01*
X185129858Y-94400009D01*
X185172287Y-94341610D01*
X185265220Y-94159219D01*
X185328477Y-93964534D01*
X185360500Y-93762352D01*
X185360500Y-93557648D01*
X185328477Y-93355466D01*
X185328376Y-93355156D01*
X185299127Y-93265137D01*
X185265220Y-93160781D01*
X185265218Y-93160778D01*
X185265218Y-93160776D01*
X185224398Y-93080663D01*
X185172287Y-92978390D01*
X185153681Y-92952781D01*
X185051971Y-92812786D01*
X184907213Y-92668028D01*
X184741614Y-92547715D01*
X184725307Y-92539406D01*
X184648917Y-92500483D01*
X184598123Y-92452511D01*
X184581328Y-92384690D01*
X184603865Y-92318555D01*
X184648917Y-92279516D01*
X184741610Y-92232287D01*
X184784807Y-92200903D01*
X184907213Y-92111971D01*
X184907215Y-92111968D01*
X184907219Y-92111966D01*
X185051966Y-91967219D01*
X185051968Y-91967215D01*
X185051971Y-91967213D01*
X185142835Y-91842147D01*
X185172287Y-91801610D01*
X185265220Y-91619219D01*
X185328477Y-91424534D01*
X185360500Y-91222352D01*
X185360500Y-91017648D01*
X185328477Y-90815466D01*
X185326060Y-90808028D01*
X185286968Y-90687715D01*
X185265220Y-90620781D01*
X185265218Y-90620778D01*
X185265218Y-90620776D01*
X185203424Y-90499500D01*
X185172287Y-90438390D01*
X185164556Y-90427749D01*
X185051971Y-90272786D01*
X184907213Y-90128028D01*
X184741614Y-90007715D01*
X184735006Y-90004348D01*
X184648917Y-89960483D01*
X184598123Y-89912511D01*
X184581328Y-89844690D01*
X184603865Y-89778555D01*
X184648917Y-89739516D01*
X184741610Y-89692287D01*
X184762770Y-89676913D01*
X184907213Y-89571971D01*
X184907215Y-89571968D01*
X184907219Y-89571966D01*
X185051966Y-89427219D01*
X185051968Y-89427215D01*
X185051971Y-89427213D01*
X185172284Y-89261614D01*
X185172285Y-89261613D01*
X185172287Y-89261610D01*
X185179117Y-89248204D01*
X185227091Y-89197409D01*
X185289602Y-89180500D01*
X185933332Y-89180500D01*
X185940939Y-89180500D01*
X185940943Y-89180501D01*
X186039966Y-89180501D01*
X186107005Y-89200186D01*
X186107006Y-89200187D01*
X186108855Y-89201399D01*
X186120818Y-89209392D01*
X186120825Y-89209396D01*
X186246890Y-89261613D01*
X186266503Y-89269737D01*
X186421153Y-89300499D01*
X186421156Y-89300500D01*
X186421158Y-89300500D01*
X186578843Y-89300500D01*
X186594564Y-89297372D01*
X186651309Y-89286085D01*
X186720899Y-89292312D01*
X186776077Y-89335174D01*
X186799322Y-89401063D01*
X186799500Y-89407702D01*
X186799500Y-126875500D01*
X186779815Y-126942539D01*
X186727011Y-126988294D01*
X186675500Y-126999500D01*
X143874500Y-126999500D01*
X143807461Y-126979815D01*
X143761706Y-126927011D01*
X143750500Y-126875500D01*
X143750500Y-95747648D01*
X145999500Y-95747648D01*
X145999500Y-95952351D01*
X146031522Y-96154534D01*
X146094781Y-96349223D01*
X146187715Y-96531613D01*
X146308028Y-96697213D01*
X146452786Y-96841971D01*
X146607749Y-96954556D01*
X146618390Y-96962287D01*
X146729332Y-97018815D01*
X146800776Y-97055218D01*
X146800778Y-97055218D01*
X146800781Y-97055220D01*
X146905137Y-97089127D01*
X146995465Y-97118477D01*
X147096557Y-97134488D01*
X147197648Y-97150500D01*
X147197649Y-97150500D01*
X147402351Y-97150500D01*
X147402352Y-97150500D01*
X147604534Y-97118477D01*
X147799219Y-97055220D01*
X147981610Y-96962287D01*
X148124868Y-96858205D01*
X148147213Y-96841971D01*
X148147215Y-96841968D01*
X148147219Y-96841966D01*
X148291966Y-96697219D01*
X148291968Y-96697215D01*
X148291971Y-96697213D01*
X148344732Y-96624590D01*
X148412287Y-96531610D01*
X148439515Y-96478171D01*
X148487490Y-96427376D01*
X148555311Y-96410581D01*
X148621446Y-96433118D01*
X148660485Y-96478172D01*
X148687715Y-96531613D01*
X148808028Y-96697213D01*
X148952786Y-96841971D01*
X149107749Y-96954556D01*
X149118390Y-96962287D01*
X149229332Y-97018815D01*
X149300776Y-97055218D01*
X149300778Y-97055218D01*
X149300781Y-97055220D01*
X149405137Y-97089127D01*
X149495465Y-97118477D01*
X149596557Y-97134488D01*
X149697648Y-97150500D01*
X149697649Y-97150500D01*
X149902351Y-97150500D01*
X149902352Y-97150500D01*
X150104534Y-97118477D01*
X150299219Y-97055220D01*
X150481610Y-96962287D01*
X150624868Y-96858205D01*
X150647213Y-96841971D01*
X150647215Y-96841968D01*
X150647219Y-96841966D01*
X150791966Y-96697219D01*
X150791968Y-96697215D01*
X150791971Y-96697213D01*
X150844732Y-96624590D01*
X150912287Y-96531610D01*
X151005220Y-96349219D01*
X151068477Y-96154534D01*
X151100500Y-95952352D01*
X151100500Y-95747648D01*
X151068477Y-95545466D01*
X151059679Y-95518390D01*
X151005871Y-95352786D01*
X151005220Y-95350781D01*
X151005218Y-95350778D01*
X151005218Y-95350776D01*
X150954124Y-95250500D01*
X150912287Y-95168390D01*
X150902717Y-95155218D01*
X150791971Y-95002786D01*
X150647213Y-94858028D01*
X150481613Y-94737715D01*
X150481612Y-94737714D01*
X150481610Y-94737713D01*
X150424653Y-94708691D01*
X150299223Y-94644781D01*
X150104534Y-94581522D01*
X149905622Y-94550018D01*
X149902352Y-94549500D01*
X149697648Y-94549500D01*
X149694378Y-94550018D01*
X149495465Y-94581522D01*
X149300776Y-94644781D01*
X149118386Y-94737715D01*
X148952786Y-94858028D01*
X148808028Y-95002786D01*
X148687713Y-95168388D01*
X148660484Y-95221828D01*
X148612510Y-95272623D01*
X148544688Y-95289418D01*
X148478554Y-95266880D01*
X148439516Y-95221828D01*
X148412286Y-95168388D01*
X148291971Y-95002786D01*
X148147213Y-94858028D01*
X147981613Y-94737715D01*
X147981612Y-94737714D01*
X147981610Y-94737713D01*
X147924653Y-94708691D01*
X147799223Y-94644781D01*
X147604534Y-94581522D01*
X147405622Y-94550018D01*
X147402352Y-94549500D01*
X147197648Y-94549500D01*
X147194378Y-94550018D01*
X146995465Y-94581522D01*
X146800776Y-94644781D01*
X146618386Y-94737715D01*
X146452786Y-94858028D01*
X146308028Y-95002786D01*
X146187715Y-95168386D01*
X146094781Y-95350776D01*
X146031522Y-95545465D01*
X145999500Y-95747648D01*
X143750500Y-95747648D01*
X143750500Y-91697648D01*
X145999500Y-91697648D01*
X145999500Y-91902351D01*
X146031522Y-92104534D01*
X146094781Y-92299223D01*
X146140259Y-92388477D01*
X146174042Y-92454780D01*
X146187715Y-92481613D01*
X146308028Y-92647213D01*
X146452786Y-92791971D01*
X146607749Y-92904556D01*
X146618390Y-92912287D01*
X146734607Y-92971503D01*
X146800776Y-93005218D01*
X146800778Y-93005218D01*
X146800781Y-93005220D01*
X146905137Y-93039127D01*
X146995465Y-93068477D01*
X147096557Y-93084488D01*
X147197648Y-93100500D01*
X147197649Y-93100500D01*
X147402351Y-93100500D01*
X147402352Y-93100500D01*
X147604534Y-93068477D01*
X147799219Y-93005220D01*
X147981610Y-92912287D01*
X148084255Y-92837712D01*
X148147213Y-92791971D01*
X148147215Y-92791968D01*
X148147219Y-92791966D01*
X148291966Y-92647219D01*
X148291968Y-92647215D01*
X148291971Y-92647213D01*
X148376024Y-92531522D01*
X148412287Y-92481610D01*
X148439515Y-92428171D01*
X148487490Y-92377376D01*
X148555311Y-92360581D01*
X148621446Y-92383118D01*
X148660484Y-92428171D01*
X148674042Y-92454780D01*
X148687715Y-92481613D01*
X148808028Y-92647213D01*
X148952786Y-92791971D01*
X149107749Y-92904556D01*
X149118390Y-92912287D01*
X149234607Y-92971503D01*
X149300776Y-93005218D01*
X149300778Y-93005218D01*
X149300781Y-93005220D01*
X149405137Y-93039127D01*
X149495465Y-93068477D01*
X149596557Y-93084488D01*
X149697648Y-93100500D01*
X149697649Y-93100500D01*
X149902351Y-93100500D01*
X149902352Y-93100500D01*
X150104534Y-93068477D01*
X150299219Y-93005220D01*
X150481610Y-92912287D01*
X150584255Y-92837712D01*
X150647213Y-92791971D01*
X150647215Y-92791968D01*
X150647219Y-92791966D01*
X150791966Y-92647219D01*
X150791968Y-92647215D01*
X150791971Y-92647213D01*
X150876024Y-92531522D01*
X150912287Y-92481610D01*
X151005220Y-92299219D01*
X151068477Y-92104534D01*
X151100500Y-91902352D01*
X151100500Y-91697648D01*
X151068477Y-91495465D01*
X151011296Y-91319481D01*
X151005220Y-91300781D01*
X151005218Y-91300778D01*
X151005218Y-91300776D01*
X150962470Y-91216880D01*
X150912287Y-91118390D01*
X150881126Y-91075500D01*
X150791971Y-90952786D01*
X150647213Y-90808028D01*
X150481613Y-90687715D01*
X150481612Y-90687714D01*
X150481610Y-90687713D01*
X150424653Y-90658691D01*
X150299223Y-90594781D01*
X150104534Y-90531522D01*
X149929995Y-90503878D01*
X149902352Y-90499500D01*
X149697648Y-90499500D01*
X149673329Y-90503351D01*
X149495465Y-90531522D01*
X149300776Y-90594781D01*
X149118386Y-90687715D01*
X148952786Y-90808028D01*
X148808028Y-90952786D01*
X148687713Y-91118388D01*
X148660484Y-91171828D01*
X148612510Y-91222623D01*
X148544688Y-91239418D01*
X148478554Y-91216880D01*
X148439516Y-91171828D01*
X148412286Y-91118388D01*
X148291971Y-90952786D01*
X148147213Y-90808028D01*
X147981613Y-90687715D01*
X147981612Y-90687714D01*
X147981610Y-90687713D01*
X147924653Y-90658691D01*
X147799223Y-90594781D01*
X147604534Y-90531522D01*
X147429995Y-90503878D01*
X147402352Y-90499500D01*
X147197648Y-90499500D01*
X147173329Y-90503351D01*
X146995465Y-90531522D01*
X146800776Y-90594781D01*
X146618386Y-90687715D01*
X146452786Y-90808028D01*
X146308028Y-90952786D01*
X146187715Y-91118386D01*
X146094781Y-91300776D01*
X146031522Y-91495465D01*
X145999500Y-91697648D01*
X143750500Y-91697648D01*
X143750500Y-83818872D01*
X145519500Y-83818872D01*
X145519500Y-84081127D01*
X145546123Y-84283339D01*
X145553730Y-84341116D01*
X145621602Y-84594418D01*
X145621605Y-84594428D01*
X145721953Y-84836690D01*
X145721958Y-84836700D01*
X145853075Y-85063803D01*
X146012718Y-85271851D01*
X146012726Y-85271860D01*
X146198140Y-85457274D01*
X146198148Y-85457281D01*
X146406196Y-85616924D01*
X146633299Y-85748041D01*
X146633309Y-85748046D01*
X146828378Y-85828846D01*
X146875581Y-85848398D01*
X147128884Y-85916270D01*
X147388880Y-85950500D01*
X147388887Y-85950500D01*
X147651113Y-85950500D01*
X147651120Y-85950500D01*
X147911116Y-85916270D01*
X148164419Y-85848398D01*
X148406697Y-85748043D01*
X148633803Y-85616924D01*
X148841851Y-85457282D01*
X148841855Y-85457277D01*
X148841860Y-85457274D01*
X149027274Y-85271860D01*
X149027277Y-85271855D01*
X149027282Y-85271851D01*
X149186924Y-85063803D01*
X149318043Y-84836697D01*
X149418398Y-84594419D01*
X149486270Y-84341116D01*
X149520500Y-84081120D01*
X149520500Y-83818880D01*
X149486270Y-83558884D01*
X149418398Y-83305581D01*
X149369886Y-83188462D01*
X149318046Y-83063309D01*
X149318041Y-83063299D01*
X149186924Y-82836196D01*
X149027281Y-82628148D01*
X149027274Y-82628140D01*
X148841860Y-82442726D01*
X148841851Y-82442718D01*
X148633803Y-82283075D01*
X148406700Y-82151958D01*
X148406690Y-82151953D01*
X148164428Y-82051605D01*
X148164421Y-82051603D01*
X148164419Y-82051602D01*
X147911116Y-81983730D01*
X147853339Y-81976123D01*
X147651127Y-81949500D01*
X147651120Y-81949500D01*
X147388880Y-81949500D01*
X147388872Y-81949500D01*
X147157772Y-81979926D01*
X147128884Y-81983730D01*
X146875581Y-82051602D01*
X146875571Y-82051605D01*
X146633309Y-82151953D01*
X146633299Y-82151958D01*
X146406196Y-82283075D01*
X146198148Y-82442718D01*
X146012718Y-82628148D01*
X145853075Y-82836196D01*
X145721958Y-83063299D01*
X145721953Y-83063309D01*
X145621605Y-83305571D01*
X145621602Y-83305581D01*
X145553730Y-83558885D01*
X145519500Y-83818872D01*
X143750500Y-83818872D01*
X143750500Y-71024500D01*
X143770185Y-70957461D01*
X143822989Y-70911706D01*
X143874500Y-70900500D01*
X154730902Y-70900500D01*
X154797941Y-70920185D01*
G37*
%TD.AperFunction*%
M02*
