%TF.GenerationSoftware,KiCad,Pcbnew,9.0.7*%
%TF.CreationDate,2026-03-11T21:29:40+06:00*%
%TF.ProjectId,Tranceiver_101_PCB,5472616e-6365-4697-9665-725f3130315f,rev?*%
%TF.SameCoordinates,Original*%
%TF.FileFunction,Copper,L2,Bot*%
%TF.FilePolarity,Positive*%
%FSLAX46Y46*%
G04 Gerber Fmt 4.6, Leading zero omitted, Abs format (unit mm)*
G04 Created by KiCad (PCBNEW 9.0.7) date 2026-03-11 21:29:40*
%MOMM*%
%LPD*%
G01*
G04 APERTURE LIST*
G04 Aperture macros list*
%AMRoundRect*
0 Rectangle with rounded corners*
0 $1 Rounding radius*
0 $2 $3 $4 $5 $6 $7 $8 $9 X,Y pos of 4 corners*
0 Add a 4 corners polygon primitive as box body*
4,1,4,$2,$3,$4,$5,$6,$7,$8,$9,$2,$3,0*
0 Add four circle primitives for the rounded corners*
1,1,$1+$1,$2,$3*
1,1,$1+$1,$4,$5*
1,1,$1+$1,$6,$7*
1,1,$1+$1,$8,$9*
0 Add four rect primitives between the rounded corners*
20,1,$1+$1,$2,$3,$4,$5,0*
20,1,$1+$1,$4,$5,$6,$7,0*
20,1,$1+$1,$6,$7,$8,$9,0*
20,1,$1+$1,$8,$9,$2,$3,0*%
G04 Aperture macros list end*
%TA.AperFunction,ComponentPad*%
%ADD10O,3.620000X1.810000*%
%TD*%
%TA.AperFunction,ComponentPad*%
%ADD11C,1.778000*%
%TD*%
%TA.AperFunction,ComponentPad*%
%ADD12C,2.286000*%
%TD*%
%TA.AperFunction,ComponentPad*%
%ADD13R,1.700000X1.700000*%
%TD*%
%TA.AperFunction,ComponentPad*%
%ADD14C,1.700000*%
%TD*%
%TA.AperFunction,ComponentPad*%
%ADD15R,1.600000X1.600000*%
%TD*%
%TA.AperFunction,ComponentPad*%
%ADD16O,1.600000X1.600000*%
%TD*%
%TA.AperFunction,ComponentPad*%
%ADD17RoundRect,0.250000X0.550000X0.550000X-0.550000X0.550000X-0.550000X-0.550000X0.550000X-0.550000X0*%
%TD*%
%TA.AperFunction,ComponentPad*%
%ADD18C,1.600000*%
%TD*%
%TA.AperFunction,ComponentPad*%
%ADD19R,2.000000X1.905000*%
%TD*%
%TA.AperFunction,ComponentPad*%
%ADD20O,2.000000X1.905000*%
%TD*%
%TA.AperFunction,ViaPad*%
%ADD21C,0.600000*%
%TD*%
%TA.AperFunction,Conductor*%
%ADD22C,0.200000*%
%TD*%
G04 APERTURE END LIST*
D10*
%TO.P,S1,1*%
%TO.N,Net-(A1-VIN)*%
X118552500Y-70150000D03*
%TO.P,S1,2*%
%TO.N,Net-(BATT+1-Pin_1)*%
X118552500Y-65450000D03*
%TO.P,S1,3*%
%TO.N,unconnected-(S1-Pad3)*%
X118552500Y-60750000D03*
%TD*%
D11*
%TO.P,U2,B1A,SEL+*%
%TO.N,SEL+l*%
X115205000Y-76150000D03*
%TO.P,U2,B1B*%
%TO.N,N/C*%
X121555000Y-76150000D03*
%TO.P,U2,B2A,SEL-*%
%TO.N,GND*%
X115205000Y-81230000D03*
%TO.P,U2,B2B*%
%TO.N,N/C*%
X121555000Y-81230000D03*
%TO.P,U2,H1,H+*%
%TO.N,+5V*%
X115840000Y-99010000D03*
%TO.P,U2,H2,H*%
%TO.N,Hl*%
X118380000Y-99010000D03*
%TO.P,U2,H3,H-*%
%TO.N,GND*%
X120920000Y-99010000D03*
D12*
%TO.P,U2,S1,SHIELD*%
X110760000Y-82182500D03*
%TO.P,U2,S2,SHIELD*%
X110760000Y-95517500D03*
%TO.P,U2,S3,SHIELD*%
X126000000Y-95517500D03*
%TO.P,U2,S4,SHIELD*%
X126000000Y-82182500D03*
D11*
%TO.P,U2,V1,V+*%
%TO.N,+5V*%
X108220000Y-86310000D03*
%TO.P,U2,V2,V*%
%TO.N,Vl*%
X108220000Y-88850000D03*
%TO.P,U2,V3,V-*%
%TO.N,GND*%
X108220000Y-91390000D03*
%TD*%
D13*
%TO.P,U5,1,GND*%
%TO.N,GND*%
X146425000Y-62789500D03*
D14*
%TO.P,U5,2,VCC*%
%TO.N,+3V3*%
X146425000Y-60249500D03*
%TO.P,U5,3,CE*%
%TO.N,CE*%
X148965000Y-62789500D03*
%TO.P,U5,4,~{CSN}*%
%TO.N,CSN*%
X148965000Y-60249500D03*
%TO.P,U5,5,SCK*%
%TO.N,SCK*%
X151505000Y-62789500D03*
%TO.P,U5,6,MOSI*%
%TO.N,MOSI*%
X151505000Y-60249500D03*
%TO.P,U5,7,MISO*%
%TO.N,MISO*%
X154045000Y-62789500D03*
%TO.P,U5,8,IRQ*%
%TO.N,unconnected-(U5-IRQ-Pad8)*%
X154045000Y-60249500D03*
%TD*%
D15*
%TO.P,A1,1,D1/TX*%
%TO.N,unconnected-(A1-D1{slash}TX-Pad1)*%
X142123021Y-69850000D03*
D16*
%TO.P,A1,2,D0/RX*%
%TO.N,unconnected-(A1-D0{slash}RX-Pad2)*%
X142123021Y-72390000D03*
%TO.P,A1,3,~{RESET}*%
%TO.N,unconnected-(A1-~{RESET}-Pad3)*%
X142123021Y-74930000D03*
%TO.P,A1,4,GND*%
%TO.N,GND*%
X142123021Y-77470000D03*
%TO.P,A1,5,D2*%
%TO.N,unconnected-(A1-D2-Pad5)*%
X142123021Y-80010000D03*
%TO.P,A1,6,D3*%
%TO.N,SEL+r*%
X142123021Y-82550000D03*
%TO.P,A1,7,D4*%
%TO.N,SEL+l*%
X142123021Y-85090000D03*
%TO.P,A1,8,D5*%
%TO.N,unconnected-(A1-D5-Pad8)*%
X142123021Y-87630000D03*
%TO.P,A1,9,D6*%
%TO.N,unconnected-(A1-D6-Pad9)*%
X142123021Y-90170000D03*
%TO.P,A1,10,D7*%
%TO.N,unconnected-(A1-D7-Pad10)*%
X142123021Y-92710000D03*
%TO.P,A1,11,D8*%
%TO.N,unconnected-(A1-D8-Pad11)*%
X142123021Y-95250000D03*
%TO.P,A1,12,D9*%
%TO.N,CE*%
X142123021Y-97790000D03*
%TO.P,A1,13,D10*%
%TO.N,CSN*%
X142123021Y-100330000D03*
%TO.P,A1,14,D11*%
%TO.N,MOSI*%
X142123021Y-102870000D03*
%TO.P,A1,15,D12*%
%TO.N,MISO*%
X142123021Y-105410000D03*
%TO.P,A1,16,D13*%
%TO.N,SCK*%
X157363021Y-105410000D03*
%TO.P,A1,17,3V3*%
%TO.N,+3V3*%
X157363021Y-102870000D03*
%TO.P,A1,18,AREF*%
%TO.N,unconnected-(A1-AREF-Pad18)*%
X157363021Y-100330000D03*
%TO.P,A1,19,A0*%
%TO.N,Vr*%
X157363021Y-97790000D03*
%TO.P,A1,20,A1*%
%TO.N,Hr*%
X157363021Y-95250000D03*
%TO.P,A1,21,A2*%
%TO.N,Vl*%
X157363021Y-92710000D03*
%TO.P,A1,22,A3*%
%TO.N,Hl*%
X157363021Y-90170000D03*
%TO.P,A1,23,A4*%
%TO.N,unconnected-(A1-A4-Pad23)*%
X157363021Y-87630000D03*
%TO.P,A1,24,A5*%
%TO.N,unconnected-(A1-A5-Pad24)*%
X157363021Y-85090000D03*
%TO.P,A1,25,A6*%
%TO.N,unconnected-(A1-A6-Pad25)*%
X157363021Y-82550000D03*
%TO.P,A1,26,A7*%
%TO.N,unconnected-(A1-A7-Pad26)*%
X157363021Y-80010000D03*
%TO.P,A1,27,+5V*%
%TO.N,+5V*%
X157363021Y-77470000D03*
%TO.P,A1,28,~{RESET}*%
%TO.N,unconnected-(A1-~{RESET}-Pad28)*%
X157363021Y-74930000D03*
%TO.P,A1,29,GND*%
%TO.N,GND*%
X157363021Y-72390000D03*
%TO.P,A1,30,VIN*%
%TO.N,Net-(A1-VIN)*%
X157363021Y-69850000D03*
%TD*%
D11*
%TO.P,U3,B1A,SEL+*%
%TO.N,SEL+r*%
X175275000Y-76100000D03*
%TO.P,U3,B1B*%
%TO.N,N/C*%
X181625000Y-76100000D03*
%TO.P,U3,B2A,SEL-*%
%TO.N,GND*%
X175275000Y-81180000D03*
%TO.P,U3,B2B*%
%TO.N,N/C*%
X181625000Y-81180000D03*
%TO.P,U3,H1,H+*%
%TO.N,+5V*%
X175910000Y-98960000D03*
%TO.P,U3,H2,H*%
%TO.N,Hr*%
X178450000Y-98960000D03*
%TO.P,U3,H3,H-*%
%TO.N,GND*%
X180990000Y-98960000D03*
D12*
%TO.P,U3,S1,SHIELD*%
X170830000Y-82132500D03*
%TO.P,U3,S2,SHIELD*%
X170830000Y-95467500D03*
%TO.P,U3,S3,SHIELD*%
X186070000Y-95467500D03*
%TO.P,U3,S4,SHIELD*%
X186070000Y-82132500D03*
D11*
%TO.P,U3,V1,V+*%
%TO.N,+5V*%
X168290000Y-86260000D03*
%TO.P,U3,V2,V*%
%TO.N,Vr*%
X168290000Y-88800000D03*
%TO.P,U3,V3,V-*%
%TO.N,unconnected-(U3-V--PadV3)*%
X168290000Y-91340000D03*
%TD*%
D13*
%TO.P,BATT+1,1,Pin_1*%
%TO.N,Net-(BATT+1-Pin_1)*%
X180659888Y-121250000D03*
D14*
%TO.P,BATT+1,2,Pin_2*%
%TO.N,GND*%
X178119888Y-121250000D03*
%TD*%
D17*
%TO.P,C1,1*%
%TO.N,+3V3*%
X146452651Y-121550000D03*
D18*
%TO.P,C1,2*%
%TO.N,GND*%
X142952651Y-121550000D03*
%TD*%
D17*
%TO.P,C2,1*%
%TO.N,Net-(A1-VIN)*%
X156450000Y-121550000D03*
D18*
%TO.P,C2,2*%
%TO.N,GND*%
X154450000Y-121550000D03*
%TD*%
D19*
%TO.P,U4,1,GND*%
%TO.N,GND*%
X117820000Y-124090000D03*
D20*
%TO.P,U4,2,VO*%
%TO.N,+3V3*%
X117820000Y-121550000D03*
%TO.P,U4,3,VI*%
%TO.N,Net-(A1-VIN)*%
X117820000Y-119010000D03*
%TD*%
D18*
%TO.P,C4,1*%
%TO.N,Net-(A1-VIN)*%
X163194888Y-122150000D03*
%TO.P,C4,2*%
%TO.N,GND*%
X163194888Y-119650000D03*
%TD*%
%TO.P,C3,1*%
%TO.N,+3V3*%
X167244888Y-122150000D03*
%TO.P,C3,2*%
%TO.N,GND*%
X167244888Y-119650000D03*
%TD*%
D21*
%TO.N,GND*%
X134400000Y-78150000D03*
%TO.N,MISO*%
X136750000Y-79750000D03*
X136850000Y-75700000D03*
X135600735Y-78400735D03*
X137550000Y-92700000D03*
%TO.N,Net-(A1-VIN)*%
X153950000Y-117400000D03*
%TO.N,CSN*%
X150800001Y-64612699D03*
X151150000Y-75500000D03*
X146800000Y-93473500D03*
X151709300Y-91571646D03*
%TO.N,Vr*%
X163650000Y-95900000D03*
%TO.N,+3V3*%
X151950000Y-98050000D03*
X148899265Y-65000000D03*
X144750000Y-82600000D03*
X147250000Y-75150000D03*
X151500000Y-93473500D03*
X150800000Y-82700000D03*
X150700000Y-91650000D03*
%TO.N,MOSI*%
X135700000Y-93473500D03*
X132150735Y-81850735D03*
X134150000Y-88000000D03*
X136550000Y-102700000D03*
X132900000Y-79500000D03*
%TO.N,SCK*%
X151500000Y-65000000D03*
X152550000Y-93473500D03*
X152500000Y-91450000D03*
X152100000Y-72300000D03*
%TO.N,+5V*%
X163250000Y-81100000D03*
X172300000Y-87400000D03*
%TO.N,Hr*%
X165150000Y-95900000D03*
%TO.N,CE*%
X145200000Y-92500000D03*
X150100000Y-65000000D03*
X148500000Y-74950000D03*
X145950000Y-90300000D03*
%TD*%
D22*
%TO.N,GND*%
X151350000Y-124650000D02*
X146052651Y-124650000D01*
X134800000Y-78150000D02*
X135480000Y-77470000D01*
X170830000Y-82132500D02*
X170830000Y-81280000D01*
X155150000Y-65600000D02*
X148400000Y-65600000D01*
X163194888Y-119650000D02*
X156350000Y-119650000D01*
X183927500Y-79990000D02*
X186070000Y-82132500D01*
X176968888Y-122401000D02*
X178119888Y-121250000D01*
X135480000Y-77470000D02*
X142123021Y-77470000D01*
X140412651Y-124090000D02*
X117820000Y-124090000D01*
X169995888Y-122401000D02*
X176968888Y-122401000D01*
X146425000Y-73168021D02*
X146425000Y-62789500D01*
X170830000Y-81280000D02*
X155150000Y-65600000D01*
X174322500Y-82132500D02*
X175275000Y-81180000D01*
X175275000Y-81180000D02*
X176465000Y-79990000D01*
X148250000Y-65600000D02*
X146425000Y-63775000D01*
X146052651Y-124650000D02*
X142952651Y-121550000D01*
X148400000Y-65600000D02*
X148250000Y-65600000D01*
X134400000Y-78150000D02*
X134800000Y-78150000D01*
X167244888Y-119650000D02*
X163194888Y-119650000D01*
X146425000Y-63775000D02*
X146425000Y-62789500D01*
X169995888Y-122401000D02*
X167244888Y-119650000D01*
X154450000Y-121550000D02*
X151350000Y-124650000D01*
X142123021Y-77470000D02*
X146425000Y-73168021D01*
X156350000Y-119650000D02*
X154450000Y-121550000D01*
X176465000Y-79990000D02*
X183927500Y-79990000D01*
X142952651Y-121550000D02*
X140412651Y-124090000D01*
X170830000Y-82132500D02*
X174322500Y-82132500D01*
X157363021Y-72390000D02*
X155190000Y-72390000D01*
X155190000Y-72390000D02*
X148400000Y-65600000D01*
%TO.N,MISO*%
X157350000Y-57800000D02*
X143600000Y-57800000D01*
X157350000Y-59484500D02*
X157350000Y-57800000D01*
X135600735Y-78600735D02*
X136750000Y-79750000D01*
X154045000Y-62789500D02*
X157350000Y-59484500D01*
X137550000Y-92700000D02*
X137550000Y-102000000D01*
X137550000Y-102000000D02*
X140960000Y-105410000D01*
X135600735Y-78400735D02*
X135600735Y-78600735D01*
X143600000Y-57800000D02*
X139250000Y-62150000D01*
X139250000Y-73300000D02*
X136850000Y-75700000D01*
X140960000Y-105410000D02*
X142123021Y-105410000D01*
X139250000Y-62150000D02*
X139250000Y-73300000D01*
%TO.N,Net-(A1-VIN)*%
X153894888Y-113455112D02*
X161750000Y-105600000D01*
X158750000Y-69850000D02*
X157363021Y-69850000D01*
X161750000Y-105600000D02*
X161750000Y-72800000D01*
X161750000Y-72800000D02*
X161700000Y-72800000D01*
X153894888Y-113455112D02*
X153950000Y-113510224D01*
X153950000Y-113510224D02*
X153950000Y-117400000D01*
X161700000Y-72800000D02*
X158750000Y-69850000D01*
%TO.N,CSN*%
X150116000Y-61400500D02*
X150116000Y-63266260D01*
X151751000Y-91529946D02*
X151709300Y-91571646D01*
X146800000Y-93473500D02*
X146800000Y-95653021D01*
X148965000Y-60249500D02*
X150116000Y-61400500D01*
X151150000Y-75500000D02*
X151751000Y-76101000D01*
X150116000Y-63266260D02*
X150800001Y-63950261D01*
X150800001Y-63950261D02*
X150800001Y-64612699D01*
X146800000Y-95653021D02*
X142123021Y-100330000D01*
X151751000Y-76101000D02*
X151751000Y-91529946D01*
%TO.N,Vr*%
X163650000Y-95900000D02*
X163650000Y-93440000D01*
X163650000Y-93440000D02*
X168290000Y-88800000D01*
%TO.N,+3V3*%
X150800000Y-82700000D02*
X150700000Y-82800000D01*
X151500000Y-93473500D02*
X151500000Y-97600000D01*
X151500000Y-97600000D02*
X151950000Y-98050000D01*
X147250000Y-75150000D02*
X144750000Y-77650000D01*
X144750000Y-77650000D02*
X144750000Y-82600000D01*
X148850000Y-64950735D02*
X148899265Y-65000000D01*
X144351651Y-119449000D02*
X119921000Y-119449000D01*
X146452651Y-121550000D02*
X144351651Y-119449000D01*
X119921000Y-119449000D02*
X117820000Y-121550000D01*
X148850000Y-64900000D02*
X148850000Y-64950735D01*
X147814000Y-63864000D02*
X148850000Y-64900000D01*
X150700000Y-82800000D02*
X150700000Y-91650000D01*
X147814000Y-61638500D02*
X147814000Y-63864000D01*
X146425000Y-60249500D02*
X147814000Y-61638500D01*
%TO.N,SEL+l*%
X115205000Y-76150000D02*
X119872085Y-76150000D01*
X137383021Y-80350000D02*
X142123021Y-85090000D01*
X119872085Y-76150000D02*
X124072085Y-80350000D01*
X124072085Y-80350000D02*
X137383021Y-80350000D01*
%TO.N,MOSI*%
X143850000Y-58800000D02*
X141022021Y-61627979D01*
X134150000Y-83850000D02*
X134150000Y-88000000D01*
X151505000Y-60249500D02*
X150055500Y-58800000D01*
X135700000Y-93473500D02*
X135700000Y-101850000D01*
X132150735Y-81850735D02*
X134150000Y-83850000D01*
X150055500Y-58800000D02*
X143850000Y-58800000D01*
X135399057Y-76301000D02*
X132900000Y-78800057D01*
X132900000Y-78800057D02*
X132900000Y-79500000D01*
X141022021Y-72377922D02*
X137098943Y-76301000D01*
X141022021Y-61627979D02*
X141022021Y-72377922D01*
X135700000Y-101850000D02*
X136550000Y-102700000D01*
X137098943Y-76301000D02*
X135399057Y-76301000D01*
%TO.N,SCK*%
X152550000Y-100596979D02*
X157363021Y-105410000D01*
X152100000Y-72300000D02*
X152500000Y-72700000D01*
X151505000Y-62789500D02*
X151505000Y-64995000D01*
X152500000Y-72700000D02*
X152500000Y-91450000D01*
X151505000Y-64995000D02*
X151500000Y-65000000D01*
X152550000Y-93473500D02*
X152550000Y-100596979D01*
%TO.N,+5V*%
X172300000Y-87400000D02*
X169550000Y-87400000D01*
X169550000Y-87400000D02*
X163250000Y-81100000D01*
%TO.N,Hr*%
X177260000Y-97770000D02*
X167020000Y-97770000D01*
X178450000Y-98960000D02*
X177260000Y-97770000D01*
X167020000Y-97770000D02*
X165150000Y-95900000D01*
%TO.N,CE*%
X148500000Y-74950000D02*
X145950000Y-77500000D01*
X145200000Y-94713021D02*
X142123021Y-97790000D01*
X145200000Y-92500000D02*
X145200000Y-94713021D01*
X150100000Y-63924500D02*
X150100000Y-65000000D01*
X145950000Y-77500000D02*
X145950000Y-90300000D01*
X148965000Y-62789500D02*
X150100000Y-63924500D01*
%TO.N,Vl*%
X108220000Y-88850000D02*
X143000000Y-88850000D01*
X143000000Y-88850000D02*
X146860000Y-92710000D01*
X146860000Y-92710000D02*
X157363021Y-92710000D01*
%TD*%
%TA.AperFunction,NonConductor*%
G36*
X201042539Y-56020185D02*
G01*
X201088294Y-56072989D01*
X201099500Y-56124500D01*
X201099500Y-127375500D01*
X201079815Y-127442539D01*
X201027011Y-127488294D01*
X200975500Y-127499500D01*
X95724500Y-127499500D01*
X95657461Y-127479815D01*
X95611706Y-127427011D01*
X95600500Y-127375500D01*
X95600500Y-118895646D01*
X116319500Y-118895646D01*
X116319500Y-119124354D01*
X116333786Y-119214549D01*
X116355278Y-119350246D01*
X116355278Y-119350249D01*
X116425950Y-119567755D01*
X116425952Y-119567758D01*
X116529783Y-119771538D01*
X116664214Y-119956566D01*
X116825934Y-120118286D01*
X116872826Y-120152355D01*
X116910438Y-120179682D01*
X116953103Y-120235013D01*
X116959082Y-120304626D01*
X116926476Y-120366421D01*
X116910438Y-120380318D01*
X116825932Y-120441715D01*
X116664216Y-120603431D01*
X116664216Y-120603432D01*
X116664214Y-120603434D01*
X116620717Y-120663303D01*
X116529783Y-120788461D01*
X116425950Y-120992244D01*
X116355278Y-121209750D01*
X116355278Y-121209753D01*
X116322155Y-121418886D01*
X116319500Y-121435646D01*
X116319500Y-121664354D01*
X116335311Y-121764180D01*
X116355278Y-121890246D01*
X116355278Y-121890249D01*
X116425950Y-122107755D01*
X116476764Y-122207482D01*
X116529783Y-122311538D01*
X116662525Y-122494242D01*
X116686005Y-122560046D01*
X116670180Y-122628100D01*
X116620074Y-122676795D01*
X116605541Y-122683308D01*
X116577670Y-122693703D01*
X116577664Y-122693706D01*
X116462455Y-122779952D01*
X116462452Y-122779955D01*
X116376206Y-122895164D01*
X116376202Y-122895171D01*
X116325908Y-123030017D01*
X116319501Y-123089616D01*
X116319501Y-123089623D01*
X116319500Y-123089635D01*
X116319500Y-125090370D01*
X116319501Y-125090376D01*
X116325908Y-125149983D01*
X116376202Y-125284828D01*
X116376206Y-125284835D01*
X116462452Y-125400044D01*
X116462455Y-125400047D01*
X116577664Y-125486293D01*
X116577671Y-125486297D01*
X116712517Y-125536591D01*
X116712516Y-125536591D01*
X116719444Y-125537335D01*
X116772127Y-125543000D01*
X118867872Y-125542999D01*
X118927483Y-125536591D01*
X119062331Y-125486296D01*
X119177546Y-125400046D01*
X119263796Y-125284831D01*
X119314091Y-125149983D01*
X119320500Y-125090373D01*
X119320500Y-124814500D01*
X119340185Y-124747461D01*
X119392989Y-124701706D01*
X119444500Y-124690500D01*
X140325982Y-124690500D01*
X140325998Y-124690501D01*
X140333594Y-124690501D01*
X140491705Y-124690501D01*
X140491708Y-124690501D01*
X140644436Y-124649577D01*
X140694555Y-124620639D01*
X140781367Y-124570520D01*
X140893171Y-124458716D01*
X140893171Y-124458714D01*
X140903379Y-124448507D01*
X140903381Y-124448504D01*
X142507809Y-122844075D01*
X142569130Y-122810592D01*
X142633802Y-122813825D01*
X142648117Y-122818477D01*
X142850299Y-122850500D01*
X142850300Y-122850500D01*
X143055002Y-122850500D01*
X143055003Y-122850500D01*
X143257185Y-122818477D01*
X143271493Y-122813827D01*
X143341333Y-122811831D01*
X143397493Y-122844077D01*
X145567790Y-125014374D01*
X145567800Y-125014385D01*
X145572130Y-125018715D01*
X145572131Y-125018716D01*
X145683935Y-125130520D01*
X145717647Y-125149983D01*
X145770746Y-125180639D01*
X145770748Y-125180641D01*
X145808802Y-125202611D01*
X145820866Y-125209577D01*
X145973594Y-125250501D01*
X145973597Y-125250501D01*
X146139304Y-125250501D01*
X146139320Y-125250500D01*
X151263331Y-125250500D01*
X151263347Y-125250501D01*
X151270943Y-125250501D01*
X151429054Y-125250501D01*
X151429057Y-125250501D01*
X151581785Y-125209577D01*
X151631904Y-125180639D01*
X151718716Y-125130520D01*
X151830520Y-125018716D01*
X151830520Y-125018714D01*
X151840728Y-125008507D01*
X151840730Y-125008504D01*
X154005158Y-122844075D01*
X154066479Y-122810592D01*
X154131151Y-122813825D01*
X154145466Y-122818477D01*
X154347648Y-122850500D01*
X154347649Y-122850500D01*
X154552351Y-122850500D01*
X154552352Y-122850500D01*
X154754534Y-122818477D01*
X154949219Y-122755220D01*
X155131610Y-122662287D01*
X155201913Y-122611208D01*
X155267717Y-122587729D01*
X155335771Y-122603554D01*
X155362478Y-122623846D01*
X155431344Y-122692712D01*
X155580666Y-122784814D01*
X155747203Y-122839999D01*
X155849991Y-122850500D01*
X157050008Y-122850499D01*
X157152797Y-122839999D01*
X157319334Y-122784814D01*
X157468656Y-122692712D01*
X157592712Y-122568656D01*
X157684814Y-122419334D01*
X157739999Y-122252797D01*
X157750500Y-122150009D01*
X157750499Y-120949992D01*
X157739999Y-120847203D01*
X157684814Y-120680666D01*
X157592712Y-120531344D01*
X157523549Y-120462181D01*
X157490064Y-120400858D01*
X157495048Y-120331166D01*
X157536920Y-120275233D01*
X157602384Y-120250816D01*
X157611230Y-120250500D01*
X161965286Y-120250500D01*
X162032325Y-120270185D01*
X162075771Y-120318205D01*
X162082603Y-120331614D01*
X162202916Y-120497213D01*
X162347674Y-120641971D01*
X162513276Y-120762286D01*
X162566716Y-120789516D01*
X162617511Y-120837490D01*
X162634306Y-120905312D01*
X162611768Y-120971446D01*
X162566716Y-121010484D01*
X162513276Y-121037713D01*
X162347674Y-121158028D01*
X162202916Y-121302786D01*
X162082603Y-121468386D01*
X161989669Y-121650776D01*
X161926410Y-121845465D01*
X161896857Y-122032059D01*
X161894388Y-122047648D01*
X161894388Y-122252352D01*
X161894459Y-122252799D01*
X161926410Y-122454534D01*
X161989669Y-122649223D01*
X162045863Y-122759507D01*
X162075909Y-122818477D01*
X162082603Y-122831613D01*
X162202916Y-122997213D01*
X162347674Y-123141971D01*
X162502637Y-123254556D01*
X162513278Y-123262287D01*
X162629495Y-123321503D01*
X162695664Y-123355218D01*
X162695666Y-123355218D01*
X162695669Y-123355220D01*
X162800025Y-123389127D01*
X162890353Y-123418477D01*
X162991445Y-123434488D01*
X163092536Y-123450500D01*
X163092537Y-123450500D01*
X163297239Y-123450500D01*
X163297240Y-123450500D01*
X163499422Y-123418477D01*
X163694107Y-123355220D01*
X163876498Y-123262287D01*
X163969478Y-123194732D01*
X164042101Y-123141971D01*
X164042103Y-123141968D01*
X164042107Y-123141966D01*
X164186854Y-122997219D01*
X164186856Y-122997215D01*
X164186859Y-122997213D01*
X164239620Y-122924590D01*
X164307175Y-122831610D01*
X164400108Y-122649219D01*
X164463365Y-122454534D01*
X164495388Y-122252352D01*
X164495388Y-122047648D01*
X164492919Y-122032059D01*
X164463365Y-121845465D01*
X164409968Y-121681127D01*
X164400108Y-121650781D01*
X164400106Y-121650778D01*
X164400106Y-121650776D01*
X164357034Y-121566243D01*
X164307175Y-121468390D01*
X164271209Y-121418886D01*
X164186859Y-121302786D01*
X164042101Y-121158028D01*
X163876501Y-121037715D01*
X163876500Y-121037714D01*
X163876498Y-121037713D01*
X163823059Y-121010484D01*
X163772264Y-120962510D01*
X163755469Y-120894689D01*
X163778006Y-120828554D01*
X163823060Y-120789515D01*
X163825127Y-120788462D01*
X163876498Y-120762287D01*
X164012739Y-120663303D01*
X164042101Y-120641971D01*
X164042103Y-120641968D01*
X164042107Y-120641966D01*
X164186854Y-120497219D01*
X164186856Y-120497215D01*
X164186859Y-120497213D01*
X164297606Y-120344781D01*
X164307175Y-120331610D01*
X164314005Y-120318204D01*
X164361979Y-120267409D01*
X164424490Y-120250500D01*
X166015286Y-120250500D01*
X166082325Y-120270185D01*
X166125771Y-120318205D01*
X166132603Y-120331614D01*
X166252916Y-120497213D01*
X166397674Y-120641971D01*
X166563276Y-120762286D01*
X166616716Y-120789516D01*
X166667511Y-120837490D01*
X166684306Y-120905312D01*
X166661768Y-120971446D01*
X166616716Y-121010484D01*
X166563276Y-121037713D01*
X166397674Y-121158028D01*
X166252916Y-121302786D01*
X166132603Y-121468386D01*
X166039669Y-121650776D01*
X165976410Y-121845465D01*
X165946857Y-122032059D01*
X165944388Y-122047648D01*
X165944388Y-122252352D01*
X165944459Y-122252799D01*
X165976410Y-122454534D01*
X166039669Y-122649223D01*
X166095863Y-122759507D01*
X166125909Y-122818477D01*
X166132603Y-122831613D01*
X166252916Y-122997213D01*
X166397674Y-123141971D01*
X166552637Y-123254556D01*
X166563278Y-123262287D01*
X166679495Y-123321503D01*
X166745664Y-123355218D01*
X166745666Y-123355218D01*
X166745669Y-123355220D01*
X166850025Y-123389127D01*
X166940353Y-123418477D01*
X167041445Y-123434488D01*
X167142536Y-123450500D01*
X167142537Y-123450500D01*
X167347239Y-123450500D01*
X167347240Y-123450500D01*
X167549422Y-123418477D01*
X167744107Y-123355220D01*
X167926498Y-123262287D01*
X168019478Y-123194732D01*
X168092101Y-123141971D01*
X168092103Y-123141968D01*
X168092107Y-123141966D01*
X168236854Y-122997219D01*
X168236856Y-122997215D01*
X168236859Y-122997213D01*
X168289620Y-122924590D01*
X168357175Y-122831610D01*
X168450108Y-122649219D01*
X168513365Y-122454534D01*
X168545388Y-122252352D01*
X168545388Y-122099098D01*
X168565073Y-122032059D01*
X168617877Y-121986304D01*
X168687035Y-121976360D01*
X168750591Y-122005385D01*
X168757069Y-122011417D01*
X169627172Y-122881520D01*
X169627174Y-122881521D01*
X169627178Y-122881524D01*
X169764097Y-122960573D01*
X169764104Y-122960577D01*
X169916831Y-123001501D01*
X169916833Y-123001501D01*
X170082542Y-123001501D01*
X170082558Y-123001500D01*
X176882219Y-123001500D01*
X176882235Y-123001501D01*
X176889831Y-123001501D01*
X177047942Y-123001501D01*
X177047945Y-123001501D01*
X177200673Y-122960577D01*
X177250792Y-122931639D01*
X177337604Y-122881520D01*
X177449408Y-122769716D01*
X177449408Y-122769714D01*
X177459616Y-122759507D01*
X177459618Y-122759504D01*
X177635366Y-122583755D01*
X177696687Y-122550272D01*
X177761361Y-122553506D01*
X177803645Y-122567246D01*
X178013601Y-122600500D01*
X178013602Y-122600500D01*
X178226174Y-122600500D01*
X178226175Y-122600500D01*
X178436131Y-122567246D01*
X178638300Y-122501557D01*
X178827704Y-122405051D01*
X178999680Y-122280104D01*
X179113217Y-122166566D01*
X179174536Y-122133084D01*
X179244228Y-122138068D01*
X179300162Y-122179939D01*
X179317077Y-122210917D01*
X179366090Y-122342328D01*
X179366094Y-122342335D01*
X179452340Y-122457544D01*
X179452343Y-122457547D01*
X179567552Y-122543793D01*
X179567559Y-122543797D01*
X179702405Y-122594091D01*
X179702404Y-122594091D01*
X179709332Y-122594835D01*
X179762015Y-122600500D01*
X181557760Y-122600499D01*
X181617371Y-122594091D01*
X181752219Y-122543796D01*
X181867434Y-122457546D01*
X181953684Y-122342331D01*
X182003979Y-122207483D01*
X182010388Y-122147873D01*
X182010387Y-120352128D01*
X182003979Y-120292517D01*
X182002698Y-120289083D01*
X181953685Y-120157671D01*
X181953681Y-120157664D01*
X181867435Y-120042455D01*
X181867432Y-120042452D01*
X181752223Y-119956206D01*
X181752216Y-119956202D01*
X181617370Y-119905908D01*
X181617371Y-119905908D01*
X181557771Y-119899501D01*
X181557769Y-119899500D01*
X181557761Y-119899500D01*
X181557752Y-119899500D01*
X179762017Y-119899500D01*
X179762011Y-119899501D01*
X179702404Y-119905908D01*
X179567559Y-119956202D01*
X179567552Y-119956206D01*
X179452343Y-120042452D01*
X179452340Y-120042455D01*
X179366094Y-120157664D01*
X179366091Y-120157669D01*
X179317077Y-120289083D01*
X179275205Y-120345016D01*
X179209741Y-120369433D01*
X179141468Y-120354581D01*
X179113214Y-120333430D01*
X178999674Y-120219890D01*
X178827708Y-120094951D01*
X178638302Y-119998444D01*
X178638301Y-119998443D01*
X178638300Y-119998443D01*
X178436131Y-119932754D01*
X178436129Y-119932753D01*
X178436128Y-119932753D01*
X178274845Y-119907208D01*
X178226175Y-119899500D01*
X178013601Y-119899500D01*
X177964930Y-119907208D01*
X177803648Y-119932753D01*
X177601473Y-119998444D01*
X177412067Y-120094951D01*
X177240101Y-120219890D01*
X177089778Y-120370213D01*
X176964839Y-120542179D01*
X176868332Y-120731585D01*
X176802641Y-120933760D01*
X176769388Y-121143713D01*
X176769388Y-121356286D01*
X176802642Y-121566244D01*
X176802642Y-121566247D01*
X176816379Y-121608523D01*
X176816813Y-121623734D01*
X176822132Y-121637993D01*
X176817790Y-121657950D01*
X176818374Y-121678364D01*
X176810286Y-121692450D01*
X176807281Y-121706266D01*
X176786131Y-121734521D01*
X176756473Y-121764180D01*
X176695150Y-121797666D01*
X176668790Y-121800500D01*
X170295986Y-121800500D01*
X170228947Y-121780815D01*
X170208305Y-121764181D01*
X168538965Y-120094842D01*
X168505480Y-120033519D01*
X168508716Y-119968841D01*
X168513365Y-119954534D01*
X168545388Y-119752352D01*
X168545388Y-119547648D01*
X168513365Y-119345466D01*
X168450108Y-119150781D01*
X168450106Y-119150778D01*
X168450106Y-119150776D01*
X168414188Y-119080284D01*
X168357175Y-118968390D01*
X168349444Y-118957749D01*
X168236859Y-118802786D01*
X168092101Y-118658028D01*
X167926501Y-118537715D01*
X167926500Y-118537714D01*
X167926498Y-118537713D01*
X167869541Y-118508691D01*
X167744111Y-118444781D01*
X167549422Y-118381522D01*
X167374883Y-118353878D01*
X167347240Y-118349500D01*
X167142536Y-118349500D01*
X167118217Y-118353351D01*
X166940353Y-118381522D01*
X166745664Y-118444781D01*
X166563274Y-118537715D01*
X166397674Y-118658028D01*
X166252916Y-118802786D01*
X166132603Y-118968385D01*
X166125771Y-118981795D01*
X166077797Y-119032591D01*
X166015286Y-119049500D01*
X164424490Y-119049500D01*
X164357451Y-119029815D01*
X164314005Y-118981795D01*
X164307221Y-118968481D01*
X164307175Y-118968390D01*
X164307173Y-118968387D01*
X164307172Y-118968385D01*
X164186859Y-118802786D01*
X164042101Y-118658028D01*
X163876501Y-118537715D01*
X163876500Y-118537714D01*
X163876498Y-118537713D01*
X163819541Y-118508691D01*
X163694111Y-118444781D01*
X163499422Y-118381522D01*
X163324883Y-118353878D01*
X163297240Y-118349500D01*
X163092536Y-118349500D01*
X163068217Y-118353351D01*
X162890353Y-118381522D01*
X162695664Y-118444781D01*
X162513274Y-118537715D01*
X162347674Y-118658028D01*
X162202916Y-118802786D01*
X162082603Y-118968385D01*
X162075771Y-118981795D01*
X162027797Y-119032591D01*
X161965286Y-119049500D01*
X156436670Y-119049500D01*
X156436654Y-119049499D01*
X156429058Y-119049499D01*
X156270943Y-119049499D01*
X156194579Y-119069961D01*
X156118214Y-119090423D01*
X156118209Y-119090426D01*
X155981290Y-119169475D01*
X155981282Y-119169481D01*
X154894841Y-120255921D01*
X154833518Y-120289406D01*
X154768845Y-120286172D01*
X154754535Y-120281523D01*
X154643931Y-120264005D01*
X154552352Y-120249500D01*
X154347648Y-120249500D01*
X154331908Y-120251993D01*
X154145465Y-120281522D01*
X153950776Y-120344781D01*
X153768386Y-120437715D01*
X153602786Y-120558028D01*
X153458028Y-120702786D01*
X153337715Y-120868386D01*
X153244781Y-121050776D01*
X153181522Y-121245465D01*
X153149500Y-121447648D01*
X153149500Y-121652351D01*
X153181522Y-121854534D01*
X153186173Y-121868848D01*
X153188165Y-121938690D01*
X153155921Y-121994842D01*
X151137584Y-124013181D01*
X151076261Y-124046666D01*
X151049903Y-124049500D01*
X146352748Y-124049500D01*
X146285709Y-124029815D01*
X146265067Y-124013181D01*
X144246728Y-121994842D01*
X144213243Y-121933519D01*
X144216479Y-121868841D01*
X144221128Y-121854534D01*
X144253151Y-121652352D01*
X144253151Y-121447648D01*
X144238681Y-121356287D01*
X144221128Y-121245465D01*
X144157869Y-121050776D01*
X144117448Y-120971446D01*
X144064938Y-120868390D01*
X144035996Y-120828554D01*
X143944622Y-120702786D01*
X143799864Y-120558028D01*
X143634264Y-120437715D01*
X143634263Y-120437714D01*
X143634261Y-120437713D01*
X143561929Y-120400858D01*
X143451874Y-120344781D01*
X143287679Y-120291431D01*
X143230004Y-120251993D01*
X143202806Y-120187634D01*
X143214721Y-120118788D01*
X143261965Y-120067312D01*
X143325998Y-120049500D01*
X144051554Y-120049500D01*
X144118593Y-120069185D01*
X144139235Y-120085819D01*
X145115832Y-121062416D01*
X145149317Y-121123739D01*
X145152151Y-121150097D01*
X145152151Y-122150001D01*
X145152152Y-122150019D01*
X145162651Y-122252796D01*
X145162652Y-122252799D01*
X145217836Y-122419331D01*
X145217838Y-122419336D01*
X145228548Y-122436700D01*
X145309939Y-122568656D01*
X145433995Y-122692712D01*
X145583317Y-122784814D01*
X145749854Y-122839999D01*
X145852642Y-122850500D01*
X147052659Y-122850499D01*
X147155448Y-122839999D01*
X147321985Y-122784814D01*
X147471307Y-122692712D01*
X147595363Y-122568656D01*
X147687465Y-122419334D01*
X147742650Y-122252797D01*
X147753151Y-122150009D01*
X147753150Y-120949992D01*
X147742650Y-120847203D01*
X147687465Y-120680666D01*
X147595363Y-120531344D01*
X147471307Y-120407288D01*
X147369965Y-120344780D01*
X147321987Y-120315187D01*
X147321982Y-120315185D01*
X147320513Y-120314698D01*
X147155448Y-120260001D01*
X147155446Y-120260000D01*
X147052667Y-120249500D01*
X147052660Y-120249500D01*
X146052749Y-120249500D01*
X145985710Y-120229815D01*
X145965068Y-120213181D01*
X144839241Y-119087355D01*
X144839239Y-119087352D01*
X144720368Y-118968481D01*
X144720367Y-118968480D01*
X144633555Y-118918360D01*
X144633555Y-118918359D01*
X144633551Y-118918358D01*
X144583436Y-118889423D01*
X144430708Y-118848499D01*
X144272594Y-118848499D01*
X144264998Y-118848499D01*
X144264982Y-118848500D01*
X120007670Y-118848500D01*
X120007654Y-118848499D01*
X120000058Y-118848499D01*
X119841943Y-118848499D01*
X119765579Y-118868961D01*
X119689214Y-118889423D01*
X119689209Y-118889426D01*
X119552290Y-118968475D01*
X119552286Y-118968478D01*
X119532180Y-118988584D01*
X119470856Y-119022068D01*
X119401164Y-119017082D01*
X119345231Y-118975210D01*
X119320816Y-118909745D01*
X119320500Y-118900901D01*
X119320500Y-118895646D01*
X119313033Y-118848500D01*
X119284722Y-118669755D01*
X119284721Y-118669751D01*
X119284721Y-118669750D01*
X119214049Y-118452244D01*
X119110216Y-118248461D01*
X119075370Y-118200500D01*
X118975786Y-118063434D01*
X118814066Y-117901714D01*
X118629038Y-117767283D01*
X118425255Y-117663450D01*
X118207748Y-117592778D01*
X118038326Y-117565944D01*
X117981854Y-117557000D01*
X117658146Y-117557000D01*
X117582849Y-117568926D01*
X117432253Y-117592778D01*
X117432250Y-117592778D01*
X117214744Y-117663450D01*
X117010961Y-117767283D01*
X116905396Y-117843980D01*
X116825934Y-117901714D01*
X116825932Y-117901716D01*
X116825931Y-117901716D01*
X116664216Y-118063431D01*
X116664216Y-118063432D01*
X116664214Y-118063434D01*
X116630825Y-118109390D01*
X116529783Y-118248461D01*
X116425950Y-118452244D01*
X116355278Y-118669750D01*
X116355278Y-118669753D01*
X116334208Y-118802786D01*
X116319500Y-118895646D01*
X95600500Y-118895646D01*
X95600500Y-98900638D01*
X114450500Y-98900638D01*
X114450500Y-99119361D01*
X114484714Y-99335376D01*
X114552297Y-99543380D01*
X114552298Y-99543383D01*
X114651595Y-99738260D01*
X114780142Y-99915193D01*
X114934806Y-100069857D01*
X115042919Y-100148404D01*
X115111743Y-100198407D01*
X115239132Y-100263315D01*
X115306616Y-100297701D01*
X115306619Y-100297702D01*
X115385216Y-100323239D01*
X115514625Y-100365286D01*
X115614672Y-100381132D01*
X115730639Y-100399500D01*
X115730644Y-100399500D01*
X115949361Y-100399500D01*
X116054082Y-100382912D01*
X116165375Y-100365286D01*
X116373383Y-100297701D01*
X116568257Y-100198407D01*
X116667601Y-100126229D01*
X116745193Y-100069857D01*
X116745195Y-100069854D01*
X116745199Y-100069852D01*
X116899852Y-99915199D01*
X117009683Y-99764028D01*
X117065011Y-99721364D01*
X117134624Y-99715385D01*
X117196420Y-99747990D01*
X117210313Y-99764023D01*
X117283817Y-99865193D01*
X117320148Y-99915199D01*
X117474806Y-100069857D01*
X117582919Y-100148404D01*
X117651743Y-100198407D01*
X117779132Y-100263315D01*
X117846616Y-100297701D01*
X117846619Y-100297702D01*
X117925216Y-100323239D01*
X118054625Y-100365286D01*
X118154672Y-100381132D01*
X118270639Y-100399500D01*
X118270644Y-100399500D01*
X118489361Y-100399500D01*
X118594082Y-100382912D01*
X118705375Y-100365286D01*
X118913383Y-100297701D01*
X119108257Y-100198407D01*
X119207601Y-100126229D01*
X119285193Y-100069857D01*
X119285195Y-100069854D01*
X119285199Y-100069852D01*
X119439852Y-99915199D01*
X119549683Y-99764028D01*
X119605011Y-99721364D01*
X119674624Y-99715385D01*
X119736420Y-99747990D01*
X119750313Y-99764023D01*
X119823817Y-99865193D01*
X119860148Y-99915199D01*
X120014806Y-100069857D01*
X120122919Y-100148404D01*
X120191743Y-100198407D01*
X120319132Y-100263315D01*
X120386616Y-100297701D01*
X120386619Y-100297702D01*
X120465216Y-100323239D01*
X120594625Y-100365286D01*
X120694672Y-100381132D01*
X120810639Y-100399500D01*
X120810644Y-100399500D01*
X121029361Y-100399500D01*
X121134082Y-100382912D01*
X121245375Y-100365286D01*
X121453383Y-100297701D01*
X121648257Y-100198407D01*
X121747601Y-100126229D01*
X121825193Y-100069857D01*
X121825195Y-100069854D01*
X121825199Y-100069852D01*
X121979852Y-99915199D01*
X121979854Y-99915195D01*
X121979857Y-99915193D01*
X122041188Y-99830776D01*
X122108407Y-99738257D01*
X122207701Y-99543383D01*
X122275286Y-99335375D01*
X122292912Y-99224082D01*
X122309500Y-99119361D01*
X122309500Y-98900638D01*
X122287128Y-98759394D01*
X122275286Y-98684625D01*
X122207701Y-98476617D01*
X122207701Y-98476616D01*
X122153631Y-98370500D01*
X122108407Y-98281743D01*
X122072080Y-98231743D01*
X121979857Y-98104806D01*
X121825193Y-97950142D01*
X121648260Y-97821595D01*
X121648259Y-97821594D01*
X121648257Y-97821593D01*
X121585825Y-97789782D01*
X121453383Y-97722298D01*
X121453380Y-97722297D01*
X121245376Y-97654714D01*
X121029361Y-97620500D01*
X121029356Y-97620500D01*
X120810644Y-97620500D01*
X120810639Y-97620500D01*
X120594623Y-97654714D01*
X120386619Y-97722297D01*
X120386616Y-97722298D01*
X120191739Y-97821595D01*
X120014806Y-97950142D01*
X119860142Y-98104806D01*
X119750318Y-98255969D01*
X119694989Y-98298635D01*
X119625375Y-98304614D01*
X119563580Y-98272009D01*
X119549682Y-98255969D01*
X119439857Y-98104806D01*
X119285193Y-97950142D01*
X119108260Y-97821595D01*
X119108259Y-97821594D01*
X119108257Y-97821593D01*
X119045825Y-97789782D01*
X118913383Y-97722298D01*
X118913380Y-97722297D01*
X118705376Y-97654714D01*
X118489361Y-97620500D01*
X118489356Y-97620500D01*
X118270644Y-97620500D01*
X118270639Y-97620500D01*
X118054623Y-97654714D01*
X117846619Y-97722297D01*
X117846616Y-97722298D01*
X117651739Y-97821595D01*
X117474806Y-97950142D01*
X117320142Y-98104806D01*
X117210318Y-98255969D01*
X117154989Y-98298635D01*
X117085375Y-98304614D01*
X117023580Y-98272009D01*
X117009682Y-98255969D01*
X116899857Y-98104806D01*
X116745193Y-97950142D01*
X116568260Y-97821595D01*
X116568259Y-97821594D01*
X116568257Y-97821593D01*
X116505825Y-97789782D01*
X116373383Y-97722298D01*
X116373380Y-97722297D01*
X116165376Y-97654714D01*
X115949361Y-97620500D01*
X115949356Y-97620500D01*
X115730644Y-97620500D01*
X115730639Y-97620500D01*
X115514623Y-97654714D01*
X115306619Y-97722297D01*
X115306616Y-97722298D01*
X115111739Y-97821595D01*
X114934806Y-97950142D01*
X114780142Y-98104806D01*
X114651595Y-98281739D01*
X114552298Y-98476616D01*
X114552297Y-98476619D01*
X114484714Y-98684623D01*
X114450500Y-98900638D01*
X95600500Y-98900638D01*
X95600500Y-95388148D01*
X109116500Y-95388148D01*
X109116500Y-95646851D01*
X109154273Y-95885339D01*
X109156968Y-95902354D01*
X109236909Y-96148385D01*
X109354353Y-96378882D01*
X109506408Y-96588168D01*
X109689332Y-96771092D01*
X109898618Y-96923147D01*
X110129115Y-97040591D01*
X110375146Y-97120532D01*
X110455010Y-97133181D01*
X110630649Y-97161000D01*
X110630654Y-97161000D01*
X110889351Y-97161000D01*
X111031294Y-97138517D01*
X111144854Y-97120532D01*
X111390885Y-97040591D01*
X111621382Y-96923147D01*
X111830668Y-96771092D01*
X112013592Y-96588168D01*
X112165647Y-96378882D01*
X112283091Y-96148385D01*
X112363032Y-95902354D01*
X112400387Y-95666503D01*
X112403500Y-95646851D01*
X112403500Y-95388148D01*
X124356500Y-95388148D01*
X124356500Y-95646851D01*
X124394273Y-95885339D01*
X124396968Y-95902354D01*
X124476909Y-96148385D01*
X124594353Y-96378882D01*
X124746408Y-96588168D01*
X124929332Y-96771092D01*
X125138618Y-96923147D01*
X125369115Y-97040591D01*
X125615146Y-97120532D01*
X125695010Y-97133181D01*
X125870649Y-97161000D01*
X125870654Y-97161000D01*
X126129351Y-97161000D01*
X126271294Y-97138517D01*
X126384854Y-97120532D01*
X126630885Y-97040591D01*
X126861382Y-96923147D01*
X127070668Y-96771092D01*
X127253592Y-96588168D01*
X127405647Y-96378882D01*
X127523091Y-96148385D01*
X127603032Y-95902354D01*
X127640387Y-95666503D01*
X127643500Y-95646851D01*
X127643500Y-95388148D01*
X127603032Y-95132649D01*
X127603032Y-95132646D01*
X127523091Y-94886615D01*
X127405647Y-94656118D01*
X127253592Y-94446832D01*
X127070668Y-94263908D01*
X126861382Y-94111853D01*
X126763251Y-94061853D01*
X126630887Y-93994410D01*
X126630886Y-93994409D01*
X126630885Y-93994409D01*
X126384854Y-93914468D01*
X126384852Y-93914467D01*
X126384850Y-93914467D01*
X126129351Y-93874000D01*
X126129346Y-93874000D01*
X125870654Y-93874000D01*
X125870649Y-93874000D01*
X125615149Y-93914467D01*
X125615146Y-93914468D01*
X125394300Y-93986226D01*
X125369112Y-93994410D01*
X125138617Y-94111853D01*
X124929329Y-94263910D01*
X124746410Y-94446829D01*
X124594353Y-94656117D01*
X124476910Y-94886612D01*
X124396967Y-95132649D01*
X124356500Y-95388148D01*
X112403500Y-95388148D01*
X112363032Y-95132649D01*
X112363032Y-95132646D01*
X112283091Y-94886615D01*
X112165647Y-94656118D01*
X112013592Y-94446832D01*
X111830668Y-94263908D01*
X111621382Y-94111853D01*
X111523251Y-94061853D01*
X111390887Y-93994410D01*
X111390886Y-93994409D01*
X111390885Y-93994409D01*
X111144854Y-93914468D01*
X111144852Y-93914467D01*
X111144850Y-93914467D01*
X110889351Y-93874000D01*
X110889346Y-93874000D01*
X110630654Y-93874000D01*
X110630649Y-93874000D01*
X110375149Y-93914467D01*
X110375146Y-93914468D01*
X110154300Y-93986226D01*
X110129112Y-93994410D01*
X109898617Y-94111853D01*
X109689329Y-94263910D01*
X109506410Y-94446829D01*
X109354353Y-94656117D01*
X109236910Y-94886612D01*
X109156967Y-95132649D01*
X109116500Y-95388148D01*
X95600500Y-95388148D01*
X95600500Y-86200638D01*
X106830500Y-86200638D01*
X106830500Y-86419361D01*
X106864714Y-86635376D01*
X106932297Y-86843380D01*
X106932298Y-86843383D01*
X106955902Y-86889707D01*
X107022705Y-87020814D01*
X107031595Y-87038260D01*
X107160142Y-87215193D01*
X107314806Y-87369857D01*
X107465969Y-87479682D01*
X107508635Y-87535011D01*
X107514614Y-87604625D01*
X107482009Y-87666420D01*
X107465969Y-87680318D01*
X107314806Y-87790142D01*
X107160142Y-87944806D01*
X107031595Y-88121739D01*
X106932298Y-88316616D01*
X106932297Y-88316619D01*
X106864714Y-88524623D01*
X106830500Y-88740638D01*
X106830500Y-88959361D01*
X106864714Y-89175376D01*
X106932297Y-89383380D01*
X106932298Y-89383383D01*
X107031595Y-89578260D01*
X107160142Y-89755193D01*
X107314806Y-89909857D01*
X107465969Y-90019682D01*
X107508635Y-90075011D01*
X107514614Y-90144625D01*
X107482009Y-90206420D01*
X107465969Y-90220318D01*
X107314806Y-90330142D01*
X107160142Y-90484806D01*
X107031595Y-90661739D01*
X106932298Y-90856616D01*
X106932297Y-90856619D01*
X106864714Y-91064623D01*
X106830500Y-91280638D01*
X106830500Y-91499361D01*
X106864714Y-91715376D01*
X106932297Y-91923380D01*
X106932298Y-91923383D01*
X106985801Y-92028386D01*
X107025168Y-92105648D01*
X107031595Y-92118260D01*
X107160142Y-92295193D01*
X107314806Y-92449857D01*
X107422919Y-92528404D01*
X107491743Y-92578407D01*
X107619132Y-92643315D01*
X107686616Y-92677701D01*
X107686619Y-92677702D01*
X107790621Y-92711493D01*
X107894625Y-92745286D01*
X107994672Y-92761132D01*
X108110639Y-92779500D01*
X108110644Y-92779500D01*
X108329361Y-92779500D01*
X108434082Y-92762912D01*
X108545375Y-92745286D01*
X108753383Y-92677701D01*
X108948257Y-92578407D01*
X109047601Y-92506229D01*
X109125193Y-92449857D01*
X109125195Y-92449854D01*
X109125199Y-92449852D01*
X109279852Y-92295199D01*
X109279854Y-92295195D01*
X109279857Y-92295193D01*
X109356496Y-92189707D01*
X109408407Y-92118257D01*
X109507701Y-91923383D01*
X109575286Y-91715375D01*
X109592912Y-91604082D01*
X109609500Y-91499361D01*
X109609500Y-91280638D01*
X109586792Y-91137273D01*
X109575286Y-91064625D01*
X109534509Y-90939125D01*
X109507702Y-90856619D01*
X109507701Y-90856616D01*
X109473315Y-90789132D01*
X109408407Y-90661743D01*
X109372080Y-90611743D01*
X109279857Y-90484806D01*
X109125199Y-90330148D01*
X109062380Y-90284508D01*
X108974028Y-90220316D01*
X108931364Y-90164989D01*
X108925385Y-90095376D01*
X108957990Y-90033580D01*
X108974023Y-90019686D01*
X109125199Y-89909852D01*
X109279852Y-89755199D01*
X109279854Y-89755195D01*
X109279857Y-89755193D01*
X109398315Y-89592147D01*
X109408407Y-89578257D01*
X109439005Y-89518204D01*
X109486980Y-89467409D01*
X109549490Y-89450500D01*
X140827690Y-89450500D01*
X140894729Y-89470185D01*
X140940484Y-89522989D01*
X140950428Y-89592147D01*
X140938175Y-89630795D01*
X140917802Y-89670776D01*
X140854543Y-89865465D01*
X140822521Y-90067648D01*
X140822521Y-90272351D01*
X140854543Y-90474534D01*
X140917802Y-90669223D01*
X140981712Y-90794653D01*
X140989681Y-90810292D01*
X141010736Y-90851613D01*
X141131049Y-91017213D01*
X141275807Y-91161971D01*
X141430770Y-91274556D01*
X141441411Y-91282287D01*
X141532861Y-91328883D01*
X141534101Y-91329515D01*
X141584897Y-91377490D01*
X141601692Y-91445311D01*
X141579155Y-91511446D01*
X141534101Y-91550485D01*
X141441407Y-91597715D01*
X141275807Y-91718028D01*
X141131049Y-91862786D01*
X141010736Y-92028386D01*
X140917802Y-92210776D01*
X140854543Y-92405465D01*
X140822521Y-92607648D01*
X140822521Y-92812351D01*
X140854543Y-93014534D01*
X140917802Y-93209223D01*
X140961023Y-93294047D01*
X141006341Y-93382989D01*
X141010736Y-93391613D01*
X141131049Y-93557213D01*
X141275807Y-93701971D01*
X141377275Y-93775690D01*
X141441411Y-93822287D01*
X141524194Y-93864467D01*
X141534101Y-93869515D01*
X141584897Y-93917490D01*
X141601692Y-93985311D01*
X141579155Y-94051446D01*
X141534101Y-94090485D01*
X141441407Y-94137715D01*
X141275807Y-94258028D01*
X141131049Y-94402786D01*
X141010736Y-94568386D01*
X140917802Y-94750776D01*
X140854543Y-94945465D01*
X140825274Y-95130264D01*
X140822521Y-95147648D01*
X140822521Y-95352352D01*
X140825066Y-95368422D01*
X140854543Y-95554534D01*
X140917802Y-95749223D01*
X140955912Y-95824016D01*
X140995827Y-95902354D01*
X141010736Y-95931613D01*
X141131049Y-96097213D01*
X141275807Y-96241971D01*
X141423609Y-96349353D01*
X141441411Y-96362287D01*
X141532861Y-96408883D01*
X141534101Y-96409515D01*
X141584897Y-96457490D01*
X141601692Y-96525311D01*
X141579155Y-96591446D01*
X141534101Y-96630485D01*
X141441407Y-96677715D01*
X141275807Y-96798028D01*
X141131049Y-96942786D01*
X141010736Y-97108386D01*
X140917802Y-97290776D01*
X140854543Y-97485465D01*
X140822521Y-97687648D01*
X140822521Y-97892351D01*
X140854543Y-98094534D01*
X140917802Y-98289223D01*
X141010736Y-98471613D01*
X141131049Y-98637213D01*
X141275807Y-98781971D01*
X141408829Y-98878615D01*
X141441411Y-98902287D01*
X141514112Y-98939330D01*
X141534101Y-98949515D01*
X141584897Y-98997490D01*
X141601692Y-99065311D01*
X141579155Y-99131446D01*
X141534101Y-99170485D01*
X141441407Y-99217715D01*
X141275807Y-99338028D01*
X141131049Y-99482786D01*
X141010736Y-99648386D01*
X140917802Y-99830776D01*
X140854543Y-100025465D01*
X140822521Y-100227648D01*
X140822521Y-100432351D01*
X140854543Y-100634534D01*
X140917802Y-100829223D01*
X141010736Y-101011613D01*
X141131049Y-101177213D01*
X141275807Y-101321971D01*
X141430770Y-101434556D01*
X141441411Y-101442287D01*
X141532861Y-101488883D01*
X141534101Y-101489515D01*
X141584897Y-101537490D01*
X141601692Y-101605311D01*
X141579155Y-101671446D01*
X141534101Y-101710485D01*
X141441407Y-101757715D01*
X141275807Y-101878028D01*
X141131049Y-102022786D01*
X141010736Y-102188386D01*
X140917802Y-102370776D01*
X140854543Y-102565465D01*
X140822521Y-102767648D01*
X140822521Y-102972351D01*
X140854543Y-103174534D01*
X140917802Y-103369223D01*
X141010736Y-103551613D01*
X141131049Y-103717213D01*
X141275807Y-103861971D01*
X141430770Y-103974556D01*
X141441411Y-103982287D01*
X141532861Y-104028883D01*
X141534101Y-104029515D01*
X141584897Y-104077490D01*
X141601692Y-104145311D01*
X141579155Y-104211446D01*
X141534101Y-104250485D01*
X141441407Y-104297715D01*
X141275809Y-104418027D01*
X141134216Y-104559620D01*
X141072893Y-104593104D01*
X141003201Y-104588120D01*
X140958854Y-104559619D01*
X138186819Y-101787584D01*
X138153334Y-101726261D01*
X138150500Y-101699903D01*
X138150500Y-93279765D01*
X138170185Y-93212726D01*
X138171398Y-93210874D01*
X138259390Y-93079185D01*
X138259390Y-93079184D01*
X138259394Y-93079179D01*
X138319737Y-92933497D01*
X138350500Y-92778842D01*
X138350500Y-92621158D01*
X138350500Y-92621155D01*
X138350499Y-92621153D01*
X138347813Y-92607648D01*
X138319737Y-92466503D01*
X138294455Y-92405466D01*
X138259397Y-92320827D01*
X138259390Y-92320814D01*
X138171789Y-92189711D01*
X138171786Y-92189707D01*
X138060292Y-92078213D01*
X138060288Y-92078210D01*
X137929185Y-91990609D01*
X137929172Y-91990602D01*
X137783501Y-91930264D01*
X137783489Y-91930261D01*
X137628845Y-91899500D01*
X137628842Y-91899500D01*
X137471158Y-91899500D01*
X137471155Y-91899500D01*
X137316510Y-91930261D01*
X137316498Y-91930264D01*
X137170827Y-91990602D01*
X137170814Y-91990609D01*
X137039711Y-92078210D01*
X137039707Y-92078213D01*
X136928213Y-92189707D01*
X136928210Y-92189711D01*
X136840609Y-92320814D01*
X136840602Y-92320827D01*
X136780264Y-92466498D01*
X136780261Y-92466510D01*
X136749500Y-92621153D01*
X136749500Y-92778846D01*
X136780261Y-92933489D01*
X136780264Y-92933501D01*
X136840602Y-93079172D01*
X136840609Y-93079185D01*
X136928602Y-93210874D01*
X136949480Y-93277551D01*
X136949500Y-93279765D01*
X136949500Y-101813444D01*
X136929815Y-101880483D01*
X136877011Y-101926238D01*
X136807853Y-101936182D01*
X136800462Y-101934890D01*
X136788925Y-101932511D01*
X136783497Y-101930263D01*
X136628842Y-101899500D01*
X136628804Y-101899500D01*
X136627305Y-101899191D01*
X136596807Y-101882966D01*
X136566241Y-101866977D01*
X136565636Y-101866383D01*
X136565621Y-101866375D01*
X136565612Y-101866359D01*
X136564662Y-101865426D01*
X136336819Y-101637583D01*
X136303334Y-101576260D01*
X136300500Y-101549902D01*
X136300500Y-94053265D01*
X136320185Y-93986226D01*
X136321398Y-93984374D01*
X136368109Y-93914467D01*
X136409394Y-93852679D01*
X136469737Y-93706997D01*
X136500500Y-93552342D01*
X136500500Y-93394658D01*
X136500500Y-93394655D01*
X136500499Y-93394653D01*
X136469737Y-93240003D01*
X136469735Y-93239998D01*
X136409397Y-93094327D01*
X136409390Y-93094314D01*
X136321789Y-92963211D01*
X136321786Y-92963207D01*
X136210292Y-92851713D01*
X136210288Y-92851710D01*
X136079185Y-92764109D01*
X136079172Y-92764102D01*
X135933501Y-92703764D01*
X135933489Y-92703761D01*
X135778845Y-92673000D01*
X135778842Y-92673000D01*
X135621158Y-92673000D01*
X135621155Y-92673000D01*
X135466510Y-92703761D01*
X135466498Y-92703764D01*
X135320827Y-92764102D01*
X135320814Y-92764109D01*
X135189711Y-92851710D01*
X135189707Y-92851713D01*
X135078213Y-92963207D01*
X135078210Y-92963211D01*
X134990609Y-93094314D01*
X134990602Y-93094327D01*
X134930264Y-93239998D01*
X134930261Y-93240010D01*
X134899500Y-93394653D01*
X134899500Y-93552346D01*
X134930261Y-93706989D01*
X134930264Y-93707001D01*
X134990602Y-93852672D01*
X134990609Y-93852685D01*
X135078602Y-93984374D01*
X135099480Y-94051051D01*
X135099500Y-94053265D01*
X135099500Y-101763330D01*
X135099499Y-101763348D01*
X135099499Y-101929054D01*
X135099498Y-101929054D01*
X135099499Y-101929057D01*
X135140423Y-102081785D01*
X135140424Y-102081787D01*
X135140423Y-102081787D01*
X135146818Y-102092862D01*
X135146819Y-102092863D01*
X135219477Y-102218712D01*
X135219481Y-102218717D01*
X135338349Y-102337585D01*
X135338355Y-102337590D01*
X135715425Y-102714660D01*
X135748910Y-102775983D01*
X135749361Y-102778149D01*
X135780261Y-102933491D01*
X135780264Y-102933501D01*
X135840602Y-103079172D01*
X135840609Y-103079185D01*
X135928210Y-103210288D01*
X135928213Y-103210292D01*
X136039707Y-103321786D01*
X136039711Y-103321789D01*
X136170814Y-103409390D01*
X136170827Y-103409397D01*
X136316498Y-103469735D01*
X136316503Y-103469737D01*
X136471153Y-103500499D01*
X136471156Y-103500500D01*
X136471158Y-103500500D01*
X136628844Y-103500500D01*
X136628845Y-103500499D01*
X136783497Y-103469737D01*
X136929179Y-103409394D01*
X137060289Y-103321789D01*
X137171789Y-103210289D01*
X137259394Y-103079179D01*
X137319737Y-102933497D01*
X137326662Y-102898685D01*
X137359047Y-102836774D01*
X137419762Y-102802200D01*
X137489532Y-102805939D01*
X137535960Y-102835195D01*
X140475139Y-105774374D01*
X140475149Y-105774385D01*
X140479479Y-105778715D01*
X140479480Y-105778716D01*
X140591284Y-105890520D01*
X140678095Y-105940639D01*
X140678097Y-105940641D01*
X140728213Y-105969576D01*
X140728215Y-105969577D01*
X140880942Y-106010500D01*
X140880943Y-106010500D01*
X140893419Y-106010500D01*
X140960458Y-106030185D01*
X141003903Y-106078204D01*
X141005084Y-106080521D01*
X141010736Y-106091614D01*
X141131049Y-106257213D01*
X141275807Y-106401971D01*
X141430770Y-106514556D01*
X141441411Y-106522287D01*
X141557628Y-106581503D01*
X141623797Y-106615218D01*
X141623799Y-106615218D01*
X141623802Y-106615220D01*
X141728158Y-106649127D01*
X141818486Y-106678477D01*
X141919578Y-106694488D01*
X142020669Y-106710500D01*
X142020670Y-106710500D01*
X142225372Y-106710500D01*
X142225373Y-106710500D01*
X142427555Y-106678477D01*
X142622240Y-106615220D01*
X142804631Y-106522287D01*
X142897611Y-106454732D01*
X142970234Y-106401971D01*
X142970236Y-106401968D01*
X142970240Y-106401966D01*
X143114987Y-106257219D01*
X143114989Y-106257215D01*
X143114992Y-106257213D01*
X143167753Y-106184590D01*
X143235308Y-106091610D01*
X143328241Y-105909219D01*
X143391498Y-105714534D01*
X143423521Y-105512352D01*
X143423521Y-105307648D01*
X143391498Y-105105466D01*
X143328241Y-104910781D01*
X143328239Y-104910778D01*
X143328239Y-104910776D01*
X143294524Y-104844607D01*
X143235308Y-104728390D01*
X143227577Y-104717749D01*
X143114992Y-104562786D01*
X142970234Y-104418028D01*
X142804635Y-104297715D01*
X142798027Y-104294348D01*
X142711938Y-104250483D01*
X142661144Y-104202511D01*
X142644349Y-104134690D01*
X142666886Y-104068555D01*
X142711938Y-104029516D01*
X142804631Y-103982287D01*
X142825791Y-103966913D01*
X142970234Y-103861971D01*
X142970236Y-103861968D01*
X142970240Y-103861966D01*
X143114987Y-103717219D01*
X143114989Y-103717215D01*
X143114992Y-103717213D01*
X143167753Y-103644590D01*
X143235308Y-103551610D01*
X143328241Y-103369219D01*
X143391498Y-103174534D01*
X143423521Y-102972352D01*
X143423521Y-102767648D01*
X143391498Y-102565466D01*
X143328241Y-102370781D01*
X143328239Y-102370778D01*
X143328239Y-102370776D01*
X143250760Y-102218717D01*
X143235308Y-102188390D01*
X143227577Y-102177749D01*
X143114992Y-102022786D01*
X142970234Y-101878028D01*
X142804635Y-101757715D01*
X142791976Y-101751265D01*
X142711938Y-101710483D01*
X142661144Y-101662511D01*
X142644349Y-101594690D01*
X142666886Y-101528555D01*
X142711938Y-101489516D01*
X142804631Y-101442287D01*
X142825791Y-101426913D01*
X142970234Y-101321971D01*
X142970236Y-101321968D01*
X142970240Y-101321966D01*
X143114987Y-101177219D01*
X143114989Y-101177215D01*
X143114992Y-101177213D01*
X143167753Y-101104590D01*
X143235308Y-101011610D01*
X143325893Y-100833827D01*
X143328239Y-100829223D01*
X143328240Y-100829220D01*
X143328241Y-100829219D01*
X143391498Y-100634534D01*
X143423521Y-100432352D01*
X143423521Y-100227648D01*
X143391498Y-100025466D01*
X143386846Y-100011151D01*
X143384853Y-99941312D01*
X143417096Y-99885158D01*
X147158506Y-96143749D01*
X147158511Y-96143745D01*
X147168714Y-96133541D01*
X147168716Y-96133541D01*
X147280520Y-96021737D01*
X147332554Y-95931610D01*
X147359577Y-95884806D01*
X147400500Y-95732078D01*
X147400500Y-95573964D01*
X147400500Y-94053265D01*
X147420185Y-93986226D01*
X147421398Y-93984374D01*
X147468109Y-93914467D01*
X147509394Y-93852679D01*
X147569737Y-93706997D01*
X147600500Y-93552342D01*
X147600500Y-93434500D01*
X147620185Y-93367461D01*
X147672989Y-93321706D01*
X147724500Y-93310500D01*
X150575500Y-93310500D01*
X150642539Y-93330185D01*
X150688294Y-93382989D01*
X150699500Y-93434500D01*
X150699500Y-93552346D01*
X150730261Y-93706989D01*
X150730264Y-93707001D01*
X150790602Y-93852672D01*
X150790609Y-93852685D01*
X150878602Y-93984374D01*
X150899480Y-94051051D01*
X150899500Y-94053265D01*
X150899500Y-97513330D01*
X150899499Y-97513348D01*
X150899499Y-97679054D01*
X150899498Y-97679054D01*
X150899499Y-97679057D01*
X150924294Y-97771593D01*
X150940424Y-97831787D01*
X150950394Y-97849055D01*
X150950395Y-97849057D01*
X151019477Y-97968712D01*
X151019481Y-97968717D01*
X151115426Y-98064662D01*
X151148911Y-98125985D01*
X151149362Y-98128151D01*
X151180261Y-98283491D01*
X151180264Y-98283501D01*
X151240602Y-98429172D01*
X151240609Y-98429185D01*
X151328210Y-98560288D01*
X151328213Y-98560292D01*
X151439707Y-98671786D01*
X151439711Y-98671789D01*
X151570814Y-98759390D01*
X151570827Y-98759397D01*
X151716498Y-98819735D01*
X151716503Y-98819737D01*
X151826987Y-98841713D01*
X151849691Y-98846230D01*
X151911602Y-98878615D01*
X151946176Y-98939330D01*
X151949500Y-98967847D01*
X151949500Y-100510309D01*
X151949499Y-100510327D01*
X151949499Y-100676033D01*
X151949498Y-100676033D01*
X151990423Y-100828766D01*
X151990424Y-100828767D01*
X151990686Y-100829220D01*
X151990717Y-100829273D01*
X152069477Y-100965691D01*
X152069481Y-100965696D01*
X152188349Y-101084564D01*
X152188355Y-101084569D01*
X156068942Y-104965157D01*
X156102427Y-105026480D01*
X156099194Y-105091149D01*
X156094544Y-105105460D01*
X156094544Y-105105462D01*
X156062521Y-105307648D01*
X156062521Y-105512351D01*
X156094543Y-105714534D01*
X156157802Y-105909223D01*
X156209406Y-106010499D01*
X156245083Y-106080520D01*
X156250736Y-106091613D01*
X156371049Y-106257213D01*
X156515807Y-106401971D01*
X156670770Y-106514556D01*
X156681411Y-106522287D01*
X156797628Y-106581503D01*
X156863797Y-106615218D01*
X156863799Y-106615218D01*
X156863802Y-106615220D01*
X156968158Y-106649127D01*
X157058486Y-106678477D01*
X157159578Y-106694488D01*
X157260669Y-106710500D01*
X157260670Y-106710500D01*
X157465372Y-106710500D01*
X157465373Y-106710500D01*
X157667555Y-106678477D01*
X157862240Y-106615220D01*
X158044631Y-106522287D01*
X158137611Y-106454732D01*
X158210234Y-106401971D01*
X158210236Y-106401968D01*
X158210240Y-106401966D01*
X158354987Y-106257219D01*
X158354989Y-106257215D01*
X158354992Y-106257213D01*
X158407753Y-106184590D01*
X158475308Y-106091610D01*
X158568241Y-105909219D01*
X158631498Y-105714534D01*
X158663521Y-105512352D01*
X158663521Y-105307648D01*
X158631498Y-105105466D01*
X158568241Y-104910781D01*
X158568239Y-104910778D01*
X158568239Y-104910776D01*
X158534524Y-104844607D01*
X158475308Y-104728390D01*
X158467577Y-104717749D01*
X158354992Y-104562786D01*
X158210234Y-104418028D01*
X158044635Y-104297715D01*
X158038027Y-104294348D01*
X157951938Y-104250483D01*
X157901144Y-104202511D01*
X157884349Y-104134690D01*
X157906886Y-104068555D01*
X157951938Y-104029516D01*
X158044631Y-103982287D01*
X158065791Y-103966913D01*
X158210234Y-103861971D01*
X158210236Y-103861968D01*
X158210240Y-103861966D01*
X158354987Y-103717219D01*
X158354989Y-103717215D01*
X158354992Y-103717213D01*
X158407753Y-103644590D01*
X158475308Y-103551610D01*
X158568241Y-103369219D01*
X158631498Y-103174534D01*
X158663521Y-102972352D01*
X158663521Y-102767648D01*
X158631498Y-102565466D01*
X158568241Y-102370781D01*
X158568239Y-102370778D01*
X158568239Y-102370776D01*
X158490760Y-102218717D01*
X158475308Y-102188390D01*
X158467577Y-102177749D01*
X158354992Y-102022786D01*
X158210234Y-101878028D01*
X158044635Y-101757715D01*
X158031976Y-101751265D01*
X157951938Y-101710483D01*
X157901144Y-101662511D01*
X157884349Y-101594690D01*
X157906886Y-101528555D01*
X157951938Y-101489516D01*
X158044631Y-101442287D01*
X158065791Y-101426913D01*
X158210234Y-101321971D01*
X158210236Y-101321968D01*
X158210240Y-101321966D01*
X158354987Y-101177219D01*
X158354989Y-101177215D01*
X158354992Y-101177213D01*
X158407753Y-101104590D01*
X158475308Y-101011610D01*
X158565893Y-100833827D01*
X158568239Y-100829223D01*
X158568240Y-100829220D01*
X158568241Y-100829219D01*
X158631498Y-100634534D01*
X158663521Y-100432352D01*
X158663521Y-100227648D01*
X158631498Y-100025466D01*
X158568241Y-99830781D01*
X158568239Y-99830778D01*
X158568239Y-99830776D01*
X158521099Y-99738260D01*
X158475308Y-99648390D01*
X158399017Y-99543383D01*
X158354992Y-99482786D01*
X158210234Y-99338028D01*
X158044635Y-99217715D01*
X158038027Y-99214348D01*
X157951938Y-99170483D01*
X157901144Y-99122511D01*
X157884349Y-99054690D01*
X157906886Y-98988555D01*
X157951938Y-98949516D01*
X158044631Y-98902287D01*
X158115712Y-98850644D01*
X158210234Y-98781971D01*
X158210236Y-98781968D01*
X158210240Y-98781966D01*
X158354987Y-98637219D01*
X158354989Y-98637215D01*
X158354992Y-98637213D01*
X158445856Y-98512147D01*
X158475308Y-98471610D01*
X158568241Y-98289219D01*
X158631498Y-98094534D01*
X158663521Y-97892352D01*
X158663521Y-97687648D01*
X158637117Y-97520943D01*
X158631498Y-97485465D01*
X158602148Y-97395137D01*
X158568241Y-97290781D01*
X158568239Y-97290778D01*
X158568239Y-97290776D01*
X158534524Y-97224607D01*
X158475308Y-97108390D01*
X158426050Y-97040591D01*
X158354992Y-96942786D01*
X158210234Y-96798028D01*
X158044635Y-96677715D01*
X158028973Y-96669735D01*
X157951938Y-96630483D01*
X157901144Y-96582511D01*
X157884349Y-96514690D01*
X157906886Y-96448555D01*
X157951938Y-96409516D01*
X158044631Y-96362287D01*
X158065791Y-96346913D01*
X158210234Y-96241971D01*
X158210236Y-96241968D01*
X158210240Y-96241966D01*
X158354987Y-96097219D01*
X158354989Y-96097215D01*
X158354992Y-96097213D01*
X158440992Y-95978842D01*
X158475308Y-95931610D01*
X158568241Y-95749219D01*
X158631498Y-95554534D01*
X158663521Y-95352352D01*
X158663521Y-95147648D01*
X158631498Y-94945466D01*
X158631285Y-94944811D01*
X158581659Y-94792077D01*
X158568241Y-94750781D01*
X158568239Y-94750778D01*
X158568239Y-94750776D01*
X158534524Y-94684607D01*
X158475308Y-94568390D01*
X158426059Y-94500604D01*
X158354992Y-94402786D01*
X158210234Y-94258028D01*
X158044635Y-94137715D01*
X158038027Y-94134348D01*
X157951938Y-94090483D01*
X157901144Y-94042511D01*
X157884349Y-93974690D01*
X157906886Y-93908555D01*
X157951938Y-93869516D01*
X158044631Y-93822287D01*
X158108767Y-93775690D01*
X158210234Y-93701971D01*
X158210236Y-93701968D01*
X158210240Y-93701966D01*
X158354987Y-93557219D01*
X158354989Y-93557215D01*
X158354992Y-93557213D01*
X158407753Y-93484590D01*
X158475308Y-93391610D01*
X158568241Y-93209219D01*
X158631498Y-93014534D01*
X158663521Y-92812352D01*
X158663521Y-92607648D01*
X158641167Y-92466510D01*
X158631498Y-92405465D01*
X158586346Y-92266503D01*
X158568241Y-92210781D01*
X158568239Y-92210778D01*
X158568239Y-92210776D01*
X158521099Y-92118260D01*
X158475308Y-92028390D01*
X158447854Y-91990602D01*
X158354992Y-91862786D01*
X158210234Y-91718028D01*
X158044635Y-91597715D01*
X158010140Y-91580139D01*
X157951938Y-91550483D01*
X157901144Y-91502511D01*
X157884349Y-91434690D01*
X157906886Y-91368555D01*
X157951938Y-91329516D01*
X158044631Y-91282287D01*
X158070096Y-91263786D01*
X158210234Y-91161971D01*
X158210236Y-91161968D01*
X158210240Y-91161966D01*
X158354987Y-91017219D01*
X158354989Y-91017215D01*
X158354992Y-91017213D01*
X158424320Y-90921789D01*
X158475308Y-90851610D01*
X158568241Y-90669219D01*
X158631498Y-90474534D01*
X158663521Y-90272352D01*
X158663521Y-90067648D01*
X158659786Y-90044067D01*
X158631498Y-89865465D01*
X158595668Y-89755193D01*
X158568241Y-89670781D01*
X158568239Y-89670778D01*
X158568239Y-89670776D01*
X158521099Y-89578260D01*
X158475308Y-89488390D01*
X158399017Y-89383383D01*
X158354992Y-89322786D01*
X158210234Y-89178028D01*
X158044635Y-89057715D01*
X158038027Y-89054348D01*
X157951938Y-89010483D01*
X157901144Y-88962511D01*
X157884349Y-88894690D01*
X157906886Y-88828555D01*
X157951938Y-88789516D01*
X158044631Y-88742287D01*
X158115712Y-88690644D01*
X158210234Y-88621971D01*
X158210236Y-88621968D01*
X158210240Y-88621966D01*
X158354987Y-88477219D01*
X158354989Y-88477215D01*
X158354992Y-88477213D01*
X158407753Y-88404590D01*
X158475308Y-88311610D01*
X158568241Y-88129219D01*
X158631498Y-87934534D01*
X158663521Y-87732352D01*
X158663521Y-87527648D01*
X158650970Y-87448407D01*
X158631498Y-87325465D01*
X158568239Y-87130776D01*
X158521099Y-87038260D01*
X158475308Y-86948390D01*
X158399017Y-86843383D01*
X158354992Y-86782786D01*
X158210234Y-86638028D01*
X158044635Y-86517715D01*
X158038027Y-86514348D01*
X157951938Y-86470483D01*
X157901144Y-86422511D01*
X157884349Y-86354690D01*
X157906886Y-86288555D01*
X157951938Y-86249516D01*
X158044631Y-86202287D01*
X158115712Y-86150644D01*
X158210234Y-86081971D01*
X158210236Y-86081968D01*
X158210240Y-86081966D01*
X158354987Y-85937219D01*
X158354989Y-85937215D01*
X158354992Y-85937213D01*
X158407753Y-85864590D01*
X158475308Y-85771610D01*
X158568241Y-85589219D01*
X158631498Y-85394534D01*
X158663521Y-85192352D01*
X158663521Y-84987648D01*
X158650134Y-84903126D01*
X158631498Y-84785465D01*
X158568239Y-84590776D01*
X158534524Y-84524607D01*
X158475308Y-84408390D01*
X158467577Y-84397749D01*
X158354992Y-84242786D01*
X158210234Y-84098028D01*
X158044635Y-83977715D01*
X157968770Y-83939060D01*
X157951938Y-83930483D01*
X157901144Y-83882511D01*
X157884349Y-83814690D01*
X157906886Y-83748555D01*
X157951938Y-83709516D01*
X158044631Y-83662287D01*
X158146677Y-83588147D01*
X158210234Y-83541971D01*
X158210236Y-83541968D01*
X158210240Y-83541966D01*
X158354987Y-83397219D01*
X158354989Y-83397215D01*
X158354992Y-83397213D01*
X158433850Y-83288672D01*
X158475308Y-83231610D01*
X158568241Y-83049219D01*
X158631498Y-82854534D01*
X158663521Y-82652352D01*
X158663521Y-82447648D01*
X158634093Y-82261851D01*
X158631498Y-82245465D01*
X158580890Y-82089711D01*
X158568241Y-82050781D01*
X158568239Y-82050778D01*
X158568239Y-82050776D01*
X158521099Y-81958260D01*
X158475308Y-81868390D01*
X158451828Y-81836072D01*
X158354992Y-81702786D01*
X158210234Y-81558028D01*
X158044635Y-81437715D01*
X158000937Y-81415450D01*
X157951938Y-81390483D01*
X157901144Y-81342511D01*
X157884349Y-81274690D01*
X157906886Y-81208555D01*
X157951938Y-81169516D01*
X158044631Y-81122287D01*
X158065791Y-81106913D01*
X158210234Y-81001971D01*
X158210236Y-81001968D01*
X158210240Y-81001966D01*
X158354987Y-80857219D01*
X158354989Y-80857215D01*
X158354992Y-80857213D01*
X158445856Y-80732147D01*
X158475308Y-80691610D01*
X158568241Y-80509219D01*
X158631498Y-80314534D01*
X158663521Y-80112352D01*
X158663521Y-79907648D01*
X158642225Y-79773191D01*
X158631498Y-79705465D01*
X158570100Y-79516503D01*
X158568241Y-79510781D01*
X158568239Y-79510778D01*
X158568239Y-79510776D01*
X158534524Y-79444607D01*
X158475308Y-79328390D01*
X158430345Y-79266503D01*
X158354992Y-79162786D01*
X158210234Y-79018028D01*
X158044635Y-78897715D01*
X158008128Y-78879114D01*
X157951938Y-78850483D01*
X157901144Y-78802511D01*
X157884349Y-78734690D01*
X157906886Y-78668555D01*
X157951938Y-78629516D01*
X158044631Y-78582287D01*
X158132906Y-78518152D01*
X158210234Y-78461971D01*
X158210236Y-78461968D01*
X158210240Y-78461966D01*
X158354987Y-78317219D01*
X158354989Y-78317215D01*
X158354992Y-78317213D01*
X158426570Y-78218692D01*
X158475308Y-78151610D01*
X158568241Y-77969219D01*
X158631498Y-77774534D01*
X158663521Y-77572352D01*
X158663521Y-77367648D01*
X158632134Y-77169480D01*
X158631498Y-77165465D01*
X158595668Y-77055193D01*
X158568241Y-76970781D01*
X158568239Y-76970778D01*
X158568239Y-76970776D01*
X158521099Y-76878260D01*
X158475308Y-76788390D01*
X158399017Y-76683383D01*
X158354992Y-76622786D01*
X158210234Y-76478028D01*
X158044635Y-76357715D01*
X158028973Y-76349735D01*
X157951938Y-76310483D01*
X157901144Y-76262511D01*
X157884349Y-76194690D01*
X157906886Y-76128555D01*
X157951938Y-76089516D01*
X158044631Y-76042287D01*
X158115712Y-75990644D01*
X158210234Y-75921971D01*
X158210236Y-75921968D01*
X158210240Y-75921966D01*
X158354987Y-75777219D01*
X158354989Y-75777215D01*
X158354992Y-75777213D01*
X158440594Y-75659390D01*
X158475308Y-75611610D01*
X158568241Y-75429219D01*
X158631498Y-75234534D01*
X158663521Y-75032352D01*
X158663521Y-74827648D01*
X158648097Y-74730264D01*
X158631498Y-74625465D01*
X158571432Y-74440602D01*
X158568241Y-74430781D01*
X158568239Y-74430778D01*
X158568239Y-74430776D01*
X158515978Y-74328210D01*
X158475308Y-74248390D01*
X158425812Y-74180264D01*
X158354992Y-74082786D01*
X158210234Y-73938028D01*
X158044635Y-73817715D01*
X158038027Y-73814348D01*
X157951938Y-73770483D01*
X157901144Y-73722511D01*
X157884349Y-73654690D01*
X157906886Y-73588555D01*
X157951938Y-73549516D01*
X158044631Y-73502287D01*
X158116714Y-73449916D01*
X158210234Y-73381971D01*
X158210236Y-73381968D01*
X158210240Y-73381966D01*
X158354987Y-73237219D01*
X158354989Y-73237215D01*
X158354992Y-73237213D01*
X158437434Y-73123739D01*
X158475308Y-73071610D01*
X158568241Y-72889219D01*
X158631498Y-72694534D01*
X158663521Y-72492352D01*
X158663521Y-72287648D01*
X158631498Y-72085466D01*
X158629015Y-72077825D01*
X158602148Y-71995137D01*
X158568241Y-71890781D01*
X158568239Y-71890778D01*
X158568239Y-71890776D01*
X158516741Y-71789707D01*
X158475308Y-71708390D01*
X158453381Y-71678210D01*
X158354992Y-71542786D01*
X158210234Y-71398028D01*
X158044635Y-71277715D01*
X158038027Y-71274348D01*
X157951938Y-71230483D01*
X157901144Y-71182511D01*
X157884349Y-71114690D01*
X157906886Y-71048555D01*
X157951938Y-71009516D01*
X158044631Y-70962287D01*
X158065791Y-70946913D01*
X158210234Y-70841971D01*
X158210236Y-70841968D01*
X158210240Y-70841966D01*
X158354987Y-70697219D01*
X158435025Y-70587055D01*
X158490354Y-70544389D01*
X158559967Y-70538409D01*
X158621762Y-70571015D01*
X158623024Y-70572259D01*
X161113181Y-73062416D01*
X161146666Y-73123739D01*
X161149500Y-73150097D01*
X161149500Y-105299903D01*
X161129815Y-105366942D01*
X161113181Y-105387584D01*
X153414371Y-113086393D01*
X153414369Y-113086396D01*
X153335311Y-113223326D01*
X153335311Y-113223327D01*
X153294387Y-113376055D01*
X153294387Y-113376057D01*
X153294387Y-113534166D01*
X153294386Y-113534166D01*
X153294387Y-113534169D01*
X153325085Y-113648735D01*
X153335312Y-113686899D01*
X153338421Y-113694405D01*
X153336260Y-113695300D01*
X153349500Y-113744698D01*
X153349500Y-116820234D01*
X153329815Y-116887273D01*
X153328602Y-116889125D01*
X153240609Y-117020814D01*
X153240602Y-117020827D01*
X153180264Y-117166498D01*
X153180261Y-117166510D01*
X153149500Y-117321153D01*
X153149500Y-117478846D01*
X153180261Y-117633489D01*
X153180264Y-117633501D01*
X153240602Y-117779172D01*
X153240609Y-117779185D01*
X153328210Y-117910288D01*
X153328213Y-117910292D01*
X153439707Y-118021786D01*
X153439711Y-118021789D01*
X153570814Y-118109390D01*
X153570827Y-118109397D01*
X153716498Y-118169735D01*
X153716503Y-118169737D01*
X153871153Y-118200499D01*
X153871156Y-118200500D01*
X153871158Y-118200500D01*
X154028844Y-118200500D01*
X154028845Y-118200499D01*
X154183497Y-118169737D01*
X154329179Y-118109394D01*
X154460289Y-118021789D01*
X154571789Y-117910289D01*
X154659394Y-117779179D01*
X154664322Y-117767283D01*
X154719735Y-117633501D01*
X154719737Y-117633497D01*
X154750500Y-117478842D01*
X154750500Y-117321158D01*
X154750500Y-117321155D01*
X154750499Y-117321153D01*
X154719738Y-117166510D01*
X154719737Y-117166503D01*
X154719735Y-117166498D01*
X154659397Y-117020827D01*
X154659390Y-117020814D01*
X154571398Y-116889125D01*
X154550520Y-116822447D01*
X154550500Y-116820234D01*
X154550500Y-113700096D01*
X154570185Y-113633057D01*
X154586814Y-113612420D01*
X162118713Y-106080521D01*
X162118716Y-106080520D01*
X162230520Y-105968716D01*
X162280639Y-105881904D01*
X162309577Y-105831785D01*
X162350501Y-105679057D01*
X162350501Y-105520943D01*
X162350501Y-105513348D01*
X162350500Y-105513330D01*
X162350500Y-81603439D01*
X162370185Y-81536400D01*
X162422989Y-81490645D01*
X162492147Y-81480701D01*
X162555703Y-81509726D01*
X162577602Y-81534548D01*
X162628210Y-81610288D01*
X162628213Y-81610292D01*
X162739707Y-81721786D01*
X162739711Y-81721789D01*
X162870814Y-81809390D01*
X162870827Y-81809397D01*
X163016498Y-81869735D01*
X163016503Y-81869737D01*
X163081147Y-81882595D01*
X163171849Y-81900638D01*
X163233760Y-81933023D01*
X163235339Y-81934574D01*
X166954719Y-85653954D01*
X166988204Y-85715277D01*
X166984969Y-85779953D01*
X166934714Y-85934623D01*
X166900500Y-86150638D01*
X166900500Y-86369361D01*
X166934714Y-86585376D01*
X167002297Y-86793380D01*
X167002298Y-86793383D01*
X167101595Y-86988260D01*
X167230142Y-87165193D01*
X167384806Y-87319857D01*
X167535969Y-87429682D01*
X167578635Y-87485011D01*
X167584614Y-87554625D01*
X167552009Y-87616420D01*
X167535969Y-87630318D01*
X167384806Y-87740142D01*
X167230142Y-87894806D01*
X167101595Y-88071739D01*
X167002298Y-88266616D01*
X167002297Y-88266619D01*
X166934714Y-88474623D01*
X166900500Y-88690638D01*
X166900500Y-88909361D01*
X166934714Y-89125378D01*
X166955540Y-89189475D01*
X166957535Y-89259316D01*
X166925290Y-89315473D01*
X163281286Y-92959478D01*
X163169481Y-93071282D01*
X163169479Y-93071285D01*
X163156184Y-93094314D01*
X163138178Y-93125501D01*
X163090423Y-93208215D01*
X163049499Y-93360943D01*
X163049499Y-93360945D01*
X163049499Y-93529046D01*
X163049500Y-93529059D01*
X163049500Y-95320234D01*
X163029815Y-95387273D01*
X163028602Y-95389125D01*
X162940609Y-95520814D01*
X162940602Y-95520827D01*
X162880264Y-95666498D01*
X162880261Y-95666510D01*
X162849500Y-95821153D01*
X162849500Y-95978846D01*
X162880261Y-96133489D01*
X162880264Y-96133501D01*
X162940602Y-96279172D01*
X162940609Y-96279185D01*
X163028210Y-96410288D01*
X163028213Y-96410292D01*
X163139707Y-96521786D01*
X163139711Y-96521789D01*
X163270814Y-96609390D01*
X163270827Y-96609397D01*
X163416498Y-96669735D01*
X163416503Y-96669737D01*
X163571153Y-96700499D01*
X163571156Y-96700500D01*
X163571158Y-96700500D01*
X163728844Y-96700500D01*
X163728845Y-96700499D01*
X163883497Y-96669737D01*
X164029179Y-96609394D01*
X164160289Y-96521789D01*
X164271789Y-96410289D01*
X164292775Y-96378882D01*
X164296898Y-96372712D01*
X164350510Y-96327906D01*
X164419835Y-96319199D01*
X164482862Y-96349353D01*
X164503102Y-96372712D01*
X164528207Y-96410284D01*
X164528213Y-96410292D01*
X164639707Y-96521786D01*
X164639711Y-96521789D01*
X164770814Y-96609390D01*
X164770827Y-96609397D01*
X164916498Y-96669735D01*
X164916503Y-96669737D01*
X164981147Y-96682595D01*
X165071849Y-96700638D01*
X165133760Y-96733023D01*
X165135339Y-96734574D01*
X166535139Y-98134374D01*
X166535149Y-98134385D01*
X166539479Y-98138715D01*
X166539480Y-98138716D01*
X166651284Y-98250520D01*
X166651286Y-98250521D01*
X166651290Y-98250524D01*
X166708402Y-98283497D01*
X166788216Y-98329577D01*
X166892792Y-98357598D01*
X166892791Y-98357598D01*
X166905693Y-98361054D01*
X166940942Y-98370500D01*
X166940943Y-98370500D01*
X174469861Y-98370500D01*
X174536900Y-98390185D01*
X174582655Y-98442989D01*
X174592599Y-98512147D01*
X174587792Y-98532817D01*
X174554714Y-98634621D01*
X174520500Y-98850638D01*
X174520500Y-99069361D01*
X174554714Y-99285376D01*
X174622297Y-99493380D01*
X174622298Y-99493383D01*
X174721595Y-99688260D01*
X174850142Y-99865193D01*
X175004806Y-100019857D01*
X175170374Y-100140147D01*
X175181743Y-100148407D01*
X175279867Y-100198404D01*
X175376616Y-100247701D01*
X175376619Y-100247702D01*
X175480621Y-100281493D01*
X175584625Y-100315286D01*
X175684672Y-100331132D01*
X175800639Y-100349500D01*
X175800644Y-100349500D01*
X176019361Y-100349500D01*
X176124082Y-100332912D01*
X176235375Y-100315286D01*
X176443383Y-100247701D01*
X176638257Y-100148407D01*
X176746373Y-100069857D01*
X176815193Y-100019857D01*
X176815195Y-100019854D01*
X176815199Y-100019852D01*
X176969852Y-99865199D01*
X177079683Y-99714028D01*
X177135011Y-99671364D01*
X177204624Y-99665385D01*
X177266420Y-99697990D01*
X177280313Y-99714023D01*
X177365142Y-99830781D01*
X177390148Y-99865199D01*
X177544806Y-100019857D01*
X177710374Y-100140147D01*
X177721743Y-100148407D01*
X177819867Y-100198404D01*
X177916616Y-100247701D01*
X177916619Y-100247702D01*
X178020621Y-100281493D01*
X178124625Y-100315286D01*
X178224672Y-100331132D01*
X178340639Y-100349500D01*
X178340644Y-100349500D01*
X178559361Y-100349500D01*
X178664082Y-100332912D01*
X178775375Y-100315286D01*
X178983383Y-100247701D01*
X179178257Y-100148407D01*
X179286373Y-100069857D01*
X179355193Y-100019857D01*
X179355195Y-100019854D01*
X179355199Y-100019852D01*
X179509852Y-99865199D01*
X179619683Y-99714028D01*
X179675011Y-99671364D01*
X179744624Y-99665385D01*
X179806420Y-99697990D01*
X179820313Y-99714023D01*
X179905142Y-99830781D01*
X179930148Y-99865199D01*
X180084806Y-100019857D01*
X180250374Y-100140147D01*
X180261743Y-100148407D01*
X180359867Y-100198404D01*
X180456616Y-100247701D01*
X180456619Y-100247702D01*
X180560621Y-100281493D01*
X180664625Y-100315286D01*
X180764672Y-100331132D01*
X180880639Y-100349500D01*
X180880644Y-100349500D01*
X181099361Y-100349500D01*
X181204082Y-100332912D01*
X181315375Y-100315286D01*
X181523383Y-100247701D01*
X181718257Y-100148407D01*
X181826373Y-100069857D01*
X181895193Y-100019857D01*
X181895195Y-100019854D01*
X181895199Y-100019852D01*
X182049852Y-99865199D01*
X182049854Y-99865195D01*
X182049857Y-99865193D01*
X182123355Y-99764030D01*
X182178407Y-99688257D01*
X182277701Y-99493383D01*
X182345286Y-99285375D01*
X182371581Y-99119356D01*
X182379500Y-99069361D01*
X182379500Y-98850638D01*
X182351172Y-98671789D01*
X182345286Y-98634625D01*
X182305491Y-98512147D01*
X182277702Y-98426619D01*
X182277701Y-98426616D01*
X182228254Y-98329573D01*
X182178407Y-98231743D01*
X182159681Y-98205969D01*
X182049857Y-98054806D01*
X181895193Y-97900142D01*
X181718260Y-97771595D01*
X181718259Y-97771594D01*
X181718257Y-97771593D01*
X181621509Y-97722297D01*
X181523383Y-97672298D01*
X181523380Y-97672297D01*
X181315376Y-97604714D01*
X181099361Y-97570500D01*
X181099356Y-97570500D01*
X180880644Y-97570500D01*
X180880639Y-97570500D01*
X180664623Y-97604714D01*
X180456619Y-97672297D01*
X180456616Y-97672298D01*
X180261739Y-97771595D01*
X180084806Y-97900142D01*
X179930142Y-98054806D01*
X179820318Y-98205969D01*
X179764989Y-98248635D01*
X179695375Y-98254614D01*
X179633580Y-98222009D01*
X179619682Y-98205969D01*
X179509857Y-98054806D01*
X179355193Y-97900142D01*
X179178260Y-97771595D01*
X179178259Y-97771594D01*
X179178257Y-97771593D01*
X179081509Y-97722297D01*
X178983383Y-97672298D01*
X178983380Y-97672297D01*
X178775376Y-97604714D01*
X178559361Y-97570500D01*
X178559356Y-97570500D01*
X178340644Y-97570500D01*
X178340639Y-97570500D01*
X178124625Y-97604713D01*
X178060522Y-97625541D01*
X177990681Y-97627535D01*
X177934525Y-97595290D01*
X177747590Y-97408355D01*
X177747588Y-97408352D01*
X177628717Y-97289481D01*
X177628709Y-97289475D01*
X177527918Y-97231284D01*
X177527916Y-97231283D01*
X177491790Y-97210425D01*
X177491789Y-97210424D01*
X177479263Y-97207067D01*
X177339057Y-97169499D01*
X177180943Y-97169499D01*
X177173347Y-97169499D01*
X177173331Y-97169500D01*
X171626254Y-97169500D01*
X171559215Y-97149815D01*
X171513460Y-97097011D01*
X171503516Y-97027853D01*
X171532541Y-96964297D01*
X171569959Y-96935015D01*
X171593253Y-96923146D01*
X171691382Y-96873147D01*
X171900668Y-96721092D01*
X172083592Y-96538168D01*
X172235647Y-96328882D01*
X172353091Y-96098385D01*
X172433032Y-95852354D01*
X172452575Y-95728963D01*
X172473500Y-95596851D01*
X172473500Y-95338148D01*
X184426500Y-95338148D01*
X184426500Y-95596851D01*
X184466967Y-95852350D01*
X184466968Y-95852354D01*
X184546909Y-96098385D01*
X184664353Y-96328882D01*
X184816408Y-96538168D01*
X184999332Y-96721092D01*
X185208618Y-96873147D01*
X185439115Y-96990591D01*
X185685146Y-97070532D01*
X185780961Y-97085707D01*
X185940649Y-97111000D01*
X185940654Y-97111000D01*
X186199351Y-97111000D01*
X186341294Y-97088517D01*
X186454854Y-97070532D01*
X186700885Y-96990591D01*
X186931382Y-96873147D01*
X187140668Y-96721092D01*
X187323592Y-96538168D01*
X187475647Y-96328882D01*
X187593091Y-96098385D01*
X187673032Y-95852354D01*
X187692575Y-95728963D01*
X187713500Y-95596851D01*
X187713500Y-95338148D01*
X187683327Y-95147648D01*
X187673032Y-95082646D01*
X187593091Y-94836615D01*
X187475647Y-94606118D01*
X187323592Y-94396832D01*
X187140668Y-94213908D01*
X186931382Y-94061853D01*
X186700885Y-93944409D01*
X186454854Y-93864468D01*
X186454852Y-93864467D01*
X186454850Y-93864467D01*
X186199351Y-93824000D01*
X186199346Y-93824000D01*
X185940654Y-93824000D01*
X185940649Y-93824000D01*
X185685149Y-93864467D01*
X185439112Y-93944410D01*
X185208617Y-94061853D01*
X184999329Y-94213910D01*
X184816410Y-94396829D01*
X184664353Y-94606117D01*
X184546910Y-94836612D01*
X184466967Y-95082649D01*
X184426500Y-95338148D01*
X172473500Y-95338148D01*
X172443327Y-95147648D01*
X172433032Y-95082646D01*
X172353091Y-94836615D01*
X172235647Y-94606118D01*
X172083592Y-94396832D01*
X171900668Y-94213908D01*
X171691382Y-94061853D01*
X171460885Y-93944409D01*
X171214854Y-93864468D01*
X171214852Y-93864467D01*
X171214850Y-93864467D01*
X170959351Y-93824000D01*
X170959346Y-93824000D01*
X170700654Y-93824000D01*
X170700649Y-93824000D01*
X170445149Y-93864467D01*
X170199112Y-93944410D01*
X169968617Y-94061853D01*
X169759329Y-94213910D01*
X169576410Y-94396829D01*
X169424353Y-94606117D01*
X169306910Y-94836612D01*
X169226967Y-95082649D01*
X169186500Y-95338148D01*
X169186500Y-95596851D01*
X169226967Y-95852350D01*
X169226968Y-95852354D01*
X169306909Y-96098385D01*
X169424353Y-96328882D01*
X169576408Y-96538168D01*
X169759332Y-96721092D01*
X169968618Y-96873147D01*
X170066747Y-96923146D01*
X170090041Y-96935015D01*
X170140837Y-96982990D01*
X170157632Y-97050811D01*
X170135095Y-97116945D01*
X170080380Y-97160397D01*
X170033746Y-97169500D01*
X167320097Y-97169500D01*
X167253058Y-97149815D01*
X167232416Y-97133181D01*
X165984574Y-95885339D01*
X165951089Y-95824016D01*
X165950638Y-95821849D01*
X165919738Y-95666510D01*
X165919737Y-95666503D01*
X165900000Y-95618853D01*
X165859397Y-95520827D01*
X165859390Y-95520814D01*
X165771789Y-95389711D01*
X165771786Y-95389707D01*
X165660292Y-95278213D01*
X165660288Y-95278210D01*
X165529185Y-95190609D01*
X165529172Y-95190602D01*
X165383501Y-95130264D01*
X165383489Y-95130261D01*
X165228845Y-95099500D01*
X165228842Y-95099500D01*
X165071158Y-95099500D01*
X165071155Y-95099500D01*
X164916510Y-95130261D01*
X164916498Y-95130264D01*
X164770827Y-95190602D01*
X164770814Y-95190609D01*
X164639711Y-95278210D01*
X164639707Y-95278213D01*
X164528213Y-95389707D01*
X164503102Y-95427289D01*
X164477922Y-95448330D01*
X164453517Y-95470254D01*
X164451249Y-95470621D01*
X164449489Y-95472093D01*
X164416938Y-95476181D01*
X164384547Y-95481430D01*
X164382442Y-95480513D01*
X164380164Y-95480800D01*
X164350570Y-95466641D01*
X164320483Y-95453545D01*
X164318436Y-95451266D01*
X164317137Y-95450645D01*
X164296898Y-95427288D01*
X164271398Y-95389125D01*
X164250520Y-95322448D01*
X164250500Y-95320234D01*
X164250500Y-93740096D01*
X164270185Y-93673057D01*
X164286814Y-93652420D01*
X166688819Y-91250414D01*
X166750142Y-91216930D01*
X166819834Y-91221914D01*
X166875767Y-91263786D01*
X166900184Y-91329250D01*
X166900500Y-91338096D01*
X166900500Y-91449361D01*
X166934714Y-91665376D01*
X167002297Y-91873380D01*
X167002298Y-91873383D01*
X167101595Y-92068260D01*
X167230142Y-92245193D01*
X167384806Y-92399857D01*
X167476548Y-92466510D01*
X167561743Y-92528407D01*
X167689132Y-92593315D01*
X167756616Y-92627701D01*
X167756619Y-92627702D01*
X167860621Y-92661493D01*
X167964625Y-92695286D01*
X168064672Y-92711132D01*
X168180639Y-92729500D01*
X168180644Y-92729500D01*
X168399361Y-92729500D01*
X168504082Y-92712912D01*
X168615375Y-92695286D01*
X168823383Y-92627701D01*
X169018257Y-92528407D01*
X169126373Y-92449857D01*
X169195193Y-92399857D01*
X169195195Y-92399854D01*
X169195199Y-92399852D01*
X169349852Y-92245199D01*
X169349854Y-92245195D01*
X169349857Y-92245193D01*
X169462744Y-92089815D01*
X169478407Y-92068257D01*
X169577701Y-91873383D01*
X169645286Y-91665375D01*
X169666910Y-91528846D01*
X169679500Y-91449361D01*
X169679500Y-91230638D01*
X169657024Y-91088738D01*
X169645286Y-91014625D01*
X169598371Y-90870234D01*
X169577702Y-90806619D01*
X169577701Y-90806616D01*
X169543315Y-90739132D01*
X169478407Y-90611743D01*
X169470147Y-90600374D01*
X169349857Y-90434806D01*
X169195199Y-90280148D01*
X169184467Y-90272351D01*
X169044028Y-90170316D01*
X169001364Y-90114989D01*
X168995385Y-90045376D01*
X169027990Y-89983580D01*
X169044023Y-89969686D01*
X169195199Y-89859852D01*
X169349852Y-89705199D01*
X169349854Y-89705195D01*
X169349857Y-89705193D01*
X169406229Y-89627601D01*
X169478407Y-89528257D01*
X169577701Y-89333383D01*
X169645286Y-89125375D01*
X169671581Y-88959356D01*
X169679500Y-88909361D01*
X169679500Y-88690638D01*
X169653205Y-88524623D01*
X169645286Y-88474625D01*
X169606628Y-88355645D01*
X169577702Y-88266619D01*
X169577696Y-88266606D01*
X169533973Y-88180795D01*
X169521076Y-88112126D01*
X169547352Y-88047386D01*
X169604458Y-88007128D01*
X169644457Y-88000500D01*
X171720234Y-88000500D01*
X171787273Y-88020185D01*
X171789125Y-88021398D01*
X171920814Y-88109390D01*
X171920827Y-88109397D01*
X172035808Y-88157023D01*
X172066503Y-88169737D01*
X172178230Y-88191961D01*
X172221153Y-88200499D01*
X172221156Y-88200500D01*
X172221158Y-88200500D01*
X172378844Y-88200500D01*
X172378845Y-88200499D01*
X172533497Y-88169737D01*
X172649375Y-88121739D01*
X172679172Y-88109397D01*
X172679172Y-88109396D01*
X172679179Y-88109394D01*
X172810289Y-88021789D01*
X172921789Y-87910289D01*
X173009394Y-87779179D01*
X173069737Y-87633497D01*
X173100500Y-87478842D01*
X173100500Y-87321158D01*
X173100500Y-87321155D01*
X173100499Y-87321153D01*
X173069738Y-87166510D01*
X173069737Y-87166503D01*
X173054939Y-87130776D01*
X173009397Y-87020827D01*
X173009390Y-87020814D01*
X172921789Y-86889711D01*
X172921786Y-86889707D01*
X172810292Y-86778213D01*
X172810288Y-86778210D01*
X172679185Y-86690609D01*
X172679172Y-86690602D01*
X172533501Y-86630264D01*
X172533489Y-86630261D01*
X172378845Y-86599500D01*
X172378842Y-86599500D01*
X172221158Y-86599500D01*
X172221155Y-86599500D01*
X172066510Y-86630261D01*
X172066498Y-86630264D01*
X171920827Y-86690602D01*
X171920814Y-86690609D01*
X171789125Y-86778602D01*
X171722447Y-86799480D01*
X171720234Y-86799500D01*
X169850097Y-86799500D01*
X169820656Y-86790855D01*
X169790670Y-86784332D01*
X169785654Y-86780577D01*
X169783058Y-86779815D01*
X169762416Y-86763181D01*
X169681665Y-86682430D01*
X169648180Y-86621107D01*
X169646873Y-86575354D01*
X169671581Y-86419356D01*
X169679500Y-86369360D01*
X169679500Y-86150638D01*
X169653205Y-85984623D01*
X169645286Y-85934625D01*
X169595031Y-85779953D01*
X169577702Y-85726619D01*
X169577701Y-85726616D01*
X169540677Y-85653954D01*
X169478407Y-85531743D01*
X169386183Y-85404806D01*
X169349857Y-85354806D01*
X169195193Y-85200142D01*
X169018260Y-85071595D01*
X169018259Y-85071594D01*
X169018257Y-85071593D01*
X168921509Y-85022297D01*
X168823383Y-84972298D01*
X168823380Y-84972297D01*
X168615376Y-84904714D01*
X168399361Y-84870500D01*
X168399356Y-84870500D01*
X168180644Y-84870500D01*
X168180639Y-84870500D01*
X167974648Y-84903126D01*
X167905355Y-84894171D01*
X167867569Y-84868334D01*
X164084574Y-81085339D01*
X164051089Y-81024016D01*
X164050638Y-81021849D01*
X164028305Y-80909577D01*
X164019737Y-80866503D01*
X164019735Y-80866498D01*
X163959397Y-80720827D01*
X163959390Y-80720814D01*
X163871789Y-80589711D01*
X163871786Y-80589707D01*
X163760292Y-80478213D01*
X163760288Y-80478210D01*
X163629185Y-80390609D01*
X163629172Y-80390602D01*
X163483501Y-80330264D01*
X163483489Y-80330261D01*
X163328845Y-80299500D01*
X163328842Y-80299500D01*
X163171158Y-80299500D01*
X163171155Y-80299500D01*
X163016510Y-80330261D01*
X163016498Y-80330264D01*
X162870827Y-80390602D01*
X162870814Y-80390609D01*
X162739711Y-80478210D01*
X162739707Y-80478213D01*
X162628213Y-80589707D01*
X162628210Y-80589711D01*
X162577602Y-80665451D01*
X162523989Y-80710256D01*
X162454664Y-80718963D01*
X162391637Y-80688808D01*
X162354918Y-80629365D01*
X162350500Y-80596560D01*
X162350500Y-73949097D01*
X162370185Y-73882058D01*
X162422989Y-73836303D01*
X162492147Y-73826359D01*
X162555703Y-73855384D01*
X162562181Y-73861416D01*
X169581820Y-80881055D01*
X169615305Y-80942378D01*
X169610321Y-81012070D01*
X169581830Y-81056407D01*
X169576414Y-81061823D01*
X169576404Y-81061835D01*
X169424355Y-81271114D01*
X169306910Y-81501612D01*
X169226967Y-81747649D01*
X169186500Y-82003148D01*
X169186500Y-82261851D01*
X169226509Y-82514458D01*
X169226968Y-82517354D01*
X169306909Y-82763385D01*
X169424353Y-82993882D01*
X169576408Y-83203168D01*
X169759332Y-83386092D01*
X169968618Y-83538147D01*
X170199115Y-83655591D01*
X170445146Y-83735532D01*
X170527371Y-83748555D01*
X170700649Y-83776000D01*
X170700654Y-83776000D01*
X170959351Y-83776000D01*
X171101294Y-83753517D01*
X171214854Y-83735532D01*
X171460885Y-83655591D01*
X171691382Y-83538147D01*
X171900668Y-83386092D01*
X172083592Y-83203168D01*
X172235647Y-82993882D01*
X172334076Y-82800705D01*
X172382051Y-82749909D01*
X172444561Y-82733000D01*
X174235831Y-82733000D01*
X174235847Y-82733001D01*
X174243443Y-82733001D01*
X174401554Y-82733001D01*
X174401557Y-82733001D01*
X174554285Y-82692077D01*
X174639711Y-82642756D01*
X174691216Y-82613020D01*
X174764139Y-82540096D01*
X174769200Y-82536001D01*
X174795670Y-82524971D01*
X174820849Y-82511223D01*
X174827829Y-82511572D01*
X174833695Y-82509128D01*
X174855042Y-82512933D01*
X174885522Y-82514457D01*
X174949625Y-82535286D01*
X175057634Y-82552393D01*
X175165639Y-82569500D01*
X175165644Y-82569500D01*
X175384361Y-82569500D01*
X175489082Y-82552912D01*
X175600375Y-82535286D01*
X175808383Y-82467701D01*
X176003257Y-82368407D01*
X176111373Y-82289857D01*
X176180193Y-82239857D01*
X176180195Y-82239854D01*
X176180199Y-82239852D01*
X176334852Y-82085199D01*
X176334854Y-82085195D01*
X176334857Y-82085193D01*
X176403580Y-81990602D01*
X176463407Y-81908257D01*
X176562701Y-81713383D01*
X176630286Y-81505375D01*
X176656081Y-81342511D01*
X176664500Y-81289361D01*
X176664500Y-81070638D01*
X176644185Y-80942378D01*
X176630286Y-80854625D01*
X176609457Y-80790523D01*
X176609023Y-80775310D01*
X176603705Y-80761050D01*
X176608046Y-80741095D01*
X176607463Y-80720684D01*
X176615551Y-80706597D01*
X176618558Y-80692777D01*
X176639705Y-80664528D01*
X176677419Y-80626816D01*
X176738743Y-80593333D01*
X176765098Y-80590500D01*
X180184861Y-80590500D01*
X180251900Y-80610185D01*
X180297655Y-80662989D01*
X180307599Y-80732147D01*
X180302792Y-80752817D01*
X180269714Y-80854621D01*
X180235500Y-81070638D01*
X180235500Y-81289361D01*
X180269714Y-81505376D01*
X180337297Y-81713380D01*
X180337298Y-81713383D01*
X180386217Y-81809390D01*
X180416966Y-81869738D01*
X180436595Y-81908260D01*
X180565142Y-82085193D01*
X180719806Y-82239857D01*
X180831254Y-82320827D01*
X180896743Y-82368407D01*
X180994867Y-82418404D01*
X181091616Y-82467701D01*
X181091619Y-82467702D01*
X181163254Y-82490977D01*
X181299625Y-82535286D01*
X181399672Y-82551132D01*
X181515639Y-82569500D01*
X181515644Y-82569500D01*
X181734361Y-82569500D01*
X181839082Y-82552912D01*
X181950375Y-82535286D01*
X182158383Y-82467701D01*
X182353257Y-82368407D01*
X182461373Y-82289857D01*
X182530193Y-82239857D01*
X182530195Y-82239854D01*
X182530199Y-82239852D01*
X182684852Y-82085199D01*
X182684854Y-82085195D01*
X182684857Y-82085193D01*
X182753580Y-81990602D01*
X182813407Y-81908257D01*
X182912701Y-81713383D01*
X182980286Y-81505375D01*
X183006081Y-81342511D01*
X183014500Y-81289361D01*
X183014500Y-81070638D01*
X182989807Y-80914739D01*
X182980286Y-80854625D01*
X182980285Y-80854621D01*
X182947208Y-80752817D01*
X182945213Y-80682976D01*
X182981294Y-80623144D01*
X183043995Y-80592316D01*
X183065139Y-80590500D01*
X183627403Y-80590500D01*
X183694442Y-80610185D01*
X183715084Y-80626819D01*
X184503715Y-81415450D01*
X184537200Y-81476773D01*
X184533965Y-81541449D01*
X184466967Y-81747648D01*
X184466967Y-81747649D01*
X184426500Y-82003148D01*
X184426500Y-82261851D01*
X184466509Y-82514458D01*
X184466968Y-82517354D01*
X184546909Y-82763385D01*
X184664353Y-82993882D01*
X184816408Y-83203168D01*
X184999332Y-83386092D01*
X185208618Y-83538147D01*
X185439115Y-83655591D01*
X185685146Y-83735532D01*
X185767371Y-83748555D01*
X185940649Y-83776000D01*
X185940654Y-83776000D01*
X186199351Y-83776000D01*
X186341294Y-83753517D01*
X186454854Y-83735532D01*
X186700885Y-83655591D01*
X186931382Y-83538147D01*
X187140668Y-83386092D01*
X187323592Y-83203168D01*
X187475647Y-82993882D01*
X187593091Y-82763385D01*
X187673032Y-82517354D01*
X187696925Y-82366498D01*
X187713500Y-82261851D01*
X187713500Y-82003148D01*
X187682811Y-81809390D01*
X187673032Y-81747646D01*
X187593091Y-81501615D01*
X187475647Y-81271118D01*
X187323592Y-81061832D01*
X187140668Y-80878908D01*
X186931382Y-80726853D01*
X186729351Y-80623913D01*
X186700887Y-80609410D01*
X186700886Y-80609409D01*
X186700885Y-80609409D01*
X186454854Y-80529468D01*
X186454852Y-80529467D01*
X186454850Y-80529467D01*
X186199351Y-80489000D01*
X186199346Y-80489000D01*
X185940654Y-80489000D01*
X185940649Y-80489000D01*
X185685149Y-80529467D01*
X185685148Y-80529467D01*
X185478949Y-80596465D01*
X185409108Y-80598460D01*
X185352950Y-80566215D01*
X184415090Y-79628355D01*
X184415088Y-79628352D01*
X184296217Y-79509481D01*
X184296216Y-79509480D01*
X184209404Y-79459360D01*
X184209404Y-79459359D01*
X184209400Y-79459358D01*
X184159285Y-79430423D01*
X184006557Y-79389499D01*
X183848443Y-79389499D01*
X183840847Y-79389499D01*
X183840831Y-79389500D01*
X176544057Y-79389500D01*
X176385943Y-79389500D01*
X176233215Y-79430423D01*
X176233214Y-79430423D01*
X176233212Y-79430424D01*
X176233209Y-79430425D01*
X176183096Y-79459359D01*
X176183095Y-79459360D01*
X176139689Y-79484420D01*
X176096285Y-79509479D01*
X176096282Y-79509481D01*
X175984478Y-79621286D01*
X175790473Y-79815290D01*
X175729150Y-79848775D01*
X175664475Y-79845540D01*
X175600377Y-79824714D01*
X175600378Y-79824714D01*
X175384361Y-79790500D01*
X175384356Y-79790500D01*
X175165644Y-79790500D01*
X175165639Y-79790500D01*
X174949623Y-79824714D01*
X174741619Y-79892297D01*
X174741616Y-79892298D01*
X174546739Y-79991595D01*
X174369806Y-80120142D01*
X174215142Y-80274806D01*
X174086595Y-80451739D01*
X173987298Y-80646616D01*
X173987297Y-80646619D01*
X173919714Y-80854623D01*
X173885500Y-81070638D01*
X173885500Y-81289361D01*
X173901218Y-81388602D01*
X173892263Y-81457896D01*
X173847267Y-81511348D01*
X173780515Y-81531987D01*
X173778745Y-81532000D01*
X172444561Y-81532000D01*
X172377522Y-81512315D01*
X172334076Y-81464295D01*
X172273180Y-81344780D01*
X172235647Y-81271118D01*
X172083592Y-81061832D01*
X171900668Y-80878908D01*
X171691382Y-80726853D01*
X171489351Y-80623913D01*
X171460887Y-80609410D01*
X171460886Y-80609409D01*
X171460885Y-80609409D01*
X171214854Y-80529468D01*
X171214852Y-80529467D01*
X171214850Y-80529467D01*
X170959351Y-80489000D01*
X170959346Y-80489000D01*
X170939598Y-80489000D01*
X170872559Y-80469315D01*
X170851917Y-80452681D01*
X166472689Y-76073453D01*
X166389874Y-75990638D01*
X173885500Y-75990638D01*
X173885500Y-76209361D01*
X173919714Y-76425376D01*
X173987297Y-76633380D01*
X173987298Y-76633383D01*
X174054782Y-76765825D01*
X174081471Y-76818205D01*
X174086595Y-76828260D01*
X174215142Y-77005193D01*
X174369806Y-77159857D01*
X174535374Y-77280147D01*
X174546743Y-77288407D01*
X174644867Y-77338404D01*
X174741616Y-77387701D01*
X174741619Y-77387702D01*
X174835531Y-77418215D01*
X174949625Y-77455286D01*
X175049672Y-77471132D01*
X175165639Y-77489500D01*
X175165644Y-77489500D01*
X175384361Y-77489500D01*
X175489082Y-77472912D01*
X175600375Y-77455286D01*
X175808383Y-77387701D01*
X176003257Y-77288407D01*
X176111373Y-77209857D01*
X176180193Y-77159857D01*
X176180195Y-77159854D01*
X176180199Y-77159852D01*
X176334852Y-77005199D01*
X176334854Y-77005195D01*
X176334857Y-77005193D01*
X176447744Y-76849815D01*
X176463407Y-76828257D01*
X176562701Y-76633383D01*
X176630286Y-76425375D01*
X176654666Y-76271446D01*
X176664500Y-76209361D01*
X176664500Y-75990638D01*
X180235500Y-75990638D01*
X180235500Y-76209361D01*
X180269714Y-76425376D01*
X180337297Y-76633380D01*
X180337298Y-76633383D01*
X180404782Y-76765825D01*
X180431471Y-76818205D01*
X180436595Y-76828260D01*
X180565142Y-77005193D01*
X180719806Y-77159857D01*
X180885374Y-77280147D01*
X180896743Y-77288407D01*
X180994867Y-77338404D01*
X181091616Y-77387701D01*
X181091619Y-77387702D01*
X181185531Y-77418215D01*
X181299625Y-77455286D01*
X181399672Y-77471132D01*
X181515639Y-77489500D01*
X181515644Y-77489500D01*
X181734361Y-77489500D01*
X181839082Y-77472912D01*
X181950375Y-77455286D01*
X182158383Y-77387701D01*
X182353257Y-77288407D01*
X182461373Y-77209857D01*
X182530193Y-77159857D01*
X182530195Y-77159854D01*
X182530199Y-77159852D01*
X182684852Y-77005199D01*
X182684854Y-77005195D01*
X182684857Y-77005193D01*
X182797744Y-76849815D01*
X182813407Y-76828257D01*
X182912701Y-76633383D01*
X182980286Y-76425375D01*
X183004666Y-76271446D01*
X183014500Y-76209361D01*
X183014500Y-75990638D01*
X182987549Y-75820481D01*
X182980286Y-75774625D01*
X182930192Y-75620449D01*
X182912702Y-75566619D01*
X182912701Y-75566616D01*
X182869482Y-75481795D01*
X182813407Y-75371743D01*
X182776415Y-75320827D01*
X182684857Y-75194806D01*
X182530193Y-75040142D01*
X182353260Y-74911595D01*
X182353259Y-74911594D01*
X182353257Y-74911593D01*
X182287740Y-74878210D01*
X182158383Y-74812298D01*
X182158380Y-74812297D01*
X181950376Y-74744714D01*
X181734361Y-74710500D01*
X181734356Y-74710500D01*
X181515644Y-74710500D01*
X181515639Y-74710500D01*
X181299623Y-74744714D01*
X181091619Y-74812297D01*
X181091616Y-74812298D01*
X180896739Y-74911595D01*
X180719806Y-75040142D01*
X180565142Y-75194806D01*
X180436595Y-75371739D01*
X180337298Y-75566616D01*
X180337297Y-75566619D01*
X180269714Y-75774623D01*
X180235500Y-75990638D01*
X176664500Y-75990638D01*
X176637549Y-75820481D01*
X176630286Y-75774625D01*
X176580192Y-75620449D01*
X176562702Y-75566619D01*
X176562701Y-75566616D01*
X176519482Y-75481795D01*
X176463407Y-75371743D01*
X176426415Y-75320827D01*
X176334857Y-75194806D01*
X176180193Y-75040142D01*
X176003260Y-74911595D01*
X176003259Y-74911594D01*
X176003257Y-74911593D01*
X175937740Y-74878210D01*
X175808383Y-74812298D01*
X175808380Y-74812297D01*
X175600376Y-74744714D01*
X175384361Y-74710500D01*
X175384356Y-74710500D01*
X175165644Y-74710500D01*
X175165639Y-74710500D01*
X174949623Y-74744714D01*
X174741619Y-74812297D01*
X174741616Y-74812298D01*
X174546739Y-74911595D01*
X174369806Y-75040142D01*
X174215142Y-75194806D01*
X174086595Y-75371739D01*
X173987298Y-75566616D01*
X173987297Y-75566619D01*
X173919714Y-75774623D01*
X173885500Y-75990638D01*
X166389874Y-75990638D01*
X155637590Y-65238355D01*
X155637588Y-65238352D01*
X155518717Y-65119481D01*
X155518716Y-65119480D01*
X155431904Y-65069360D01*
X155431904Y-65069359D01*
X155431900Y-65069358D01*
X155381785Y-65040423D01*
X155229057Y-64999499D01*
X155070943Y-64999499D01*
X155063347Y-64999499D01*
X155063331Y-64999500D01*
X152417848Y-64999500D01*
X152350809Y-64979815D01*
X152305054Y-64927011D01*
X152296231Y-64899692D01*
X152269738Y-64766508D01*
X152269737Y-64766507D01*
X152269737Y-64766503D01*
X152269735Y-64766498D01*
X152209397Y-64620827D01*
X152209390Y-64620814D01*
X152126398Y-64496608D01*
X152105520Y-64429930D01*
X152105500Y-64427717D01*
X152105500Y-64075218D01*
X152125185Y-64008179D01*
X152173207Y-63964733D01*
X152212815Y-63944552D01*
X152212815Y-63944551D01*
X152212816Y-63944551D01*
X152304193Y-63878161D01*
X152384786Y-63819609D01*
X152384788Y-63819606D01*
X152384792Y-63819604D01*
X152535104Y-63669292D01*
X152535106Y-63669288D01*
X152535109Y-63669286D01*
X152660048Y-63497320D01*
X152660047Y-63497320D01*
X152660051Y-63497316D01*
X152664514Y-63488554D01*
X152712488Y-63437759D01*
X152780308Y-63420963D01*
X152846444Y-63443499D01*
X152885486Y-63488556D01*
X152889951Y-63497320D01*
X153014890Y-63669286D01*
X153165213Y-63819609D01*
X153337179Y-63944548D01*
X153337181Y-63944549D01*
X153337184Y-63944551D01*
X153526588Y-64041057D01*
X153728757Y-64106746D01*
X153938713Y-64140000D01*
X153938714Y-64140000D01*
X154151286Y-64140000D01*
X154151287Y-64140000D01*
X154361243Y-64106746D01*
X154563412Y-64041057D01*
X154752816Y-63944551D01*
X154839138Y-63881835D01*
X154924786Y-63819609D01*
X154924788Y-63819606D01*
X154924792Y-63819604D01*
X155075104Y-63669292D01*
X155075106Y-63669288D01*
X155075109Y-63669286D01*
X155200048Y-63497320D01*
X155200047Y-63497320D01*
X155200051Y-63497316D01*
X155296557Y-63307912D01*
X155362246Y-63105743D01*
X155395500Y-62895787D01*
X155395500Y-62683213D01*
X155362246Y-62473257D01*
X155348506Y-62430973D01*
X155346512Y-62361135D01*
X155378755Y-62304978D01*
X157708506Y-59975228D01*
X157708511Y-59975224D01*
X157718714Y-59965020D01*
X157718716Y-59965020D01*
X157830520Y-59853216D01*
X157901030Y-59731088D01*
X157909577Y-59716285D01*
X157950501Y-59563557D01*
X157950501Y-59405443D01*
X157950501Y-59397848D01*
X157950500Y-59397830D01*
X157950500Y-57720945D01*
X157950500Y-57720943D01*
X157909577Y-57568216D01*
X157909573Y-57568209D01*
X157830524Y-57431290D01*
X157830518Y-57431282D01*
X157718717Y-57319481D01*
X157718709Y-57319475D01*
X157581790Y-57240426D01*
X157581786Y-57240424D01*
X157581784Y-57240423D01*
X157429057Y-57199500D01*
X157429056Y-57199500D01*
X143686669Y-57199500D01*
X143686653Y-57199499D01*
X143679057Y-57199499D01*
X143520943Y-57199499D01*
X143413587Y-57228265D01*
X143368210Y-57240424D01*
X143368209Y-57240425D01*
X143318096Y-57269359D01*
X143318095Y-57269360D01*
X143274689Y-57294420D01*
X143231285Y-57319479D01*
X143231282Y-57319481D01*
X138769479Y-61781284D01*
X138750745Y-61813733D01*
X138742827Y-61827449D01*
X138740190Y-61832017D01*
X138695335Y-61909708D01*
X138690423Y-61918215D01*
X138649499Y-62070943D01*
X138649499Y-62070945D01*
X138649499Y-62239046D01*
X138649500Y-62239059D01*
X138649500Y-72999902D01*
X138629815Y-73066941D01*
X138613181Y-73087583D01*
X136835339Y-74865425D01*
X136774016Y-74898910D01*
X136771850Y-74899361D01*
X136616508Y-74930261D01*
X136616498Y-74930264D01*
X136470827Y-74990602D01*
X136470814Y-74990609D01*
X136339711Y-75078210D01*
X136339707Y-75078213D01*
X136228213Y-75189707D01*
X136228210Y-75189711D01*
X136140609Y-75320814D01*
X136140602Y-75320827D01*
X136080264Y-75466498D01*
X136080261Y-75466510D01*
X136053571Y-75600691D01*
X136021186Y-75662602D01*
X135960471Y-75697176D01*
X135931954Y-75700500D01*
X135478114Y-75700500D01*
X135319999Y-75700500D01*
X135167272Y-75741423D01*
X135167271Y-75741423D01*
X135167269Y-75741424D01*
X135167266Y-75741425D01*
X135117153Y-75770359D01*
X135117152Y-75770360D01*
X135073746Y-75795420D01*
X135030342Y-75820479D01*
X135030339Y-75820481D01*
X132419481Y-78431339D01*
X132419479Y-78431342D01*
X132369361Y-78518151D01*
X132369359Y-78518153D01*
X132340425Y-78568266D01*
X132340424Y-78568267D01*
X132324544Y-78627529D01*
X132299499Y-78721000D01*
X132299499Y-78721002D01*
X132299499Y-78889103D01*
X132299500Y-78889116D01*
X132299500Y-78920234D01*
X132279815Y-78987273D01*
X132278602Y-78989125D01*
X132190609Y-79120814D01*
X132190602Y-79120827D01*
X132130264Y-79266498D01*
X132130261Y-79266510D01*
X132099500Y-79421153D01*
X132099500Y-79578841D01*
X132103969Y-79601310D01*
X132097740Y-79670901D01*
X132054877Y-79726078D01*
X131988987Y-79749322D01*
X131982351Y-79749500D01*
X124372182Y-79749500D01*
X124305143Y-79729815D01*
X124284501Y-79713181D01*
X122156491Y-77585171D01*
X122123006Y-77523848D01*
X122127990Y-77454156D01*
X122169862Y-77398223D01*
X122187874Y-77387007D01*
X122283257Y-77338407D01*
X122361881Y-77281284D01*
X122460193Y-77209857D01*
X122460195Y-77209854D01*
X122460199Y-77209852D01*
X122614852Y-77055199D01*
X122614854Y-77055195D01*
X122614857Y-77055193D01*
X122676188Y-76970776D01*
X122743407Y-76878257D01*
X122842701Y-76683383D01*
X122910286Y-76475375D01*
X122927912Y-76364082D01*
X122944500Y-76259361D01*
X122944500Y-76040638D01*
X122918925Y-75879172D01*
X122910286Y-75824625D01*
X122856599Y-75659390D01*
X122842702Y-75616619D01*
X122842701Y-75616616D01*
X122774005Y-75481795D01*
X122743407Y-75421743D01*
X122707080Y-75371743D01*
X122614857Y-75244806D01*
X122460193Y-75090142D01*
X122283260Y-74961595D01*
X122283259Y-74961594D01*
X122283257Y-74961593D01*
X122220825Y-74929782D01*
X122088383Y-74862298D01*
X122088380Y-74862297D01*
X121880376Y-74794714D01*
X121664361Y-74760500D01*
X121664356Y-74760500D01*
X121445644Y-74760500D01*
X121445639Y-74760500D01*
X121229623Y-74794714D01*
X121021619Y-74862297D01*
X121021616Y-74862298D01*
X120826739Y-74961595D01*
X120649806Y-75090142D01*
X120495142Y-75244806D01*
X120366593Y-75421741D01*
X120299784Y-75552859D01*
X120251809Y-75603654D01*
X120183988Y-75620449D01*
X120127299Y-75603950D01*
X120103870Y-75590423D01*
X119951142Y-75549499D01*
X119793028Y-75549499D01*
X119785432Y-75549499D01*
X119785416Y-75549500D01*
X116534490Y-75549500D01*
X116467451Y-75529815D01*
X116424005Y-75481795D01*
X116416217Y-75466510D01*
X116393407Y-75421743D01*
X116357080Y-75371743D01*
X116264857Y-75244806D01*
X116110193Y-75090142D01*
X115933260Y-74961595D01*
X115933259Y-74961594D01*
X115933257Y-74961593D01*
X115870825Y-74929782D01*
X115738383Y-74862298D01*
X115738380Y-74862297D01*
X115530376Y-74794714D01*
X115314361Y-74760500D01*
X115314356Y-74760500D01*
X115095644Y-74760500D01*
X115095639Y-74760500D01*
X114879623Y-74794714D01*
X114671619Y-74862297D01*
X114671616Y-74862298D01*
X114476739Y-74961595D01*
X114299806Y-75090142D01*
X114145142Y-75244806D01*
X114016595Y-75421739D01*
X113917298Y-75616616D01*
X113917297Y-75616619D01*
X113849714Y-75824623D01*
X113815500Y-76040638D01*
X113815500Y-76259361D01*
X113849714Y-76475376D01*
X113917297Y-76683380D01*
X113917298Y-76683383D01*
X113970801Y-76788386D01*
X114003515Y-76852591D01*
X114016595Y-76878260D01*
X114145142Y-77055193D01*
X114299806Y-77209857D01*
X114398119Y-77281284D01*
X114476743Y-77338407D01*
X114594138Y-77398223D01*
X114671616Y-77437701D01*
X114671619Y-77437702D01*
X114775621Y-77471493D01*
X114879625Y-77505286D01*
X114979672Y-77521132D01*
X115095639Y-77539500D01*
X115095644Y-77539500D01*
X115314361Y-77539500D01*
X115419082Y-77522912D01*
X115530375Y-77505286D01*
X115738383Y-77437701D01*
X115933257Y-77338407D01*
X116032601Y-77266229D01*
X116110193Y-77209857D01*
X116110195Y-77209854D01*
X116110199Y-77209852D01*
X116264852Y-77055199D01*
X116264854Y-77055195D01*
X116264857Y-77055193D01*
X116326188Y-76970776D01*
X116393407Y-76878257D01*
X116424005Y-76818204D01*
X116471980Y-76767409D01*
X116534490Y-76750500D01*
X119571988Y-76750500D01*
X119639027Y-76770185D01*
X119659669Y-76786819D01*
X123587224Y-80714374D01*
X123587234Y-80714385D01*
X123591564Y-80718715D01*
X123591565Y-80718716D01*
X123703369Y-80830520D01*
X123787180Y-80878908D01*
X123840300Y-80909577D01*
X123993028Y-80950501D01*
X123993031Y-80950501D01*
X124158738Y-80950501D01*
X124158754Y-80950500D01*
X124620259Y-80950500D01*
X124687298Y-80970185D01*
X124733053Y-81022989D01*
X124742997Y-81092147D01*
X124720577Y-81147385D01*
X124594355Y-81321114D01*
X124476910Y-81551612D01*
X124476909Y-81551614D01*
X124476909Y-81551615D01*
X124457844Y-81610292D01*
X124396967Y-81797649D01*
X124356500Y-82053148D01*
X124356500Y-82311851D01*
X124395824Y-82560132D01*
X124396968Y-82567354D01*
X124476909Y-82813385D01*
X124594353Y-83043882D01*
X124746408Y-83253168D01*
X124929332Y-83436092D01*
X125138618Y-83588147D01*
X125369115Y-83705591D01*
X125615146Y-83785532D01*
X125710961Y-83800707D01*
X125870649Y-83826000D01*
X125870654Y-83826000D01*
X126129351Y-83826000D01*
X126271294Y-83803517D01*
X126384854Y-83785532D01*
X126630885Y-83705591D01*
X126861382Y-83588147D01*
X127070668Y-83436092D01*
X127253592Y-83253168D01*
X127405647Y-83043882D01*
X127523091Y-82813385D01*
X127603032Y-82567354D01*
X127634542Y-82368407D01*
X127643500Y-82311851D01*
X127643500Y-82053148D01*
X127604893Y-81809397D01*
X127603032Y-81797646D01*
X127523091Y-81551615D01*
X127405647Y-81321118D01*
X127338680Y-81228946D01*
X127279423Y-81147385D01*
X127255943Y-81081579D01*
X127271768Y-81013525D01*
X127321874Y-80964830D01*
X127379741Y-80950500D01*
X131648396Y-80950500D01*
X131715435Y-80970185D01*
X131761190Y-81022989D01*
X131771134Y-81092147D01*
X131742109Y-81155703D01*
X131717287Y-81177602D01*
X131640446Y-81228945D01*
X131640442Y-81228948D01*
X131528948Y-81340442D01*
X131528945Y-81340446D01*
X131441344Y-81471549D01*
X131441337Y-81471562D01*
X131380999Y-81617233D01*
X131380996Y-81617245D01*
X131350235Y-81771888D01*
X131350235Y-81929581D01*
X131380996Y-82084224D01*
X131380999Y-82084236D01*
X131441337Y-82229907D01*
X131441344Y-82229920D01*
X131528945Y-82361023D01*
X131528948Y-82361027D01*
X131640442Y-82472521D01*
X131640446Y-82472524D01*
X131771549Y-82560125D01*
X131771562Y-82560132D01*
X131899247Y-82613020D01*
X131917238Y-82620472D01*
X131981882Y-82633330D01*
X132072584Y-82651373D01*
X132134495Y-82683758D01*
X132136074Y-82685309D01*
X133513181Y-84062416D01*
X133546666Y-84123739D01*
X133549500Y-84150097D01*
X133549500Y-87420234D01*
X133529815Y-87487273D01*
X133528602Y-87489125D01*
X133440609Y-87620814D01*
X133440602Y-87620827D01*
X133380264Y-87766498D01*
X133380261Y-87766510D01*
X133349500Y-87921153D01*
X133349500Y-88078841D01*
X133353969Y-88101310D01*
X133347740Y-88170901D01*
X133304877Y-88226078D01*
X133238987Y-88249322D01*
X133232351Y-88249500D01*
X109549490Y-88249500D01*
X109482451Y-88229815D01*
X109439005Y-88181795D01*
X109408407Y-88121743D01*
X109372080Y-88071743D01*
X109279857Y-87944806D01*
X109125199Y-87790148D01*
X109125191Y-87790142D01*
X108974028Y-87680316D01*
X108931364Y-87624989D01*
X108925385Y-87555376D01*
X108957990Y-87493580D01*
X108974023Y-87479686D01*
X109125199Y-87369852D01*
X109279852Y-87215199D01*
X109279854Y-87215195D01*
X109279857Y-87215193D01*
X109341188Y-87130776D01*
X109408407Y-87038257D01*
X109507701Y-86843383D01*
X109575286Y-86635375D01*
X109592912Y-86524082D01*
X109609500Y-86419361D01*
X109609500Y-86200638D01*
X109589595Y-86074971D01*
X109575286Y-85984625D01*
X109507701Y-85776617D01*
X109507701Y-85776616D01*
X109473315Y-85709132D01*
X109408407Y-85581743D01*
X109372080Y-85531743D01*
X109279857Y-85404806D01*
X109125193Y-85250142D01*
X108948260Y-85121595D01*
X108948259Y-85121594D01*
X108948257Y-85121593D01*
X108885825Y-85089782D01*
X108753383Y-85022298D01*
X108753380Y-85022297D01*
X108545376Y-84954714D01*
X108329361Y-84920500D01*
X108329356Y-84920500D01*
X108110644Y-84920500D01*
X108110639Y-84920500D01*
X107894623Y-84954714D01*
X107686619Y-85022297D01*
X107686616Y-85022298D01*
X107491739Y-85121595D01*
X107314806Y-85250142D01*
X107160142Y-85404806D01*
X107031595Y-85581739D01*
X106932298Y-85776616D01*
X106932297Y-85776619D01*
X106864714Y-85984623D01*
X106830500Y-86200638D01*
X95600500Y-86200638D01*
X95600500Y-82053148D01*
X109116500Y-82053148D01*
X109116500Y-82311851D01*
X109155824Y-82560132D01*
X109156968Y-82567354D01*
X109236909Y-82813385D01*
X109354353Y-83043882D01*
X109506408Y-83253168D01*
X109689332Y-83436092D01*
X109898618Y-83588147D01*
X110129115Y-83705591D01*
X110375146Y-83785532D01*
X110470961Y-83800707D01*
X110630649Y-83826000D01*
X110630654Y-83826000D01*
X110889351Y-83826000D01*
X111031294Y-83803517D01*
X111144854Y-83785532D01*
X111390885Y-83705591D01*
X111621382Y-83588147D01*
X111830668Y-83436092D01*
X112013592Y-83253168D01*
X112165647Y-83043882D01*
X112283091Y-82813385D01*
X112363032Y-82567354D01*
X112394542Y-82368407D01*
X112403500Y-82311851D01*
X112403500Y-82053148D01*
X112364893Y-81809397D01*
X112363032Y-81797646D01*
X112283091Y-81551615D01*
X112165647Y-81321118D01*
X112098680Y-81228946D01*
X112069411Y-81188660D01*
X112069409Y-81188658D01*
X112019990Y-81120638D01*
X113815500Y-81120638D01*
X113815500Y-81339361D01*
X113849714Y-81555376D01*
X113917297Y-81763380D01*
X113917298Y-81763383D01*
X114016595Y-81958260D01*
X114145142Y-82135193D01*
X114299806Y-82289857D01*
X114405312Y-82366510D01*
X114476743Y-82418407D01*
X114582947Y-82472521D01*
X114671616Y-82517701D01*
X114671619Y-82517702D01*
X114727939Y-82536001D01*
X114879625Y-82585286D01*
X114979672Y-82601132D01*
X115095639Y-82619500D01*
X115095644Y-82619500D01*
X115314361Y-82619500D01*
X115419082Y-82602912D01*
X115530375Y-82585286D01*
X115738383Y-82517701D01*
X115933257Y-82418407D01*
X116032601Y-82346229D01*
X116110193Y-82289857D01*
X116110195Y-82289854D01*
X116110199Y-82289852D01*
X116264852Y-82135199D01*
X116264854Y-82135195D01*
X116264857Y-82135193D01*
X116348378Y-82020234D01*
X116393407Y-81958257D01*
X116492701Y-81763383D01*
X116560286Y-81555375D01*
X116577912Y-81444082D01*
X116594500Y-81339361D01*
X116594500Y-81120638D01*
X120165500Y-81120638D01*
X120165500Y-81339361D01*
X120199714Y-81555376D01*
X120267297Y-81763380D01*
X120267298Y-81763383D01*
X120366595Y-81958260D01*
X120495142Y-82135193D01*
X120649806Y-82289857D01*
X120755312Y-82366510D01*
X120826743Y-82418407D01*
X120932947Y-82472521D01*
X121021616Y-82517701D01*
X121021619Y-82517702D01*
X121077939Y-82536001D01*
X121229625Y-82585286D01*
X121329672Y-82601132D01*
X121445639Y-82619500D01*
X121445644Y-82619500D01*
X121664361Y-82619500D01*
X121769082Y-82602912D01*
X121880375Y-82585286D01*
X122088383Y-82517701D01*
X122283257Y-82418407D01*
X122382601Y-82346229D01*
X122460193Y-82289857D01*
X122460195Y-82289854D01*
X122460199Y-82289852D01*
X122614852Y-82135199D01*
X122614854Y-82135195D01*
X122614857Y-82135193D01*
X122698378Y-82020234D01*
X122743407Y-81958257D01*
X122842701Y-81763383D01*
X122910286Y-81555375D01*
X122927912Y-81444082D01*
X122944500Y-81339361D01*
X122944500Y-81120638D01*
X122923304Y-80986819D01*
X122910286Y-80904625D01*
X122876493Y-80800621D01*
X122842702Y-80696619D01*
X122842701Y-80696616D01*
X122791719Y-80596560D01*
X122743407Y-80501743D01*
X122707080Y-80451743D01*
X122614857Y-80324806D01*
X122460193Y-80170142D01*
X122283260Y-80041595D01*
X122283259Y-80041594D01*
X122283257Y-80041593D01*
X122220825Y-80009782D01*
X122088383Y-79942298D01*
X122088380Y-79942297D01*
X121880376Y-79874714D01*
X121664361Y-79840500D01*
X121664356Y-79840500D01*
X121445644Y-79840500D01*
X121445639Y-79840500D01*
X121229623Y-79874714D01*
X121021619Y-79942297D01*
X121021616Y-79942298D01*
X120826739Y-80041595D01*
X120649806Y-80170142D01*
X120495142Y-80324806D01*
X120366595Y-80501739D01*
X120267298Y-80696616D01*
X120267297Y-80696619D01*
X120199714Y-80904623D01*
X120165500Y-81120638D01*
X116594500Y-81120638D01*
X116573304Y-80986819D01*
X116560286Y-80904625D01*
X116526493Y-80800621D01*
X116492702Y-80696619D01*
X116492701Y-80696616D01*
X116441719Y-80596560D01*
X116393407Y-80501743D01*
X116357080Y-80451743D01*
X116264857Y-80324806D01*
X116110193Y-80170142D01*
X115933260Y-80041595D01*
X115933259Y-80041594D01*
X115933257Y-80041593D01*
X115870825Y-80009782D01*
X115738383Y-79942298D01*
X115738380Y-79942297D01*
X115530376Y-79874714D01*
X115314361Y-79840500D01*
X115314356Y-79840500D01*
X115095644Y-79840500D01*
X115095639Y-79840500D01*
X114879623Y-79874714D01*
X114671619Y-79942297D01*
X114671616Y-79942298D01*
X114476739Y-80041595D01*
X114299806Y-80170142D01*
X114145142Y-80324806D01*
X114016595Y-80501739D01*
X113917298Y-80696616D01*
X113917297Y-80696619D01*
X113849714Y-80904623D01*
X113815500Y-81120638D01*
X112019990Y-81120638D01*
X112013592Y-81111832D01*
X111830668Y-80928908D01*
X111621382Y-80776853D01*
X111390885Y-80659409D01*
X111144854Y-80579468D01*
X111144852Y-80579467D01*
X111144850Y-80579467D01*
X110889351Y-80539000D01*
X110889346Y-80539000D01*
X110630654Y-80539000D01*
X110630649Y-80539000D01*
X110375149Y-80579467D01*
X110341193Y-80590500D01*
X110168488Y-80646616D01*
X110129112Y-80659410D01*
X109898617Y-80776853D01*
X109689329Y-80928910D01*
X109506410Y-81111829D01*
X109354353Y-81321117D01*
X109236910Y-81551612D01*
X109236909Y-81551614D01*
X109236909Y-81551615D01*
X109217844Y-81610292D01*
X109156967Y-81797649D01*
X109116500Y-82053148D01*
X95600500Y-82053148D01*
X95600500Y-70039379D01*
X116242000Y-70039379D01*
X116242000Y-70260620D01*
X116276607Y-70479122D01*
X116344973Y-70689529D01*
X116379598Y-70757483D01*
X116445409Y-70886643D01*
X116575445Y-71065622D01*
X116731878Y-71222055D01*
X116910857Y-71352091D01*
X116949281Y-71371669D01*
X117107970Y-71452526D01*
X117107972Y-71452526D01*
X117107975Y-71452528D01*
X117220757Y-71489173D01*
X117318377Y-71520892D01*
X117536880Y-71555500D01*
X117536885Y-71555500D01*
X119568120Y-71555500D01*
X119786622Y-71520892D01*
X119997025Y-71452528D01*
X120194143Y-71352091D01*
X120373122Y-71222055D01*
X120529555Y-71065622D01*
X120659591Y-70886643D01*
X120760028Y-70689525D01*
X120828392Y-70479122D01*
X120848967Y-70349219D01*
X120863000Y-70260620D01*
X120863000Y-70039379D01*
X120828392Y-69820877D01*
X120760026Y-69610470D01*
X120659590Y-69413356D01*
X120529555Y-69234378D01*
X120373122Y-69077945D01*
X120194143Y-68947909D01*
X120183559Y-68942516D01*
X119997029Y-68847473D01*
X119786622Y-68779107D01*
X119568120Y-68744500D01*
X119568115Y-68744500D01*
X117536885Y-68744500D01*
X117536880Y-68744500D01*
X117318377Y-68779107D01*
X117107970Y-68847473D01*
X116910856Y-68947909D01*
X116835332Y-69002781D01*
X116731878Y-69077945D01*
X116731876Y-69077947D01*
X116731875Y-69077947D01*
X116575447Y-69234375D01*
X116575447Y-69234376D01*
X116575445Y-69234378D01*
X116519599Y-69311242D01*
X116445409Y-69413356D01*
X116344973Y-69610470D01*
X116276607Y-69820877D01*
X116242000Y-70039379D01*
X95600500Y-70039379D01*
X95600500Y-65339379D01*
X116242000Y-65339379D01*
X116242000Y-65560620D01*
X116276607Y-65779122D01*
X116344973Y-65989529D01*
X116431618Y-66159577D01*
X116445409Y-66186643D01*
X116575445Y-66365622D01*
X116731878Y-66522055D01*
X116910857Y-66652091D01*
X117003985Y-66699542D01*
X117107970Y-66752526D01*
X117107972Y-66752526D01*
X117107975Y-66752528D01*
X117220757Y-66789173D01*
X117318377Y-66820892D01*
X117536880Y-66855500D01*
X117536885Y-66855500D01*
X119568120Y-66855500D01*
X119786622Y-66820892D01*
X119997025Y-66752528D01*
X120194143Y-66652091D01*
X120373122Y-66522055D01*
X120529555Y-66365622D01*
X120659591Y-66186643D01*
X120760028Y-65989525D01*
X120828392Y-65779122D01*
X120863000Y-65560620D01*
X120863000Y-65339379D01*
X120828392Y-65120877D01*
X120760026Y-64910470D01*
X120659590Y-64713356D01*
X120529555Y-64534378D01*
X120373122Y-64377945D01*
X120194143Y-64247909D01*
X120124624Y-64212487D01*
X119997029Y-64147473D01*
X119786622Y-64079107D01*
X119568120Y-64044500D01*
X119568115Y-64044500D01*
X117536885Y-64044500D01*
X117536880Y-64044500D01*
X117318377Y-64079107D01*
X117107970Y-64147473D01*
X116910856Y-64247909D01*
X116808742Y-64322099D01*
X116731878Y-64377945D01*
X116731876Y-64377947D01*
X116731875Y-64377947D01*
X116575447Y-64534375D01*
X116575447Y-64534376D01*
X116575445Y-64534378D01*
X116519599Y-64611242D01*
X116445409Y-64713356D01*
X116344973Y-64910470D01*
X116276607Y-65120877D01*
X116242000Y-65339379D01*
X95600500Y-65339379D01*
X95600500Y-60639379D01*
X116242000Y-60639379D01*
X116242000Y-60860620D01*
X116276607Y-61079122D01*
X116344973Y-61289529D01*
X116445409Y-61486643D01*
X116575445Y-61665622D01*
X116731878Y-61822055D01*
X116910857Y-61952091D01*
X117003985Y-61999542D01*
X117107970Y-62052526D01*
X117107972Y-62052526D01*
X117107975Y-62052528D01*
X117164651Y-62070943D01*
X117318377Y-62120892D01*
X117536880Y-62155500D01*
X117536885Y-62155500D01*
X119568120Y-62155500D01*
X119786622Y-62120892D01*
X119794815Y-62118230D01*
X119997025Y-62052528D01*
X120194143Y-61952091D01*
X120373122Y-61822055D01*
X120529555Y-61665622D01*
X120659591Y-61486643D01*
X120760028Y-61289525D01*
X120828392Y-61079122D01*
X120863000Y-60860620D01*
X120863000Y-60639379D01*
X120828392Y-60420877D01*
X120760026Y-60210470D01*
X120659590Y-60013356D01*
X120529555Y-59834378D01*
X120373122Y-59677945D01*
X120194143Y-59547909D01*
X119997029Y-59447473D01*
X119786622Y-59379107D01*
X119568120Y-59344500D01*
X119568115Y-59344500D01*
X117536885Y-59344500D01*
X117536880Y-59344500D01*
X117318377Y-59379107D01*
X117107970Y-59447473D01*
X116910856Y-59547909D01*
X116814336Y-59618036D01*
X116731878Y-59677945D01*
X116731876Y-59677947D01*
X116731875Y-59677947D01*
X116575447Y-59834375D01*
X116575447Y-59834376D01*
X116575445Y-59834378D01*
X116519599Y-59911242D01*
X116445409Y-60013356D01*
X116344973Y-60210470D01*
X116276607Y-60420877D01*
X116242000Y-60639379D01*
X95600500Y-60639379D01*
X95600500Y-56124500D01*
X95620185Y-56057461D01*
X95672989Y-56011706D01*
X95724500Y-56000500D01*
X200975500Y-56000500D01*
X201042539Y-56020185D01*
G37*
%TD.AperFunction*%
%TA.AperFunction,NonConductor*%
G36*
X156692539Y-58420185D02*
G01*
X156738294Y-58472989D01*
X156749500Y-58524500D01*
X156749500Y-59184402D01*
X156729815Y-59251441D01*
X156713181Y-59272083D01*
X155607181Y-60378083D01*
X155545858Y-60411568D01*
X155476166Y-60406584D01*
X155420233Y-60364712D01*
X155395816Y-60299248D01*
X155395500Y-60290402D01*
X155395500Y-60143213D01*
X155362246Y-59933257D01*
X155296557Y-59731088D01*
X155200051Y-59541684D01*
X155200049Y-59541681D01*
X155200048Y-59541679D01*
X155075109Y-59369713D01*
X154924786Y-59219390D01*
X154752820Y-59094451D01*
X154563414Y-58997944D01*
X154563413Y-58997943D01*
X154563412Y-58997943D01*
X154361243Y-58932254D01*
X154361241Y-58932253D01*
X154361240Y-58932253D01*
X154199957Y-58906708D01*
X154151287Y-58899000D01*
X153938713Y-58899000D01*
X153890042Y-58906708D01*
X153728760Y-58932253D01*
X153526585Y-58997944D01*
X153337179Y-59094451D01*
X153165213Y-59219390D01*
X153014890Y-59369713D01*
X152889949Y-59541682D01*
X152885484Y-59550446D01*
X152837509Y-59601242D01*
X152769688Y-59618036D01*
X152703553Y-59595498D01*
X152664516Y-59550446D01*
X152660050Y-59541682D01*
X152535109Y-59369713D01*
X152384786Y-59219390D01*
X152212820Y-59094451D01*
X152023414Y-58997944D01*
X152023413Y-58997943D01*
X152023412Y-58997943D01*
X151821243Y-58932254D01*
X151821241Y-58932253D01*
X151821240Y-58932253D01*
X151659957Y-58906708D01*
X151611287Y-58899000D01*
X151398713Y-58899000D01*
X151370006Y-58903546D01*
X151188757Y-58932253D01*
X151146473Y-58945992D01*
X151076632Y-58947986D01*
X151020476Y-58915741D01*
X150716916Y-58612181D01*
X150683431Y-58550858D01*
X150688415Y-58481166D01*
X150730287Y-58425233D01*
X150795751Y-58400816D01*
X150804597Y-58400500D01*
X156625500Y-58400500D01*
X156692539Y-58420185D01*
G37*
%TD.AperFunction*%
%TA.AperFunction,NonConductor*%
G36*
X152792226Y-60885024D02*
G01*
X152804810Y-60884485D01*
X152824674Y-60896081D01*
X152846444Y-60903499D01*
X152855719Y-60914203D01*
X152865151Y-60919709D01*
X152885486Y-60948556D01*
X152889951Y-60957320D01*
X153014890Y-61129286D01*
X153165213Y-61279609D01*
X153337182Y-61404550D01*
X153345946Y-61409016D01*
X153396742Y-61456991D01*
X153413536Y-61524812D01*
X153390998Y-61590947D01*
X153345946Y-61629984D01*
X153337182Y-61634449D01*
X153165213Y-61759390D01*
X153014890Y-61909713D01*
X152889949Y-62081682D01*
X152885484Y-62090446D01*
X152837509Y-62141242D01*
X152769688Y-62158036D01*
X152703553Y-62135498D01*
X152664516Y-62090446D01*
X152660050Y-62081682D01*
X152535109Y-61909713D01*
X152384786Y-61759390D01*
X152212820Y-61634451D01*
X152212115Y-61634091D01*
X152204054Y-61629985D01*
X152153259Y-61582012D01*
X152136463Y-61514192D01*
X152158999Y-61448056D01*
X152204054Y-61409015D01*
X152212816Y-61404551D01*
X152293500Y-61345931D01*
X152384786Y-61279609D01*
X152384788Y-61279606D01*
X152384792Y-61279604D01*
X152535104Y-61129292D01*
X152535106Y-61129288D01*
X152535109Y-61129286D01*
X152660048Y-60957320D01*
X152660047Y-60957320D01*
X152660051Y-60957316D01*
X152664514Y-60948554D01*
X152673160Y-60939400D01*
X152677897Y-60927732D01*
X152696696Y-60914479D01*
X152712488Y-60897759D01*
X152724710Y-60894731D01*
X152735004Y-60887476D01*
X152757985Y-60886491D01*
X152780308Y-60880963D01*
X152792226Y-60885024D01*
G37*
%TD.AperFunction*%
%TA.AperFunction,NonConductor*%
G36*
X154916942Y-66220185D02*
G01*
X154937584Y-66236819D01*
X157084321Y-68383556D01*
X157117806Y-68444879D01*
X157112822Y-68514571D01*
X157070950Y-68570504D01*
X157034958Y-68589168D01*
X156863799Y-68644781D01*
X156681407Y-68737715D01*
X156515807Y-68858028D01*
X156371049Y-69002786D01*
X156250736Y-69168386D01*
X156157802Y-69350776D01*
X156094543Y-69545465D01*
X156062521Y-69747648D01*
X156062521Y-69952351D01*
X156094543Y-70154534D01*
X156157802Y-70349223D01*
X156250736Y-70531613D01*
X156371049Y-70697213D01*
X156515807Y-70841971D01*
X156670770Y-70954556D01*
X156681411Y-70962287D01*
X156770233Y-71007544D01*
X156774101Y-71009515D01*
X156824897Y-71057490D01*
X156841692Y-71125311D01*
X156819155Y-71191446D01*
X156774101Y-71230485D01*
X156681407Y-71277715D01*
X156515807Y-71398028D01*
X156371049Y-71542786D01*
X156250736Y-71708385D01*
X156243904Y-71721795D01*
X156195930Y-71772591D01*
X156133419Y-71789500D01*
X155490097Y-71789500D01*
X155423058Y-71769815D01*
X155402416Y-71753181D01*
X150061416Y-66412181D01*
X150027931Y-66350858D01*
X150032915Y-66281166D01*
X150074787Y-66225233D01*
X150140251Y-66200816D01*
X150149097Y-66200500D01*
X154849903Y-66200500D01*
X154916942Y-66220185D01*
G37*
%TD.AperFunction*%
%TA.AperFunction,NonConductor*%
G36*
X140340855Y-62010894D02*
G01*
X140396788Y-62052766D01*
X140421205Y-62118230D01*
X140421521Y-62127076D01*
X140421521Y-72077825D01*
X140401836Y-72144864D01*
X140385202Y-72165506D01*
X140062181Y-72488527D01*
X140000858Y-72522012D01*
X139931166Y-72517028D01*
X139875233Y-72475156D01*
X139850816Y-72409692D01*
X139850500Y-72400846D01*
X139850500Y-62450097D01*
X139870185Y-62383058D01*
X139886819Y-62362416D01*
X140209840Y-62039395D01*
X140271163Y-62005910D01*
X140340855Y-62010894D01*
G37*
%TD.AperFunction*%
%TA.AperFunction,NonConductor*%
G36*
X145206575Y-59420185D02*
G01*
X145252330Y-59472989D01*
X145262274Y-59542147D01*
X145250021Y-59580795D01*
X145173444Y-59731085D01*
X145107753Y-59933260D01*
X145095067Y-60013356D01*
X145074500Y-60143213D01*
X145074500Y-60355787D01*
X145107754Y-60565743D01*
X145135321Y-60650586D01*
X145173444Y-60767914D01*
X145269951Y-60957320D01*
X145394890Y-61129286D01*
X145508430Y-61242826D01*
X145541915Y-61304149D01*
X145536931Y-61373841D01*
X145495059Y-61429774D01*
X145464083Y-61446689D01*
X145332669Y-61495703D01*
X145332664Y-61495706D01*
X145217455Y-61581952D01*
X145217452Y-61581955D01*
X145131206Y-61697164D01*
X145131202Y-61697171D01*
X145080908Y-61832017D01*
X145074501Y-61891616D01*
X145074500Y-61891635D01*
X145074500Y-63687370D01*
X145074501Y-63687376D01*
X145080908Y-63746983D01*
X145131202Y-63881828D01*
X145131206Y-63881835D01*
X145217452Y-63997044D01*
X145217455Y-63997047D01*
X145332664Y-64083293D01*
X145332671Y-64083297D01*
X145377618Y-64100061D01*
X145467517Y-64133591D01*
X145527127Y-64140000D01*
X145700500Y-64139999D01*
X145767539Y-64159683D01*
X145813294Y-64212487D01*
X145824500Y-64263999D01*
X145824500Y-72867923D01*
X145804815Y-72934962D01*
X145788181Y-72955604D01*
X143635202Y-75108583D01*
X143573879Y-75142068D01*
X143504187Y-75137084D01*
X143448254Y-75095212D01*
X143423837Y-75029748D01*
X143423521Y-75020902D01*
X143423521Y-74827648D01*
X143391498Y-74625465D01*
X143331432Y-74440602D01*
X143328241Y-74430781D01*
X143328239Y-74430778D01*
X143328239Y-74430776D01*
X143275978Y-74328210D01*
X143235308Y-74248390D01*
X143185812Y-74180264D01*
X143114992Y-74082786D01*
X142970234Y-73938028D01*
X142804635Y-73817715D01*
X142798027Y-73814348D01*
X142711938Y-73770483D01*
X142661144Y-73722511D01*
X142644349Y-73654690D01*
X142666886Y-73588555D01*
X142711938Y-73549516D01*
X142804631Y-73502287D01*
X142876714Y-73449916D01*
X142970234Y-73381971D01*
X142970236Y-73381968D01*
X142970240Y-73381966D01*
X143114987Y-73237219D01*
X143114989Y-73237215D01*
X143114992Y-73237213D01*
X143197434Y-73123739D01*
X143235308Y-73071610D01*
X143328241Y-72889219D01*
X143391498Y-72694534D01*
X143423521Y-72492352D01*
X143423521Y-72287648D01*
X143391498Y-72085466D01*
X143389015Y-72077825D01*
X143362148Y-71995137D01*
X143328241Y-71890781D01*
X143328239Y-71890778D01*
X143328239Y-71890776D01*
X143276741Y-71789707D01*
X143235308Y-71708390D01*
X143213381Y-71678210D01*
X143114992Y-71542786D01*
X142970240Y-71398034D01*
X142933951Y-71371669D01*
X142891285Y-71316339D01*
X142885306Y-71246726D01*
X142917911Y-71184931D01*
X142978749Y-71150573D01*
X142993583Y-71148060D01*
X143030504Y-71144091D01*
X143165349Y-71093797D01*
X143165348Y-71093797D01*
X143165352Y-71093796D01*
X143280567Y-71007546D01*
X143366817Y-70892331D01*
X143417112Y-70757483D01*
X143423521Y-70697873D01*
X143423520Y-69002128D01*
X143417112Y-68942517D01*
X143366817Y-68807669D01*
X143366816Y-68807668D01*
X143366814Y-68807664D01*
X143280568Y-68692455D01*
X143280565Y-68692452D01*
X143165356Y-68606206D01*
X143165349Y-68606202D01*
X143030503Y-68555908D01*
X143030504Y-68555908D01*
X142970904Y-68549501D01*
X142970902Y-68549500D01*
X142970894Y-68549500D01*
X142970886Y-68549500D01*
X141746521Y-68549500D01*
X141679482Y-68529815D01*
X141633727Y-68477011D01*
X141622521Y-68425500D01*
X141622521Y-61928076D01*
X141642206Y-61861037D01*
X141658840Y-61840395D01*
X144062416Y-59436819D01*
X144123739Y-59403334D01*
X144150097Y-59400500D01*
X145139536Y-59400500D01*
X145206575Y-59420185D01*
G37*
%TD.AperFunction*%
%TA.AperFunction,NonConductor*%
G36*
X141114840Y-73236850D02*
G01*
X141159187Y-73265351D01*
X141275807Y-73381971D01*
X141369340Y-73449925D01*
X141441411Y-73502287D01*
X141509023Y-73536737D01*
X141534101Y-73549515D01*
X141584897Y-73597490D01*
X141601692Y-73665311D01*
X141579155Y-73731446D01*
X141534101Y-73770485D01*
X141441407Y-73817715D01*
X141275807Y-73938028D01*
X141131049Y-74082786D01*
X141010736Y-74248386D01*
X140917802Y-74430776D01*
X140854543Y-74625465D01*
X140822521Y-74827648D01*
X140822521Y-75032351D01*
X140854543Y-75234534D01*
X140917802Y-75429223D01*
X140969057Y-75529815D01*
X141006680Y-75603654D01*
X141010736Y-75611613D01*
X141131049Y-75777213D01*
X141275807Y-75921971D01*
X141397369Y-76010289D01*
X141441411Y-76042287D01*
X141502578Y-76073453D01*
X141534101Y-76089515D01*
X141584897Y-76137490D01*
X141601692Y-76205311D01*
X141579155Y-76271446D01*
X141534101Y-76310485D01*
X141441407Y-76357715D01*
X141275807Y-76478028D01*
X141131049Y-76622786D01*
X141010736Y-76788385D01*
X141003904Y-76801795D01*
X140955930Y-76852591D01*
X140893419Y-76869500D01*
X137679039Y-76869500D01*
X137612000Y-76849815D01*
X137566245Y-76797011D01*
X137556301Y-76727853D01*
X137585326Y-76664297D01*
X137591358Y-76657819D01*
X139287584Y-74961593D01*
X140983827Y-73265349D01*
X141045148Y-73231866D01*
X141114840Y-73236850D01*
G37*
%TD.AperFunction*%
%TA.AperFunction,NonConductor*%
G36*
X133881503Y-78770302D02*
G01*
X133907060Y-78783382D01*
X134020814Y-78859390D01*
X134020827Y-78859397D01*
X134145475Y-78911027D01*
X134166503Y-78919737D01*
X134315432Y-78949361D01*
X134321153Y-78950499D01*
X134321156Y-78950500D01*
X134321158Y-78950500D01*
X134478844Y-78950500D01*
X134478845Y-78950499D01*
X134633497Y-78919737D01*
X134779179Y-78859394D01*
X134790332Y-78851941D01*
X134857006Y-78831062D01*
X134924387Y-78849544D01*
X134962326Y-78886151D01*
X134978945Y-78911023D01*
X134978948Y-78911027D01*
X135090445Y-79022524D01*
X135156527Y-79066678D01*
X135221556Y-79110129D01*
X135265922Y-79128505D01*
X135306150Y-79155385D01*
X135688584Y-79537819D01*
X135722069Y-79599142D01*
X135717085Y-79668834D01*
X135675213Y-79724767D01*
X135609749Y-79749184D01*
X135600903Y-79749500D01*
X133817649Y-79749500D01*
X133750610Y-79729815D01*
X133704855Y-79677011D01*
X133694911Y-79607853D01*
X133696031Y-79601310D01*
X133700500Y-79578841D01*
X133700500Y-79421155D01*
X133700499Y-79421153D01*
X133669738Y-79266510D01*
X133669737Y-79266503D01*
X133669735Y-79266498D01*
X133609397Y-79120827D01*
X133609395Y-79120823D01*
X133609394Y-79120821D01*
X133593463Y-79096978D01*
X133583975Y-79066678D01*
X133572881Y-79036933D01*
X133573610Y-79033577D01*
X133572585Y-79030301D01*
X133580984Y-78999682D01*
X133587733Y-78968660D01*
X133590513Y-78964945D01*
X133591069Y-78962921D01*
X133608875Y-78940415D01*
X133750491Y-78798799D01*
X133811811Y-78765318D01*
X133881503Y-78770302D01*
G37*
%TD.AperFunction*%
%TA.AperFunction,NonConductor*%
G36*
X140908021Y-78074787D02*
G01*
X140923227Y-78074136D01*
X140940864Y-78084431D01*
X140960458Y-78090185D01*
X140971356Y-78102230D01*
X140983568Y-78109359D01*
X141003904Y-78138205D01*
X141010736Y-78151614D01*
X141131049Y-78317213D01*
X141275807Y-78461971D01*
X141422114Y-78568267D01*
X141441411Y-78582287D01*
X141532861Y-78628883D01*
X141534101Y-78629515D01*
X141584897Y-78677490D01*
X141601692Y-78745311D01*
X141579155Y-78811446D01*
X141534101Y-78850485D01*
X141441407Y-78897715D01*
X141275807Y-79018028D01*
X141131049Y-79162786D01*
X141010736Y-79328386D01*
X140917802Y-79510776D01*
X140854543Y-79705465D01*
X140822521Y-79907648D01*
X140822521Y-80112351D01*
X140854543Y-80314534D01*
X140917802Y-80509223D01*
X140981712Y-80634653D01*
X141009306Y-80688808D01*
X141010736Y-80691613D01*
X141131049Y-80857213D01*
X141275807Y-81001971D01*
X141427017Y-81111829D01*
X141441411Y-81122287D01*
X141532861Y-81168883D01*
X141534101Y-81169515D01*
X141584897Y-81217490D01*
X141601692Y-81285311D01*
X141579155Y-81351446D01*
X141534101Y-81390485D01*
X141441407Y-81437715D01*
X141275807Y-81558028D01*
X141131049Y-81702786D01*
X141010736Y-81868386D01*
X140917802Y-82050776D01*
X140854543Y-82245465D01*
X140822521Y-82447648D01*
X140822521Y-82640903D01*
X140802836Y-82707942D01*
X140750032Y-82753697D01*
X140680874Y-82763641D01*
X140617318Y-82734616D01*
X140610840Y-82728584D01*
X137870611Y-79988355D01*
X137870609Y-79988352D01*
X137751738Y-79869481D01*
X137751737Y-79869480D01*
X137664925Y-79819360D01*
X137664925Y-79819359D01*
X137664921Y-79819358D01*
X137643262Y-79806852D01*
X137612498Y-79789090D01*
X137564283Y-79738522D01*
X137550500Y-79681704D01*
X137550500Y-79671155D01*
X137550499Y-79671153D01*
X137519738Y-79516510D01*
X137519737Y-79516503D01*
X137517365Y-79510776D01*
X137459397Y-79370827D01*
X137459390Y-79370814D01*
X137371789Y-79239711D01*
X137371786Y-79239707D01*
X137260292Y-79128213D01*
X137260288Y-79128210D01*
X137129185Y-79040609D01*
X137129172Y-79040602D01*
X136983501Y-78980264D01*
X136983491Y-78980261D01*
X136828149Y-78949361D01*
X136766238Y-78916976D01*
X136764660Y-78915425D01*
X136436086Y-78586851D01*
X136402601Y-78525528D01*
X136402250Y-78485800D01*
X136400638Y-78485642D01*
X136401235Y-78479579D01*
X136401235Y-78321890D01*
X136380707Y-78218692D01*
X136386934Y-78149100D01*
X136429797Y-78093923D01*
X136495686Y-78070678D01*
X136502324Y-78070500D01*
X140893419Y-78070500D01*
X140908021Y-78074787D01*
G37*
%TD.AperFunction*%
%TA.AperFunction,NonConductor*%
G36*
X137149963Y-80970185D02*
G01*
X137170605Y-80986819D01*
X140828943Y-84645157D01*
X140862428Y-84706480D01*
X140859194Y-84771155D01*
X140854543Y-84785468D01*
X140822521Y-84987648D01*
X140822521Y-85192351D01*
X140854543Y-85394534D01*
X140917802Y-85589223D01*
X141010736Y-85771613D01*
X141131049Y-85937213D01*
X141275807Y-86081971D01*
X141430770Y-86194556D01*
X141441411Y-86202287D01*
X141532861Y-86248883D01*
X141534101Y-86249515D01*
X141584897Y-86297490D01*
X141601692Y-86365311D01*
X141579155Y-86431446D01*
X141534101Y-86470485D01*
X141441407Y-86517715D01*
X141275807Y-86638028D01*
X141131049Y-86782786D01*
X141010736Y-86948386D01*
X140917802Y-87130776D01*
X140854543Y-87325465D01*
X140822521Y-87527648D01*
X140822521Y-87732351D01*
X140854544Y-87934535D01*
X140854544Y-87934538D01*
X140904142Y-88087182D01*
X140906137Y-88157023D01*
X140870057Y-88216856D01*
X140807356Y-88247684D01*
X140786211Y-88249500D01*
X135067649Y-88249500D01*
X135000610Y-88229815D01*
X134954855Y-88177011D01*
X134944911Y-88107853D01*
X134946031Y-88101310D01*
X134950500Y-88078841D01*
X134950500Y-87921155D01*
X134950499Y-87921153D01*
X134924439Y-87790142D01*
X134919737Y-87766503D01*
X134919735Y-87766498D01*
X134859397Y-87620827D01*
X134859390Y-87620814D01*
X134771398Y-87489125D01*
X134750520Y-87422447D01*
X134750500Y-87420234D01*
X134750500Y-83939060D01*
X134750501Y-83939047D01*
X134750501Y-83770944D01*
X134734041Y-83709515D01*
X134709577Y-83618216D01*
X134692216Y-83588146D01*
X134630524Y-83481290D01*
X134630518Y-83481282D01*
X132985308Y-81836072D01*
X132951823Y-81774749D01*
X132951372Y-81772582D01*
X132949542Y-81763380D01*
X132920472Y-81617238D01*
X132894848Y-81555375D01*
X132860132Y-81471562D01*
X132860125Y-81471549D01*
X132772524Y-81340446D01*
X132772521Y-81340442D01*
X132661027Y-81228948D01*
X132661023Y-81228945D01*
X132584183Y-81177602D01*
X132539378Y-81123990D01*
X132530671Y-81054665D01*
X132560825Y-80991637D01*
X132620269Y-80954918D01*
X132653074Y-80950500D01*
X137082924Y-80950500D01*
X137149963Y-80970185D01*
G37*
%TD.AperFunction*%
%TA.AperFunction,NonConductor*%
G36*
X147230703Y-65430384D02*
G01*
X147237177Y-65436412D01*
X147881284Y-66080520D01*
X147881286Y-66080521D01*
X147881290Y-66080524D01*
X148018209Y-66159573D01*
X148018216Y-66159577D01*
X148111971Y-66184699D01*
X148167557Y-66216792D01*
X154705139Y-72754374D01*
X154705149Y-72754385D01*
X154709479Y-72758715D01*
X154709480Y-72758716D01*
X154821284Y-72870520D01*
X154905751Y-72919286D01*
X154908095Y-72920639D01*
X154908097Y-72920641D01*
X154932902Y-72934962D01*
X154958215Y-72949577D01*
X155110943Y-72990500D01*
X155269057Y-72990500D01*
X156133419Y-72990500D01*
X156200458Y-73010185D01*
X156243903Y-73058204D01*
X156248355Y-73066941D01*
X156250736Y-73071614D01*
X156371049Y-73237213D01*
X156515807Y-73381971D01*
X156609340Y-73449925D01*
X156681411Y-73502287D01*
X156749023Y-73536737D01*
X156774101Y-73549515D01*
X156824897Y-73597490D01*
X156841692Y-73665311D01*
X156819155Y-73731446D01*
X156774101Y-73770485D01*
X156681407Y-73817715D01*
X156515807Y-73938028D01*
X156371049Y-74082786D01*
X156250736Y-74248386D01*
X156157802Y-74430776D01*
X156094543Y-74625465D01*
X156062521Y-74827648D01*
X156062521Y-75032351D01*
X156094543Y-75234534D01*
X156157802Y-75429223D01*
X156209057Y-75529815D01*
X156246680Y-75603654D01*
X156250736Y-75611613D01*
X156371049Y-75777213D01*
X156515807Y-75921971D01*
X156637369Y-76010289D01*
X156681411Y-76042287D01*
X156742578Y-76073453D01*
X156774101Y-76089515D01*
X156824897Y-76137490D01*
X156841692Y-76205311D01*
X156819155Y-76271446D01*
X156774101Y-76310485D01*
X156681407Y-76357715D01*
X156515807Y-76478028D01*
X156371049Y-76622786D01*
X156250736Y-76788386D01*
X156157802Y-76970776D01*
X156094543Y-77165465D01*
X156062521Y-77367648D01*
X156062521Y-77572351D01*
X156094543Y-77774534D01*
X156157802Y-77969223D01*
X156219436Y-78090185D01*
X156249455Y-78149100D01*
X156250736Y-78151613D01*
X156371049Y-78317213D01*
X156515807Y-78461971D01*
X156662114Y-78568267D01*
X156681411Y-78582287D01*
X156772861Y-78628883D01*
X156774101Y-78629515D01*
X156824897Y-78677490D01*
X156841692Y-78745311D01*
X156819155Y-78811446D01*
X156774101Y-78850485D01*
X156681407Y-78897715D01*
X156515807Y-79018028D01*
X156371049Y-79162786D01*
X156250736Y-79328386D01*
X156157802Y-79510776D01*
X156094543Y-79705465D01*
X156062521Y-79907648D01*
X156062521Y-80112351D01*
X156094543Y-80314534D01*
X156157802Y-80509223D01*
X156221712Y-80634653D01*
X156249306Y-80688808D01*
X156250736Y-80691613D01*
X156371049Y-80857213D01*
X156515807Y-81001971D01*
X156667017Y-81111829D01*
X156681411Y-81122287D01*
X156772861Y-81168883D01*
X156774101Y-81169515D01*
X156824897Y-81217490D01*
X156841692Y-81285311D01*
X156819155Y-81351446D01*
X156774101Y-81390485D01*
X156681407Y-81437715D01*
X156515807Y-81558028D01*
X156371049Y-81702786D01*
X156250736Y-81868386D01*
X156157802Y-82050776D01*
X156094543Y-82245465D01*
X156062521Y-82447648D01*
X156062521Y-82652351D01*
X156094543Y-82854534D01*
X156157802Y-83049223D01*
X156221712Y-83174653D01*
X156245728Y-83221786D01*
X156250736Y-83231613D01*
X156371049Y-83397213D01*
X156515807Y-83541971D01*
X156670770Y-83654556D01*
X156681411Y-83662287D01*
X156766396Y-83705589D01*
X156774101Y-83709515D01*
X156824897Y-83757490D01*
X156841692Y-83825311D01*
X156819155Y-83891446D01*
X156774101Y-83930485D01*
X156681407Y-83977715D01*
X156515807Y-84098028D01*
X156371049Y-84242786D01*
X156250736Y-84408386D01*
X156157802Y-84590776D01*
X156094543Y-84785465D01*
X156062521Y-84987648D01*
X156062521Y-85192351D01*
X156094543Y-85394534D01*
X156157802Y-85589223D01*
X156250736Y-85771613D01*
X156371049Y-85937213D01*
X156515807Y-86081971D01*
X156670770Y-86194556D01*
X156681411Y-86202287D01*
X156772861Y-86248883D01*
X156774101Y-86249515D01*
X156824897Y-86297490D01*
X156841692Y-86365311D01*
X156819155Y-86431446D01*
X156774101Y-86470485D01*
X156681407Y-86517715D01*
X156515807Y-86638028D01*
X156371049Y-86782786D01*
X156250736Y-86948386D01*
X156157802Y-87130776D01*
X156094543Y-87325465D01*
X156062521Y-87527648D01*
X156062521Y-87732351D01*
X156094543Y-87934534D01*
X156157802Y-88129223D01*
X156250736Y-88311613D01*
X156371049Y-88477213D01*
X156515807Y-88621971D01*
X156670770Y-88734556D01*
X156681411Y-88742287D01*
X156772861Y-88788883D01*
X156774101Y-88789515D01*
X156824897Y-88837490D01*
X156841692Y-88905311D01*
X156819155Y-88971446D01*
X156774101Y-89010485D01*
X156681407Y-89057715D01*
X156515807Y-89178028D01*
X156371049Y-89322786D01*
X156250736Y-89488386D01*
X156157802Y-89670776D01*
X156094543Y-89865465D01*
X156062521Y-90067648D01*
X156062521Y-90272351D01*
X156094543Y-90474534D01*
X156157802Y-90669223D01*
X156221712Y-90794653D01*
X156229681Y-90810292D01*
X156250736Y-90851613D01*
X156371049Y-91017213D01*
X156515807Y-91161971D01*
X156670770Y-91274556D01*
X156681411Y-91282287D01*
X156772861Y-91328883D01*
X156774101Y-91329515D01*
X156824897Y-91377490D01*
X156841692Y-91445311D01*
X156819155Y-91511446D01*
X156774101Y-91550485D01*
X156681407Y-91597715D01*
X156515807Y-91718028D01*
X156371049Y-91862786D01*
X156250736Y-92028385D01*
X156243904Y-92041795D01*
X156195930Y-92092591D01*
X156133419Y-92109500D01*
X153254078Y-92109500D01*
X153187039Y-92089815D01*
X153141284Y-92037011D01*
X153131340Y-91967853D01*
X153150976Y-91916609D01*
X153209390Y-91829185D01*
X153209390Y-91829184D01*
X153209394Y-91829179D01*
X153269737Y-91683497D01*
X153300500Y-91528842D01*
X153300500Y-91371158D01*
X153300500Y-91371155D01*
X153300499Y-91371153D01*
X153299982Y-91368555D01*
X153269737Y-91216503D01*
X153251793Y-91173182D01*
X153209397Y-91070827D01*
X153209390Y-91070814D01*
X153121398Y-90939125D01*
X153100520Y-90872447D01*
X153100500Y-90870234D01*
X153100500Y-72620942D01*
X153097489Y-72609707D01*
X153097488Y-72609704D01*
X153065345Y-72489744D01*
X153059577Y-72468216D01*
X153059576Y-72468215D01*
X153059576Y-72468213D01*
X152980524Y-72331290D01*
X152980518Y-72331282D01*
X152934573Y-72285337D01*
X152901088Y-72224014D01*
X152900637Y-72221847D01*
X152885324Y-72144864D01*
X152869737Y-72066503D01*
X152869735Y-72066498D01*
X152809397Y-71920827D01*
X152809390Y-71920814D01*
X152721789Y-71789711D01*
X152721786Y-71789707D01*
X152610292Y-71678213D01*
X152610288Y-71678210D01*
X152479185Y-71590609D01*
X152479172Y-71590602D01*
X152333501Y-71530264D01*
X152333489Y-71530261D01*
X152178845Y-71499500D01*
X152178842Y-71499500D01*
X152021158Y-71499500D01*
X152021155Y-71499500D01*
X151866510Y-71530261D01*
X151866498Y-71530264D01*
X151720827Y-71590602D01*
X151720814Y-71590609D01*
X151589711Y-71678210D01*
X151589707Y-71678213D01*
X151478213Y-71789707D01*
X151478210Y-71789711D01*
X151390609Y-71920814D01*
X151390602Y-71920827D01*
X151330264Y-72066498D01*
X151330261Y-72066510D01*
X151299500Y-72221153D01*
X151299500Y-72378846D01*
X151330261Y-72533489D01*
X151330264Y-72533501D01*
X151390602Y-72679172D01*
X151390609Y-72679185D01*
X151478210Y-72810288D01*
X151478213Y-72810292D01*
X151589707Y-72921786D01*
X151589711Y-72921789D01*
X151720814Y-73009390D01*
X151720827Y-73009397D01*
X151822952Y-73051698D01*
X151877356Y-73095538D01*
X151899421Y-73161833D01*
X151899500Y-73166259D01*
X151899500Y-74818059D01*
X151879815Y-74885098D01*
X151827011Y-74930853D01*
X151757853Y-74940797D01*
X151694297Y-74911772D01*
X151687819Y-74905740D01*
X151660292Y-74878213D01*
X151660288Y-74878210D01*
X151529185Y-74790609D01*
X151529172Y-74790602D01*
X151383501Y-74730264D01*
X151383489Y-74730261D01*
X151228845Y-74699500D01*
X151228842Y-74699500D01*
X151071158Y-74699500D01*
X151071155Y-74699500D01*
X150916510Y-74730261D01*
X150916498Y-74730264D01*
X150770827Y-74790602D01*
X150770814Y-74790609D01*
X150639711Y-74878210D01*
X150639707Y-74878213D01*
X150528213Y-74989707D01*
X150528210Y-74989711D01*
X150440609Y-75120814D01*
X150440602Y-75120827D01*
X150380264Y-75266498D01*
X150380261Y-75266510D01*
X150349500Y-75421153D01*
X150349500Y-75578846D01*
X150380261Y-75733489D01*
X150380264Y-75733501D01*
X150440602Y-75879172D01*
X150440609Y-75879185D01*
X150528210Y-76010288D01*
X150528213Y-76010292D01*
X150639707Y-76121786D01*
X150639711Y-76121789D01*
X150770814Y-76209390D01*
X150770827Y-76209397D01*
X150916498Y-76269735D01*
X150916503Y-76269737D01*
X151010645Y-76288463D01*
X151050691Y-76296429D01*
X151112602Y-76328814D01*
X151147176Y-76389529D01*
X151150500Y-76418046D01*
X151150500Y-81802441D01*
X151130815Y-81869480D01*
X151078011Y-81915235D01*
X151008853Y-81925179D01*
X151002309Y-81924058D01*
X150878846Y-81899500D01*
X150878842Y-81899500D01*
X150721158Y-81899500D01*
X150721155Y-81899500D01*
X150566510Y-81930261D01*
X150566498Y-81930264D01*
X150420827Y-81990602D01*
X150420814Y-81990609D01*
X150289711Y-82078210D01*
X150289707Y-82078213D01*
X150178213Y-82189707D01*
X150178210Y-82189711D01*
X150090609Y-82320814D01*
X150090602Y-82320827D01*
X150030264Y-82466498D01*
X150030261Y-82466510D01*
X149999500Y-82621153D01*
X149999500Y-82778846D01*
X150030261Y-82933489D01*
X150030264Y-82933501D01*
X150090061Y-83077864D01*
X150099500Y-83125316D01*
X150099500Y-91070234D01*
X150079815Y-91137273D01*
X150078602Y-91139125D01*
X149990609Y-91270814D01*
X149990602Y-91270827D01*
X149930264Y-91416498D01*
X149930261Y-91416510D01*
X149899500Y-91571153D01*
X149899500Y-91728846D01*
X149930261Y-91883489D01*
X149930264Y-91883501D01*
X149952858Y-91938048D01*
X149960327Y-92007518D01*
X149929051Y-92069997D01*
X149868962Y-92105648D01*
X149838297Y-92109500D01*
X147160097Y-92109500D01*
X147093058Y-92089815D01*
X147072416Y-92073181D01*
X146233740Y-91234505D01*
X146200255Y-91173182D01*
X146205239Y-91103490D01*
X146247111Y-91047557D01*
X146273969Y-91032263D01*
X146329172Y-91009397D01*
X146329172Y-91009396D01*
X146329179Y-91009394D01*
X146460289Y-90921789D01*
X146571789Y-90810289D01*
X146659394Y-90679179D01*
X146719737Y-90533497D01*
X146750500Y-90378842D01*
X146750500Y-90221158D01*
X146750500Y-90221155D01*
X146750499Y-90221153D01*
X146738738Y-90162026D01*
X146719737Y-90066503D01*
X146719735Y-90066498D01*
X146659397Y-89920827D01*
X146659390Y-89920814D01*
X146571398Y-89789125D01*
X146550520Y-89722447D01*
X146550500Y-89720234D01*
X146550500Y-77800097D01*
X146570185Y-77733058D01*
X146586819Y-77712416D01*
X147548735Y-76750500D01*
X148514664Y-75784571D01*
X148575985Y-75751088D01*
X148578152Y-75750637D01*
X148578841Y-75750500D01*
X148578842Y-75750500D01*
X148733497Y-75719737D01*
X148879179Y-75659394D01*
X149010289Y-75571789D01*
X149121789Y-75460289D01*
X149209394Y-75329179D01*
X149212854Y-75320827D01*
X149255592Y-75217646D01*
X149269737Y-75183497D01*
X149300500Y-75028842D01*
X149300500Y-74871158D01*
X149300500Y-74871155D01*
X149300499Y-74871153D01*
X149285294Y-74794714D01*
X149269737Y-74716503D01*
X149269735Y-74716498D01*
X149209397Y-74570827D01*
X149209390Y-74570814D01*
X149121789Y-74439711D01*
X149121786Y-74439707D01*
X149010292Y-74328213D01*
X149010288Y-74328210D01*
X148879185Y-74240609D01*
X148879172Y-74240602D01*
X148733501Y-74180264D01*
X148733489Y-74180261D01*
X148578845Y-74149500D01*
X148578842Y-74149500D01*
X148421158Y-74149500D01*
X148421155Y-74149500D01*
X148266510Y-74180261D01*
X148266498Y-74180264D01*
X148120827Y-74240602D01*
X148120814Y-74240609D01*
X147989711Y-74328210D01*
X147989707Y-74328213D01*
X147878217Y-74439704D01*
X147878213Y-74439708D01*
X147869819Y-74452270D01*
X147816204Y-74497072D01*
X147746878Y-74505776D01*
X147697829Y-74486476D01*
X147629185Y-74440609D01*
X147629172Y-74440602D01*
X147483501Y-74380264D01*
X147483489Y-74380261D01*
X147328845Y-74349500D01*
X147328842Y-74349500D01*
X147171158Y-74349500D01*
X147171155Y-74349500D01*
X147016510Y-74380261D01*
X147016498Y-74380264D01*
X146870827Y-74440602D01*
X146870814Y-74440609D01*
X146739711Y-74528210D01*
X146739707Y-74528213D01*
X146628213Y-74639707D01*
X146628210Y-74639711D01*
X146540609Y-74770814D01*
X146540602Y-74770827D01*
X146480264Y-74916498D01*
X146480261Y-74916508D01*
X146449361Y-75071850D01*
X146416976Y-75133761D01*
X146415425Y-75135339D01*
X144269481Y-77281282D01*
X144269479Y-77281284D01*
X144241797Y-77329232D01*
X144230096Y-77349500D01*
X144190423Y-77418215D01*
X144149499Y-77570943D01*
X144149499Y-77570945D01*
X144149499Y-77739046D01*
X144149500Y-77739059D01*
X144149500Y-82020234D01*
X144129815Y-82087273D01*
X144128602Y-82089125D01*
X144040609Y-82220814D01*
X144040602Y-82220827D01*
X143980264Y-82366498D01*
X143980261Y-82366510D01*
X143949500Y-82521153D01*
X143949500Y-82678846D01*
X143980261Y-82833489D01*
X143980264Y-82833501D01*
X144040602Y-82979172D01*
X144040609Y-82979185D01*
X144128210Y-83110288D01*
X144128213Y-83110292D01*
X144239707Y-83221786D01*
X144239711Y-83221789D01*
X144370814Y-83309390D01*
X144370827Y-83309397D01*
X144446280Y-83340650D01*
X144516503Y-83369737D01*
X144671153Y-83400499D01*
X144671156Y-83400500D01*
X144671158Y-83400500D01*
X144828844Y-83400500D01*
X144828845Y-83400499D01*
X144983497Y-83369737D01*
X145129179Y-83309394D01*
X145129184Y-83309390D01*
X145129187Y-83309389D01*
X145156608Y-83291067D01*
X145223285Y-83270188D01*
X145290666Y-83288672D01*
X145337356Y-83340650D01*
X145349500Y-83394168D01*
X145349500Y-89720234D01*
X145345210Y-89736013D01*
X145345788Y-89750347D01*
X145334211Y-89776467D01*
X145332431Y-89783017D01*
X145328912Y-89789009D01*
X145328211Y-89789711D01*
X145240606Y-89920821D01*
X145214457Y-89983949D01*
X145210106Y-89991361D01*
X145190644Y-90009648D01*
X145173893Y-90030435D01*
X145165578Y-90033202D01*
X145159189Y-90039206D01*
X145132931Y-90044067D01*
X145107599Y-90052499D01*
X145099105Y-90050331D01*
X145090487Y-90051927D01*
X145065772Y-90041822D01*
X145039900Y-90035219D01*
X145029102Y-90026830D01*
X145025813Y-90025486D01*
X145023948Y-90022827D01*
X145015494Y-90016259D01*
X143487590Y-88488355D01*
X143487588Y-88488352D01*
X143368717Y-88369481D01*
X143368712Y-88369477D01*
X143344754Y-88355645D01*
X143296538Y-88305078D01*
X143283316Y-88236471D01*
X143296267Y-88191969D01*
X143328241Y-88129219D01*
X143391498Y-87934534D01*
X143423521Y-87732352D01*
X143423521Y-87527648D01*
X143410970Y-87448407D01*
X143391498Y-87325465D01*
X143328239Y-87130776D01*
X143281099Y-87038260D01*
X143235308Y-86948390D01*
X143159017Y-86843383D01*
X143114992Y-86782786D01*
X142970234Y-86638028D01*
X142804635Y-86517715D01*
X142798027Y-86514348D01*
X142711938Y-86470483D01*
X142661144Y-86422511D01*
X142644349Y-86354690D01*
X142666886Y-86288555D01*
X142711938Y-86249516D01*
X142804631Y-86202287D01*
X142875712Y-86150644D01*
X142970234Y-86081971D01*
X142970236Y-86081968D01*
X142970240Y-86081966D01*
X143114987Y-85937219D01*
X143114989Y-85937215D01*
X143114992Y-85937213D01*
X143167753Y-85864590D01*
X143235308Y-85771610D01*
X143328241Y-85589219D01*
X143391498Y-85394534D01*
X143423521Y-85192352D01*
X143423521Y-84987648D01*
X143410134Y-84903126D01*
X143391498Y-84785465D01*
X143328239Y-84590776D01*
X143294524Y-84524607D01*
X143235308Y-84408390D01*
X143227577Y-84397749D01*
X143114992Y-84242786D01*
X142970234Y-84098028D01*
X142804635Y-83977715D01*
X142728770Y-83939060D01*
X142711938Y-83930483D01*
X142661144Y-83882511D01*
X142644349Y-83814690D01*
X142666886Y-83748555D01*
X142711938Y-83709516D01*
X142804631Y-83662287D01*
X142906677Y-83588147D01*
X142970234Y-83541971D01*
X142970236Y-83541968D01*
X142970240Y-83541966D01*
X143114987Y-83397219D01*
X143114989Y-83397215D01*
X143114992Y-83397213D01*
X143193850Y-83288672D01*
X143235308Y-83231610D01*
X143328241Y-83049219D01*
X143391498Y-82854534D01*
X143423521Y-82652352D01*
X143423521Y-82447648D01*
X143394093Y-82261851D01*
X143391498Y-82245465D01*
X143340890Y-82089711D01*
X143328241Y-82050781D01*
X143328239Y-82050778D01*
X143328239Y-82050776D01*
X143281099Y-81958260D01*
X143235308Y-81868390D01*
X143211828Y-81836072D01*
X143114992Y-81702786D01*
X142970234Y-81558028D01*
X142804635Y-81437715D01*
X142760937Y-81415450D01*
X142711938Y-81390483D01*
X142661144Y-81342511D01*
X142644349Y-81274690D01*
X142666886Y-81208555D01*
X142711938Y-81169516D01*
X142804631Y-81122287D01*
X142825791Y-81106913D01*
X142970234Y-81001971D01*
X142970236Y-81001968D01*
X142970240Y-81001966D01*
X143114987Y-80857219D01*
X143114989Y-80857215D01*
X143114992Y-80857213D01*
X143205856Y-80732147D01*
X143235308Y-80691610D01*
X143328241Y-80509219D01*
X143391498Y-80314534D01*
X143423521Y-80112352D01*
X143423521Y-79907648D01*
X143402225Y-79773191D01*
X143391498Y-79705465D01*
X143330100Y-79516503D01*
X143328241Y-79510781D01*
X143328239Y-79510778D01*
X143328239Y-79510776D01*
X143294524Y-79444607D01*
X143235308Y-79328390D01*
X143190345Y-79266503D01*
X143114992Y-79162786D01*
X142970234Y-79018028D01*
X142804635Y-78897715D01*
X142768128Y-78879114D01*
X142711938Y-78850483D01*
X142661144Y-78802511D01*
X142644349Y-78734690D01*
X142666886Y-78668555D01*
X142711938Y-78629516D01*
X142804631Y-78582287D01*
X142892906Y-78518152D01*
X142970234Y-78461971D01*
X142970236Y-78461968D01*
X142970240Y-78461966D01*
X143114987Y-78317219D01*
X143114989Y-78317215D01*
X143114992Y-78317213D01*
X143186570Y-78218692D01*
X143235308Y-78151610D01*
X143328241Y-77969219D01*
X143391498Y-77774534D01*
X143423521Y-77572352D01*
X143423521Y-77367648D01*
X143391498Y-77165466D01*
X143386846Y-77151151D01*
X143384853Y-77081312D01*
X143417096Y-77025158D01*
X146793713Y-73648542D01*
X146793716Y-73648541D01*
X146905520Y-73536737D01*
X146955639Y-73449925D01*
X146984577Y-73399806D01*
X147025501Y-73247078D01*
X147025501Y-73088964D01*
X147025501Y-73081369D01*
X147025500Y-73081351D01*
X147025500Y-65524097D01*
X147045185Y-65457058D01*
X147097989Y-65411303D01*
X147167147Y-65401359D01*
X147230703Y-65430384D01*
G37*
%TD.AperFunction*%
%TA.AperFunction,NonConductor*%
G36*
X146095450Y-92800132D02*
G01*
X146119860Y-92819095D01*
X146140605Y-92839840D01*
X146174090Y-92901163D01*
X146169106Y-92970855D01*
X146156026Y-92996412D01*
X146090609Y-93094314D01*
X146090602Y-93094327D01*
X146039061Y-93218761D01*
X146031989Y-93227535D01*
X146028815Y-93238348D01*
X146010460Y-93254251D01*
X145995220Y-93273165D01*
X145984526Y-93276724D01*
X145976011Y-93284103D01*
X145951971Y-93287559D01*
X145928926Y-93295230D01*
X145918007Y-93292443D01*
X145906853Y-93294047D01*
X145884759Y-93283957D01*
X145861227Y-93277951D01*
X145853548Y-93269703D01*
X145843297Y-93265022D01*
X145830166Y-93244589D01*
X145813616Y-93226814D01*
X145810634Y-93214198D01*
X145805523Y-93206244D01*
X145800500Y-93171309D01*
X145800500Y-93079765D01*
X145820185Y-93012726D01*
X145821398Y-93010874D01*
X145853246Y-92963211D01*
X145909394Y-92879179D01*
X145917617Y-92859325D01*
X145961456Y-92804922D01*
X146027750Y-92782855D01*
X146095450Y-92800132D01*
G37*
%TD.AperFunction*%
%TA.AperFunction,NonConductor*%
G36*
X143565007Y-90284508D02*
G01*
X143616058Y-90315293D01*
X144880904Y-91580139D01*
X144914389Y-91641462D01*
X144909405Y-91711154D01*
X144867533Y-91767087D01*
X144840678Y-91782380D01*
X144820826Y-91790603D01*
X144820814Y-91790609D01*
X144689711Y-91878210D01*
X144689707Y-91878213D01*
X144578213Y-91989707D01*
X144578210Y-91989711D01*
X144490609Y-92120814D01*
X144490602Y-92120827D01*
X144430264Y-92266498D01*
X144430261Y-92266510D01*
X144399500Y-92421153D01*
X144399500Y-92578846D01*
X144430261Y-92733489D01*
X144430264Y-92733501D01*
X144490602Y-92879172D01*
X144490609Y-92879185D01*
X144578602Y-93010874D01*
X144599480Y-93077551D01*
X144599500Y-93079765D01*
X144599500Y-94412923D01*
X144579815Y-94479962D01*
X144563181Y-94500604D01*
X143635202Y-95428583D01*
X143573879Y-95462068D01*
X143504187Y-95457084D01*
X143448254Y-95415212D01*
X143423837Y-95349748D01*
X143423521Y-95340902D01*
X143423521Y-95147648D01*
X143391498Y-94945465D01*
X143341659Y-94792077D01*
X143328241Y-94750781D01*
X143328239Y-94750778D01*
X143328239Y-94750776D01*
X143294524Y-94684607D01*
X143235308Y-94568390D01*
X143186059Y-94500604D01*
X143114992Y-94402786D01*
X142970234Y-94258028D01*
X142804635Y-94137715D01*
X142798027Y-94134348D01*
X142711938Y-94090483D01*
X142661144Y-94042511D01*
X142644349Y-93974690D01*
X142666886Y-93908555D01*
X142711938Y-93869516D01*
X142804631Y-93822287D01*
X142868767Y-93775690D01*
X142970234Y-93701971D01*
X142970236Y-93701968D01*
X142970240Y-93701966D01*
X143114987Y-93557219D01*
X143114989Y-93557215D01*
X143114992Y-93557213D01*
X143167753Y-93484590D01*
X143235308Y-93391610D01*
X143328241Y-93209219D01*
X143391498Y-93014534D01*
X143423521Y-92812352D01*
X143423521Y-92607648D01*
X143401167Y-92466510D01*
X143391498Y-92405465D01*
X143346346Y-92266503D01*
X143328241Y-92210781D01*
X143328239Y-92210778D01*
X143328239Y-92210776D01*
X143281099Y-92118260D01*
X143235308Y-92028390D01*
X143207854Y-91990602D01*
X143114992Y-91862786D01*
X142970234Y-91718028D01*
X142804635Y-91597715D01*
X142770140Y-91580139D01*
X142711938Y-91550483D01*
X142661144Y-91502511D01*
X142644349Y-91434690D01*
X142666886Y-91368555D01*
X142711938Y-91329516D01*
X142804631Y-91282287D01*
X142830096Y-91263786D01*
X142970234Y-91161971D01*
X142970236Y-91161968D01*
X142970240Y-91161966D01*
X143114987Y-91017219D01*
X143114989Y-91017215D01*
X143114992Y-91017213D01*
X143184320Y-90921789D01*
X143235308Y-90851610D01*
X143328241Y-90669219D01*
X143391498Y-90474534D01*
X143405904Y-90383575D01*
X143435833Y-90320442D01*
X143495144Y-90283510D01*
X143565007Y-90284508D01*
G37*
%TD.AperFunction*%
%TA.AperFunction,NonConductor*%
G36*
X146005703Y-93681977D02*
G01*
X146039061Y-93728238D01*
X146090602Y-93852672D01*
X146090609Y-93852685D01*
X146178602Y-93984374D01*
X146199480Y-94051051D01*
X146199500Y-94053265D01*
X146199500Y-95352923D01*
X146179815Y-95419962D01*
X146163181Y-95440604D01*
X143635202Y-97968583D01*
X143573879Y-98002068D01*
X143504187Y-97997084D01*
X143448254Y-97955212D01*
X143423837Y-97889748D01*
X143423521Y-97880902D01*
X143423521Y-97687648D01*
X143391499Y-97485472D01*
X143391498Y-97485471D01*
X143391498Y-97485466D01*
X143386846Y-97471151D01*
X143384853Y-97401312D01*
X143417096Y-97345158D01*
X145558506Y-95203749D01*
X145558511Y-95203745D01*
X145568714Y-95193541D01*
X145568716Y-95193541D01*
X145680520Y-95081737D01*
X145759577Y-94944805D01*
X145800500Y-94792078D01*
X145800500Y-93775690D01*
X145820185Y-93708651D01*
X145872989Y-93662896D01*
X145942147Y-93652952D01*
X146005703Y-93681977D01*
G37*
%TD.AperFunction*%
%TA.AperFunction,NonConductor*%
G36*
X156200458Y-93330185D02*
G01*
X156243904Y-93378205D01*
X156250736Y-93391614D01*
X156371049Y-93557213D01*
X156515807Y-93701971D01*
X156617275Y-93775690D01*
X156681411Y-93822287D01*
X156764194Y-93864467D01*
X156774101Y-93869515D01*
X156824897Y-93917490D01*
X156841692Y-93985311D01*
X156819155Y-94051446D01*
X156774101Y-94090485D01*
X156681407Y-94137715D01*
X156515807Y-94258028D01*
X156371049Y-94402786D01*
X156250736Y-94568386D01*
X156157802Y-94750776D01*
X156094543Y-94945465D01*
X156065274Y-95130264D01*
X156062521Y-95147648D01*
X156062521Y-95352352D01*
X156065066Y-95368422D01*
X156094543Y-95554534D01*
X156157802Y-95749223D01*
X156195912Y-95824016D01*
X156235827Y-95902354D01*
X156250736Y-95931613D01*
X156371049Y-96097213D01*
X156515807Y-96241971D01*
X156663609Y-96349353D01*
X156681411Y-96362287D01*
X156772861Y-96408883D01*
X156774101Y-96409515D01*
X156824897Y-96457490D01*
X156841692Y-96525311D01*
X156819155Y-96591446D01*
X156774101Y-96630485D01*
X156681407Y-96677715D01*
X156515807Y-96798028D01*
X156371049Y-96942786D01*
X156250736Y-97108386D01*
X156157802Y-97290776D01*
X156094543Y-97485465D01*
X156062521Y-97687648D01*
X156062521Y-97892351D01*
X156094543Y-98094534D01*
X156157802Y-98289223D01*
X156250736Y-98471613D01*
X156371049Y-98637213D01*
X156515807Y-98781971D01*
X156648829Y-98878615D01*
X156681411Y-98902287D01*
X156754112Y-98939330D01*
X156774101Y-98949515D01*
X156824897Y-98997490D01*
X156841692Y-99065311D01*
X156819155Y-99131446D01*
X156774101Y-99170485D01*
X156681407Y-99217715D01*
X156515807Y-99338028D01*
X156371049Y-99482786D01*
X156250736Y-99648386D01*
X156157802Y-99830776D01*
X156094543Y-100025465D01*
X156062521Y-100227648D01*
X156062521Y-100432351D01*
X156094543Y-100634534D01*
X156157802Y-100829223D01*
X156250736Y-101011613D01*
X156371049Y-101177213D01*
X156515807Y-101321971D01*
X156670770Y-101434556D01*
X156681411Y-101442287D01*
X156772861Y-101488883D01*
X156774101Y-101489515D01*
X156824897Y-101537490D01*
X156841692Y-101605311D01*
X156819155Y-101671446D01*
X156774101Y-101710485D01*
X156681407Y-101757715D01*
X156515807Y-101878028D01*
X156371049Y-102022786D01*
X156250736Y-102188386D01*
X156157802Y-102370776D01*
X156094543Y-102565465D01*
X156062521Y-102767648D01*
X156062521Y-102960902D01*
X156042836Y-103027941D01*
X155990032Y-103073696D01*
X155920874Y-103083640D01*
X155857318Y-103054615D01*
X155850840Y-103048583D01*
X153186819Y-100384562D01*
X153153334Y-100323239D01*
X153150500Y-100296881D01*
X153150500Y-94053265D01*
X153170185Y-93986226D01*
X153171398Y-93984374D01*
X153218109Y-93914467D01*
X153259394Y-93852679D01*
X153319737Y-93706997D01*
X153350500Y-93552342D01*
X153350500Y-93434500D01*
X153370185Y-93367461D01*
X153422989Y-93321706D01*
X153474500Y-93310500D01*
X156133419Y-93310500D01*
X156200458Y-93330185D01*
G37*
%TD.AperFunction*%
%TA.AperFunction,NonConductor*%
G36*
X142594742Y-120054033D02*
G01*
X142610827Y-120053574D01*
X142627577Y-120063674D01*
X142646343Y-120069185D01*
X142656878Y-120081343D01*
X142670660Y-120089654D01*
X142679291Y-120107209D01*
X142692098Y-120121989D01*
X142694387Y-120137913D01*
X142701488Y-120152355D01*
X142699258Y-120171787D01*
X142702042Y-120191147D01*
X142695358Y-120205782D01*
X142693524Y-120221769D01*
X142681142Y-120236910D01*
X142673017Y-120254703D01*
X142658987Y-120264005D01*
X142649295Y-120275858D01*
X142617623Y-120291431D01*
X142453427Y-120344781D01*
X142271037Y-120437715D01*
X142105437Y-120558028D01*
X141960679Y-120702786D01*
X141840366Y-120868386D01*
X141747432Y-121050776D01*
X141684173Y-121245465D01*
X141652151Y-121447648D01*
X141652151Y-121652351D01*
X141684173Y-121854534D01*
X141688824Y-121868848D01*
X141690816Y-121938690D01*
X141658572Y-121994842D01*
X140200235Y-123453181D01*
X140138912Y-123486666D01*
X140112554Y-123489500D01*
X135584462Y-123489500D01*
X135517423Y-123469815D01*
X135471668Y-123417011D01*
X135461724Y-123347853D01*
X135490749Y-123284297D01*
X135522462Y-123258113D01*
X135593803Y-123216924D01*
X135801851Y-123057282D01*
X135801855Y-123057277D01*
X135801860Y-123057274D01*
X135987274Y-122871860D01*
X135987277Y-122871855D01*
X135987282Y-122871851D01*
X136146924Y-122663803D01*
X136278043Y-122436697D01*
X136291153Y-122405048D01*
X136329886Y-122311538D01*
X136378398Y-122194419D01*
X136446270Y-121941116D01*
X136480500Y-121681120D01*
X136480500Y-121418880D01*
X136446270Y-121158884D01*
X136378398Y-120905581D01*
X136376086Y-120900000D01*
X136278046Y-120663309D01*
X136278041Y-120663299D01*
X136146927Y-120436202D01*
X136146926Y-120436201D01*
X136146924Y-120436197D01*
X136003270Y-120248985D01*
X135978077Y-120183818D01*
X135992115Y-120115373D01*
X136040929Y-120065383D01*
X136101647Y-120049500D01*
X142579304Y-120049500D01*
X142594742Y-120054033D01*
G37*
%TD.AperFunction*%
%TA.AperFunction,NonConductor*%
G36*
X132925392Y-120069185D02*
G01*
X132971147Y-120121989D01*
X132981091Y-120191147D01*
X132956729Y-120248985D01*
X132864306Y-120369433D01*
X132813072Y-120436202D01*
X132681958Y-120663299D01*
X132681953Y-120663309D01*
X132581605Y-120905571D01*
X132581602Y-120905581D01*
X132513960Y-121158028D01*
X132513730Y-121158885D01*
X132479500Y-121418872D01*
X132479500Y-121681127D01*
X132490435Y-121764180D01*
X132513730Y-121941116D01*
X132569705Y-122150019D01*
X132581602Y-122194418D01*
X132581605Y-122194428D01*
X132681953Y-122436690D01*
X132681958Y-122436700D01*
X132813075Y-122663803D01*
X132972718Y-122871851D01*
X132972726Y-122871860D01*
X133158140Y-123057274D01*
X133158148Y-123057281D01*
X133366196Y-123216924D01*
X133437538Y-123258113D01*
X133485754Y-123308680D01*
X133498977Y-123377287D01*
X133473009Y-123442152D01*
X133416095Y-123482680D01*
X133375538Y-123489500D01*
X119444499Y-123489500D01*
X119377460Y-123469815D01*
X119331705Y-123417011D01*
X119320499Y-123365500D01*
X119320499Y-123089629D01*
X119320498Y-123089623D01*
X119320497Y-123089616D01*
X119314091Y-123030017D01*
X119303455Y-123001501D01*
X119263797Y-122895171D01*
X119263793Y-122895164D01*
X119177547Y-122779955D01*
X119177544Y-122779952D01*
X119062335Y-122693706D01*
X119062328Y-122693702D01*
X119034459Y-122683308D01*
X118978525Y-122641437D01*
X118954108Y-122575973D01*
X118968960Y-122507700D01*
X118977460Y-122494260D01*
X119110217Y-122311538D01*
X119214048Y-122107758D01*
X119247311Y-122005385D01*
X119284721Y-121890249D01*
X119284721Y-121890248D01*
X119284722Y-121890245D01*
X119320500Y-121664354D01*
X119320500Y-121435646D01*
X119284722Y-121209755D01*
X119240702Y-121074278D01*
X119238708Y-121004438D01*
X119270951Y-120948282D01*
X120133417Y-120085819D01*
X120194740Y-120052334D01*
X120221098Y-120049500D01*
X132858353Y-120049500D01*
X132925392Y-120069185D01*
G37*
%TD.AperFunction*%
M02*
