%TF.GenerationSoftware,KiCad,Pcbnew,9.0.7*%
%TF.CreationDate,2026-03-09T17:10:56+06:00*%
%TF.ProjectId,Tranceiver_101_PCB,5472616e-6365-4697-9665-725f3130315f,rev?*%
%TF.SameCoordinates,Original*%
%TF.FileFunction,Soldermask,Bot*%
%TF.FilePolarity,Negative*%
%FSLAX46Y46*%
G04 Gerber Fmt 4.6, Leading zero omitted, Abs format (unit mm)*
G04 Created by KiCad (PCBNEW 9.0.7) date 2026-03-09 17:10:56*
%MOMM*%
%LPD*%
G01*
G04 APERTURE LIST*
G04 Aperture macros list*
%AMRoundRect*
0 Rectangle with rounded corners*
0 $1 Rounding radius*
0 $2 $3 $4 $5 $6 $7 $8 $9 X,Y pos of 4 corners*
0 Add a 4 corners polygon primitive as box body*
4,1,4,$2,$3,$4,$5,$6,$7,$8,$9,$2,$3,0*
0 Add four circle primitives for the rounded corners*
1,1,$1+$1,$2,$3*
1,1,$1+$1,$4,$5*
1,1,$1+$1,$6,$7*
1,1,$1+$1,$8,$9*
0 Add four rect primitives between the rounded corners*
20,1,$1+$1,$2,$3,$4,$5,0*
20,1,$1+$1,$4,$5,$6,$7,0*
20,1,$1+$1,$6,$7,$8,$9,0*
20,1,$1+$1,$8,$9,$2,$3,0*%
G04 Aperture macros list end*
%ADD10RoundRect,0.102000X-0.817500X-0.817500X0.817500X-0.817500X0.817500X0.817500X-0.817500X0.817500X0*%
%ADD11C,1.839000*%
%ADD12C,1.982000*%
%ADD13C,2.490000*%
%ADD14R,1.700000X1.700000*%
%ADD15C,1.700000*%
%ADD16R,1.600000X1.600000*%
%ADD17O,1.600000X1.600000*%
%ADD18RoundRect,0.250000X0.550000X0.550000X-0.550000X0.550000X-0.550000X-0.550000X0.550000X-0.550000X0*%
%ADD19C,1.600000*%
%ADD20C,3.500000*%
%ADD21R,2.000000X1.905000*%
%ADD22O,2.000000X1.905000*%
G04 APERTURE END LIST*
D10*
%TO.C,S1*%
X115330000Y-61210000D03*
D11*
X117870000Y-61210000D03*
X120410000Y-61210000D03*
X115330000Y-66290000D03*
X117870000Y-66290000D03*
X120410000Y-66290000D03*
%TD*%
D12*
%TO.C,U2*%
X115205000Y-76150000D03*
X121555000Y-76150000D03*
X115205000Y-81230000D03*
X121555000Y-81230000D03*
X115840000Y-99010000D03*
X118380000Y-99010000D03*
X120920000Y-99010000D03*
D13*
X110760000Y-82182500D03*
X110760000Y-95517500D03*
X126000000Y-95517500D03*
X126000000Y-82182500D03*
D12*
X108220000Y-86310000D03*
X108220000Y-88850000D03*
X108220000Y-91390000D03*
%TD*%
D14*
%TO.C,U5*%
X146425000Y-62789500D03*
D15*
X146425000Y-60249500D03*
X148965000Y-62789500D03*
X148965000Y-60249500D03*
X151505000Y-62789500D03*
X151505000Y-60249500D03*
X154045000Y-62789500D03*
X154045000Y-60249500D03*
%TD*%
D16*
%TO.C,A1*%
X142123021Y-69850000D03*
D17*
X142123021Y-72390000D03*
X142123021Y-74930000D03*
X142123021Y-77470000D03*
X142123021Y-80010000D03*
X142123021Y-82550000D03*
X142123021Y-85090000D03*
X142123021Y-87630000D03*
X142123021Y-90170000D03*
X142123021Y-92710000D03*
X142123021Y-95250000D03*
X142123021Y-97790000D03*
X142123021Y-100330000D03*
X142123021Y-102870000D03*
X142123021Y-105410000D03*
X157363021Y-105410000D03*
X157363021Y-102870000D03*
X157363021Y-100330000D03*
X157363021Y-97790000D03*
X157363021Y-95250000D03*
X157363021Y-92710000D03*
X157363021Y-90170000D03*
X157363021Y-87630000D03*
X157363021Y-85090000D03*
X157363021Y-82550000D03*
X157363021Y-80010000D03*
X157363021Y-77470000D03*
X157363021Y-74930000D03*
X157363021Y-72390000D03*
X157363021Y-69850000D03*
%TD*%
D12*
%TO.C,U3*%
X175275000Y-76100000D03*
X181625000Y-76100000D03*
X175275000Y-81180000D03*
X181625000Y-81180000D03*
X175910000Y-98960000D03*
X178450000Y-98960000D03*
X180990000Y-98960000D03*
D13*
X170830000Y-82132500D03*
X170830000Y-95467500D03*
X186070000Y-95467500D03*
X186070000Y-82132500D03*
D12*
X168290000Y-86260000D03*
X168290000Y-88800000D03*
X168290000Y-91340000D03*
%TD*%
D14*
%TO.C,BATT+1*%
X180659888Y-121250000D03*
D15*
X178119888Y-121250000D03*
%TD*%
D18*
%TO.C,C1*%
X146452651Y-121550000D03*
D19*
X142952651Y-121550000D03*
%TD*%
D18*
%TO.C,C2*%
X156450000Y-121550000D03*
D19*
X154450000Y-121550000D03*
%TD*%
D20*
%TO.C,U4*%
X134480000Y-121550000D03*
D21*
X117820000Y-124090000D03*
D22*
X117820000Y-121550000D03*
X117820000Y-119010000D03*
%TD*%
D19*
%TO.C,C4*%
X163194888Y-122150000D03*
X163194888Y-119650000D03*
%TD*%
%TO.C,C3*%
X167244888Y-122150000D03*
X167244888Y-119650000D03*
%TD*%
M02*
